<mxfile host="65bd71144e">
    <diagram id="BpZqSpKwmdokgaUwp-_Y" name="Page-1">
        <mxGraphModel dx="1124" dy="1927" grid="1" gridSize="10" guides="1" tooltips="1" connect="1" arrows="1" fold="1" page="1" pageScale="1" pageWidth="850" pageHeight="1100" math="0" shadow="0">
            <root>
                <mxCell id="0"/>
                <mxCell id="1" parent="0"/>
                <mxCell id="2" value="" style="shape=image;verticalLabelPosition=bottom;labelBackgroundColor=default;verticalAlign=top;aspect=fixed;imageAspect=0;image=data:image/jpeg,/9j/4AAQSkZJRgABAQAAAQABAAD/2wCEAAUFBQUFBQUGBgUICAcICAsKCQkKCxEMDQwNDBEaEBMQEBMQGhcbFhUWGxcpIBwcICkvJyUnLzkzMzlHREddXX0BBQUFBQUFBQYGBQgIBwgICwoJCQoLEQwNDA0MERoQExAQExAaFxsWFRYbFykgHBwgKS8nJScvOTMzOUdER11dff/CABEIA0ID6AMBIgACEQEDEQH/xAA3AAACAgMBAQEAAAAAAAAAAAAABwYIAgQFAwEJAQEAAgMBAQEAAAAAAAAAAAAABAUCAwYBBwj/2gAMAwEAAhADEAAAALlgAAAAAAAAAAAAAABWUs0V7sCZgAAAAAAAAACccYCyVZaEXUQHoVrcJMwAAAAAAAAPM9AAAAADHIAAAAAAAAAAAAAAAAAAAAAAAAAAAAAAAAAAAAAAAAAAAAAAAAAAAAAAAAAAAAAAAAAAAACptsqEDqY6f9TQkrorcT5mI3kDT5Spk4y1jCmKOVGyOEDYcAFO7iU7uIVpa6m5paGtjxRxY6nN1KaDd3FooS+Hb/I6wBfE5PWAAwikuizKSQ+F/cfZdlxNzzLpGh6ets8vPx7np6evHy3dXx447GZrevt9edXtLXsZ4dCSRKWvAAAAAAAAAAAAAAAAAAAAAAAAAAAAAAAAAAAAAAAAAAAAAAAAAAAAAAAAAAAACrtogFY0wrFx7Y+hw6Y3qCrc2dwVn7758SKJizAABT+eWECsvtZQIAlbUhXXCxoABpVPt6H5Z/owuaen6eHG7IQyZwQpnr7GeR9cJ/RbVlTsy192Jt6mZ0MtDI6GvntHlpbvVGRHrSwPDOq7GVjR24WfkkZk2oAAAAAAAAAAAAAAAAAAAAAAAAAAAAAAAAAAAAAAAAAAAAAAAAAAAAAAAAAAAAAAAAAAAAAAAAAAAAERhcPk82P8y+7/AK0sO/lgi51qlyY1nKv8zqydW5Ymgt/qqw89Z3QJnUeRRWS6s5zOaWPhthZgNXtr6mZ656mZ6+vh6mTEgMkHbylVytMjlMldsaTEn/m1JNkQ3Nm1aZcdv517cEuJIcXBxYMpb+kEXk6K/tBEYbcHpYz8+r818uWgVk4AAAAAAAAAAAAAAAAAAAAAAAAAAAAAAAAAAAAAAAAAAAAAAAAAAAAAAAAAAAAAAAACuHS4UosocFbdXp5Gls7drx3MMmHqbcTlwmDxVZx9+pXSrppqLuv9r/YBU2CV7nD2pGrd4rZjWeUQNjyY6vrhiZevliG1nrm10OL1/Edmnd5vucQbCnbeeDW3YdNtM6IV9tPWC1q5O4m9sRcPXHmdOJJ16P3oqxYREv5Z697UYX5oDf6rnTACmtAAAAAAAAAAAAAAAAAAAAAAAAAAAAAAAAAAAAAAAAAAAAAAAAAAAAAAAAAAAAAAAADArNKorNLKIh/WWbGOXrBJ90sc+/8Ae/TzZHsXGq/9SbHkEX3pVBl9dnIGwtZOqzsa/rlh5buvibGpnhm1do8sB66WZteRmZbevumB64mu3k46N2LS6fM9tO7gVoaKkuYFhZTVE2wXPZJdN2qsRTNY07fzz0rtUy6Gm5v6A0Bv3EkTACmtAAAAAAAAAAAAAAAAAAAAAAAAAAAAAAAAAAAAAAAAAAADDCHqOqurElUiqvLWlUgtXnVHaz8tWIdz3PN9ICdXAAAGARbbD6+gq/G/+dPDcSbVq+q7IFf05jliVigE9r7f1dmddAPLTntcrppIman9n9LjojVukjdOaa1ffymxVpZyrVnaK4ge7q4QZGeXkZt3y1/Uz0trXA9sMG1jgGeHlsHrn45g40u5ZCCQ2WQ7oqLax8Tdr3ZPyLMV8hIFsqP6c5ZpTZw+bawR209bd+uMfoDQG/2j2WwJZ1qprSwnlXdMl7ikczLUlMPYuTlTTwP0RbH5L2tLggAAAAAAAAAAAAAAAAAAAAAAAAAAKnSHGJz1G8J3IcAovIcEdgEXhz4zrh8++vwPgt1MXFDPNCbqLRvn2yqXV5llL4h6Q5ds8kt7fRfjzjE592YOITnqNpN+3JueDg6essgZ3PP6XxD1nVb2FBhxX3FxYKD6QlAP+EXldZKScWJUdmx+XCJ89om6Y9IbqrYqzb1YIe9We2VirmtqI+vSO0F1xthrdCPktmtpaWZbc9ma+Bfa7HM0AynmeBc+s+yF+yepzc2rBptJRMviGtTMiob2OF01BsGp2vcNu59Lb+VFjr1kbOhFkNzaXUZhzHHE4a2fX56Xmp1YK1rqNumst16mcsYVaGkRYXtzLUKev5LWIOd68CVEcSVjajH6osekLmHwIvAe4ich6CLwHuIrAfAjfIe4iwegiwegiwegiPo9hE/B7iL8x8COxHmJV1AAABBfk7CCec/CEeU8CBes4CAwx3ciJNrAb+h88+vCbciqs6xqq1lLvz2NPGEdXPCRZ4MGDLmW1O/v0T5BBfk7M8YJ5z8F5DnguLbjYegGlBbbjHP1YW62ekTw5P7FAyeYlalc4awX9Zf/AICwftNZxKUeqIwKudV6tpcVcF47RTmvNOzGJz+dE4ijn0AqLS8TBpFu4ZXYU9U9eTHm7grXZsjctRU90yJLw9pTtb3jEvR+PsyiEpSsuPciffnznhneReIqOxtvrnvsS0r4B6spZ7m3cas9woMiKqqwNGted9t+uzrhTuvwI7WjfhDr5/n/APoTMg/me1LK/nvTWM4alUdwscuFd5lr/Or/AJlk/Ws4WYrd8uQWKnIBjkGOQAAY5AGOQAAAAAYGYGOQfMcwAAAAAAAAAAAAAAAjypckDp79enYKDquOdg9cf16e0x6bTh806fivUCfWgAAGHh78LOJw+NydLqfkzNkqqZlF3m+BA6gDErVWux9behqDsc+fb9cR4jMXb3Qa6o2stRt6mr752rd0vttVWKNSrTR1TY2k2ObLNuNYAxvqLLy2PL3zU1TkRJfU8ubnhn3Nvj9KXG3ccMd+r3k8T7+ja05VG+fz11MvKLy1j7oh+1/vKyVOpL2f05rZJWxqdv1YasvbW/Ct2LyT+3Hm/oR+f36B1++TQWGfn5TWlguWrcBqld+2O0rn1B8eqW6heV2/j/cMt6AAAAAAAAAAAAAAAAAAAAAAAAAABEtUm5C8yYkMwJsQ/wAyZasUhcaXEo8Hz767GuBxmXaVHtxoh445tjhrlnad3Wb6g9cPbaEF+9/8knJCzJNCF5EuUUvX1xwqqi+i+7LneK2anWPx9cxDPnL/AFuaYQ/zE5XCy60vqt5NvQ5FJaSFdyHt+PzztQq5vc1k3gnNi2napMNu5W/V+fPCZ0FqLHtydzfN2tEYdAvKbi7HXeESTXjdcCKqLPr9iFyTVuYOrELPSdNWeK5U/c1Ortbvd8whHLtxGKS5rhKrTc3LxPRO0la7mtYdsKOXlhbtWr9l+LHkMHOE8OHLaiuwamfn5438pBYmyraZMuuFt6qwgOotLBCRunS54FeXBKoqTxUsWpRcyn1uKkH6wSyljlHcJQHWJQHWJMHYJTEdolAdYlAdYlAdYlfg6xKA6xKA6xKA6xKg6hON49QAAEhg8gReD3BE5PQEQPcERwrIxCDZV4M8Pnn1xNaHYanR8zHPaFYat0VsPENfDKbh3au47m48PT6N8aRuD1NmCKxe4IXJ5q624iqj+WfDtOa8XpxHBhugOT0OY+rIj1eQVrXDMrRfVd9Fn2mfSWiWbO3AMc0RLkBZa5q+6hrHV/jZqi3dPO/L1LmETXgVk60s/p/1NuvobGvsW1fr2RrNz4m2ylZu73Ky0ifY7+/hnxbVoBf7dLGWPN6VvV4SSMm3VYRXwjlUdu6+7XLp+rQV96HKuK6RXkpHdCHu1YEwaf6dtzfWJzyHL42141m3FZeGhn6EWFd+bDbsT+e9NYsBvJjwOTKlJuloIeiukWUSnP7I6qjbVyR4SCShGsZOEY9JGEc8pQEY9ZEEa85SEcxkoRzGShHCRhGCThGfslCMEnCNYSgI3JAAAAAAAAAAAD59BTqa1uvR9JVDKzRAuaxlnB5WXGzvo8r88pFnb876AWlMAAIetp+g3P8AzoMtV2eLUD7a8leed/m6QL/9Kj82HRHs7fnJ6hWqtdnqw9DUbTOU/rI1NNT+vP8AM8bW1Sn+GFraxypLxJExx3+x5nBjUzn15L4ww40iHQ1mKTM6pkN2gtKMak60mfPG6tMMotNua088NiF2SRUnBGSCPzS4qbCxiXwug6bjvVAWCy2wOsdgq8WvObVmEDKdmptVq7Ub2YYd/hsPLOA8qXxPbqP0N/PL9Dq2b3Y/jRimsXvpUd0i95RAL3lEAvf6UM9j9S57+Yt7hmAAAAAAAAAAAAAAAAAAAAAAAAAAAYYnqeQep5B6nn8PU8g9TyD1PIPU8g9TyyMzyD1PIPWsVlPynI+95NXkdSN5EtGZXz9DqVHe9WlxjUXC8ucIr9KvyB/RkjtbbLp+/rGRYjY3qaw5KJsVp4e/nRcJDOW1geUdsLW2Nur9z8de4rNdnKT107ZBJoX2Nvhlj67tD6sAqWtyfQ1D0Olzx4J+RQPBsN1StXMzFS4EbI1Kbm7GF/THDy8okglkQ6vuXf5oT4jGtBTOz1ZLzrtYrmatzJkXE3auw2a7vTc3YUA/Qah1vrCvqDXjq8qpsbQdn2hRwmRG2EQeG6KkL6LffqaZSWHh+xHQri5CVEa+EmI58JIRj6SYjXmSkjXwkxGQkxGgkpHAkZF8ySkawJQRr4SYjQSUjckAAACumpZYK0llgrT8suFaCy4VoLLhWjKyoVoLLhWkssFaSywVoLLhWgsuFaKLfsBRAk9VZq2BiVpdqFJ/PlPrjD4vV5pWK30G7xW60dZ/1NE9AJ/XW8rrtKZwyKjsq+uvf5Tys3XUT2uK6wdKbCoKPuXlsfNb+4Sft7XZhTfnbjaV26ohEbjU+uqmzMxpfw4Fg4+rW3yw9sP3aoGnO0knpv2t2F6lMi9qRpzZyxt7ljjBvGdVNjGux1+556VPmbZsIVe7q0stn7hzIzLawac7Oc2fbsCcsmRsIrd4grMVK/Qywr/ypjV0KZVNjbVceiUHoibBd861cntWUtbU14I08M8HcWQmLk9RKDrBKZOkEt8dQJTJ0glcHaCVHUCV+OsEvg6wSg6wSg6wSg6wSo6gUDfAAAAAAAAAAAAAAAAAAAAAAA4nbCgKB/UauxTTztwFRy3AVHLcBUtgPZwHScXn6Fa6y2sqt0NRIrLVE3csbYVn4vKC2NS+/nhe2uq2gMCbctJOVFQJLt20ZjEktVP7cVnR7N1PtnUq0q/XUsZw2Vbu/NuHE3drm++xGlqwZ0xkxE1tWeicjBIWernZbz1f9dfe1JZz7dWPqzxsJWuzFjBQNn6STeZEtPSyfLbPCRMZL7GZhrTPX24a/wCif54/oXAk9ivr/qvTWaf4+egbhphuGmG5687YHvZynVuySAAAAAAAAAAAAAAAAAAAAAAAAAAAAAAAAAAAAAAAAAAAAAJN1fl4QJkzOKm2oZeG0tP0i/P47Hu8OaRVRySy4vb/AH46fpkQetdlEpf1nftJ3+rU2ELrHc3l4vzrtzX9+Wld04O/q4QZa7jPK0tmPa6cNxrpch1+baWRpXiw2uR0FNYndrWQJzEg3KlNdMx1+rzY+3cYip6EjCykD5cakxITMYc1bGIp8NDLnbnu6/A2jtTdoV+vKhkPSqtodWyTVAsnE9e2VNnx61dOh9XrkcPdhQj9EPz8vTYwapVx8uHTWLFXNw0ATLn9VlEdTa9mQzJR6VVJbI13pH7IeybbZsnj8Pc8A9zXDYPHA2Tx+Hua4bB4/D3PAPc8A9zxxNg8PhsHj8Pc19gAAAK48+zwVkLNhWEs8FY8LPhWL5Z4Kx/bNhWHOzYVjLOBWHKzgVkws8FYSzwVhor+xH5zDPqg4JYSlB2JQAw+/At87vGk/JKqW8gjEKnWSrJ+pIsYNN0ZeV1yE++OnR2ldHh1/Aqr2lY9berdtJbqVbi7q77+7qydOr1+V2qmx5XY5WFhEzzww6Cp2+ft++vLt8rlbHPW005m74QZncYleuLLj/ocrq+ZS43F5vc5FlD1/Xw9+cuurobupi6Gp7YdNQNOwNVb2QJ0Zi+upIsh1RpydaFJRLowXmaqz/rN+h9nXfkryLN1kqbG3WmmXkVbtjTi0ZVyfM9cjXrDbKLldSZ7pZOd2A2iuRY0K352NCuRY0K452LCueFjwrn8saFcyxgVyLGhXPGxwVyysWFc8LHhXIsaCDfgAAAAAAAAAAAAAfD6fA+nwPp8+GQAABAp6H5cRj9Y1ufnXG/0lD85NT9BONLpqUl++rHs/wA/+d+i0/w3V6tNkFY64WXrR0NQzrDUrye3Vr2qdJl62xqTKdse6CyWy5gTPeLXFp1D3+Wvr5xJOUg4Uvlx/WO3Lqdb11pOKu86qy0lPJOhr95+Hd9Y27YmK36UvTahO8KJ79MQ6vPtFOh1BzPGkuNI6G7qZzjut22rq3Pyt8umxrX0s9eRh62G3VbH3OwSK5+G3DH9Evzy/RCFt9KW3kKa0/Knn/rJpe4flQfpJzbDm/zuP0S2WP5yev6jdeB0X54XVnpjvAAAAAw+4w6NEmHxTa9NzrhFB8xOP6u55bXu0BOsAAAAAAAAAAAAAAAAAAAAAOUc+DraADwI6px9ZpmQDGy8q5ls2LXGfDZAAAADCDzZNWfJcnQhC+veBsi1UMzI89nAcv8AXAArbWazleOiqd16NuR1s5EIS9nNxfnn6yflX1Rw89/F7cBPuOtVDavXH4x4kmKoBwV9kx7OU8tzVGzgaWG7qzY/FncG8o+x+lZNyFKlOrze1ZQdjL18N+HSshWyyNZM+zmt7bq7DYbaX18M441a12WlxFE1fWI+vtfbxITbhtstk7VdOSFeL1wSRhTL9Ffzt/RKTE6IFRY6SWnyy6L5km2BJK/yquxCzlqK912ba6jkvmxrAcn9hAAAAAiK/wC3FeD+YVzdS68JM5zKtzpOurMrK1ffc2a7Dy9e2+igHuQAAAAAAAAAAAV95r8BD/XviIUfvwQ4+PohN13Rcr9wXTDSX192dYsLXaxNeB9Jzb4B3HRU22RyNZ7ewiPj8xEFk+/gh+g41ddcHoouTfbTl5/995Tsiwjzf2PG/bkR5P36V7hc3Ul3XW2Uz1wpLRGunY92FUXdXR22kDt/Ks9TzZZeN1p0s9VlMKqeOrbbTr0xlGWFrage/NtK7PDX0tzV9PPdgyYt6z7tRty2kHH2LGL1w8t2rr3toB0Ie62fNqny4Uu3frTz1LuxWsJI1NCayRlxNqy7imkvqbR56dStsEW1t2IvabWPrD+hVrVoX5Y8qrGvO21kP1XyTiaShcWOTGQDjrnsjWo8o24s9C087InIfaa4Y2RCuGNkQrdlY8EEoLaVz47gYJD7XxLREk3lGoxBgQSxsDd9jaLMsd97P6FXEscZZVuLIhXH5Y8K44WRCuGdjAr7YIAAAAAD4YRfLGVEB9vdc6NPcw3GnuBUuJ3Ng4oYTYgK6TlpAjmn3vonHB3puegAAAAfIHOTdXVF49rY1d8CsH579eB0WYFb1pjliVlrrYquHRVD/sbQ9lwpNpK8cpaeZxY8fa8qdcNg57WhFhauaheBZ6Awb1XSJ4Rj2ur7keV9TaW15NmDJ0eRJINTWuO1J9fDNp17zd+7BAZzOA3dNu+vLmO7CScV9x2mv0+y/J1Z51mhb9R82mYNk6H9nBaStfI8ZOm0jboB6xJdy6xxHCRq3f0S/O39EoW3qAVFjhA575yK1F4NLh9B80hH2bdDLTH2bhsUH0j1AiXYAAAAGMXlHAhwYVze/wAri/nurufNzDDszGMSjsu99gLG2AAAAAAAAAAAAADX2E7nrhisC7pzHKB+mdaz8+XzClW3DyrbLzjMOVI7caxOMnQhosWi2FXzSxXfRU/JsAAAAHnw+2oZ3Oa/Mgy56H5xaBn1+ZUG8YoHPfTgMStqzajJsom5r4SqDIiOzJYd4SKIvJWS4r1d7BZwdq0NROXDkWwh1ePGHc3yUiAwQdry23bIjw3r+EIp7PPDPtYZyTy5vVwzX2R5bsGrDOFPMsElKpyn7estXxa4Y4S3U46Zb+eFnELys90Rl6lhNOHIrrE/0ArVlhE22/8AKFMqen/0RTkjTVn9Evzv/Q33DqAVFj4K+VJy8+fcKQQ1cWfNWEicU7+ehkuGlNmqvqGYBQ/RQAAAAOCru/GOE+apFrJLu7t7XSthPCsplfY2m9l7W7dJ5evY/QADL0AAAAAAAAAAAFSn30q98ZTmKXtaxxpKRSTTKlnrh2pUR1En4vP3nBrnYzVe8rdR8nOM9Eu6DnrRoK8beWIdry7myRokvwjZJMSO8ebQu84KMI6x0Hs+Wl3UU7mwz2CSHJ/Y438koQiRxzak6p1CJ/wI0jgz3gyNgmXlX55SNOsoFi5JGmnmv66V1X6nL7+lhhyt/wBm3EmS5fcPCpsM55HZZrzm+1w/XRuw6RHcnIWz7iueCu2Nc3YSzqwOb5kfsN5T3FTh7ntMie+x5bGfjygzTsFSWiv7q/3o2ck4Lu6cOWlGplxc86S2WrD+gdlWI75YH7VWFf8AbZya6r4/qLuGPVmqH0lp3t0RBsJuzUSfA8bA/eb+q19LBhX0sD8K/j++iJXNkKv8Z8+5kPtGvsNLFR0rVWvB6SFYPjTogWdgPvffT6/FgTLJA4v4EAWB+CAwsEFfvtgvgin54+wAAAHJ6wU3gF91ZPrvz8fjx9dmKRsdKJXH3/eN2SJMRqjs7ACuLflQV+930EYRFnshVOf6zTpgAAAB5q1paEqjqvw7DcTovnHBaetOq/ovYCj+ggAjO3BeFYxJ24YAstEixSrgkvYkBmVUp0PX7HFyuK/HXz0mvDV2GlAmeEVk8dpLbHaxMM5pz/Xi4JZKldJWck2vDfwZ4aGWOceWb1i23BY+vlluwZkV4DkzwQfgwYHd1Prnh35kduWgoxG6qdbasfF8ZMa8E8/OvoQp16asrHVlaul+hv52/onFy6YFRY66nbJIqql7tkeFccQsYRYXq7Y61cHr7U3a+gEO/AAAAA8YNPvGHBT+szOVy3EQjOa7uGEaYOWz1HY+gFhbgAAAAAAAAAAAAAAAAAAAABj4+kY0xvTkQ2Bctxrr+xLUjQmBIarMeyuntnz9/o+ryAzzAAAPPS3VpKp9zicJRdH8xtHL0K0KzqZgBS96AFY65WXrR0NTPLJxR2106EV2t2nNSp+lu6nSU3r5Y+vrU8s8tGbBNuG85d47HjIsM+HLoz7mxpdfinQ189ck8nXMkwSzp8Xpac8tXSzZ8daNON7sIgeWW7Bsw2Nz7PBRdLldro6Hmdtqz+LKr1wLz1P890mHZrq10ukUI/RStUzSjf0Q/PL9DtTqgVFjhE+mm7biupoV9dN5w3a2VbFvNlpp/UexNP2M2Apu5AAAAA5yx7cS4z5/DJTVttx4jVhUkrlHiWaaiKmsywb4Hb/RgAAAAAAAAAAAADieSp1xx/E5gOTFQ/BxYKD6ODFQA211w+tyXDwlES3e81N5NdmGRYz76aY9dMSx0mVGr0fYOMUPy76Fvig+Dg9E3iONWc72vOCh6T2jbEsVKVpJZ/PObBP/ADj/ALS4vJR5HIVbjVlzBt9o8tcU1i1ttPtUqfnud+7q+3EmRXnRnzcpZBsM9X18ulBl+Xr2OEdfS3dLB5crp8rMdLm4HY3+L0Dud1bSXBO4D1eEzjB66u7D1McjM8shwLFicSzruxP4ha3V6ltzb19G9ke0L1YUmbe0KmTOid66LW0tayeZLz5VWHYjG5pdb8ZX0ij0gziqpqdKD474ZZCvj102TI84Jly/1ed4QYJ98gAMPFfBsQKa144f5x3oa2Vru32JSbKRMSA8ZOqWzpjz7Ne/foP1VhfIDhlkwcl4DE8YCDBxgAMEX4MGUqBvgAAAAAAAAAAAaqfc8Yp6Clreku5y3EVw6bo3NmxXa85nOWzvTzQ3+v77ICZYAAAHknnFHJ/MI5XvLy6b5hyWVHWrXdH1AOb+pmOQVyrTY+tXQ1N2p5+fjagS7TRZFJ/HPX4uOF7TTmDHk8x78a3dG7u+TAg3P3Oxu8jawz0Opt8c6HP2OQHll5Zs9/QywSLla/gGXkZvXHAMwyPKSdWaME/z9Da6ahtS7fz2m9dNaijygO/D9DurQBj10611a13CZcfd/Qz88P0U1OkBUWOglnnzZ/NUm7tjeHccatINYTp5xIE6/neqez9AKvrwAAAAOcoHX41dOnNFo6fM8atua3PXPNVOPpb191GYFzfgAAAAAAAAAAAAAEPyw1Uuv/G1rO30olGduq0ri/NC3UCwfgEKWAGhwZXjGhxEl5pix7u55SJuQG+SAAAAB5/PVfb63fjqlj1/85tb30A3a7pZKBVdmBgV9rRZqT2sGMtyKyCBI2YDNYL5nVaLXxpXe1PF1NjynRufsdLQwzncgSU0gS9/mstaVFj1cubt689fS6/NNU9cM3l64jAwMGZnhiZZ4ZmDR0oww3V9h37mu0NgytIHt72uaNRN/PvXuDXLfhDurdeWw5H53a9/6nStUD/Q388v0Oi7emBUWPnx9hN2XKSTiI5p3vA97oLeBvbbymqNiKTtpSBV9kAAAAB4w70gXM8fhlU921VAxufGIlH02CYdE7W33TMwDpevAAAAAAAAAAAAAPKvucF3xoqYrG4rGcjWDz40ic9rn7G+NdjKvHlRXtjSu+JYoruFiCu4WIyrl6Fhyu2BYwrnmWJK7BYkrn9LFJmN9C64JFNyNwqwo3rLE/KttZYIrthyH2yxhXUOvJeL25OMy3I4po216/UU3WCz4+y45MevsDfvyZpp7q4cu4rvmeX3PDtN1EetdM6+w6ElT23qa+xrYau7r5scMwww2PIwzAzmcbabCMLTlfb2p9OrpZzY/Sw1/YudP6n2o5y24ER+9fzJldBO8aHJd3AgbPzyoR+g9B7LWVa8yvpVWDKXfpn1vxxXTKOSPKLCczQj2ns/UG2stT1wQGXLfXn98QIWB+V/wLB/K+5E0gvYRfCfNO3GOtELCxkzuV8orKmCvOvb+99cnpX87v6bYEr8ZZWBK/fCweNfvpYH5X4LB/K+5D/2EI+wAAA+QadHuFGoJdRK2tZTiyG72iOt3beWrbvAV1iAAAAAAAAAAAAAeaac8LseUr3F2h49D88jzqjTVh3HfA5n6sY5YiO+xedT48pk9e+pH2uzkqmF+u7OOnS+XEecRUHlYwTm9ImacdIyYeXr5erPbcSSzrZnf1WHFqe25Rl5GeWIbHj7euDm9zb3d2E4rTt9+4qeFsa5Mjbfzw3c2Wr67pbeb0bdFNY8z23UvJ1fodu0jZ1VZWCSi2VUuP7/AKF/np+hrVvgVNjxk0+eDaclUHuubnW/EqP429vLSn7L+Uwpe29AKzswAAAx+8z33noSwHHp6GC8OU6nLcPwV84PXdviLa1pLe9J3/vK6l/1WQGIAAAAAAAAAAAANMF+jYrY1zu6lfdXfqujIPzsupXzWABHk4/TSxw2/Bc8Hn+Yc31MYRobp9U1NbG1mYF10IAAAAGOP2J7YPnHYzyen+VPHuJBuUnbdcCu60DAr7Xp4SC1gsf34WlXy+/1IfyStMGu/Sq8qdXAxnxvXU29J75btjGxUWFCPZ/pSZE0MDGXp32mmtutmynmzHi09ryDDMGNuQphor6Qal9U7Ha5GEmPz/CSWziSKUbV8qy6dqv2tHetIJsOxoQZNSNiyddtuHhlaFqQZFD9K4dY5OrkfoR+fX6EQ5G8BU2OHhkq5dHM+Iipfe8Gxemil5jvu5tVtsFS9h1AIfQgBjrbSblyNFfeKk+gdQ18lU05u7LBPbMLS28Yhry905wzXW3NlTet7KgR7a9BGPHgOZzAhRAAAAAAAAAAPiO4kD3xuAY8O4qe8nGato0mfMOO579d48qyFFc2YV66k3M8hzKzMjKFUOBc7LCqaevXYxZ1ldOOUoXgdD1VnSsZbXdnCsvws2VjCzKYh/aueDUMlUEtm1bYY6XlO+psWVjOS+zWcxrLmSSXcj1k6pt0Y0mo22w/nXx2i9XkleUuPRLYuFyZcaj+rsaVzXvpx1enND1mCf6+hZ0elz5FxZNdq6hmYdLkasaS1ehvxapnQnqR7atYGxu+pv1bGWrt4tazVbWNGtHvWmc19wkdD1x97Tn7p6Ndt2msn5GV4+dG5k7iU48GW94HFmn75RD9B6EWNs4D8K4FTYN9UZbXWfHEozI5I8o0JmmcFbGtL63N57YErhjyP2eyJW4LH1y+cLorXSVLX1+46OByCOdCqiYzhZMmdv48Z7/B0Yz+vdhVPhqkc2ULekSOvZ+qMh5OjsiVuOaprIlcfhY8rjgWRK4ZljCvtggAAAE25PLLXRpPWwVdtVoh1RBh45kx5Vn/AHyWgVFtop12rqg5ao0pk7Do+cr8+l5LI8dIWMi8qx0yRjcLu9p9EzAsbYAAA8Uw6F5bcdUd2YQG44zl2XiLVjzpWBzP1YAEZ958smR5z1qxMrTIZmrBlF43+iyaezYNvFZXTmzI2eGfNsor/YPFZ3M9LVaEONOW9VjgTzdEU+paeNRN1fdh+80TmvIu/I0wjFraseQtfZsSzPBEdruRCXH27LVUuBXWJWG2daNUiCZYl/QWUZNXZVS2NkFHB1b5n+ie7WaeQJzOW0QrxK0+36C/n5+gGUfqAVVjFFLYBdXnAVWkTULbkoZGmx5bIqrsfxmnT9lugUP0QAMYXNPmzOpa3uku+26StDMYBM3V+07GGjFTQeyJlklNhxmwmuy1WDH185hfDiObzA06gAAAAAAAAAAA843KB4vNubGWrV3Ax3AAeXqPINwGrhTUCqGuRoq0mHbyn2WQFncAAAAAYeHvwc4nBj2lz+q+RNOSqRo0f0HfArunACvqEdNaL+ruzhU210CTz5T4Vcwz2Vvnq3tR447uvuw1+b0uabEsmlo+VuqCb7RVl3Xe71r229W2znaQ+lTWjoS/rG88k/IYZ2rOtt7NFjsVNkwVzrxZ6u1jPIH0VGbuvamNhWHSv3T+JnCcM8r+NiSFjac0qSqO5Y4ezyZcWVUTCxtfdurr/oB+f/6CV0vbAqbH5j8XsirkMdg2XRfM5v1FtrZ6X56KNp899J3gId6AHzH6tN274sFB1+56KeHOU1lMdRGIr540hYcbRi6DhQHfscbIqH36yFe32Ujb4vn8gI0cAAAAAAAAAAEVoFhCvoWCK/8AmWEEDiWAK/8AmWEED5lgiv4WAK//AAsCV42h+lf/ADLCFf8AzLCFfgsCV9B/KOO53PCLiLvJH23K9uxcA9MM7Alf8eT+xWCK/epqVlsusbuus3KuGrKSxc/skG2Uh12S/bqro1q2VrVYRDldLQ3Y29byzYn557CtapYy5+vc+0+BZL3iW1RdS5XhG30VYNrjPXXXVsv8zwoDL7j+2GdR5c+/fDNAaj4hdvErXZ6tNnK/571a9P8Ar3V64Bu+G19J6Szrs/PltVFj1NlQ258MTaTnFp7F5p71Zm5Rq/dEbDzYL7K7+VZOc6fNvq/kVeXNwJB7o7lbWZo459N9oKf+7LBFcseU+u2PK4BY2u+EY6K2UOttbVxYz9EdiXZ596AT+ASs/s2k6uJ9BPXDWZyUdaW352Es5UmWc1TWNK5HNVFjSuQWNK5fCxxXILGiAf4AAAcX52w4nzuBw/vbDhZdsOIdsOJ97QcX52w4h2w43hIA4h2w4f3thxDthw/ndCPK92LC24eFpFtZ3nDd7v8AAYTd2/vdON+18L07IVrS73qzfV36EFbrGU9h6bOFfsclsx69YdBSu3sV15uLY1N3lzo93J4l3D8E61I17cSN+rUdzuVFZ/U3wbXrI0c3DoeWfmvn75mqbWbDU5Ei57bzeb4q3yVBbOVTtNj806CSfVVoGjin3D6Fd2KmyXmlNaNeFR9F+Z3+6ShY9ZP2IRq1em6ObfyhF9dsToffYqrGFLd7J2/+bKXvw7fm0nDj9h+Xs1qey0Helf0O799zn/o/ieway7ZmO7dQeYWAVvedIhpjPCTvisQbJtyVnAeZH1xeAuU27Et32oyK+J4NX1z4vn9c2SNH8PmwGubAePz3Dx9gAAAAAAAAAAAAA+GOUd41fWTj7BDVFnnyGSSVP6QEucAAAABjz+hzM4sD5uzy+q+SS6cQGd0XfbYFf04AVtrRZysnRVG1ltsvZgqtR1LnH2MeXr4TIeWlseTM5+7zXvS4PC5fK3b+X3p9u62yjBVjT5bo93Y18ZGrLy2Ndl67HkGeWODE5/V5vmXNWLLVcnNUbnguLKgkHaW8qiyZBjkdBUZkv+R9kMJdGdmGW3Np9GkIXyaKx36u5f6gP6AVc3fAqbHDw9+BnE0Obx+X0XzaVb0F3c9DV3IhL+c+l5garAAPmP2OZZ70Ar969ffO0VUJs5lixPcDxYErHI9Wp8CWh2WVo55UnyhaLskRlvH8/mBhgAAAAAAAAAACy0xsiq9RoCpwGyKzzGuKjEa0N4PFoeZ8ktJlfRc3ZaBd9Mxoew44lqTLG1XUUXp1XZtsVOM6ybAqAa4p/UZyr9Y3b8OpOP5+k6nZbjSE5217zFT85X7A1xU4HDqdZxR3ldYplcqH01ixYlx5rgobynCzL6pqhqfoGqCqPK6XKsojRXWvxuVvrJKTH3tq+0nQ6mnynSbp4k+Jnh9+GeAHsa/kbWlsZY5RPhyTS9m1ebah3LfmsZKqpDH27XsYdFUWsYtLbXUNpsIyYsLDNie0B48CW0q5MaUbvKW33oLaObDdIlsaya1EzuavT/KK7uyPdzbA1ITp+2qWxXegZ5748RKHL/XHWJEHWi9yAX1sl/PMvJ7Sr3Odrbl2ofIef7sZyZcqgl7+x2pMstWpmqGRxzDyyNiqnsahq3cJbHmqd1iUB1iU+jqEr8HWJ5wgAABAvk+CA4MEID9noL7OfBASfAs446FJzHG1l3N1xQ4Cg3eNsvdWW+Bjqccj35de9PBSfFxfQHKeBAcGCC7hryUtxw1aZNx/k6o7LlXDszh7GM+OW+uQHOdhXpKvWqd5XfoDHV69KaxhUo3IVhlXJ6VF3b2nvsr6w8rVnxeb0ti4g6XJey35a+y12spLisvF1KB+VdN/RL5+d3r5lffd/PFg+eXP+058tOVrO1QrkMP0My/PHPPK+y2qlvytZveL4z01EcEIZceTAfXQ3eipmfLc+/TTpFlxUHhIuZ0eTKKybxOH0qqStXAulSq+8iJyiSlZOV8Uc6U6f5VBO8ruznB1XBHFnm2LArp/R7D0+yY5r6nHMZKEYWLz0pkn8/p6zoX9A6hAseaGfvCWrnNmav8AVje+rCKRZpeW72A8ZvyiFq6Da6HW4bnIyScgxIz9koRgk4RrCUBG5IAAAAAB8Oer89bgEPtbNTvIfLtO7IDzPHjdk16k9pNyL8hwcOJQQ66KSfuSW46DL2DpuxAPfQAADHi9rUziqbmzXmdT8hwZccl1F9AzAgdQAFdawWnRl9WRNnWJ9Y22vynu3sYZ0R1W0qLirPEz3aTX9TNsxT05dFbtzgYFvXY+uuZ6csQMMzAPY9TXPUMctgwzfnaixTXCClUY5tlXx1iJxjQ5Pru6W7bVxjJJTpzV/r1bU6N1cGc6OlV2NPIhd/gyo1Y770VvVoz3QK2dhwu9ztkJbcuWc7pflnE2ujt7NXalvC73NfUMgI9qAAAYcbsRDVG5elwYXR8w0jieUaJIfionm3b2+gnvGTMsRIItJ7jpPUDZuA550PGuqymQbr/aOdPLy6olXTDmfQMcwAAA5ngmtuldRsLunNDfTOvbO7kVDn+jO5BwyqtuxHvRc01B4wHYQnO8hbCO7iXiRJU4INDZc6324vpJ2HeyA4ZLndw4Ydw4WR11tLlfbcYvY/DnTb8j1GvVR+6d7cOJjzH1ru48bEUU8jnRlYE+18NGe6vZntYIdUOyMxnx6KZXXXdhAQOvoYTonK1tNpVNlo583ds4Prr+Wkdzw0g2s+VsZulhj44M/XkeubpZ8roYPXX8tJh1+aZ+5qFgwFpwJepu5+VhBt8ylAyubu+pBprG8M5R0uFsa8/VYsXl5o211pKPcJeRr5qz7Kbk8H6P5goGlA5fMpdde+bvZQ+xdPrBwrpvEax536bJyMYEqI18OuopZD+O4GApORybPJuwH1n9LzlYLGoNqz7pbe0m2ckyflWn1Z204I4dJ18jrY5qnzYOoYlrXiOm5Dkyq3NWGc8s0RuSVNsAAAIlbW+UsiNXCLStS2lewV3GHrG3b/t4zmXDlub/AChv69dR0J/leKQfdhbdjwYjlEGzqwhnO2Zu9lfgxptfdMhR/lzfoAf4IDGwIV793ynLng05pdaEWNB1XFoMbzXCh/nLfX6/5v3ET23yu1Mw76vlzGjbkW3+lwMEGZSjisyI2OFVrxnRNDPlYWsHgOiu7SqbDLPn7FpXbuxH+mbvcjfNZ9TQ8sMsOhhhq+u168rVwbufj4Zt/Y5/gdra4Wrh7H5kvuxV2Es8ueW1du9Cws2qp+787qfgTZlqNHZiSFpJ+wgt/sq9O6wPNKjHWac0brNxOdV8lg/eWfc9jRZ9L6M5Y+rnW1h9M+GDrOY+rJb46gSvx1gmOa84JQcvUqaMbc5zk67OrdxY1xfefW2ZoH3duezfl2ZrMr3qUuOsvejSKSu2kJcSsa9cq8nRYc74TO2sncPtxhnA3CFTbAAABhmFclFejlTYP5+zG1HU3YVqs5IfSJJAI8jzjEpx0x0PvNzhcpxKq+NQ0R1HM5r3bC08N0+9L1/0DPMAAA841J/myGitd5cu9+frRrb3vW9PkBA6UAEby7A4SNKIjVmzL2t3yyWAsqo3++Z4fnx5foYSY/55/P0O5B+ULghf6iRJH57n6GYydH57n6FGWP58H6E4n565/oJmfnwfoPiz/Po/QXI/Pg/QQxfn2X92sn58ZfoKH5Yd+z0HiboJn+ghJ0UD3b54ee0xsawfkWRWDq2N+sqkPBhZMqxWb9fTT4AYZ+cRl2W2CldF54XHFo7YdOeWC+YPqVHY5AR7QAAAACO82YkKuh5MDXqh5MAh/T7ps25fQm2IAHn6ApljaY3xqnd2yhnhEpYZR5IBjmAAAAAAAAAAAAAAAAAAAAAAAAAAAAAAAAAAAAAAAAABXOxlAz3vrXWxQAAAAAAAAAAAAAABEPzg/Uv8tz9ScoVNQAAAAAAAAAAAAAAAAAAAAAAAAAAAAAAAAAAAAAAAAAAAAAAAAAAAAAAAAAAAAAAAAAAAA09BCeRZjnVn0y3GirIwWI0t2uBY7x81OMfZqK7Bo69WZKWWzp1b49wjBy/zn61tx5dQAAAAAAAAAAAAAAAAqla3XKL3t/MS0ZZs+eJyRIJsuztrBLFu8a3PIlWhv1FLdc/oVBLQdKujkO7lS9hFoitdlAAAAAAAAAAAAAAAAAAAAAAAAAAAAAAAAAAAAAAAAAAAAAAAAAAAAAArPxJC7RONGvcmKw/phVFrjarbZKtpYdWT5airsRC2+VNtzUezwhkMwXaVVVP6FsMrHbAAAAAAAAAAAAAAAAAAAAhVBv0u+H5izq5EYIroPhDlma0WUqGalyqd23N2odvKdFxafWsqwTt0nSKk28p9ZMrXcKm9yAAAAAAAAAAAAAAAAAAAAAAAAAAAAAAAAAAAAAAAAAAAAAAAAAAAAAAg0y9wXOq0A1l4zAIDPgQsmagV+lLYBXw+wAQibgAAAAAAAAAAAAAAAAAAAAAAAAAEFnQc2LTsIv5S0BKuoEHKmkCEZUxBI6L8DkdcAAAAAAAAAAAAAAAAAAAAAAAAAAAAAAD5xV1XeVEtVjVLOTGtUVVw9WtKqhaoqkFrfWqWPi725TSz8SZLAI8gxy1mPryoVDeb5JvfFmVlUzBZgzBZj1mCw4eebrFmYa2X9WZ763N9Kza1upwB0PUgB58deJro7ix/yu2FvPsZ9rduPLR9SpDppq5onz7z1UBqnvyl9Hhtih1xzCpwHF1a8zMahr7AAGHPhqLpuhsLjXf1p+isGV8HtgyvgWDK5bXiwXpXnyeWv3KnP+75iagW9H8x+873Vscldxy+4BxioJNU1xUA1/il5eG13ioM9TWFVo+euQVB741/VSY+Hp7Jpn0/bdkCB0YAEeSlKT9APP8AOHln6ZH5mh+mR+ZofpkfmaH6ZH5mh+mUt/KDdP2LKXXMPUAAAAMYtKlJnqrylHKnbav6Ug4U2wcDV0euy8vvN+4u9AWlBsjTgvbi+erwfqDZrK82XE7dNbYQabKuloORTuyXHoeUlfUS3fjRZ9tqvg+7HpyOVEsNDhQszhUqU+OEm53p8ZWkoOL5i5O7W6xOGpx9uDTjtfoWUJmyevr9AwJnqzs+gnsFnsCyx6XR097VjG3OmHJM32VkK0Znz7mMlsyUzEjwuHTGFma5s5XweaAccLNdndoJowU44zw0ejDdO+sK3aii5L6KxZLF4ZGmsbrrnY9TTFLtVjy5Yp5jk7XirGIw5zLWk60SbYe/D7nefJBVM1J33CcGtbJ6c6hZnhCF7Lp3hvQGAYbHAuuhy49g3tpGMmbUyWEaUX0y3VpoOd4ZNbwWESzjuydIfd1SrjHl68r9gI3JK6sqDXToveYi6Xb0cEl42VlJUDi2cWpBfC8i9KpSt38YQG7YGblVr+0xape0AAAAPi5Y+rlhSFU2NVlvV9LaCRoWftLyPIi/pJcnnjrdnHdrTzMxkenYsnBELI4eujbCptvNasvj11TSSUTSV8nw9ZGHK82XRVjh4EaCrenOOFPseTxG3qadaffnGivqLQ+yyAnWUyc9dHrFhNeVeHv1/efVc0NCztKk+vSWf0Tq+D8YvlG073VwyvJ6ecMaZtVDas61tr5zymSkbcc06kRC2dyxeSHm/Ceop7xYlmS2Z5LGnH5AeUak+GvZT31lyb4f6jEPVm5ydHN6salESZA2hw+5q3qLxYOnY1UAnmpKtWcXn/Gb2re3eh9O5+V+Kec0Ps+VpfL5bKr/AIJB+zH9NUiWV8sHEZdTsrmTd7ROUs46nO179eKt7m7oqydnCku2Kl+Q3tOLbbkR27Dxps59A536aKxp+bL8brnKuIEQYya9h2MGBcgh18fzgdoxPJA9Qe6qgTUIG11KEDvDVX9OyTAAAAAAGom3f82aa04WZN+qsxZkKzFmQrMWZCs21Y/6LRk5EaQAY5gBxoowivrFoMki1q2GSeFsMkFsMkFt8ZJ6Wy8sYZyUI9NosbTIDdIADnK5wkuQg8X6WcxB5PoxKRobf2th/QIscAOLEmOC3GQC3GQC8l3VAAAA1Vs0PsWUiMHwQLdDj3BED4BDj4BD5vUF0wfYsKfICTGPn0I3FmV9m0KtGkbq5WjSBWjSBWjSBWjSBWjSBW+rNGUYkwQOhzA1zAA0qw2rCgGH6BB+fp+gQfn6foEH5+n6BB+fp+gQfn7MLpBHpCAAAAAAAAAADEAAAAAAABkAAAAAAAAAAAAAAAAAAAAAABiAMgB4APQAAAAAAAAAAAADwAeAHoA8AAAAAyAAAADEAZYgAAAAAAAAAyAAAAAAAAAAAAAAAAAAAAAAAP/EAEQQAAEEAQMBBQUFBgUDBAIDAQIDBAUGAQAHEhMRFBYXIggQFSEyICMxQUIYJDA1NkAnMzQ3UCVRYCY4YWJSckNwcVP/2gAIAQEAAQgA/wD6Qkd9ZQbFNREVEb9xYP2sbZhIFBAh/iWndAq7uFXapjW598HbmBbypJb3XBwiksht3cZe1N3ykpf92nlSszWBjU9+ZKNx156n3euXph32E/h4IS/D7HL3ch1yHXIf/Ef062X/AN2Nx9e0bFwCtOUkHNenkYXbuBlp1puxu9aTXd1ig7yyUpZvC1vvu5kvTL5WIU7jY29Vrb6ZU2f3Fc7hwLp2+v8AubMVq81SrxW525jSgNGIJutx974RkEzK023x9zrjSaZON+n7OQtkae2Vov8APrS6Nu1ul/v/AEH3e1J8qTC6pc3DBUa0maDhFykKzeb/APcbW9PmLGTam1fTAFtRvXENYOd35o0FIqsDht89tpUwRxHWOAmB5R32VO3AmQxs8g6M+WCwQ9uCa2JwPXZCwuRa7nck/ToUrWIH2iFt4fPst4ifYOblx+aYXPj6uy5in24VxcS/yuF4+rQhff1dl7/Vnx1nhnAeNf1MPiqeE8P+3sxp9aImNWSbO+3kPy/8H/TqsRd1lNy78FWZ7G2Wem2UvdfaeXJCqQDIKm1QZ1evt0N8GaSG4dAlkfaUg1H9YhZlHeC0YntsKWk222aBQt6nVa1WY7xjvnZLDrcWWkVN6GC7aSvm5skwesldiq7PV2CnAlNqo1k63Ytzpf3bpf7/ANB93tSB20eG1W/Z2pkrAQ0gvTqlG0qFSiI6b/8AcbW/dvQQv96KCxCyezAymZZ4/Y2D2brrDIKrtXcVZqu9wLjbL2hHsAmhE2WJmoubaC5jfsToRTRI5B673irTNoXdIvdSvLtEhLzAgciZCheIIh7dDuBXlPwO9wAcOzxnBF9J3eIBQAFG1RZkYiFqiVMa8SRfDlrxZE9mhuUPw5YTuEOpnRWiNJXphm3R48gUltwYaN7qegulfWSbqCzimSzvvKH/AITtNBzDDc6/unmt2KGruBVzj0KnujP1KIawNkj67cNzdyYu2SdhikZ2Blo1TaSp25a4QzKb31rE8hLQNwr2xkLIxtXev5Xd+iWg7RB3Wrpb3iSQgVUnJWww3f5Ha6FlmO4d1cuvdvExnGm7VWn2PndMa36ay1q27rbhhXt25SHgomOOlXRa3C+JfcE5iA3kiLGg73et0kkbSE202ymk5x3crv7nbJi9RWSc7o+zqL1U5KnV20W3a+f44pd3grzDpSEV77yXGDeZ16hVS0uXTLirDbRR7iOaG/u22bGtQziWYlxUFJTBLIiaQ6UEeXIlHCP5NHAj1R0gp1lzHQokRcRJmSKvFUkUi4J4Tbko6BLURtQ+WZJKuLJV3dVM1Tdksj1U9VskyashCr55xmf/AA1VFFXIkX2u7oCXMf7Dd3Z1neWff47b23S+1twEXkHNxtkiWsrG+6/HxgHeNJJn1+SqbXrO48CaWOB6fSSvs1FOqjNCkKY9ICwQ8S5aFPiQEX3ZC4IU0U1uAk2JZNXqCmosS5lpTi4E1SEgJT1xMeKdgrouQnYNqAJa3IdxcpWnQCv3n6V6sKRNWpaqp9keoH/jtht8VWUgUfnvTUU8ByLfGo8BIfO6p+jie9VdEuIlvdWhHkXnrU+XHXntVeXHXnrWOIkO8burWd2VgiNlt3xpQKwske/MD+gt+Yf9Ly9trrBzSjNVQm5gOmTgosfiKVXsTZ036hqkxWaOklWw/dNwFUkSHhlIUi5hpRMRVAdJtyFwbZv1u5kCoILcl+nr1OC6mesK3101TjJ9cgbtlkuass4Rat3TYHqyqi4ErUuRNGvSfXmYrKqTKO82Lb6dDuvbSPjpbfCYRcm1It7Z4efId7Zft45V3rn0y1je2wEHIC3ps+B7SDeuwejkrvnJp546HfC0EJlgN+5zGQyrAyikqySXV/8AD951uTdlqoVKBqlcKVlIu8RjpDqj47j0c8SZXeLdIAeDucckavfGaVX3EhpVJKWZ/C5OQjtdQk+Y6l4aYZxzVWRVFeClklw2rtjO7wffX2IaK/LcRmyY116skvyLj2RDVGUbuGDiPkH8bLN+BSSPde7ALpIkeo2T5Jq+ollP3hMi6xJciPiaqQpKl1FTDPE0yNtoS/deaTZwXPidfTS4SHSSsCZJGuu7dO5qVSQw9WFbhqrfy5kJVZNIoxItKE2S+qZmHarsHLW5OOpaXpaElC9WqbtY9sSCUlLxNGrEUyQahM7X1KU65ja9uZ6po95XIvXywQ/XpNZNHmGVx9GqePGDjc/+Hl9Ot2OiVacGW5hlja9h0qjbF4u+NYnFveIrKtWgVuYTh5p6ydXaYRWaxRNdpFixO2hvqHoFctFiuzmUU2ZoAkCZ78JJI1aDQCYisPY96ujsbbBhZR9GKIWyTiXThk8tlmbTdclRS6hLAkorGuCanzGUmGSINxahJO+uY5IiZkkhlVNNMAI1BLmZiWREeOkCLpHzT+7a9TSZdQj7UusiqGgIRLicMssi6cDolORcdQDxs6jG7BV2oooqqWquJC2jxNtaXMP/ANMQbSSzgVTVfC7HqivYuqpY3BDZNvpasxMbIONnnFpVZvRkvc6bouElUl7lBFWbHJR2lePS0CyqImOHJCQ8tU70wrIf/Dy+nW8CiqcU3QHcdv3fbRojknYM709VzCSCz58ap3EupdzFVtJk4imrYtp2Z/H7O808RvUZcLZPV+2WezXJ+3ftrdf5W1x8XGPaOzSkpNwwXUTf1Gx4xiWFOSrrWUQDrIwFqUXL0ikOlHHdSakaW18TMGD2OsVZgKwABokVni7hyRKJkXJdJZNYuC58SPjpck0x+6JYfvRwoIpoJCYp8j5aLjz5Yi+6N5Nqu68nXsgSrmIkq65p4t0yctST9WKz/pWQ6kuXe+mER8LFol22RRsmxcADlRIbQ3VVURbSDQU1U00kAEAVmolu7Bovo/SOt7G6Sdjj1cKceJiX1Fpz6dU7tGHZDn/w4vp1vK45Mo/s3XUMaZFIi+i1m4yU62rco9bzivxOPrylplppwkxcPimJ9k/2iS5eJHOIm+REVG2xZ1F77w8lKxseG/UGwbqREm22wIm9ujSLfFm6cTjSwq7ISb60157FHcmKrOFmGxJ8VAj0EjRMUlVTAkHDsyMvvEAJLj3dukmCvpMBDiI8D1yVRFIQUEUyEBUFMi4ioQ8TSzyV4AGS6uvUPMcJOOJKpYQ5F97hRRQkj7YDjwjeDWjMJ9w3nT8PrJpOm2puQ6xOm2pJT/rToc7X7joN2gQk3aN4IOLA0ot9ttY5qNbzyFeYrREJGx7jW5tPUsUWko0XRWTNVNf08tK+gT5VDl8HZf8Ah5/QWt1XHGrJAVpjHN5oUQMGxgL+GcNsOavf11UmgtqhuQ1wYtxrW5X1FQ69MVyPkDl7Ssr4inTxGyTmLkI+RQsdtmLPJOHj+qOk28gaud3ZqLtVOjBS9nO3RVdmZxjKXexQM5CSSkaLghSbnlQXLsQEkummDgSEiITLKgrOh5aHimkaZL8SINelP065EPDiIn9ehT6gEWkvUOhUHiAibgFPukGwiImOuXdy4KkmsQpCVZ6RC1IUdxqpWOMTIrbyUbIakrlArOnqjJ8QrSKp4EeJcdAJesS2suMVIQUfDnyHXL9WvSQ+q502HtMa6DTti5YvXTRVyXIfTTSTKFj+P/K/hj55Lj+PWR110tdZHXWR13hHWFU8/hjXZ9vsx2Y1nOnEoya/JUbNEFns03eNnA9qOc5/L35+lTW749OMjx1RtxZGoEbQT37jePoT34aGrxy43zLIF0F98ZghV7tP7yWmWYLx+EyHl9/yhSHlhT4XwA9EoimvyB4oks1cJYh3ItJFJQ6hxKj2wsEokKEeIdb0DyP6uWg+8JJLRESRmQLiSJByci54B2lyLiRiSZenIKKcQEOs06XEREFPUCvRUV5JJfc/T6Vj0oiIl8xUHBAR11QVhjR1uGRDaXvAllePIUnCogGhT6hcdJpqOlQEG1FuqxcteC7lHgb0R3EuCaXdtDfLPwNPKt4tS3MTXtUsoIEgu6UdLmuuqRap4p/BY8h1Z9yaZUSAJlX2o6SmoYD+1PS9ftT0vX7U9L1+1PS9ftT0vX7U9L1+1PSdVze/buyKt0EElU1kwUS/4mx2xrCoqgm+t84+yWD5K/Vrkprkprkprkpps8eM1BUQib/JoKJJvWD9vINxWQ+3Ypc2CIgiqoosqZq/L6dMn7iPW6iEc+CQapK4x7y/yz1u8Si0PHqZIh4h2RMLKTjhJlHRGxoKNkjlZLYdt0yOOnavJQaoAfUEhAS2y2+rDyHb2yUC3bZIuEkMbt1SGqkg1esjJoX4ELES44eJ4QeriNQL/C+zrh1CeN2vHj0x4a48eAkRJIKn0CEhHkX3i31KD6QJcfV9SRJiBiKaKqnPgQiIctCuQ8OKpEp6scuAmIiXEeOAULlx0rxITE6zxHEaGtwyHxTJaMh4BofSWiIiUMc1uYUgZZlJDFbuKSjlu3Ts018Ch3Uko+cC6dOHIUnaF9KJE9nGm09GbhxCW2ZrDpBwUbYKvKVd13Z6r/8ANOISg48db2bunR0E4eJgdnbVd4lCxHNbC3mNQNwzVRVbKqorV+GeWKYYRTLcPbKY27Nh3+o1xe1z8fDIXSqvaVPuoZ7TafKXWZSi4221l7UJ17DPajXJC1T7CGYbd3+S25tPlxY/xx/xFhmEoSOXdE4XUduV3CmjmL6JlgGN5tki9cMm8W9tDgXXf6rbFpl49YPrNPpVyM72UA9eScW2eOtU+eKHf4SMM4IftZ1Mqk4k3hasc/Jt3qMLEVgJxhuviNktU9bIu3COfef0FrdPinVwE42Ncyjpqya1Sqsq1FtWSGAJUeSSh4Q4dedg21gj3DBxZodzCzcg2X2pv1ejYPw3NNh2p7807rvw7fvHEU2M+PPjoG6qgH2Wdg5jnqYr0RFZ9tHMNGvTUamKeumqpquow7OVaK2Epigum5pBOuGSb1whGOxWTIOarUuSWuiPV4CLf9OVCHlyLj6/Sq14h1NJiThx00IRrQWrQCcT/gRwg4FgkLZu4VS0qPrMRo7NWSasu77jf1XIaBT0+kC4mqWhwiR8swDpsxmIp+6q1zYWxF0vFPlFk456a+3lVSsVrkpkxEVM8dG35iONLJABCerVX209DvUFZJuTNVVAoB22iKt39e+WI7VbZ2XzbTUT2AoeR9nN/O4vyDdtvT3PzLtXc9hIJBoxs96eSso53Z2bcLFXZQoGdipLXtFpfFFqda0vZ0BOGY3e3Le0WwbSkdU7i09niN7jKTVuc22dKftMvMBtZbm9ypsY/D++fbvVWOeLtFfOuqcuOs701HQ71VAh1511PRb2VPt4aHeuoa86ajrzoqWrBeou3NgSjvfRs58a2X3Xxg6ipNlYWCbg9xLAkOgTFAATDX6tI7xVhuAoOC3qqWPwLeupCPp86ajrzqqXIB0e9VR1neepZHt0TtKRIniWOPby0HZ56Le5CzR1VUw/feddQ0O9dS5AOvOmo686anyAdbw8TiW5Bsy1RdXMSVsEs2gY5xIvU95qd6Awe8lQPBBmJfJSMUydo70IinZnGQ2Xka0uzdVuQYUqo0w5SbY3PdlLcMmrFJyPEz47IQbDMVNTKvtGulH4VV2ttDPusxslWm47P2x19+vG7PWhs5BZa01OYiRj0jSgViVAgDbOYtD10gPlLbllT7ols7uEWDE/J6//AE6HaPcIc6PaXcAlvkWz+4RueeS2gvpesonamUHvD9eNj3MxGGISlfWZsTEV9tbCsAFkdt7k3LjmrKTVJqz1WZtM8Vmn5CU0Hq+oR6zrjomIogqocA3TWmo1ByxZto9Ju2Z3WzXKuE6cNNm3QvoGcenabPMV92kTHzRtem+4llkXDdoZD/8AldBS+NOhC6T0lD0QGjX6S+cXaIGrbJUt3Nw1gir1WZJHbGSRklJd4i+XoNridnG1Yhti9vr1UZKfaz19gVq1bp2KNu2C5+zsagi6XqOxTcQ643vYBJkjHH4O9nV84LWyNusMDUHTOPT3OuKZFz807Tod07aOeJealnLPEfNO1aHdG2/me6Vs7fT5rWf6RLc63Z+Y+adq5a81bRn5iW6tu48MBulaxxxLzTtP5+aVqH6h3Vt4a80rUP1eaVqE+efNOzqfR5qWr8s7o20Pq807UQdojulaiP0+adq15qWvUfuRZ3j5i2W+w427p7lw4XULbal5Hs0W2lKLXllSNeV1N15a0njx15aUssiWM7X0zXlrStXOqxEIzSXjPfRv62s/u3FlnGcs4NjXSOj2ZeMe/UPaOhEiIBwhtxUDTTJbG21MHPbgduKXj548taT9Ws7a0khIdDtnShHjottKbjPLTlsmycLtUf16Ds89F/dDwUdPLGhJeWdJ15a0ngQa8tKVry6pqaZ8d02qzitA7xttOJQNsZOV5KPaTUeq2cpbdUpUB7VdvKSkPpaNUmLVu2Q3TmkpSzSRJbPzMFBwMu/fx++cwnJOAkdzjoAx0U9rCqihek6buDLUo3Hct2Ny1rzHx6CsS6NFM8BtvINpigwXekIdioQKg9iWSiR98ukPFw8Y6k9SVufdUyi6bJP2MSkaRXy4KWNVsFkuFjZw7pdtVLpZ5L4h17JuJbGM09bArdLSmwVVxAbhXWUdKpas0tLQbVJklAW4mqXcnlfZ1Z5HtV3athgU0enhCxpdFuovu5dIt5WgjGfeOKvHKDolC4ikIt1QElKeDJwckKAqKKg2QqY39vEpBMKSN6lUZpk42ksgwsu9gHqybk1QVRB6PACVM11e3OrROIwsQ9cqyzxV86VXzBs0H0Ai1dbnVlSp3adjdW9RMtgaGI7N2/wdd2LtaeozA9/I1Ed590bEldXTGBit3b6wkmbk/aGhY58wrlyYezxMsXbOz06R9oo2MS7qtZjPZqlkcTU/APN/5NKKCAo8e2QWeuEG6FAq7WoVWKjUvdxHly1lJIM8tcR9xDgtYEBzyH3CmlgeweI+4hwX2CATxkciAh9I/hosCQ8SwOBHiORES7R/j/8AxqZi0Jhgu1WkmC0a9XZq+6nxkg0ts+5cPFlG7R0ulTot69k5Cemb1XczkYBIVNy+cwjXD3VIrvxF1h+4xjGMfL8vsln5Y7bTF4SU74FhgJeYXRVZeVUjmW+L6r8S/iWyqLqtxncG2FT9+fpU1ui8Sb09whrrEmQEO3m6QrJMomXTWbPABRLJoo9VQ7zus2aovY+EXWUdOOpnaKMaSm2ZMXKWxdIwI9bdelw9LcRqcMk1704SDSuztx5AmFz23slfiCkHdeYrvnaqKFSpcxNTLVBq7qNjbzcqywk4ct3YEC/3jgyMyIjb62+3Qp8DV/hz+LsDRraEphfdDcqrW5iyQidjpaF79MNZi8SzaWt0+5jn1trg7N9iVCszKq2NrLPd0tyoa9Kxfwz/ACxAcCAkfIkmqThVJLTvbt8xat3cilXycSPw6OlqyvDk1+K0nbWNsUKE24n9syi4d1Ni59KoJhtkPTukR1ZZO1FJx/wqz5mQgpBSIUWcg9VVOsb0KF0ms+haa8skBpTu5MDFCqLW4Xd/ZXxZWVEeIDqrkWYllgt2toGG4jbv6E5DTlcdlHyusvHeTE9EREXaWicuVQBI01FUT5pLLKrFyVRWVRPkkAO5ByIJ7K7HiliPtNj/AOJmYNjMtzTcPdupdDJ928GWPXg6y68G2PXg2x68G2TSFHsaxdmYXbvoKCtJJJJIJiA/a7fw0okmqJAclVEFDyo3Cqu+3szFV1rH9ihfPGNY95fTrepMRj2QgXHl6AIk1eQtJySZjxB3PSjweK6pKKfeEPIPVqr7mjX6XL13Kjx39Onbx7IJNQexcem4k2SDath0XrXhuxFpBNXPKm3+I0bADmS2Plkn07bOhZGKigz6+iH99Ms8RI+OlRIVeQ9Qi58iWLj8lXhDwLKaxdoclFiLTIuoWiTUIvSEe7IQHXc3YlyEY93xMtQlfWnHpiFyRaFtfIHllEJuq81bVr44+Ulnr/G2rr4zWZV6lbV0vDgAIkIruF1Y7clNy6j/AIQG/PJwJHJbwSxkqUe7UN07cOTSWIS5Go4VEvQosqZesi5D8jEuIdtYI/hjQS1dVqQ1ju822VnPZsSdq8PEXs4a8RezhrxF7OGvEXs4a8RezhrxF7OGkrB7NyhiJbcO9oXmExqX/FPHzWPQNdy+3HjUeQM/Mic15jzuvMed15kTus7jzumW5Ml1R71F3WHkyFPOMjkfl9r5ampYI5DlhzLP3eSyoKiolyxG2B40VHKzZym7RFZL3l6RLW7yKqkK3Xzz0g3culwBKP2uusgiCqT3ae6sQ5G9Zu2q6oOePq46CPfLIKqpJiKY9Q1yWT1GqqpvmqgQEoizexov95XSIzMo9iK6/exsu1dsNnnyLeyPXcvZm4purIwX9ROgV0usXMxwLgh9Ol2qmfpdoEilyMyTL6RIvp0PIvTpAVVB4aS7yP09R8IfLrPePz707UDjqryizWWa8rM+gZKjuIRud4mq6xjWCRWxVMfjB1KwUipx8qkra5KqvKcCrBTim76gwzdawSMbHRrih7bVdgCz9/T6Xc689QgX7NzEu3DB5XaHZ7QXVZMtiEsocns1stMMsOFWD2Pdx6ppOSFVQkh1VxL4My57wbqs6BGKs2s/Z7BbHve5eK2uvs0mKrKY2zvcEmou/aMnL9yg0bT9PstX6HxlBBVwqkglNV+Yri6CMrA0S2WZsq7iHO1W4jYeZicrAPvTshvab1VKuWj/AIfOPljTlyi0SJVaxTjmaeqnnVitDSud166W5MMRgK7KRZybYXTOItLWUkXUeaqiSQGasDPpT+HBoapFnNxzYPsdn2s6sDpRxIuBzcru7iX7eChX8lu3BtikV61Ymdmim79tT3imVF22feoPICHW7ihJ1wECTEiP0bc7dsq43ZSjgv1kSfAi56vlBYWlsquhIM1I12qgrsioyCjyJupaj7WyhpKut/WMcjDVtdqgmoRpCEpTbZ1dSMPMMW5KOmKKi7lJNKJhrCtItSjnzWfnJt78fUR9YDjuvWQ5GkKglyVdtXKfAjaJsE2L1d+nPMW4gmkVmbD94QzivrFLby6Q7OWVUn9yHkbLWYF4J8i9ao83Q8VCMSTTVH0kLcnXp0vV7MLQ35lGv+fHQRUly5ajaHbZD71iFOs7GM+Jv1R4uFR1tTJNo+2MCd2Gv1+wi0SmmAQtSiHCTev19zfLw9UVFNszQSTATWLhkOQ8uOtyqW2nWDqUBUSTIEyrpkjBtDX3XsCtlvlhensNRIeXCatFgtO/93lnioR0Jv5e477l5QT624dVW1e2Se6UZZ6ucG3XZ2qLbre0f/VVd1tLLPoPZG1SDBl7QO5jJcDVt0TD7s7ZHeWjZyq0cIOE6XOBZKvCyv8AfubtWGappL+YdQ5kGiv9TEuJDe6pkCIfMGoazuHTxPgQ3uqHy7PMGoa8wanq4XCHmYsGsZ7tzf5lW9STdirGOhd7YDxzPCjuHFOGrthYWdmtIWVlGRMTBRgw8W0ZBpBYm67dcEr9VuA4UPcGpJ/UpuDUExLJ+YNP15gU/mkGivtTHkJeOqsYcsOFU3bpdZOrl8R3dnXBu0RcNnCJ7HqHhKxo6hpePhHeXL7x/UeOh3Bp5GAY8f1H8NFuFUOQBrePiUIkpraWNTkrqy5yUm0iWveXaN7qZkICreaifNMmjpJ41buQ3hj0m1oekOzLGGlKxPxy4bATBOugvuxCwNfXio5hEEIy0UWq7JOZCVlXOV8R0/ZLMm8gU4s5VIJP2e3aeMW9FGwRahHOyKTQgNwYmsQ949BIouElezb6vk3w3Sm94YdFrHg5aNmqKiDhddUWKzdwrpD1A3Ia3X07A4cMDiYWHh4Q2xbqp8X0QmfdxRMC0m37wCo6q1bdzEtwC0opI7b2pI4+Ufp0CAgl0ZnoBIOZTbNFNOb3WXBzElPQSsWg+jybvZBAq6+YM5iPevYC0MbIl3mPuVorkLFOBm9tWbRGuoPWtsvEVVXTIX/njWNJ7u1yVdMmSC6YqJqp5tbXuskrwtl5ZwNOXil1SUJUyUpfXT9n6fJnU29adTKCdkrG2e0l1cP2UHQ0st9xqwji4XdShbznLDunSmqdhq18ifaP/qqu625/2Cunu2L6vljfObvp96ccNktzI+q1BVg/HfKuerl551jWN8q1+fnnWNeedY1541r9Wd8q1+XnnWNeeVc5B2eedY155VjRb5Vjh8g3yrH6vPOsa886xrzxq+vPOsa88azz46LfKr/l551jXnlWteeVW1541nXnlVteeVW0z3qrjt03bJpqdQBP7D7Zpi+fP3hlshFdPiJ7Hx/5eRzLkJa8jmGvJCN6fHRbHMOYkPkew15Ix+p6itagAKNvduqmSjyvAE9W7Mwj+8uqatEuYNBaMtcwxh4hxl1VAKpTrJ1LiQkIFj3N9nGTtMHCo7JRv6sbIRQnyItj43t9JbHxpAQiGx7IEx5Fsix5iQi0GMIGY1T/AKdu5YGyjpVNs0dLq7IIq4b2JwRVdK2djBXyQj9eR0f0FMYxscwx9YbJRiYmRbos+VW6+to5RtF3Jua9mhUrBDOI5UNlI1YOaR7LxaAc1YdmMbGR7IN5HybyzvhDZFhAoR7+XcedVTxK9wcbrQkHGS6UjDxPD4jH9tdauWMtIJr3euPYKcksFrYVgVaRfvZx3Fv3DG393afeOnQ6UsNcVH4W3XUJEOQbNWBo4bCnKb8ykStFKsG7RwxRavVFTko3qmOmn+ljS1W7BNQCEkcQhu1SCZ9CZ3EFk+mI9WJEenzExERIONZfLN7QyELasy8FT8WcTdn8C+gErHadxnbNxGzVe20lmsOzsTuwT8oi3oqrmMFFZwqqZ1ZOKTmo8pltIxaeGDZpZ81xhGPXU9tXaYt4i9gkJCHjHzhJy9CpVJUO1Pw1WUTwTaUkEo+Oevjn3XfpBUwjYaJmoWM+JbrVdxUbxNsD2BuNfSiJ+m2C17IXqvvFxQ2Ao9orcpNy8xSfVubXc437/r59rZixo3avuKHK+0qgo0t0Age1bB9KbG29oyYbNbjv1eCU7KQ+0m1bqm4ZMnEg6bNG9W2+r8PXYli58H1QteDqnrwXVOXPQ0uqYzyxmm1PWabU9eDaprwZUxLt14MqvDlnwdU9DSqngOOs02p68HVPWabU9eDqnrNNqes02p6Kl1TImOU6XVE/p8HVLRU+qFjQ02piHHQ0uqDnXg6p68G1TQVOsJKAoH04+X8S4RGZiIVBMsEmRpnrcoSOSrXYu1ReNFWy9PcFAz0rXlXSeb3Z8o6uNdCciOkhRJk5GJFs51X4dWXkkk8JhgREcfZzns7dWdgTZ6bgbfSny0oNmgXXmpYUsRjmv1+PrUckyY1NhlBM3KnvL6c63aW7rV1W2UnBM1wXSoF/aWJqg2eCmI8iAkwUPlm7XtpV2JpspeQUlHzhdXZWGiY+rurM5zCbfbjsu+ju84qXfo+NgmyjlqSqiUbuFdYV04ct5RzNyoF31CPddUM5XkZZwLcV2c9McFUdAKqP3+Ukm6jg1gdrfuplplJO4Z2k/YRTV3ZPEky7QZ1XpALnu9O5a/6A3EBzG1mo2Bx3ZzdK+2qdgcRbVk8VamfBdRUTARMuJfNBFZ446SRVO4Sjtwk0d1azt1jSdFB2hQEhNCk3J0kKuG1fs8Wx727RUJTqirVG7Z5ZIBs8VUNOzxDHCaqVn8RQ0mqstT7XIfC6huPC2ZqHV4pcfQ9mIuJQVUe33chzLKG0a8iHpHqs8vg7LnuvtVHbhR5OQn6xYag/7tKRW+G5US3SbITW9O4860VZu4+Sdxb9pItJ+xS1lkDkJWEm5OuyaEnFWm32C5P0pGbq+590prFWPg3W+W571EkVTKXscjzLZLZIY7DSy2X/AIjOMZx2atNH7yo4fsVmrlsZA4IUiICzrpp8+poU00+fDQppCXIIevyE0sAowFdawLbKaX2vlnGn7BJ+iSSr2rOm/I0AipIz7NR1RzgubxJMQwOB95fTrexYVIxuOv1ctR7hZu45IRu8Nqi0hbakN6LO8SNLDt85dc+fpHWyk5HhTpFk6aX+goikg23UjaUxftzrO2fSTmTJW2vIVZKIGITLkXzJTjzIlUxIOpnb6qwtiSmCf3avuWMhISK6DhVmDjghty2Wj4ggfbH0oo5IkHdRiUVVRI6rE8+WkNqX6yXV0vtTJN0jM21bgh+qnbd1y0PuLqS2PpUWCTnVyrNeg27L4aumKa7gQrbF8pIJOW23zp24hQXC1yD1rYzTD41KD6EhkHbNo1SQfZd2iJkK6a7UmL2QSyxcLN3rJ62Zb5wpItcvJTemJzGmcU8fLSDt0/ciRiRlhtbp1qAJA5mnbpc1c/V6tCPI0hKA/lLLPun6xBWhn3SXkPZt23dLGoH7MW3Gv2YtuNfsxbca/Zi241+zFtxr9mLbjSHsz7cAqJFVduKdTvVDf8V8s9ulGrdfHYp4bgteG4LXhuD14bg9eGoLSUHDoHzSBMQx2DnGez5fYvm/dVpzt3Goz/tJXeRd84jz/wB0tef+6WvP/dLXn9uhr9oHdLX7QO6WkfaC3PBQOdY9qNlxBvYYeYjp2PayMdn6VNbps2jiovXJlxx+Ip8i46SauVC4Auxcpn6yHiR64+o+NGokrdV3qbVbYCzBkiQnoGRrUovGSG1jFs8kXCGtzIsY067HNuiS3MV+iXDiKq7noGOdo2ovEp3t3RsMa4cKwoKDy6Q6p0e5lIyNcmpGot2QINpcSGTkOTYgJ/H8tzZWQbWxVNv8UlFB4mn6fVra5MidvSxYmiQxQCrumif/AEpTK4j1T1UHibeRNpmjRb9nEm0K1tXa0+6UDurv1qYSauXDRuulIDKVmJl58FHSrp49VXqkD4mnWUWVzoDuvWAGMc5qNjYodd0Q8TMMtE3L40kmjLaS6LCJnO0qw18v38k/06ISySWq3kigo3ObJYoyrRDuWktxN/5+yPOjX3s1LyCpKvO9utd7da72613t1rvbrXe3Wk5B+ifNKp7x3esPm56243LhdxYw3LT/AJb2htynNbYsoKHYsZSwyaTZrFbHt49FuvdH2yMDL441BrXni1mQrq1/2EmqZCqzKIBkjEdbj7bZobCsOdbZbap3ptOO3C2y1bd8Eoy67Y2mjEmcltdudJ0CbbmTCRay0a0fNd4QUbwYJa48i1tvtd3oRlLAxiYuNQ6TJ3HsXiXTdX7adl3XL+AVbki4NA9mkRDb5A2qDffhvKsu8+0Q3TEqwvhpLvo1UzavpyYeF+8qyDlThyoFuhWrp6lZilHab9w5aFeLC4buGwLks4V6jkiERblmvitIRkE2EE1WcU3SVliEpV/yQH9+j9bhTdWZWAUH8zIRMgqkUYPLs1tOSfe5Uc3iPXfMwdBPowRQkepJq9HnyVVcKN3HJBC2WNr1TBzYp1RdVUvj0/8AVqC3KusKKqSUharHNEqT1JNXgqpnbJQfGcQQWS/QFaepNHq+8VRcIOEjaQpWqxm0hq9U4GsoClGERKfg5RbO0DSX3D21bNQVlIsw6ZgJVoenBRo63/vTmfuTyJba2CrFWmoy2PrAztPs/Tj9KMW3o24QoE2z+G1unUfbukMbVdJC5bNWOIkm6+3Vo20hGD1K1URts3fmsy5jnN/2EwDgE18pqrqklTrTJU+dYSbKMftpaPZv2v8AfdRMfq6yeusnrrJ66yeusnrqJ66yeusnrrJ66yeusnrrJ66yeusnrrJ66yGuqnrrJ66yeusnrrJ6UcIJgRZv06rYrZOvj2EgmUTW7Ff3Nvs8jcrA/mHyHf2qgqIUpwu8v9ccOZqzgW5srRpO7093R7SvEL+0l/IttdbO/wC3G62hIky7R2UfluFRLTVZpynlu4XSz7Ps2MjtvGpHvK4BxDhqgV9GxWlgyX5CiACAZR/HKwpn8wTcAXBUt1YlOLtckKWxuHatVecxazKX0b+JyaakETsvSXLSvHkelOPL0inyEOxlHrKByAW/R9ToRH9JJ8gbiVUYto1o1eg9dOVB9clx+ISA6TUEXzJQ9w5RlKWlwuyEeRn2h9OtsCLvsgIWJR83ZJCW56JIkyXw2FIi7y9mU4dVRI4ptEy0hz7ovW7CiYdUK/P/AJIV2f5eldi+j1RByJFyPlXWbmQnYho1nNtIKQkoZqFq2rgJCFcfB9j4smcLNO3EhKRDVykg/G31IezGF7PWViHu7tAX7F6gc61FnIqjhzb4mBpzg9S0irLSb5+rr2bmq72vXxBCC2FuBTTZxN+0HdYmyykLGQ9VkKxvJRI+qTN62itVINw5W17Mv8l3G05/1C/v2P3BjF6K2RlxutTLl2+ManobpVCxrFyqevGFU0NxqhaK6VQca8Y1PRXOpiQDrxjU9eMapy468Y1MR5axc6mWvGNT14xqesXKp6xcqnrxlVefDRXGqD+PjGp68aVTXjGp68ZVPt14xqevGNT0jbawuqkkl9iW2qtshJyDkPJq2/WJbOW7Q7P3QO0ceTlu15NW369eUF0wWePk5b9eTlu15OW1IfuvKC5ljkfkxbteTlv15OW/Xk9b9eTlu15MWjs568o719GvJy368mrZ6sl5OW/Xk3bC+stnbYXMTmo1xDy8jHOdqkymtirfHNq/KrVWwsZE9pt1k9xbGvEuBTSQ3tNFL2hXy8bugi9bWtBrvTt21tzT2kf5DtprZ3/bjdb3ey8hlFC6SKkktlxIyCutotsZ+bqaUq23e4+GgTzsw4RRuqQlcodzNQDhk3HaK4D6g8nrd9WYBmoxhY9srvYoKlpVwGzdTfTCK8oo77z3Y8Mt0KtZ4aU+IzlZrr+0TbeJjo3biiUuG/6kteNmo/mqk03EpnSS5Mb1U3BcW7hOuXiNfss2+lylPfd0dqCRCkJVewQCkFFO8r7kVxYDEbtIVWBSBeMaVmFkImPlFTiauiXT0dPhWotydWmLgqrCBJNqPbKDE/v4O7xSrAzVbLbnWetS4xTSFyzTetVUnW2e0baUXCXza9yKrUVwjnRb0U0i0x3YqbjqkDbeqkDp+zgd0KrwTttTf0+WOOe0uabQU+wfuzfw4oDL4lJyuRVUnZxDY58LqvSjYrTS4ezSDT4n5GVjTbaCtRjto7bu3HdWr1ydheC4ljMXW1EFbmgSDq1QpV2xS8SWvZ2M06vuCQbZ7kzVfuLJJ9v/AExvWLak9YffNz17PNymZ2Se1WWvjJqwuNkatPZl/ku42nP+oX92B5F2YoOx8F4Vil32djauWvI6qaLY6rkWvI2tfq8j6tx15GVjXkbVPy8i6x+ryPqvZ6fI6qaHY2s8fV5H1b168i6zryNqn5Z2Pq2i2Mq2Px8j6t6NeRtX7C4hsdV/1+RlV/POx9V4+kdj6rw4l5HVft+fkXWdeR1U0x2brMc+avUv7v2kKB8GmEbLH7U7hK7f2FJyvbaVQNx3p2Gs7Y12s7TyrqemkJlg73ZCYD2hJWNmL2bmO2W3DTps7ljJe0pMV6TRpqMNsk4iFqrf4d6ls3X0fvZG3bk1Sr1Maht9AwMpZpRCNi6VXgq9Ug4Ud6E+jCpCMTKOYd83ftqzZoq1RyS7dPCjfHYC3XcGOFZ+wR1ZYd9kbNNLTk1IOz2XiJRGvTMkcHVrk9jzVlt1Yq5Q2G+J2hM4yn7aBPYpHwW/qTDm2Ptmdue6iSL7b6pOK61hjZbO7c4Z8dXFUdvbA1Kq7lJsZ/bdd/lBTqIfeqclA+a7UgBUNGgPHRKPSTFIemp9RJk5E+QpqK6aceQkaHp11lPo0knydtxHc20DRKayTjtvougy0G1Oec0nbt46PghRdvWa/LTyj7aKICeoiQKu7sinE77t0/CzA8U2ulaZ9rG4XcUSvO2EI4m65SIWJl3bupWgqnZe8to+Ri5xp1Woi5TIOH+WCpnuRuIy7oqwjlOShcswKfTimWNe0NtZJv5FW2w/Zxz2Z2s3JhaRDWtjIGv+8EqFo3Ur1s2+jYqTDdPaWzMGqVtf7vUCtwjxlQHTpw+cLuHO0W5cJQmFrbSSp9RRUsa2h2vlrtMsnxgmCYCAf8rPQETZo1WMltx/Z6nIJ4u6rL6BnodbpPTQeqF2n3R1rujrXdHWu6Otd0daBi8UMRCt7T3uyrgDTbjZ6t7fcXaRfTreUlVIlItf/XVdtUtWnveWVO3UjJaPV+PXHdSKhWCRwlkuUtZHXVe8h5fPZOYYSNTWhF3cMSzJg0b7/wBjYvxjYZnFiTjZTiNCi4ti8P44F0TTdqpnIXxgTf7hzenZJN0mt6mCmlUnObosulswyIBAfQIdFZQT4LikI8dGIqFxCEqvxR6kg6HbOF+9HR7dsGouFQXjnKJHzST0mmXH5dHpjyFJYhVbq43sbozFZqAnVJSHgQSTdDcOj1SBS6EogbZWUvTZ8bIm7Z13jcCCe63v+dK5a20lGkPb2q7qQUoTt8jKSE1MVCYi3TZ49ERfPQCCs07X3Bkwbb02bs4Lym5FhmEiQcuVjWPkRcuYDivlzhY3OlkUnCSqSt09nSo2NY3cVMezhfWLwk439nrdbX7PW62v2et1tfs9bra/Z63W1+z1utpv7PW5ZrgC9X9l+HbGgvPwcFFVuPSj4n/l7Ze61S2aq8pM+1HX+v2Mf2pGOv2pGOv2pGOv2pGOv2pGOv2pGOg9qGO5hzp2/FItKuWxCQKAJAX063Y6RU96RCI8eWh+kC0kRdIxFyKiaXElPq1y1ADMC85xDlbcbjxXeiqiDhNeEdA32RSWMSHpAJEny4aUHiXLX1GA6nS6bUxK/o932dbo6IiEUuEDtXV7FDg5Gd27qsGRtXi9NgnETNSiUfYJZCPZCCdkkuPz+PSXZqJjxuVoboPxo9ZbyHQVhNqqk/yWNbgUuPiWXKHhm6bqarqbnfsRGuwApD9HLI+sPUJa+kD1E8lLdWEw3s/odzoRIvuxs1WsdXjo05U6VZW9WC1CmRLDz11BH7tJNq5UHkK6ZJlxyXqLlj6lw5V0enDR46cOEWaKrhe9+0q2iHqsfWn/ALQe5j1czS8+t09efW6evPrdPXn1unrz63T159bp6S393RAwIq77UcuisklP1izxNuiG8rF/8tvXuUdAgUgZSUnIzT5V6/q2yl5tjFKRZzHs/bhxKBL4YRjuQkWscjbtqLlSWCUhLiJFkRxbKDPUxrEOZalbb2W/d9+Cr+zvuYkHIJuBlq2+NjKbL7yPqzLJRk4CgqpCae9A8YpIdKao23klaz6uoGsxNVju6MJmtxtkb92k7vtc/raJvkumoJ8C2MasEae6fpK7tdGQFkrv9FxzdlFyOGW4j0aH4L05syjdwqgkNqfj+CcpOuEgIF7BJN1wA5J11m6XOX3JdTlHawK/IeDfVHtW38DCJJTkvf8AZ55lUtPrdT2sRJRcWxYqrRxqAvDoszBB33NtwVIa7NDX7EyfqtL7t68lUlzitytsBIxX3Et1clOqnXE2bsUEnY3i+v7TCwbB6pYn4qmlgpyWH7w03UsogCpuX0syXSBw9dOWsmyXa2u+SVwaRqDraZmyfXNqLrcym2O3HFpRtShVqxT8MJt8ilLWV60hKhtfD19v1JIG6aYB2TNXgZxuqDu80J7U1xMC5D0i1B4EYxkI+0fuG8VnDq0fUmkdJWOHZyW6VHKjWh0wSRSJZVNPG4m28VQapXzdba7OSN7bupNyrV9hnAfCm24dKOjzLeOxQtlTsEGVlnzqGx1h6UXCXOrrU+xSMKrtbf5CjWNisKSgKpJKB/yhHwEizu1bXlrucqsvsRS2DpSRuE5e93rPPzTzMZFbo32FV6jWqP15bciCkXNpmWFjsVh23lJqAkazNrRcl7SX8i211sq6cs6Bui5at9y760WSVCqrt986HMpTigEkqQZ2Rn1LDtvBKr7viqpCgrqpwmbDPMo/DBg0i2Tdk1TREsduVkixjtSVbtnSRpr7gwI1+ySTZLYfLjw3IY0/fOW/LIb5TLyQYwCS1dZtJKdjWTse8qOpAmy7py4bhydvCdL9QF1CdOmQ5qW3dIk4Nw+lLMxGFssvGszJ2oIdpLueYCavIh9UfBO5QZd6EN95BSqorxruSX7zLDDq8DVatI9/MSyTZhCUG4NXHQyhtjepIDIrTTpiqoAL9HrOCSFKhxFUM5lC4JC5J847sutJLN1RNRYnApc3pOVAZNl6u021dUxp8efC0Rk5AWUM1knkm3CIstqs1IiYhzJzL2xSVDSm2mydfZLN5CdXUU4qigA5ZiOnBthHlifi0ZaHftF3rM2bw0tITKUZT/iKtllinZ+XkyRVJFRNUN4kU7ltTUbc32phPEF9rjTO+0+lZ9wwYNfaCc+FKhT6xEci5duqi2Usdrq0Y+9piYWaS8FWmgkQl24cu3DxXquPw1svb0Z6hxprg7aH9PeENA6bl9Pe22u9ttd6bF+BOm4/V3hDWXjXGcCXeW+u8Ndd5a8e3QuWpfh3hDXe22u9ttd7ba7y0+nXeGuu8t9d6ba70313pt29mu8t9d4a67y3Lj2fYlrBuuEpIJs/j+8Y+vRWPeLlobPvEPp14i3g0U/vH9evEm8Ilx14i3g18f3i18f3kR+rxLvCoXbjxBvL9evEe8XHs14k3j14j3h49mvEe8PLt18a3m5ctDa94Mfd48Sbx6+P7yF2FrxHvFy7dfH95D9AnO7wrAqnp8kui7dJOdtcdbYC4Jta6pFJTcaUxSK7she5ZWMjmMahD7wNo1rvhMua9vBHSzbeKEa36Bhtw4P2kv5FtrrZ3/bjdb3eywKnO6HqVITkpAh2ecbgsq0v8A3VdLDUkkF9l+n4z9VxdTDWEVVhhse8KZcixYd4Cz26gFHakKyUf72cStAEOz0hbVkVYlk+dfDI1VfO5dls9heJDPEIqEkOicOWbhwKDl0SySoCgTkRSLL5w5cOwNyc1OtWDdsCjxRQuoYOiHiOv9UOhUER4HV1P/S+5Y6i33dYru2lZySTZK99aOHbSOV7pt4DQbdxXODkpCfj+6w0M7y2LnuJHtoBrYVHIN5FaOdNo9u1k2cd0JX73vTju6rp2oyPmycKot2/VlDduCSJV2oq1Vbil6iICLamQbR9xZGvuBQ3dxdRqgV6v4qlTVjF9o1kVK5NCFvo61ufoiPkZIcdMtnXsc7avlHJJikqZz6ySkwZBPbTvbQgrIITEarESkhHq62IeoW+sWeiSm1VeVpkTuDbnjV4Xxdu8P2oWpOGVJkkNbbOcMr3U1i9qFkqndYx79jbjZR+9qrB6fkU+/T5GP8AXkfJaHZGU58c+R8jryNf/TryMkA/Adj5LJEJeRz8R15Gv/r0OyMsY8z8jpMu0c+Rb/XkdJD9JbGSHo7C2Pf8deRr/wBPHyRlRwZiGx0r+vyNfn9SuxcgAmQjsa/MPnjY+S5cT8i3+vIx/qN2XfR8iyfF/d7+0RSp2s5ENlNy21SfqxEzdNgZiTkHE3T9jtrLVSLC7mp4Fk3G9vWS9pb/AHEPWw95ZMFXtLlvaiaCxY0BoOxEW6mKRuXHNWns37iOFRFd/Lw2xVSe1hmkiu7XBMNsa0pVKNARK29iI9ySUCqTylbm2UoDJ42noxu7bpKOEkxFVZdytk0klFmzNoai97sA2CxSTtLYx3J+G5FviMdyzyObuF97H9hcv2DaTaNURVa8yfKx7h6CTtwjluaCDbopx6S6r1xyfN1NKk2TFueh4rcCDokJKjroqN1QLTmPdvIyQlG8RMKRkfPxukiNug3ESlBLpSjpV0Xd3DlJzxTe/OJdKkHE2zhRPh3Z46fuknHePSiAAk+W9SXLrKs3TjipIdRuaYxAl3JwSE2LlNVuqrJchVZEQcvq1WY9pMzsUwedjFJJIS3YYTowMg7YbPWooubShcOW4OBS5As54/eKkooryzuDakYeMfx6SpEo4BQ4THZEx2Ne0VQnMTZl7E01tbcEqRcI+WcbxboU6VqBwVW1Td1qvNVTwdezpeyqK3ezvcxVnUtHYqrHc2iX+sNYK/hT9ko5fru7rKQstYXbqD29pUjeLExjmrNsk0bINkf+V3Ao0bfYBWLd3Xaq30ly677F3K1wqGG8a+vdxlAJF4g5XauE3KEnLScw57zIpLLN1QVSlbDOTmUcSkTY56C62Ita+3Vwmaa8bDztkdEkw2d2Lc1h8E7ZC9I+nd9NZSK65cuJHqj7gvaq6SFVhurT3gYybzdSnNQ+V63Mc2TPdm/ULqmRbPZxI7dSMe0dNbUhBwbKL3+UBOMrxZUo1jdQRWpBTot3D1J0uuxJuqm2SeOUQ4pGROFQI3LPpxTdQl6NZ42Ab2JdRPk4b6osgwlK4ZL2RwpGsZBpEO0y8FWJXSXEgalpy+YvHSTk++NOg9TbUJmitaHBOEFEms+wTaQYimzVcjvOQkLcibcnRt0gudAstTaRryVIijZI+uo4YJpGSCaiiPpBQiWIBNVq5WdMmyE/Qpynoxr6VhIVaZmGsW28lJw/kclIQ9QrgMHa7xJrIun8dV91rDBrqlKBvZWFkgLNg3kFw1VSiZSSWknHUVH1Kpag88oeP1Kw8dNsHDCRvvs1zSD1V3VH+2N8jViSceArprwDc9eAbnrwFddeArnrwFc9JbfXhVUQCueznfZdZIpCi0KFoMQkxYfax7uWMfjlZPH49QPy5/8AbXb/AHvLj+PVR11UddVHXVR11Udcw+27aM5Buq2dy2zG2swsSy/kBtRrOwW1Gn+0mzzPljQbbbUEfqZbN7Pvx+68gtqdJ7CbVgQmELVK5XP5Rovp1u+4Hw+aWvqH5kI66yojx0SyvHjovSXq4nqtWmcrTlVWK88r0I8cz9nnLKm9Uk2SZI7IgGpsem+LkRcvwL9emSZLOm4jLLd4ZOB1cjFTZpwWoBnGyRJIPYXdKZqkf8JjXO8lydN3RHJbiWGYaqwrpjX4l8ACgdXiW49Q2Vfi3hqjHDPSlFnVXMaz3YnxVBUWO+dpQ9JW+/O7dwy7hFCGTiCxv0AqU1gWXyL506VXD4bKKDyFOJluWm1ZsKhpDmNraXKoFnfgeNWiw0koo3NuugW6F3UMBbytgmJZYncikJ/WZcv1gI+stcfV6fp4cUx+/DUKPGJYY9/5adu0GaZKKu7fnBlhv4uksa8YSekLi5/BaOlmb8e1H5fwTLAY7SlbJ0M9NstMvlPkWXzzWHrvQSzpH5ajbKtzEXLddNwkJh/dzU+lGl0Unc3JPf8AM5Fr1a9WuZa5lpNZZEuQM7Q/b8BXavkXjdNRD7Wfw1Z5bKQYaIKuEWqZKOW8xEOz6bZBVRuoKqcJIhItAPOPsb0IinGhrqFqu1mUtD9JkwjdimSaQlIvtiYxwH7paKbLVl6qg7IfT6m36x0a3U4dhce6OBxzJPZfmG3Y+KFXRSjmowTwm4tU6Sim9AUlKm2kEkk2e5sexiXwMGt0UFPZtBMx6yKQJ470rpV0QjyybgeXLVL3TlqU5fkgPtFSh/X+0ZLCJC1sE4tZ5Z/LPUu6CJ6EmhBx1+48Q7I0VG8nFDj2hVlka9W+FLUXmmsK7ZWuqjYGQNpWG2ggknsVIpWGAKWaJCbu1u3F4rsOO+6fKqMi1t3tujcwevXo7D04VBLFr2SjI+OeSEMShegdVLZ1y+bJPZsdpaQmHHMts3BOG5jGTsC/rr5Vs6H0rtyGL/lzP3uXKbZEllLFPjgHMi7db0sEiPudTucXbW65tFDSSTM1VtzonFibQbVJZRusCqULJBJNRL+DYpLDZEUAz88a3BtMy+npFrF0ab+PViLelMYk8RrgYt5thNSRd5d7cWuaczUjW5OuSZIqCyMfnj+6l5DEYyNxrcC4K1eLN8AVndZ9wfnWXFjcMT+Pz9gtshuC4rUN3fd2FSNzijX9G4k6aK63AvtgaWOQaQ9SmhsVdipTUFKnGu/V+n7RfSWpVTK0i+LNg2+8SzZvXt423Z16MzNRNXk1JaBjXitPVIHrhL7BfTrdpuS1fVkRiYteWfN2DWr1xlWYduwbhyWTMkTVUQEe8z8CwsUYrGvbRDua/JyEWrERclMOO7MJKNdxrtVo8KNffBZCT005ONl9UC4MquKpPM75Up87ZJaO6VZm0VVPz9rKIKi3uNk8ROlXp3hNUdm2AF/+ZAPTwk4XcE9iXiSpsDRUdOEmyDmFfpt1V9dpJ5HOj4qAKuEB/dwLEe1VcIqrgo3UZmHVURHJGeIrkpJxrTXtD8grNbDNIvydKeG9D9omJIeKqXtAwQDxSmN98SDNVBrFvEn12gHIb6iSlI5jtNFuWu3BINtu9xFIOCsjKytF3p1iSdSe1FPRmZp7OuM57DHGMtnGSAtHnILcFL3X21giXBZFMkXXSKM/lzD329xkWqKOHjNtINlWzpJizQS6Ce3iYIbk2FBrZq8FkYt2Z2aEZwe4lJaMC+ZHqquMoyOUtY+3nVlVwUoYak3qUbHvHqu3FcKXi7BLO9sXxQE7MVFc88RMsye9Uc1SPu21MWk4kZeyG1U6a6C2ky7QAv7GV3elGcjIs0cbzWLBcsqb1TmC+Se9Urx4H51T3DjrO89h5ch86Jcc8VPOud58tY3pnfXxjbpLWxJVN/ujXXs7AApH1jdtkSSUfZklknCSSqDb/fdX3XbOK/uhXnTCSkGkWxdP3VArqVigLJLPdpHZRvx+sONL7vTTNyq3Et5p8/SkW9FgPkCXnPO/QRbzTgEBaLeiYP1B50yn0Ek8zIIg9P8AD5a3Nm3Uw+YVSJjWCcZHs2SL6yOqumD5sG9c6I/LG9M76VVPOud15y2I854blPHKlSBNzsuiktdUiO4zCkHBOH4JbzSyZCJnvJLKenME+KQh492e+CKSNicLjtywi4Khxr8FWlC3aj+uFnr0ZXdrJiJQoTJtLbZwrB0ezO3LceCp7S7eNy5CW2O37j0kO1+1LdwkycHsnt7nhx3a7u129etkB4/UYqCmXHL04dLgMcn6j5F360piqi0V4qKfdJY+746Av3fjiHUcpoqk0wzs7clU5rkXLUQsmnKwrlWTiq5do1um6PY+gEXyPZOgiXyHZvb/AImOUtl9vePE4/bHbWFdN3aW99kZ5gmsehT7jPVqTasoN3svYpiSlZBxeq/uS4r3QDZdMBpXHFr8yCly8M/466gvNPEq0KfXEVAdkckml8Y9Et5sg94wP+Oxhr/HXTNO9fenatXi3IQDFRm124py1dZrvZDV+znG6FN0X1Hpf493cygP8d/r0Q76KF26NPfVT6hS3zD6f8ddD56AXAepvmWeOv8AHbGmKdkFDlYt55hyziGMWzi4HdyOYNmrV60t9Vt8PPzxOEhBI8rxrF0HTXhUm8Xu6qziiTcEKvdP8cvp1277Br/HdPX+O6euW+g56hAe+Z/Tz31PRDvmPq1jz3P1iPnoRa/x11/jzqLxvTiUYd9+wUFCqGZlmDhCDjk4CEP8fDsFksFr4DB6+AwnDhrMBBkWC18BhNfAYTVpi2jZBus15erVkodZsgKk72VlJBQ56KcNv991fdZseLN1IVuw3rllGteaRaMHKbqwkSwYNE5OxQu40ZMTX1F6W0BEA3S6owMKOe3AwcOJZIfgUFz5aKvwpCeNDAQeA44zXoPtwWpJAG79ymN9u4Q4fCY2nQUJX0hdvUHDZ2PNCssG712vhz8AhdfAITgYa+AwesQkMOD47yn04zpZ27nAr9pZPTcotpBqGkoaDVAea8XANx4g0TBFFJAN1ZdKassuIbb2KHnKD8He1C6P6XNKuY68ye4tpVcT7dC6WaJiQjmUterY/Bum8O9XAgAcBdrYmYElJrzExIs5tyrerc8ECVVmpZ4l0nXDRKJJ+rXqW5kqq45IdDEIhLSj1vDtU4dpDu3SaEPt6hZWEkUWoxctiWQXaKceGifPnBgu6JQuWh4l+LKwSkWAJtlbhZyLlpSzWMi5a8RT5aTnJjloJB+sXI1ExUPqnshXIwIMLCac3MrQku8VkN1727jF0l9k7UCPf4B6CpYU5h1k9OluefVcbA2g4V7yUcE4dgrmHLlFR5e+xsMvo88DbZhzXYCRkUK1ZYtV+c1ZIjcmJl5FFknOzrSvsgdu7Xa2cte69LN69bY2yqOhaVOPMMqu1MfbzqfjQeN8qDPUUp2yMJZ5j541cKslbIkmWVKw4eVxKKeFVb2mHdk6pt/H1t0cgrXIznnLtbHyHGvy/uZBmlIs1W532izshKt3sU5jd2JRucYrSKW0pbFVBKb2/tq10cWWEe0vc2YHoPaTSWFLZOEkHdHlpS/JTb/W4lLUuEc3FrS4V0s1jzf/AGs9mrTFZMe+oz22desMkvIPPJmqY1V6o0rTc2UfBxox7URL35+lTW7igqQHV0JcfUO3m6XcUm8TLspBhINeu1WcNEUua9/3SSdN3sTDOVOor1CSIvrBBHrdXj+/N+fBNqs8dpJFH7HzD5dVs6ndp7NDOOCStFtCYgppltfc3yILpM9q7S8Yv5HCZegx0XLGnfIS9baLlpQFUGWz8jBws9JJTdgGC+Oy6kCSY89IOFW5pLt6DcYBCEdxDn4WVmnehXnbNaPeOGTzqEX4APEeOouNKalm8dqI2Ws0sq77k+2jsLVwaWPKmdIuJwns/YWZgq/n9uxg4txMJNPSkfKj3l7R3apB5k1shbrBZd06RL1+WZ6rcktX5NhMIV/exg8XMZdtaq0s3BcLFuhXosTFnaba/sj5wqugI9dvqJLlGMveWMZHOMztc65m6QNuSZcT4j+XpL8RTEvwiK4o7PBrJAKYYAP4GcYzqUgEXxYPDuvyLYclruUhj8e5P9NoeRcaj6x3dQFHAJgAYHH9nkhHHbl/cK5G5MXHmbTdNtwqk6LgDR40epYWa++Ri20kkYqrVKTDPaj4Ym9eGZzXhmc14ZnNeGZzWK1MkXqj6gQGKj5NMUxEQ+129nZrIYLGcZkIGNXwSpo19h1dMIhgxH7j5fYz9Kmt3+TeFboe6EgZiwOOhFNNqNxg9Yudor+4ACKw1Ox19A1ZdRMh9Qth9KukCEjV5CoqPAhgmKchOsklaI3dumUvzvqI9eKUIiTRSItQ0gqnHMmEcrMCMtZGWi5C6cDrlxIzy0au5h23YR1OKd2psSqE9erRF256k5a8R/VXayjKNwdvLTWRhx7y1IVCDjql7hVmp1Z00CN26uVubup965bpM3CrQxR5fTUolF4ckRUBEXFXbkU6IjOy+lCEkleLEe2OikyaQbaQfTpPHKZJqPU0I1Cwt3XN8usqikaQp8Ux6hktyL1Jkonz0LhyOiWUMfXz9emwkou1HUQJBGMsF7vx0RAI/N5NQQ8gU+M13lrMxXdNJyAHHoQcorp80scuzP8AB7dSM21YlxNzZnio5FLMzI5z8/jUljTaxP0u3KjGyN3JACokBhjj/Y4+WllU0UyUVuO4b+TcLs4siJQzUPRcP1V+7uYR4knH1aytbLGpuUvcu4RapEou7tzJPBC38YSXL5eMJXXjCV14wldeMJXTa4vOXFdnYox7xx/A7MfLUxLJxiBFh5Kv3uTJYSxy5DG2B4yVHCrR0m7Swqn9jegRUZJEG3tDVuUiZLoJ1qmMUkGpzdmd45sCmLkzMCXbWOsWfrRS+5u1Qw4OJmBaCPrEUCEjPkPH0dsTJO2ssyFCqIxsek6bFenCMlIskmpR6ywdMNua+2ThlXS7QoAXdn5ql+9KlpBu7lHzeOaBU7dtXLQU09ul4e3AmAuPvOXLSnEh46qU8wbxiUc9t80xkGQMmvIuYci+rkMvuzIr1A49OU2rskPWWtiekXET7acs2+NNyeVC6UqBSesn9mt1GYyCqpJX6kKH08JbgUKDZtGittnqyjTkirzYSeLqpFBUCwWVJUY2x7bWSoNxeSsXR7PYYp1NR/RU58dV/bW1WJIFWzbYtl0AFzP7NzseKq7JyzUbr8FWXpdtRxGlyjmXvVPACWcz9hUUJYQcX+ntD6Zx0rGS6PXj13DZqga7ktwKaKvTKDsGAEHEeydpPUAWT/gTMkLBufYapKqGZ7g7kycNL9wh6zLYnoONkcTsgpFxbt2i6k96Vx7032/vyljVcRkjWpXq4y1V1j+wLW7E4swZM45v771NqRzRJk3o8AaAJSzijzbiHnmWMfp0sumimRnLSi8k4LObvfW1Q7q2A9wtwI9IHb+JffFIyPf4uO5jatSIRLTzG3Caj13cJYkZ6upTLei2he2w7h+vqtTiix9zd/aLPZqedqOZJcc2GGtU69VaIT9ZsNCbDNRcNIfFIiPf6p71TJqtS9+fpU1uGzKQjG7QX76G25rTcQgYRQHnx2RVW6f0iXWD1W2oN7Sk3LVNnzsEe7j5Xcaro160yDZu25JmfDjyEx0usIuAUbOXJqmWC7yHBVMzckoKXaxsEozb9BDCznkqqlEqDKPo2OXn9pndTYt7VXZ2+Ts407hrkQjy0mBEXFJpXZp8XpVqKzd81bOpSkm3ZddkQ8i5EIkHq0gsoiqCoSFqs12atYIL/taVPZN3OR6iavECRULny7r1C5aFqSZchAVS4CKQ8Q46TatuOtvsKV/alu6i6Budi7ruoadiK/G1aCdR0dQaWNpsc07XPpppccikt2duEy9Qcdz6Q0lWb2YbtBLvrccxHL4Yy7fdaXpN2GQCbi05yMcR6zfa+mItib62yTVhr3Pw6G4zo5aShKsjnbKpfDe4Z2vF1BTE7WHFReGLldrn7edWdXKr7hpZUWqCqp02uFbcXCVdbTy5tFpWquOWM6VNNJMlT2yS+IX+wyyTJTu7tFTCZ9oYL+xf7uVZg8Xaq3a0MbZKJO2HucuEmrdwucWzVt08qqumIpgAYBQkVUjwlvLUgRHBnuDE2xqq2jtbpYWhL1W7GvX7RC2hua8XNyHwmHkn47PsUpgpy1PdO0UW8c9BDZX+lHvuTUNFUFAPeWrIqmkZb1VMfpLeqpiPy86alrzpqPIMaLeeo9uvOeo5xo3iUiZPELNY2tYZJO3Np3A8ZYbwraLZJx0awZpt7HH1ZUX7/wA6KloN6algh150VLRbz1MiEBmUyKwVNsc4olIXytRp2CaaQMU4kXLfeGngIJ4W3hp6wmkUa+TlI9u9QXU+C7xtTSeKNmiCrlwojXkUync7rVuEslT8VRYKxLZsCr9dtFyHE2vwNyKQKqqIkmRaFP8AVpDkmPql6nX5TbFhIwalqnVIJvCq8iULlqGiSiySlpFV1Gs24OVU3HekgUSfPO8d4jkkhFHu4DZqv3gnUiyEuXDiJeoxJBZZqu3ct0G87uFKxUSvuXF0SuwsK0gx5KGZ67qngvmLZHH4JN22OZEmm0HSXdORjnbTdGLp8UUTKlBzVikJCWhHN3kYqm/9e2sTiiqbVWOte5CtYmyaB55utQG6alhmWbA5BEVmL1I1kxRmkuMjuo6rroojJb6OteebvTe8rXEjFTVlsTOtRTl6vtXXJBuo/sUjI5LO80eOf1ahv947NpecKtJ5lB89HXLRb5vSL0Fvi/P0gG+D8Pr883evPN6P1eeTv8vPF1+pjYis4KSRbt2MoSu93SrFmn4CGYx4ISzxluUzmXvIcY1cJtW5PM1Gv1WttarENmCC7gWjZVck98XIjx154u/z88HuvPJ3+fnq9156Oi+nzzd688Husb6uxzzHzyd8teebvXnk71Gb0O38jHss/YcbdU9wuuupuVUY6vpxziJVElEjEXkhPVqd7XNwtCDmMboMabDfCozqHquxpTE3GsteWdK1M1eHr4pKRenrFpIN1Wzu8beBWmJz1TjZp1btr5BVxsY4Eqs/be6R/wBA91sr/Sj33obc1Fwkmu4xtpSB/Dy1pI/PRbaUgs9ui20pJDnGvLGkDjjjO2dKzkS04bIsl12yGMJrcx1fIOCc1uVdOtpXkg8rB5dxMHGT7gm0j5Z0nRbZ0nIEGMbZ0n8sbbUkcFxnU029oqAoWVwlCbkV2SdTMa0mGRNnQbb0hUOWFduqK3DmcexSZsmrZB2t8Z3ojwb2GPTloWVYqobiSTqCiKcG4riFqm3bivoNvhK3SCVVNsj6GDlN2QARhxUHga7dJvgO2gVup2KHkkpNMlW7dVskg3VcKpIISTVlHso0RrNk5Eq0knce2TcNVcqPFpT0RyDVoxR6aA95nnAcyJVmqAZs1TF0Pe476vToi4+kklCTIDSpzKvWiyG6t27UhFqTbeOjVGTlmv0naYtOXqAmPL5p9y5aT7lz9Wz1BgJxg4nZRtNRrplILx1k3faSVafth2OmGxQL2HNqggKyucdFvx7dOOiRJAlaJVGMg5Jck1CcSqSmo5FAmLQs90bay2b6szDrx+cozcs1gYp7IuYSYjrfLHM2pja627USbtNxm/wSer9oTO+1bMccjja/DuZlJ20OqnH9RVV0p3VvrujbXd0Nd3Q13Rtrurbt5a7m1wXbjurbVkixVSw4RuNUmrRbIYiwIpiOMbjVlexQiWWD5K2uaN0Eq1Bbo1cFRZQLrdA5ZoMtX47vLnKx4atuzXd2uu6Ntd3a6Jm0yJhkWbYfp7o20TRsWOzItGw47Md0b4zyHuzfXd2uu7ofamIpjMsVmbuwV1/XXyqDiyQyMzHKhmKrUq4kmiTkR444igis4VBJDbynDCsgfPdT8cUhHmmBCQlxza7Ffa/OuFGE3arzdGRxEdUa2hW68yiymYC20awOpSpeZN/cB0msIjOlWuMzUp280+NcR6FWudumJduzk4mPUknYAIjgcdn2s9mcdmrLGk1d5cYlqhKqyLiRiF6HZZ7iE9HRzOIZpM2dTjyQSNyr7y+nV/eJQ4xr5XcWteMK8gvG0PcQZLhEzCWMZHnhRIFC5netxWlbaklHbU1bpN1LU/3F3BkULY/ZRqBcTMtPZiSkhSJ6umip6s8Uk/o5D6xNdMlF+myoUxEopJQ8ibVk3XehHCGkH/dRVFJo/EWqTl2sxiVFTbPatZFVlwYSPEY8+qzJQrGuqDKQdlHtAZMkU1EWXF31FWppCrZqwLoDexZDxE9J+ovUP1goO3Y09GRkJaXvEk7v1rdBFvod3CuiZSgrNOXqTWaceOk1m3LiO0l/ZVtYoaUSbw7do6TTm9sqA3gJFRvBTT+syyT9hV9w4KyNAMOoRAfGTsEVCpKqvrzuC7sK/SCN/wBdH9sR/L2/vUHkPZq3U5pINl0Vc7XUbP4sNvqnGOEnDR/HMpVqqze42speFeWYCuYIEmzNo1SZoCil/AUATDI5k6zntyo1UaO0Mdp8D1wU0CLhX5BGV1y5POXDRmkzRFNL+zfMGkk3Nu7k9o4twqqqz8m1NIbNJiX38FUYeup/umOzPvna7h0os7bGisiZgr9qPiXckYCEdGN4tDppfa+Xy08aIPUDRUfVV0hgiQTiJMj7MRdVymoKrsAEB7MfY3qIE2IBjaK+pxChQErcNuYe4YScpnVtyqssCEavWd1p7Ig5qmz7OIf4kpXdPclvDN3VfihIuf3qnJuXU0JcuBCup+rSqxlpFq/kl+5R21j5hVrE6OXuEpBTE+9kovkXI+KDdV4KoggiosrwCJeLPo6a4oC/sD5ugBtYtYnrZCpWjiDeMdyQu4U3UjHRbFszQNyqCKs8bd+rLrKOOcSAJkxbpNNWSupvgcSLLkQ/iPq0P3Za2/vcBWIhyxw0r9h3Wm5eSjl0Rj3bhsqIip6RaSj5u2SQbKyE+zEBdOSWT+8ByoTgQVJBT9OS6qP+UlPSSf3aS8g5cCfLlyLTHkTtlxiv5ay9+cfTohHOPm4io91yyqdSisZ1ipxmdNYCLbD2YDCY49H8HPZnGiMA/FzOR6AZ5Ys8f26KzR+mtijFvllFwisPan+X95nOMY0aaSo9hvfgLL/OOVgcZ18Xg9fF4PSMnXVM8SbIRpCKjbGBxjGvl9vtx8tOXaDZuaqr624PkDNOyyoqcsx9pauC6bgSEhznHvL6dbypqlHcsF9ZiVS3As9ZcpC3gtw3kvHA51I35ePAzXte61nmuaCSrhQlTIlC6hcspuOQdNUhJqXPSxdT6UWb946btGkexs+01jZLurjOMrNN/FEPpICIWbsh5AgmsoqApJOGyjF60aPYFywX7sDZZP4c4bacpjJCajOQbsGsZHilWLMkiBsJV7Hig6SXFWYSkEQaRTZujHh0EBU4rpJPFXCTB6DLNirvxIu+tCEhLiYkP1CXqHUJuL8HrPwkkNqLg9r3iLDYvvemfFZQFQSioaTj3BquHI/u56bVycdQKsugHq9QQFdmLE4BpGu9ibK36RNZvbu1QKSqrvokmZjljy78yHUNx+Gtez3fLHbqYsSTHJopLScg5LtU5F265FpJ28Qx2JxFowI9F6BAY8sfwHThFollVSQklnyhlmx3qvVhy3byDN4g/aN3bfBZznVhvtZrigpu4iWJdsykWkRKBIIfP+7zjGpqY7mJJprKqrESisfuHXJObKGb9mdOnTdiga7pTdeuYMha1G5N5VqLpgzdg7SAw7Pl9vPZjVok8rK90DVn3SQhZTuTJJQVUUlNVmTJ236KvvL6dbuEkpXVSMESUME0NudsmzRohJTIik2SEA6nVSPV72vYSzRVzCPmqrN0q2Mh5aIeWupzHpmoJImfFjKP2LpI2FnvExaGsUg+E9CJLK8ElXnwtkDJuLUVGqqqUemiOUiQVNyROGERLFFqGknHRcgp3pqDp8sUhIcgkmZN4ru0jXbQSJAylha/C1zdtVRbOhB2wlHyUg0No0ZMU2aHJ+xsjDvbhhq7d0J6kqh6tf8A7cj/AMwH25VuUgDjmvPkv8myn0cqbte9t0SlLNw2HRUS4qjVmdZ28lIVCj097apVu0Qi4CNg2/dosOIjpdFJ43VScbmbdox//U4lpxF61LMPy+GMu33TMgMcyUV0/figi8fObZbrm8aOZGNrrhZzXoNytf7S+jPh0RCuKnuIg0ORHbi2OLRGuxe1aUJykTRX7edWp4eVk2w5zxx2k+jFr1M3aSHaaaxIVhNkrJJuV494k03Ho7KArrV5qp4zmq17UO7VaPEs4HPaI5/sVbDBIGYLeKa5yyOvFFex9YWKvGGSx4oruvFVd58dBZa+f4eJ69rxPWNJ2uun9CtkgsYzgXTgnS6ipX+wFW627dpPa8NYrdUtiUNIjKxjCQHdZ05kpysVlKOYRUUzQYt0000/8qvS7RgmsDvxTXeXHXievaK1V0PxKz1zHqLxPXteJ65yAdFZK4OcYzmyQPHt09VFd25VC8zxQEAube1VY6zVGALs/wDRNNVx+1jnqhu/E9d0NnrRFgceJq9rNqrv063cERhD7NsoVtOW5ggu5dIsUDVNCcrvLOnMxXVCxkElBdN266W70WjH2aQUxUdoJi0QqUrgtjqvHRpOZe07OMGNcXnoGnVtW2SPBeXUqqjoyrSqhKfW2RJZw3bE9R+EyJpoIRazxo3UYLkk8kJBgyFFoIqrxz2cfPEO7Fx+XHJcSDiQyTbjHqrps5aSdm7KbdJKNWTQ4KzOWaARq6C0owbvXMbGxKLMFVcWaYcvlXEWRlw9GBL6+0SHkAjrjy/ATLjqE+BbjRbeqvZaDfV+Texb+gbiuaVyaLbmbgrtHMQvVojcZtKbayrmY2TZi3qKrvT+YrzFcEZHxrUO3joLFXXjkU2U21SeQ8q0NRHu8mCQo2mvMGzVs88a1PXjSo6sM/EzAJJR/wD+26v9BTHZU/6Wrurzg4K81+dXUtdb7qbjW0ztuvYrR3SEkW0Y/Bd142qOlLxUkzTHSt6qKI8sJ3uqKEeM+NqjobvUz/ErvUx/DxrUvvO2UkWj92o5aXiwpVyvvXmNun1Vg682wtWpOOh90nqLDHZjOt8+3FUZcaf/AEtWtYUwGRMkrnU+A9uLvVDHXjmqaxdqnrxtU+rw0V3qY/h40qOvG9T7ezXjap9vZrxvU+XZrxtU9eNqnpK41ddVJJL7Ehsqg/fvnp+RDPs+WdiW36PIlHlryGQ15EtNeRDflnj5DIa8iW2j2IaYH0Bs03iyB7ns9edbvyTV1JwMItarbSJapPohDZeW77Vu5HuS0Xf7jwbRFXZmNJHiG19gd5dStXeua+FkR+GH5Gss4z2+Q6GvIhrj6/Ihl+fkS05ektim3HPYOxLbj6vItDH4AyGMTFjp5aYt7uKo+mNzLtAz7BkEfWLRD2FsKUerVUrdjEcp5EIa8iW3DXkQhj6x2MYj8y3TiycQDhQNoXgx9zb9e2xI2KHVjT8im36fIxtj5lCR3w2EYNB3odC4szpIdqNzEI5NhWZbfaCGZqaGTi7VKV+rPYBtSVmVgrb+hjIsHsS+dMXokQlpB0Iod2aJxblnHdJs5b93cGgzFv3yHbtmTl82TjxjEF27buQPWpEX6+oPHjrj/wBn0kUl3clUhFiZsmztNs1/dirtiTaiDB2VgiWK6vSnZxpLAApEJf5efp9OiHiRiP8A9h5EWiLjqi0/qYb22c3Bt7W6z4SDLbTbgrZwlpFslF5b8m+4M5T80p68U2VfitS+hmZ25hLNMG5kfIysaitsK9XJZo/aTboWMTLuTFQXEwBaX2rgLIaUs68j6tx15H1bSlAiag2NaO1ur/QUxqp/0rXdSUYwlmpNXhbe1CJTcP1tpEe9u7LLihW2tqBePdeR1U1jYyq/kOx9VHlrOxtXLXkdVNFsdVyLXkbWv1eR9W0dPa1VoDdlu0spMzdbriKW29WTTEdbgUuPrQRlgi2M6weQYTY7q3mBsUC0ax1KvVfdx1fiAZxOZdUmZeR1V7PlnY+raLYyrY/HyPq3o15G1fsLiGx1X/X5GVX887H1Xj6R2PqvDiXkdV+35+RdZ15HVTTHZusxz5q9S/jLp4USMNSSGY1RfnRWCN3sljlJgKLT89vYzzikbpnHN92Ip+2l4KyMFd3KphjlZLbGvOU8yVif1Rp2cnBfL7ZfMezU42JvJORyrWK64UJVXcyptij2WIeJiWEa3DutQallddxn35+lTW6rjo1pUQaPHLNwkuFJt8XaY9qlgeSGOIZwaon1rXbI6pseu6nZZzMSD124ItPtw7bJwgwb1yoQ89JuFERBVBaxWW0rsDlV271iZpuE1lkTNVAJBRuyNBgUgDWIaqRKq3JVUtLuGyLduTBo1dyH769crNHCKRJEQiIFr6iMsEPHRSz1QuWEG6XQbuwkHnxBxzEOPHjoxL6tciH6uQ8vny9PLXIhH5pkX1aOr2NvGfFFX1knpCHaxr9D6uOdnLyxKNxW5JGFZNI5ePZXTadtBVV05jaJdHdZlWrlKLlIucb95jhWW5cCerJMUHDlfc3cJOSPuEay9L1rqF/lbL3vGqTxAkVJ+NfNUpBs3lKRuXLtFGbuuVe/RSjFN1bY2yvxZKwA0y/ziqSdhhINnEtU46LhYsI9qA5/gPWgPESTORq7Vo+y8Vzxx88u2zOQbk3dJx7NJnlinmoVbP4xtUhhcBljCxmGCHbn+17cfa7cfLU7CoSKRnpvDM4bBptvlpWJjHLhu7cKJpqpmmqnUKwCnUGJh13hAOGrVNkiCSfb8/t/L5anYgZFDkCzZw2Pgty//GPi3MgsAjHs0GDdNBL3l9OdbwqEMUkQiOouVfw7pJyyjd6bKil0l3u9NlUT7EpawSk04Nd76vVouX6UPvFQEXPDrl2kKZEqkMJLqQb5JXMnaXO6s3Gtgex7+LdG0etliamZZFds8VaMiFNpHpOlXItXan3+HrwiJJdvx0X0+n1cvSPP9X6dKPHZNwbD9WOWS0REfPQl+kh9X08TIeOiH9WoCgz09BSUwyq+7bFnXlYu2qCKzpwuCfIR0moSJpLgW5V1RDkEhuHcJiHWjXpenhqEtE3AkakYG8tw6XHMzuBZpwVU3ZrKqK9RVn/rGWoz+XMfeXHOB0/jWj8OCzmomPIm+a9M/mNemi/BpU3KmOTmNgWUd6gL5/h/Ax+GdKIorjxUcVuML8MVlhrw1H6TrMbjHblrHs2g9iOPw/s/lq1XWPrCA9srufYZEVQS8SWPUXeLNFq88VrdNJ+5bspQFE1gEw+w4ZoOh4qrVdioXbrwmz14TZaa19i2/EAEB7B/gdnyxojHGM5zKz0cjkkcpzjAD7dRcuzf4LCWPl+HvL6dbuMUnFfeucR8e+knaTZlTdmo6LNCQmiUrkXwSIJWuPC6QWzaSBsCHbHWWtylWllY2RU0iXFcCFzyJczFTlx+aQi6+6Vo1rbbeLOpIWTey7sTklLZl4t7AybqLkBL1gWU3HeCVk3aThyRnMOu4rd3NyRcuJkJekeOuX/fjy/ERENGfLXp46LiJa9XHRF6eOvUI/IfTz5Uvb1zbIx/IgFln6XHz8EgyZkQmvkU+J6T+nQj0x0TN2olxBAfV0jVT6ZfJNMi9IhAyhByFdm5blxP9Won1Po8Sif5Yxx784x8tSko3jEyUNza3y/IUsyUjnPz+JSOmljkmuOzMTYkJA8gfb2/h/AMxEO3MnZcJmSTd7OgOQ76J8sDnH/+L2CNiz4Lw9twaaedN1k3CWFA/sfy1brK3rUWTlVy4WeLqruPdaJ3EGx5jTRnZF2T93tfbRSIIJ59jsz+efd89Y5fwi1aJfs/c0rBfK9WnQtH+N4KceezDB7hw3avWsFJYkWuBL3qdvAuzchZZxVVUgoNPaUuJWePVHT+3mgTNCvQzTHag5g4KQDi5dx9mprtWTiHreE3KqauErBAu67MPYl6mP3vLTn6z7Em8Si3BWUcoomAm16fL06gL5O1Fi4ZRFRpExdYWXmHyokmu4AmzpZqfJI27lwl3tym6aIN3CQF6R0X/wBPTx469XLXL1a+ofcRfqyRFx9OuJflttV422zarR7bmU5RrNLx6CbVyskq5OUfWdPLFOHV4krywmPETIdqarGV6tZmH8vJow7A5AbZC1/cemOJ2MpdeWtE8yi1YGh1eujxaF0ufDUzXIeYbKpP73t+/q7gVAiS4ybItRQ8Y9p75J8kwbKLnJSHPLp66sW6PTbOMwcK8UkISKfK220pVhogYG/3X6fxHFIuiNvaOVMV6Ww/b8D/AIFkku7p93Sz686uISVyn7Ouz2ylsS9SZcr1OfAK49VSqW20ScQk7nI9qvt/uA1ajXJPuzjuymP7HqJ4/Hd96Cr+LZh7iIUxMjkFX1vncIoM2aLJo3bIxDruErGudJuETRTPHWS11k9dZPXWS11kddZHXWR11kNdVPXWT11k9dZPXWT11k9dZPXWT11k9ZVT1KHlWSfatDdu63ar6bnFdrJ57cAmmikCaVRU4v1gz1ktdZPXWT0SyXZq2rfvEQ01fBUk1ISuJNUW0e2SbAIYUDPWXSy3DtbJqJKJAYV50VY3HlK8G9NOJyaFha1vYpZ0xNzObg7WSdRA5BIYqKlDEZF6ijHpdBBAS5hzU49c09JW6wxcWcO0hKPWRpXf5nlyACHrKJj09CpxICyoKXPiCqKyYci5ly+XIi9I8uXDX6T0QiX0pj9YmKfq9JCP6aSzqys2La27o1tSlzCUxCSVgkrEu3VlA6zX0qoSyaPMQJ5E/SAuEXHMEtu30TbKJ8JViY9rXo8GeLRO16sVd5hLZOHTRgH8urhQCX4a/cOzjpY08ZBPFrikZSuSSCjZAkZZuAxi6Pw1l294Q13lvq3u0iQQRBy3SeN10F9w4uPitvJhBjVP6Wrut0Y2UVSg5ePDdWAWhuqW1FekYdlLPX9XXFCSEc94b6J40HIYLLtqmPbkHbQ/p7whoHTcvp72213pvqxKirKK4xYpZCDh5B8ptjBNEa84dvKQ4UrN/mq6pviaotYNPDLAg0a4xuf/AFVQNIq4RdIllNwjkAzrDptrvbbXe22u8tPp13hrrvLfXem2u9N9d6bdvZrvLfXeGuu8ty49n2JXbm6PpB+4C0VWWrJtPiSpKikZAleZBvMd1kLnNDHxRJpUCJJq0Vfq6ZNVHztq0SxtPd8+nGNp7o2x9z5WX5Qu0/Ke54z1M+VF615UXnXlReteVF615Q3Hlz0G2+4WQJHHlTePXrymuefWXlVeOfZotqbmfoUPai6HzFTyqu35Z2puuSAw8rL0pjkflheh9OEWyzJIGq1n27j7VJpP3Ext09rzRaYhqJaVbbCC9XdwEnY0waRo7U3jI6Ham6j6x8q7v9RY2ouPLmpOt0X68Umc2oLfcepkdtj38xCuGDANrrwkXMM7WXrBdpV9u5Zw7VBzYlv8W6wIWFqo6Bhw3asNirbeIdxV7y/cbROzkVSJNJvwMuJaTULmHaSf71xx+sxJdw5FcAXvTOgQdKiGySgqp8BV4+r5pp9YtKuuoAABCfHlkhH0Dkf1kIJksJiA+rgJCPH0j6hPkUYoyj5WAcy28yNckIaFnYBN4qokkgv3XoqduBcekxMXjYS13xEQDXTFQuuG1sBPWGRdKMVImMjk2hnuNWqe6hZeW1sw675QY/Vj24Wtc04cj5GOtQm1jity7CROZUFvEyq5IEK1gS7JbahxY3vxQfI12WvIx3pvQFqcisoet1f6EmNVP+lq7q6WN+UnH1iKX2agzZ5HFAmpgZWSrEuVeWs6DiNR8jHevIl4WMmXkW5/V5FuP0+RrvXka75cdDse/wCXq8jXekK6tV26EervQ7VeZhYBslspHJphqy0jG376Fn2u58cM7UMSTenWSPm4JmeJJ/i57kxDNBNuT1QG4Y2Pe+rOvI13ryNd8fl5Gu/y8j3+PmPkY/8A1+RbsvxLY13+Xka7MfUOxj39XkY715Fuvp1G7MOI+SZPc/Y/LV4rHieLwiCiaiKppHdK2lJNFXqLQHko7j2WUkxRSSSDW2FUN27SnXH9keO0C1LI5Rk3gZf7jV2JlHMbIWrc+AcxL2Oitu6y5rEB3d1T0SJ6ur9jP0qanXgt5Wsc94E3TBCCsrWvzbGyRjd+2QUMA46cE4WLpDKyrCvx7h89oDN3bLzK2xW37pxdPl/hbmb3xbSLXoNb9uu7tkclFNXY+kCE/UXEUB7n9/niSivXIvSv6UCHqmOUHQs12pFP3imzVUaxzB63VauFWx8tfSWv1ctEI8fSkiShhwIiEQBJdEk1wEi9Q8dMkXcArETDq+XSl3CqqlHoESKmQNRsJF1UkHyaaXQXUkGwlxAXjbiPBVZs4+7wmardUB1sVLxrup/DW61YlVK5LRKkltVaK/FvX7ram/J1lwUc7VTwrluqGHCgYHXH18z3NvTZq1cRLSJ/mrItRn8uY++UYhIs1G5SQOmAOwSs57iWGHdxea07u7JtFRr251GSdycfPwhW275Du+KRVpWMfSEzN1qJyxQ6yn286mo3D9vksPabGLz4TDrJctT8EzsUYvHO4iGaQ0ShEpP9na46cm4GuVaHrLToR9ciuPB0eP7IuOrdt/HzqSzhpIbf2lhhXmlTnbdXqpNKlZXp9iFV2scd5BzOs2bZg3SbNf7Lt+WdWWJJyjhw3fwMNIqHl80rVeYEJtkGyro8ppQ7BOPaJB9jP0qa3RIkYnjjb+2tbxDKsJKYptppckrKU+P3jZNcd3sclvdAClxjghtxNx1W5Pni8LtlTz4Ts9JWCTdSUikX3oaW/wA/T0eWk02zUOa6iizg+avUHjolOK/MVW/U5mkBdYDSKPeKw8g3c6s1tG+OIWJgpSFlIkwF6XDj8+Oi5DovUJcUMceBJOXSaf4FTbMnCBNFZtzHEhT4+tIxqCKzjmrIRTlo3aPHZqE1VMRJVgoYaFRgP0pkwHSrX0goCCiKiPFeJnJOtvhcxvnzZcJcwl923MxVMNQEREQ7IDci3V1IEkg3wEkQ6s7uxZZYHCQLOFXRdReJ5fE4/UdnBMWXv/DGNSsI2kRyWnFdl0Mlr4e/1hg+z+CEFKuM+iIrCTbHUedmOzs+3kvlpxJsWmexfNhhdPVKw99RrNmwZPIZAc6wAfmmggpn1MEK614mqE9ChjsFtKsHWexHt5Y7f7J06bs0TWcSu51cYisLXzmPUXu9HOFOL6KsUNM4HLHOcdnv/wDj3Zz2fPWVkcZ+fXS11ktCqBfh/wD5/B9Oe3UqzgSIjXTbVrJ6im0WiBEz+f2C+nW7XIqy4MoSalIOQSexdRfzslCNHU5J12uSCvWkm1RpvbyQmXEkwinCkTeZyyzMw4GfP6uWkv8ANDirxFfkK/1Jdr31EHJdRYUg05r9mZtO/uAJVRD0pESPqwuj6eugmSbkFQXgZB7BzDJ23RmLNuzMhh3LQ8tBuiZSg/hov/kuJenRck+CgVTbl/YoJ1O6G9WZrBOK4an3xGIRqJKJdBJyxmHyTdMlx6i59ijJ0Pq0nHviIdKN3LceS6Tjp545UTH/ADUgIlkjLPFMQMQQEiAC16v0jz+nXd1eOhZuVg9Cg8dQX82jROL5dya9vuyWOzSigJD2m5sse35CJXIs/gNy7NNbWyVH71F03XHGUs/aXXSbgRqWC/PHChIRrl05dZPLjin+XTHXTT1kQ/T0k9dNPXTHXFPSSyzXPJCFvcoxNNN2xfoSDdJdD+O7dIsmy7le02p/ZXhGr7nz1tHtlXK9avS72ZSBjQrV4kjM4ce75adOgbAZnI2Ny6HgkbhVYvXrqYHSMm5QMTGIsabosILDnGcduPt9vzxqySmWTfpIkRFnkas5BoKdNaPkVGxi4bRj8ZFokt9g/oLW6qhJwSSZbSUMoZp8bkZeceyL5WAgENvWSmEimX23cKsP/TnVlnqIbUJ++U9hd4A12r5m5auHCC6HEjDsUH94MtORLilp6XEQ5bRpuXkVIRrZ3A2ZRJVMtyK+q6Xb9/BMel0z4qtz9a6AqB1UklO8Y6Rwk1LVWQSdsKFW3+5MxOuXtghnNbm3US6L0n6eQ8dUTbgLSxXk1o20WjbGbcRqEy4d2CVdSyQxb8i5ZGLch6sk3flgOqxiVXL5uhipQU7IwMUelIGfY/ejuamTxx8dH9Om3pQVLCu2DDFFZyrSp7QV2BjcjN7n7bQbWvOJiEZIqvDboNazs+wjRSXmE6/Aph08WTa2CmBVVZTsG9rSzpk7hi/6tH6jx4MWePeooIJ8tTcyq+WVSG2bhQ1UMEVIx6MnGsHwW61tqmyQdr+dkdqi3QppmUm1YvEnzYFgx9j/APHW5MoqJN49P89WJ/JTtmxXWobdyTEhVYYLilyPMpM32SWYsS2+l2GCcsFnMmtTXq77bpwsvAYNQvw1RF1VpG0CpbZR/MSaMBER7bDFm1a62+mVEH3wwv8Av/H3glFARjo5L33eZ+Ku28YyrUInDRyQaqUkpFWKKXwJ5MO0dGeBHJanpHvbnIBNSraEjXT5zCPpyKmIe1PklUnCaSqVsoL2xyQu0ZPbNxEMnD93s80lCaOpVeuvMOWnTPOOz5/bz+GplXKsm9LN+mXkrNMaZGs9tKk1bAkrDQzGDam2YU9bIu1ks+88cwLBW9iMo7iGWb08foR7OMi4mNbQ8c3aJ9NZbtICTXb+o1W7N8mYL0yUzWrVK0t1vdTX6EuVka1SjzlrcEnFW7b6x1DILyTkeJJakCEjDW1k5CsWTpN/4kqqyXId07cyFaNQi0iEhAtKEKn4/eNS0qIkPNIVhcDwNu4exapGhHvFZCQaoHYK7KVV93KVc0eTjas7tEvHzslFugespaSnbi6VlJNsxlG5Hw6Mx6Byg3HpfvCcO/fCqTJMXLZUFApdyryVfjEpFe6U5YcYSuVmaSCpsI5VPiXIUORN1dbdpjO0CtGO+EW5kKiC7d8zzV9nVWL/AGOrrYIk510RERkkgLbPD5mKiZCJ7g11tMwDtcotMhmmqRRhdsezz77a5ygwBIJFsT1g9ahc6bDV/b+V6FTx2VWu41ukokmhXDUaWCuKA3AOPH8Kg6JN4q3z9m8qkpY3457NWeuTTabzPxETuCxVNNnKWlwTaAlSDb5qihWWagY1Z/6em9bZ/wBNaL8NIzbqJC4g1o0QzjoYVUezVfUJGbiywP4Y/jStj3XGTfps7A5tLtwkvYlFBTAzNrZ4N277ojOSWIyLeOdUGLJ4/XkXGkuqSqQpDYt4RHiHiLeRD8UbLuus4Sw4/Es41vG/U+ER8Q3utZwG2qDJHbWZxMU+PMixkh1u7LZVasK8zrMViEgIthh8/sLFoqUF4g3kz2nrxJvHy14i3lU9OPEW8h5MB8S7xj6NFZN4/r14m3hIeQ+J94MenKCjtZJJR9OOJvzaefBnzTeBkgs/1RLcNtizVN+9srBIFa/4k3j14j3jxjqa8Tbx6Gw7xlnt1LikLiII5hcVtyqw2O4OphnX3SsQNn3iTLkXibeEs6rqz1SEZG8tKnR3ZrBhNxbSai38a6qVbZ0iu4ap7mJpP9vpxTKhckGRZkvr46pfLuTjmXHj8r3yUkIpPTJunyDK7t5XH3MYRT6T7SIm5chNNNT1YFYVgBJUk1G58dU681t4xSjNwNw7vIXN/kkk42RUHkKLeYZ55CLiwkPyVKWyAEbRYi9K5ytyjjVGvBxcAqLiv8k4dknlIi6nrLvJKqkry+4Ajbepurxr+4dprVdCLi5vcuz2KD7i/XZbkXyrBLudp1EVKNDcLB5llMOvDX+OuoQt1/izD45LZTGKkiNpxUsyXCY82BfH8A/x11/jrpni9cVc2vW639BzOqn/AErXdT1ci7M2SbyUntNXDZuDjto5+Qkm0wxfrfH+gr8A/wAddEnvmZYMiS3zP0kIb5peof8AHXT5tZEFepYtJOEViMUtwYiIOKcSCjVu6l6R0VtuZxFWOKJVNRJNMzOfdNndYmFW+2fZ4b0X0nqoR7eSWurRxXXy1NlHENL9mfyaN5hdYcQ3+OQ6575iXV0Gd9FPo576noh3zH1Zz57mPLQ+ehFr/HXX+POosN6PibDvv2M63ahln0ezftyETHiVurq0Q7xKsJmxurAkwbnDRyMWwbtktUaGXlrEwzj3PA6rZcNEBJKnjMkpNXO/q5hV65uU9bqtVtr11a1OS9VfqrAmmoZ0MDtm4EvYVs59GdVVt1FzVIePZ8vtHj0lqSxnEg9xmYVCA3hZP3MtLx8bGPHi+y7Bw3ZTbxSoDykVM/YL6c6uKhIvqwWt0VlIGSq1mQZPG0oxbu2wn2jjtXXzg+klxSat+OYJRW47sOJDG8V0f1+XraEZV9xa5ZmrXhupuezUYKwMK5EUUkhBXCciOqFSXL2PPvRbdpCkfQ3Bh1ot63QcCY9A0jbso5saosHLNZuPJXkoRGOBU6YnxIRU9ekC6g8D+HuSHikLdZuXPXfHYgGjdSTjgRgs/wBdZzzAiUb9YOuETJSzdJVsyNNy1eAmcFV4eWZNXrpzRYVESILixaNXaqbNUeLVLigSvdVSDazb6k2WqN375fbPbZg37su+YxMXQZlnBbH21q2aKwD0k1AWJwj3v06DOXeQVV3MtDaHiXEfiCUEZqPPUb/oGvvszE3UeWUnjlNk1dOVrxuDETNakI5tTb1ELRsFEasVvxW3rVJ1NbqRQM1Qh9pq6/iI6TeyNQYq4UXdZ+xnVuruJxoOQVRVbqkC7+kOPiK8lGDQ30i5BxNJpiimABMbfM3jtR8yzRph8Ipv8QLVGDcRDdtt3JswyDeCrkhEOTVcwNezBuZRfNlrDWyIoicUzctmLVorSa5iLaC6X/jY+elEhVAgK4beP4bvT5m7bpvGrhsrG0FFi/QdZ1A16RsbzLdnU60lWIoGg+4uzI57bRDql1l0KRSBp2ZEzznGMdupeiYkrWxsiE/FOJiLeMUKpW29ZiEo5JFJRdUUgho/LBqIZHGMY7Pt5z2YxjVpi8JmT0J6AjLEx7m9bbQV9u4BZVJFNFJJJCuRWY5tzP3l9Ot1idtYc120HKwW6NTcJG3cWHaB/wBJ7F7qVKQ4iUluhT4/iJzNwmtyHgwEHW4WPoFVNNa52MrbZ38kCpJR4epTKvVDm95CAdhEaZAI7a2ZsVXdLvSmItZuCjreMmychBKoceRGQu+qn6c1elxc07heUlsGbxwakaXs527jy022AsqR8Xau3MWtPhG5n4/4bIOGiVZqLCeZOF38fs/35YCNXZa7ksYtIvYu0KGQzIbUxUfCAwk7RXWVZd92aO00nBJOW6ChA6Al4W1w9erkAm9S3Gg5YwZBuZ3ROdVaIHyJBIsoF6THVGuspTHKrxnudeoa8N4M2Na3LbQFFka7pBwSJgQVve1du0SbTHnFSCS5and624tl0omSlHcoqarmA5KTUUIxWCFg3wXuMcF24zN1xbmq5bcR/PiGiESHjlNu2RLkEXBupL7zLZum3RBIPsdvbjWManauwnkhFVztrIh823lvOa8t5zXlvOa8t5zXlxOZ1jbidzry2ndeW05nTfbWTPP38DT4+E9eOzGsf2GREsdhP6lXpHKxOfLCoaabfVRkXIGzJozSFFv7+zRAKg9mZGsYUxk2hwEgGfl8BltfAZbSVYfKZHlGQ6DDA5/g9v4Z0qkmqJAcnV2+e1VBKDyZdmoqutGH3hfPGO37BfTrdaQSGrSAap9xkadLC9aw17pdzQw0KT2mpz8VTSjNma20W6jt/J0uhshyruFuO/t7tVk05JMx5ZFEiPquXfq4Dp4XaKWlC4jpJhLSDdwu2kC3EGrxqDpWNko/pC/T5CPHLbCpPm5Zq7dJO1Gppt3ZNQBa8z09Lk4ATmW5FczVC1l/1Z7qsuiax7gtQxKt4ePEGzpQkALUgsQoeq6Eqi1j1R3B9Mi6HSaiqY8tPR6YAYHV7MoybymmlPt7pVIUnKLtuZtl1iIm4DptzJJVMUi5N/l6ibmOh+n1er8kyMddQ/qIiL6dfq1Vi/8AUEQRMBymyQxn3ZyOi49nzkBgskXeeNP7fnxp+meKvxDopgmI9gY5fPt+xx+XzznGMZzqev7RlzRYu7RPPDLJ/GpjGvjczr43M418amNfGpnXxua1mbmNYm5nTeyz7UuQQm4jZXAISSaiawAoH9h8sa7f4GdfPRYz2+/GMYxr5dn8HPZqblhi2+SF3LPHmSysJCJchjrA+Zn2k0dJPEAXT95fTnW7wpFCAQ//ALV2Dlp6RapRNcp9ii2SQu5Ss2F22IGtipNybunAuVekzDloUyUI1VzH06V48fW99QARGJEPy2qjbMTeQfxDZlHumqRvN6Gqw2JkoY8uPEXazlMEhGs3io1+MjXL9pvpRRB0RD7RleIQ5Jb7UpwrzcSF0h2tijZF5YJD4hJu36URLIxbJwKsVdKM0gmS8iG8W1zcOOne822qyRilYtxqxIRiTmKvExEzT7vsYP0Hpz6km4621JswgI8pTE/XcZI8XSquY+R7yK5JcegCA8UlSGEqdmnGXXikNnLCtU3D8pKj3CHQN3JJIksQCFS2YfyiHe5oNl6VwMc2bZdFu2Vdwj2PWYuOg4rY/wDqCIEG3+mQ95ZwI5LM3YlsLqtmzp4kkJLvEzFQAMOzGl3jJnwJxD2ddLAHhuskulhQPs3yxOYxJFq0vVjlYNSLTj6jOnPxAuV/x1bbtJsZA2sRCPFJCHj3i1XscjKzswydW20uYZw2jo8nG5TRMHBxyrhyxZruJ+5SScn8Kgsqbnph1c1W3nNKqsX1BsSipDFL4/PH/EFqddqOJFwOZyiTErJOnqEzRpqJjHz9TaVSVcwjp0/qLxTJqtS95fTrdhv3isuHOWLNaQdN2iFQqbKrRaDRuWFO3iCjo25hhwonyFUdWiDWibHKtFUq/Ouo9xJt1PpDi75fu/J8PoDioJ8ALWyTJFCmgWiboEXLW96nRnY1PDFYlnDJowf7F2xx69L7C2b6gX2OtSPMceTNqEuOLTRZiopNze1bZGWsEM1k1Q9n2Y/W72Bmm6BqNbBVZqrv+5P43Z+zSSBrh5E27l6Y72c5RxGqquGPs/WPPMTt21zmmR4O3PH0AWa2mmpX4gj6bYfTrcZZ3Hz5ggmPH1AkmJN3Ba2NtjQYfw24sswUDCyEoE/vbIz0M9j8bN0NrIf9deqqcCAdC1U49miH19mt0aWjKsXEwhVx5WCKEYoiKPbZL3WKQNixLKcg4XbM3ayF7hbNJVtzYJqqf0vXdchwPIrxh1cXE7JpbWkWaZHFmovzySrI/s3tzlaxOhzuHj/q1a1EKFX749jtSbwY6OeuzBgsNTlZZer/ANNxGqF/Vdj1fWb6PnY2eQgLfFz4fdTbomMVJOQ2wSFVhJSan5durUOa/cmMohWHOUJ2KUxj+NJb0IR796xHz0Dlot9U/wAh30bdnq89Uteeocg156t8fV56pa89UtDvoGfr89UPy89B5a89UteeqWvPVLXnslrz19WvPRlwLXnqlrz1Dt+Xnqlot9R/It9Q/R56pa89E+Q6zvqh+Xnk34/MHvxMAfe7dWSdPpKHq7Nm0Rj2jVogtagqA4kS89UtY30S5fPz2S033t726QbJ7mOFkaiqnrZ5uktdmXOzWAazDupXKe+iHL1nvk2PkGa/IDKQ7JyO+CKSdo5agpRhDU6uKuNztrjHlN1tyXpblh6X3SWi9Ich2dAU6Syzlci6oCO/JKeJoUdQhD8YiBCfUJi3apCyYod1FNLLVq39K6zNopnkgLFsIgQ8Uf0IIko25ZUy1Hh2mpGcunpcI5v9ZPoUeZYSk4U8lxbPk27kuhu0RKQUUZCRcVRKtj/6dhdGmXXDW4ka/bz5uXA/Tx0lx7urpsoYoc8eZ8s8oz2Getq9MLQziXS2nSTTo8QSVk3Id1WWctA88pLUBuo7scywjjmcCpDS6ZwCybe1tTzNbpu6y/Vi0i30kdeeL/TW8ubgKvV1un/Qsvqqf0tXdbkyqyEY3g2MzAYrW1r2N1tT/RcbpafUraJyifno/wBHvfKZyBAe90ooPFJPe6USIyPzxf6dTalgdLyKu4f82rOtxY4hYNZpCwWNWfja5Gtrygk1qmEE6v8A03EaoX9V2PRCJj2Zu9QjvhqsjHwz1zOUJ2C21qo/BXrUvy7NWrOZ+5R0WglIfBzbvtDvg/8Az88JHq8teeT/AD+Hno/0W+Ejrzyf/UPnjJdvLXno/wBeeT/6tRe8r+QkmDIvsKV2BVM1TKvQBDxyVcrxfj4Zr2c8seGq7rw7AcOOs1qvEXLXh2v68O1/RVyAP6vDVax9Hh6B48deGq/rw7X9eHa/rw7X9eHoLjjGs1at8+WvDtf14dgOHHXhqu6xXIDGe0cV6AEsljNdgMly0VdrxBxyNarwhxxmt1/6sPkhQeuU05J8jHMXr1fbhkraZ6TtklquMmr96qk68N17XhyvcMhrw1XdZr8Eng8Bux6YABKjTw12yspE1BQlGoEQV6tKhy0cFXAx6WrdJm1BIN1ZpKas0kTees8U62njWiO326q0KucbYd0KpRU647nIx7yJIND93+O2sw+mKjHrvB6nLie8NwkodcoVCCUIZNlqScC6cQqiTZmk8bmuv3VLl8ybmRaJqP6hYtvqEWqeu5p8dC3S9ZELUS/HuqZDxzNsWybFVVBkms4k+I7xtVG9fiBzGyjmGlW71qweuJCKZP10iJQuWL9a5V7KoRb5dNMSA8J/5CutuNqoGxVdrJSjnYurEiYt3UE1q228pFY2RsDRavfB8pIii4VMeTHj26IU1lAUT3DsDaGgnqRwihFNR6uWCaCzBooXdG2u7N9WpllRlhVEiEMcs7mvGatKlgGoO2maxXERslHt0halJyLt0HuM2gH6z/aJnYxjWzpWqsuu6UVPurfXdG2u7oa7uhrLZvq9VtWQQTdMrlAyUnJQqrSSYpyMc7ZqU2juoyVWdv7hHPJaFUbtIFssxhY1svVICTi5+adO55vdG8os6hn7e/WNLDFxDRaMNGtWKcxV56PlFZGt5f7luAwkNWqeYkyfvqHW8pj8Sdd3b6Jo0ISHIs2w/T3RtomjYsdmRaNhx2Y7o3xnkPdm+u7tdd3Q/v8At7M9mrNHk2eGvi0watihnMYnWYBtWIhGLb6qkflBI3J+/wDTreNFP4AauuRcvTtzugUWLeJmYuWiXyHUZOpNgzwSjncDdpNZJxFwJcufMhWJMXAiJD69LpimSRYdpqkhy1y5DxzsrKgdVJoTN4pICeW2+PRKWaEce6TbukldVK/SV0kG6T9oP3B9vAR9OhIRIx0REKB6SIiQA9DyJACz+hLtERLOvR+oufHjqQESj3Senbp9HBISzK2X+etbdu0nFRIlwVKsYOThWRM2bJ68xzbW113iYktKelJLSWfQqWtq7+dOcGzebqXR03l49etluAwltpn7KSgpR7EumDlCq7sQUy34yYzUSQdTVm3KrkM3cd0s9okbG/VXWrYplNR4nCfypj71AFQMjmzVwum9akpszWFB4lFbXV+GdIOW2piLbzkY5jnNWrIxjFvFMI5ikwbpoJ/Y7f8Av2YzjOM2GiNpAzdNHdXnmpEJ/BJnXwSZxrMJMZ+evgszn5a+BzWNfBJrXwOYzr4JM6QrU86LsCB29RQJJxICAAPHH93nXq189Yzj+Fnsxp8yReokko7qjpHkSAV+TLPZqLqnTUFV4OAAOI+8vpzrd8uMICWUC4qnr6x4kmoomXoXWUW4EYqen5EXTHlr6i5aLS/pFLTtQxAOJcm/HTm0qQ0FKxaVDu7+kWFvLIXG5I3J2cpgvp1tgLY6vAKAw6SnV6XpHQiPVMsn9PEhEiAAwmI8AHXpEA1/+pekdcf06lEyUaGIw3qsbUT3oWW8XOmQqJkKQFqwblklVfC7Db2+v6PNA9CSefEnjpzpTiaSQ5SEukY6QIu7nyHimgZDy+jXIuXLSaxI/h3guPETWJQvnyHlyKv8fjUbqNDhHtce/OMdmlE8KDkSe1Vi4MjHFN7deDM6Qp7QOJKtmjdsHBHGMfjj7Hy7NfL8pSXYxDfK7xzuWyxyw28zlNeZ62vM9TXmeprzPU15nqazucrrzPV023NbZ/1MXOx0wlza5zjWMf3Oc4xjty8n2LL06O2//wDPxaevFp6RtiOeOFWr1u8DBpY/gZ7M6kZBvHoEsrIWZ86IhRGTkhz24irWQZ4PgNNZMVE8fY3oR4xpcGQkovxw0YuXjsGjSN2dtj5LqrudnLY1HqNp1iizVNBwQ+jiX0+nShDpyJcG5E948Q0py+nSsZMPBeu8NWjl4uCDWvN1Eo13h7x9GtpXzZaOjY4GRDye67C4cdFyEgHXIeRiKZFxMiT5Fz11C9Y4T+gx0oRCaQ6IdSgj3JXUSIpzqTtXdt4wlrk6VYPU1EybiT+ImiF4+Uj4eUle8ZYRYPAYmK6v+QBaD0pccjR7O3rnx06vSJy3i6SirHSLHUshmUTT6noxX9s7NYEgXQDYqYIeRWDamzQYKuSURIVeJVv0zMeQx5dRi2P39vZqUm2kbghJ5ZJN0ZdLL9/kvn399j8G83KoceEdZ27o+mv29uO37Ofw7NT882g2hKr3e/LMF25voKZbT8em+b9mrFd2MA7Fphg8TkWTV4E3boqEUy2IrxKpj1DgrRGWHCoNJWWZwjNV48C9vFx6zWDm28+1VWQZXRRna/g7erT6U0xTznH9x2Y+WrFMZbdjdE1AAFDOD3UKUtQRJl+WNXO7Nagg3xhfcHcFij3x1SrgMzHNJRnGPgfNk1R/PP2+zt1ZX5uX6yGLlepVjNt65ASD7dWDbG/Xqdjb2iGSfo1OSVWA2qnv/TrdxESqUkrpBFRZYEkqBQIutM2jw+mXH5CmSf42ulxNvZkk6mYtzCyL2OXESIumPTIz4C7TL0CT3l0kuShcuZEExDtNqLZHK7PO45nf4RxJbqrQqiEavEQCIupuKbG2rMFX59kMQx5Eb3kPqHXEueiEfXyFH1cc/wD1EtCXIeOlEwLgWv1HyfF+6OB1Ht0nz02DvcyrwNfio9WIPj3tLV5tleR28maueys4yhbk3+J310xdSaqrJTj3cByIiTcOOzcwjYKo+r8oyhI2iV10jDzJK2XbJ06mtpqGnZj78+4oIopAI9YtKgKiSoHudt20ZB8QjK6KXxuK1F/y5p75N6nHtFVilZIwTeyDiy2y+P4l9JNa04WdVyAcr3WyYq8Iq+CKr9xszJKUk67ESsOLhJ7XZTL9DpqY+xnW4zwlZZFtjcURKUrQ5qbhWCtclXyduEmzdwuqTZZ9DTs45inZsKW0eYoUaE25eWB+eeQ8SlkUafb450z3MRWWgmyoVOZjH0OwQbJN0W+T6CX+6x41SnijSebBgfx7f4z3dOrxzldqqO8VV5mOi3dqgZ0G7tSIDLPm/VdecNT5iOh3cqp89ecFS1nd+p45aR3hqa2s7rVg1ARSdrqPVjVU3OnVIKrrmjN17MJQ6lNIVyWxOQUdI43ZSXjLHW58pncCAbV3EiG08WvGVglnLO1sa2gaj4t4aoJgOvOCpaPeCpJ6PeGppiZa84KnrzfqnNINFu9Uxzx15tVPIdulHab9RV4ldo6SrFsRuzeb3QYTUUcbDUir+FIRJkTOxMKytl6/836prG79UI009eb9U5cdZ3gqvIAxuqot4XNMNqo5vJXJgC03MNINg4fOkt3KmZAGj3bqRcgzGySclHt3aW9SKTO0m5DbqtwNarA2aR+F1hiotYc7q0aCloJ3aY5yp1EElNEXIeOpZNF1HqkNFh2k5YW7J2+ddGKgGmKyXGbjVNSQpqT0GQoM1mvelCEkvWQkt1B9H/21yH6tfdkXHXESzxyopx11uRch6xFo2Lt43cdJi1URfc1d3jJOPhSS5F3sC1OgsulZlRpLdB1KugXVLqC1SFcS6RhlIS6BmUBNSUG6Sk2Ff3ZrklHt15S/7ttnQuoWG2qapR9Likwse5NfrMiDR3541TUTujXbFMMo5nZgB1CS7bMIiQ2NqGlt3q1EqHHr53yq4688KtpS+xdxSNNh+H1bn57KNK5xVO3NWrut2ZVBlJ1PLhXdGVwllwyptxZ3Bosqi1sLSsdWSdeeFW0e+VY5DjB741fj6A3xrGOXPzwq2pWeaWN+6kmu4f8AN6vq+Mii3kbY0bdZO9Qca1bW5gnGUwGaYJkpt4I42rMSgHSevx1uCmT2drzJNRBJduaC0ttwiKmXsRRLI9mAetZBL/dYtNX6MU6avl/PCraHe+rEfZot8Kt+nO+NX1541fWd8Ktrzyq2vPSs688KtpjvLWZB6zaJfYX24pzpddwpnbOlceOi2ypRfh5YUntwWPLGka8s6Rx7NFtfSiISx5Y0nXllSdK7Y0ox+a23FTaJku2z8i1uvNRytihI91PbpVmVgX0brZKW68JIRil/sEk5lW1UhXuzOG7BqrFbdW5SYbrRMgxhWk4r3Z7jbSmYHs15Y0nQ7Z0kS7cDtnSRLtxnbGjl6sFtlSCEx0O19JEezWdsaX8iws2RZrrtW8u+krteVK0lYNsIJwwJSJ2ttD2wRbxJ9FQcbPuCayOdsaN+XllSeBhryxpOh21pafPs3eT4wCopbczCNftce5cy0e0mo9Vo6S22pCoctONvKM0DmcexRZsm6CG8L5OQtMgglRAjLZt1Gx7h5GsZFirGut1XcbXKA5i0kxRWQAdKpkj6TeNHKcbKCntuqg1n1HjhyxSUrUE/zXyTRlo89KR4on3kmeGzo0lUFGUaXpwLCNAuQychAwopKvm3cnCALtxSREvkKKfI+yUmIGBwknIpItFm4KAKTZEwHLkWHEicZTh3zUDxvILROHhSbtkQJwZK2WPSj1bcwc1B+nGyS5qqU8Y2uV2bXerCufFBLpd0Ptp+1c9aYBGTaFsJYhR7Al6yFZ2jkItXZaSF9SWrbJwEGo8IpLwdVdDA19k6SUZXqUGPr8gJV8CWsUeItqtWnaCS6/g6p68H1PVigoqMboqR+dbo47aJLaqX9J1zW5IA2sNKdnyTUHkFOBr5mWc2EHHtZR50Hfg6p6GnVQfw8G1fH0+D6oX4eDqpq+V9rGYauWG4KaikrW8jOR3xWFes8UauvnM7jLy/jlSvrCNaTAq5Egq5jpekzy8o0PdBrlMsI1KBl1ZM56Zs8pJwvcnjZbcxuaBg3oUA+jEnz1+kkfmiSmqTXUpV0Th34OquipdUyJjlOl1RP6fB1S0VPqhY0NNqYhx0NLqg514OqevBtU0lU6yiYKpfxlBwY8MzTT4cs4yG3EFIO5qwTE78Ki9KRMpXdzwdMLpDWKMtzazwrncd6aBAz25qbyOUk5yVq7PKbUljxn7f59mrAzNrJKnqw0yyR1pOyVh1K7tyaSrVOkVJGqRho5qTM0iWcnj3l9OtzyHwlK6TL1Brbjc9o5QSi5pFZJwHUSUFNPPUJ9uJTmqrpsrIPhcSr1fMfLTEOZ9wG2WYXCrkV5Z9IKgUi7H7/qswSaPmvLVhh6yttTOSUdsJFxMtclUJPdFjGx70GUYmj0x5JLisp9Sab5MvQS0kPpwqs/UIOksKynpVabjXVhGR8ayHdC5Kf5qu5FxUSARlpiSnF0l5Lk/IjLPF+Q6S72mr1MEKqa5iYuFUw9bZxyVSSxP1+syFHmppfZmPQlL/ABDRzub+5vko5vx+gsICRN+Wtn9wo6HYHBS+6e4E1Av2AV4LUdk2blXclR7dJVV01XQhrhXLEkPci9Q8dTNkga+iZO7xeXdmdcdVkiGfjSwwHiyZY98ixSfNVEVJhk/SQetUZOkbjS7JZk8rlX3AilWCbm11ttZ4kmaqdU3RQbYjEahUWlXaqJJV2J7g16qn2XbNB8iaK9hpL+NW6rXIkmXYeBxjnxzxIfVnA51njn0kLdsJcsa9JfULduJ8h/8A1habJSq4ZOLi28S1SbIYx/Yfhrt+xnj7/wDtnUnGpvk8iTyMetCPqevHvFJQy4hEwKyxAs4BMUxER+38tS8UnKIZAnkQ/ZGQmIqkXHEVXXL1XOXCDdJsiKYY95fTrdwSTgOmBCP0igmaiqSYQEXumxSAYiai93nqBFJSDeSZkHey6ayWhU6ZAkavUEvvfTx0RegNKIiQmQy1ulWtPfwCFAsMpWZlWQjbJdpi3DHlKDyHXI+pxwJFw0PqI+0R+sSTT9ehH6xIR4kZaIR46TT9Xy/Rx0koQ8y0PJAOedtKLXDgG9lntyNu4j4a4lYwv3NwYnP32fkoBWMzS5x/XLCxkmFgnHNgkDdvOX/ZMS7qCmkPS0V0mIptDER5CfMUy+jlH1O5SiQKsFafum3i25BL1u5R6ThzJ+nnxxWVCOdiBFl/o232JWIbyQfN3W5NAiyHw19j8fh8h+SMFJr8OyLraTA8KqY7MY+32Yz+MhAxchjscr1OnNv87EPQ9fB6Hr4PQ9fB6Dr4PQ9fCKH+SNTpzjHJKNrsPG4/dezGPlj7GM6JVPH1dZHQnjP4a+X8CSkmUS0VdvX270MhlUGnnKrprvI3Iux5AXOEshZTZ+/5dnufPGzRPkuvMQeS+8+KwWvisFplLxBkAAJJmPaH8D5fLThdNskSijy3J57RbhangZ7cxlnbvFQSPGfl9gvp1u+iZQHLFLpT+6vnTZvBVis7ew5uMtbr8WHrQq9wfx485Fk+qd9jOSV/2wf1LvEoy4g6E9Cp3cOkuSYJnoyEvTpJQh9OrOXFgGqnnsdr648SDQkWlBHly16uPHRekg7PSP1dTiIaEki0P6BIy451yH6tdMfp1yFMfmosJekaBubEwcQlDTd23cSmWKsbEqpkRctPU/3R12xpdj5trqch9SfBTmoSQ/cGOa5WJqz5VaRS+017TS4Z+AywzSUMe321bKtiL+VeXuMB8pGRvxuw8eWAvUYk/bxktdtrom0Jd6YQzNyxtDVg6Zdvc2nb7vy0+fN2CRqqrXDjkhQza5DOvFUlpG4uRx2Kxk20ksFw+XZ9ssdvz1NzotubdFw4z2KrLV69wFnersGHZnSqybdI1VYvcKszUuMUxxnOPlix3uvVghSe13c2uzr1JBnCzeHw5SVxj5Zx9iVkmkQyXeurHujISHeG0U5fP3hcnXM9JXKSrPSdlRN3Ym0Ckgvj5/bkpJpFNFnbqx2WRsL1VVb3SMi1imhOHNZu7qSk8YYbf28Z5iLR37uOPlqYmEo8MgLhysvyJWN3BrcnOnCt+3A9mNTtjhq6gC0mG7tW6mBWr9lwTdB23auQdogoH/f7f4Y1aJPrK5Zp2O9RFedAx0tuS9jiFSXZPGz1s3dta1Kd8bdA/fn6VNbhpuXkAbAYGGiKPACniLin0+9VlpkExRHiBcfpK0UxV3jv9drs5H26KcR8jfKyVUtL+PS6iK31x6ybM/3pSWhfpwMvFiXE7lIxzmNbg2pTxg1bOMuTeVdYuWupVRLSrqpiPHQuKmXMtA8rBDxSUmItMuOfjEORfP4vD/SPxaFHSsxCcA18ahSM+YTEOp9SrqqrF6hUqv1aVWqfDXeKmoR6FxV1C1LN4sj4sgxwlwxrpl9OumQiAaJEWbc+2jrQtIo0Q5dScqqzjTftI5RrKtmUnqxKTtjm0oOLjImLh2/Sjh+n0ykaylGqqD9ibuhS4M1b9WwcuIWdQZf6Rv73blJo3NdWZlusbl24sW6ORauSgIR2pIwcQ+Vtdoa1dgksakxuool8TSpF2Ss7ddZGHlEpFsP23rkGzczJdXLhZVQtxptKIrb8NScOtt5IVCXBJQVkgUC1VaYssi1RzCxjSH3o7kylZBGLjnT1XbCBSnV5WwzG6lXbRzVnYIqozuJWKjJRNuYrIipj3Zxrcy0/EpA4pv7iIQEyKXcu7ZPk3aw0eMMyatm9BtHiKJ4q/ZUsEIiRArupYW71KOYMffc5hWZfpRrSvwraGYpAFXklYmfinY4std49ugstdU+lSwwg8sYeujfOFFivs7mtVp67ScweatXqpbkol+nLRkc/CytAsm5TSNfzFRgJOMWZq7SPT+ESEYrX5Zo0RNN5izV7t468S13RWWvfqzZa8P4+Ja7rxLXuQjorHABn5lYYPIlnDxXC71dQIPCT3d+TN/amaUnXZluvs0/VdV10irXJBrHvFVHfiKv6Gy14i4j4ir+s2WvasgiMtAEFuDEpP1uDJVw2YNuaiU/XvpE5+vFnAkgsLhAFQVjpOv7nISSFkolYtDpu5lkdqaEjnlrcjbiuQ8DITUUUgyJIFBKSbflcXCSybLCVEYxSW0diknKTqCIuRE6qf6yUq6npS4wpFoU4Akj0RMGKSSmBfNiHlpB42UL0lMRI/UUpDqenJOIUi0DqvcTTNN1BEWidVXjyMlqqp6QIYXt0mnAcDHTZ9BNR5ZfKD8XcKCUgkoPTEpBIUzFJBPvZ8joN0rM5Wih5qMmqgxQRYMJ2Q+Fwj95iitZJOCScvznIJmsslJ+MKn9OgsFffKpNmVqjU31ckkjipwJ2k9UW9rraDcEVvGNT14xqep6wRkmzFGPdNkXjZdqvuBFMYnb6YQjql2+E6522d1mW3MgIlbIj9Oqg1Th9zbPGtq/Jtox2qbvxhU9FdKoORHJ3SppjyyN1qZcu3xjU9DdKoWNTNkgHzNVu1xjsPOtwn7WUv0FEuNxHFVsNbXTT25nQmqpGZIsduPk3/wB9nGNbj5UzTZvhtDlPNNZa3b+VFl9bWj2UeFHMfaK42Zoor4uVT1i5VPS1zrOMGIPnBPHz1zkiEfUQmJDyG+zBMmCTRGjwSbNilJK62vnGUPJSAPUbbWF1UkkvsSOyyb6QfuztdQGoO27QFFBRSMzY3CLkJHuKVgkvhMS6c628jcuHbmSV0giThdJDAbGIGIkRbEtuPoxs0jHZF2Wt1nqD+Ur1eWtchUpKnPohLZyTw9quGR3enS7yYaWCDQn9zJMSQDaFBzhefXWcV0LQn3EvItp+fkQ21jYlt+fkQz/UexLfBek9iW2B+WNiEOPzzsYjgvkDL4cHcRse3y8hO4sMRLwt9cRMl8U2UbGjAyK2VaoNuxiOPyIba8iG3D0+RKP6h2LaDyIpiJFijBKoWVx8PvVTcHaINKxwTuNPGxqGfmGdjWwY7ThmYRsWyaDYbI/Uu0FBITcaUtGOmQbhT7St1VYV7F/6a2qcISoyzYUEgIZZsJfO4PUneWSYUuwQsBtsEM8drdNwqk3FSHIeWUBjXBdJJJrC9Tpa7vEovQQOSnKyo0aiwGYbctO33eFeSSDppx45GQbD9LZaKUMAGQ7jHrtxBd4n1eTBIoshDqpFGqH0wFrCon0jVZxrdw3TBs4rnxDoOtyolhB3aVbR4TyPQAsDNJJgAacyaz5ukhj4e+ccyQKBnnCQClYAcp7duuW3kw5mqhFO3E1t5EWqTJxI+RlY1DbWQNcl2b9raXos4GUUOvs0Yfb1JfHk/XpQu/r+RtW15GVfSlFjKenzj863Sz2UWW1Uv6SrepoTYbuw7oy9JarZg83XtDxFCvoWfC0W58jatodjav8AnjY2r6zsZV9eRtW15HVnlpls9BRjoHiEk5GJbSDlapVeP3AeWGcl/KKll+G2XOtXOdgDlLLCQS4pPhsEQO7Ry+RcxNtinyTXbmwhU5OUr01uHZsWl0yrMFAxCcUwYRbdbZmuOlVHCnkZWNeRlY0Wx1c4/KUYlFycgwKzxS0rHKghUrGcU4KOfdIrZalh0kiLdJJINUikMrj3/vrLZqtx75q9S+x+Wt04JxJxaD1t6SHVzrirRUphlJzr2eCNaqxrFGNYt2yWtv4JeZn2qw+5YcGmQafoZYrr4Uo7FpebXYZWS8DVHJajSxStz1Y5CbusBXpEGElat1YtVkoygKHAnAV1ugvU2uMAquXbn54+3ns1NoZQk3uMz+4rWtzDiPeTFtmr+PwSuQ0W2hItkxb09HOXThbPvz9KmrlIfDIbkruFBObTW0Di6Fc21gaN2Svq48QyGCz2qz9jZV1rzPbaGcyss7ubzc2/zsXcDbQ0rYJWwuu8yszaLDPdIZf1ceWuJEfLU6v3h8eMRzBs6gI1dkSJKDxHpodxa8R9Q6jWrRw9bi7lmbZrJyqUeQ8hPiuKY/5QpjxAtJs1u4qu9CmPEC0mzW7iq710x4CWk2a3cVXehHikBaTZrdxVd6FP0Aek2a3cVXeun6QLV4dd+nTcjEPOuwS7Ey4+nAp+sxPZu8NHTFKuP71uGdKesmxVmaTtdfaSZt5cNuLm9iXCRNnSCSocleJhlVRKPZGbmzTjm9zjWvQ13XbRteZMko0OixbJ++bj8P2SqQv+9NkHnRsfmPYIh1FqVha+skoiOeX+rvbCyZrxmJjcoo3MVrb2nrVNi8J5VIw0Eydqfa9OS1Zq8k7TXV0zj2UejluzxxDXwqL753/T2Fh5FUVXpVGq8vmyjWEakabF/CQ0pn99j4SIi89jCAhiQxlw4+Xz9/8A31ujVOqj8bZ6uVWdSa7d2wptbdQuHC7zTFm5knbdk3rME2r0W3Zo/aUTBQCA7jtw8ZLKvYZ8xIgcNHbGjwzJ0k6D6vpgqfOzq6QoVuutK5HJtW/vm4RKRTMtN4RnC4VTa4zn83EPGO3STxxIQkRLEBP2NcgI8+ozj4h09NIstGgNUgAO37f46sMRl+35IvGBBkknaaaaY8UmcW7kD7EoxiDBsCQe8vw1uZGu3cS4QbbZWOTi0HEXYbzDxCiRzNai7tuW0Q4OXe4F9WQ4hU6+lZCWkblbbKlFQCrKuLw9mdLmu5Ovzo/V4fmOXEirc0Q8hTrswReqWRUCVeo5ZV2fFoy0nW51MjEvDs1+RV+YHh2DXZ36tFW58fSalbnUx+fh2aIfUNbni4cCrM6mRkXhua4gWBrc0RcseGZ0RAtDW5oh5a8NzQiHYNXnyLkPhee5aGsz3LXhmeEg1eoiUjHbU3tJgZaWilVGfhWxiPpGp2MtJVe2JrpLpPYu7yy4KyFWdbgVN61XQe+F7pFAL983utPkQbQJXjcch4g7dbgTr1uhM1lrUKy27tEyeLZZ7c1knrYeKCI+8sY7PnM10HnVWbrRsg3z2KerXEtJM3S+O1OHrCpFhR8AYABHH2yxjOM4y6hGLzJZz4Ub/n4Uba8KNteFG2vCjbWKo2/JrCMGnqHGMYx8vsKJprAQHZNsYuUw4cxzrbG2tc8U/Lu46jNqJ5dVIn8BUIaup4w0/gv4WNlETSd+WdN1F0ytw6hKNBARx2YLPb789nZ7nMe1eJ5BZarMj+nwk014RZ6b1yPQIS0KYJjgR1+X2/l2e5w0RchwVCuxKRc8AiCeOwcY+X2cgJfjlFLOPmKSI/TlBEvxw1R0bRsf1C3RAewe7Nh/Durcvx7m310EOzs1LZjY6MfvV6TCndr5HsTSbIpgmOibolntzhm1HPLXd2+u7N9dBDly1lq2LPaWGTTH4C2QH8FGrdT68MWuPwFm2Hl2d2Q13FrruTXs7NHGNCyBYBsiny493R7OzXQR7OzXtL1YH9SaTQeyxJJEtZ4tboI66CPo1wHXSS1lFLXRR10w7OzXSDRNW5YPGRQRT+ngH2B93TEvqy2R10EvywmP5dn/AG7P4Pz12a7M67M67M67M+75/wATP/K+0hZFIamING/sw1v4laZKZU/s71XxtNRnYkts55esXmHVwJCWAIf/ACX2nLH8StjCHS9nSnLVypKyLz+zMAUAgzubUnlHuUg1Pb6wJ2enQEr/AOJvHzRil1niVhgFjBNMSFQe3CMrGOnKzNDSMjHulVUW+nb5kwECdYLBDyFddBqkSq/imvaay8Q+IgaPJKPjxHLtKwQS+eKSZCoPIPff7ixpdalJJauxcvuVc26a0RFtYWMYRjX+09pWi/FI5nZmPs57h/CZc63KCQqD2jrt7PxzZK+OTEvE9c03mol0muog0fNH6ArM3C6LVA1l2T1pIIYXaa+JxpPO4Dp5JR8eI5d+J65po8aPkuq2czkQ0UJFy2mIp58m/wD4D7Sg5WrddQ1+zRUjYiaGw9onkbLZKPK7mQ6+1l2i9w425blR0Tt4VkabAVF3DQLuek9e0cRDB1Xiz/0LLW+6hJ7X2Eg232KrNwqEXOP6bsvXKPKZkmHtPiSz+httD7M1QNuJJM5+27LW+IrMkg4RdIouEdWezxNRiHUrJbo7huNyrEDhHYCgeFa4rKvf7Vy3ReN1UFt0KK92/tb1JLZfeuNnGsXWpUMiY8sKpAsmoBOfZrpjhZw4LbnaKv3CbubF7UNoq3TW822abXST7bncyUo0jvZanMrIRu3ETT6sypsCzh2mkFT/AGoHGPd7T4ks/obbSXszUw0kizSqTHUWHzGR81Vmt235nId++9muNbpAtA7SbkWF9ZpGkWj/AMA9pU8o16uGE3v7aIKOSBzslQVIb4janu4cPGzdLsLKRogJT13qddkQTBMBTDXtIfySq6Zf6Fjr2gf9sLLrbCz7nsKRCNoamS1slWbs7L7TX85280j/AJDbXtPt0jozFbUL7RV2goxlHN3vtL3563WQ0BXO9yDdsptNsC6rkkxnrB/b3unMr1XXcO6vOzFuohk71Vt4r3T1TEP2o7/x1stulYb/AN/Rl9if6r3U93tIM2iEBDT6Ps8tmtisMxaZX3M//dKt7vafNUJOgkkhdN6cJJCEK6kncUxXlIb/ANyMx7pZEWXtMRa6H/gHtIfySq6fwkfOwBxzz2epJ7AWW2UqS3wsi8sUdQIC87OJQ1CiJGE2gvnj2pIunOvaR44gqr2s5uGw0ZiW+Tps62pshobISDFDbOuAqm9Zr9goe058pfbotZnoVm0SNxudZD3XuEPS675H7dOG7IHrbZTbJr6k4+FiYpEUI/8AuVE0lBwJzG3FHni60kpsPtaeeWYSuQlYYdzh9if6r3U0RCIkRM3rzeHdrpHeod1tTuZGXGJZPmcizbvGehcINfacXUXGbhiyIj7TZD8X26LSEpHC3RHSSyDgBNGLVSb+0fNGtNXeq19qq6ktskJG/wC8EndlP/ALrRoi8tI9rJIpCikmkKu28EV0bXBGM2tgo25vLjpdFJ0iq3Vpm2cHQ5CUdQ2r3QIncKMasZT9nOC0ltVDhTZGqLIezxXWSOEG9X2ojqrKIyTa/wC10FuPmLKUU9nquLY4Oant5UqYlxhv78hwWOzVVoUTUX8++YSTDEkwestUigQFCYqtIm2VSKucG7hpSn1dvTYRGGa6tGx9ZtFidWBcPZ8gUjTUxe9qoG/jEYlPIGH1UKk2p8Yowb2LY2uWGwvbAoj7PVMJUVJOGhIuvsEGEZ//AFDkfTp/ORUR2YeFuTThzxz5mU7XmbTteZtO15m03XmbTdeZtO15m07XmZTtIbhVJcuANXjZ2n1W5fj9kzEMdpLTMejjsPxLFa8SxOvEsTrxLE68SxOvEsTrxJFa8SRX5+JYnXiWJ14litYscSX4N5Jo5/yvlnHy+xnOMY7cvZ6Jj8lhzm91ofx8e1nXj2taG+Vo89mGcxHSP+m/HH2SIBxyyrPRSPpLxNC68TQuvE0LrxNC6bzkU49ICYZH0/Yz26eSbCPT5ujvVbTz2F49rGvHtY149rGvHtY149rGvHtY148rGvHtY0neK4tnsw1fNHqeFG2M+/8ADXbo1UwDkak/FI/I/FEPrxRD68UQ+vFEPrxPD6zaIbOvFEPrxRD68Tw+vE8PrxRD68UQ+vFERpGxxKuezCSySwYJP8cfam7TXq6BKSp7+bWAXEvP/ajXn/tRrz/2o15/7Ua8/wDajXn/ALUa8/8AajXn/tRrz/2o15/bUagtxaVZfTGfwb3f/g5nGxj6Y74uaj9Nwit/lKKJIh1DTUTUT6gGsmiHNVNQVB6gKKAmHMxWSUDqYScIL/5Wi4iPIq/cJOGV5xtYtUfZWQGh71lwRAlDlZ5w5U4oOJFk2WBJx7uzHv7NDjAj26irFDTa7puw7OzXZjXEdcB0kqq3PmELYOrjCDvGcZwOce7OcYxnOrbd8pc2MY+mmXeCJ+kqguHNJZy1b8Oum/YrFxDsxx0hKfD3ICjUbnmRIWL/ABn3u3aDNEnC8vYl3RKlpBZs4DqIOXjRmHN00lIt+XFnpVZFuHUXQmod0r028VYHbE0k1W7lB4kKyHvt1rGIT6DWVsaS63bJoLIOA5ofZbSDB4aoNvc5cItUFV169aVMopvYmrWVKcajg/dn56fPk2SBqKSE09kD+YPWCjg2wfLXy18tfLSqiaCSqpxM7FzqSqsd8tfL3NZJg+VVBr8tfL3fPTCWdx5hxj5FGRRwaX2N5N5m1PZKxUFKOrpcVSkHrmJlGX+p/hM3juPXBw02j3/eE5Sh7ggsismmsl9n8h1b5nMFASD4F3Crxw4crxkO3nLLMoupmueGG4y0YaxWGoKrnQXZLw5onuEsp3Bk0ToMiS8YqyO+SBIRiTIV2RRNRcNBryqkA9jXq+rnIK4TbxDbb0SQdzCWqNMFDWNkrgTHIdo6/wDnVokOOBaDkhBMizPYk7c6np9OtSgzEDGP9PXzJk367x7OwsZlIHzJ8wkEcrMXDpFokazkLZWVlASAvoPs2iznNht+nK6LVEl3IWyrqqCA9THZjIyEtGRgAT7xdVi+emrps8RBw1h3mHrRIs9nz1+OrpMqw0VnKFvlHETBPnjevUiOn4tOUkK7WEq2o8Fvucl3h/Bo5X2wjcNiJnQpV45RkY15YCLzFhR0gqogskulWZPMvDs3J4xntz7rS/VWem0xcv6SsXZs0RFTwIpfbLxJMOn83cKX5brxFgg20gktGA/OP+K7xyjsna2yUACfJhXY+Si4dkykag+yKzhkWddnqxqTdgwjXbkrlOOY2MkpQK5R4+wMBl5Ku1dGtrPcoGoKYcjGwwSinDA+r1D35kZOBFnJxsj1RaVeBgot2/UjnLxkxDm6azcQ7U6beyfySQ1tv/SzfUS/UjZJs8FIsKJAeNZzgRznVoek6fdEZ6YRgoh7JLRaT+CfV26LJLJuEkl0lpCObLIN3ATkKbvuQOXLVkiSzp3Nwr+Okk2myh84aW0lJxyrpVmksui1TNdZs7Zv2/WaVGtVuGkJNeKKQjxeAyJWxV5Bfu6w5HI8sOnjVkj13bexV9yoCSFekSYPQTLHzxjWfn7rROJVyAlZU5eUdTUk/knVZszqlez3DzbCpb6LXGZa1yzbt0VKg2paNQi6pZZscnGS1cnoEwGVjK/NzKbpSO4ly7NPoOVjUW7h7GxElMOO7R5ILYV6OQoF2WbC5BdBZqqaS+IeT7gEjiTqdmhmiTyS2BtylkorZB19rdtUggGw41FzTGGs80q7mrGnZW/wmLhI0ouJasDr/bB2d/Ek5yEjcWaWIP8A6Zc5RmU6JSlzi2WLF/JJLTuPN7Ro4wrsgL6CZOShseJLE7l80L+Yz2uoSJc8QBmtBQyhayWe0dT3rk18avkuEPV5ZXVJqYMKYq0X2kk127yarLvd/kFQLjWNvGjlh3yfokerVr7Kw42als7K7buXtwp1QSrz82u2EwvM1MFF9of6iuWrL3m67hhXcym2daeRqzVDZqafOW0tEvK2xRtW4ljUl77WouLuleBnGMGsUyQZtqmoRd4HXb8sa+nGtzzzjMWGpiMTmYx0wVR8T7fCqGq1aWNlTUyhuethvIwShutzIZNuWGdCjXiCMhKOrB/uLC+7bYyKJcCXb7pQiKRelm6f0lYtbMf0aHuvcopdbZG09jci7nTJ0UtlEgSp5F74hQk5Nlx1nH46vKpJ119kZOObyrFdmuiztG3yiq41m2MbIkr0745+JT0bC5ewVNcR/dU9uZA3MWqzUzEOp23TbIIesxsCbo2e3Gc5l7HqRp8fJy5yT6/xUPHNGb6LeuDc08XJ7cf0s391eUJSGjjLS+exI86XUJddXOd33Ky7KGhELvWcnt1mOT2wl/i9PYFnd0HitnqqbSC23hok2TjNmwvc9yUq8dl20hzjHS8bscORg5Uc1UyzuzZR1f8APZTp7ONpu3FLactp+fiC4cryweSe5rJi0kdsIVKvukx2hlnUlXnCTlmie4d5lUXtt28hFIR4uw2mnnMtAY7yl9A6x7vaZdrNaAh0dQNXlLh7OkXERdM2KlqvLsrHaHz5HfLdhkmO7W7ElBvjp9Z2ttyu6FUsNSsuwMwNYu81X3x0d243Qd1dvvcxjZ7bR4TDYNulA0y+XBf2fIpoby021+8vm7KlmOYR34jMSLGoXDO3s5CVvZhCWlbhuxZ7pHOGEl7LDtbxZLNPtfp1uawy9rDow+oeWK40bObXNC5QZtGv+Rq4Y+G2CHlM0nsfPpqTzak046Yg5YawKcpLTkuVi/kklqqhg62wElZB3BKT8ONYijiIhJBShfzGe1DMSkpSPZAzbizZtmoaz2dnZmztSSedXG55r2G2Qdabjt3PCn08JxD7b2/Q7lxu8Y5qJkMHjtiI7TX/AHaPV9lX726RVbWttLpEHXpFY9l8dlQX1tH/AFDcNJrDXd33Cjx8/ZxjFy6c7MILKuLLKFHGi+stoeK1uDry8o3kJTPzx2ZrDboNMnns/H3blNCUj2roX0iyjEklXfemSrcldQQNlL5IHDbk4wcnACTaHim/BRDVg/3DhtF+OqE0JpBI5P8APPun0SbS7sdXT+krFrZj+jQ1fLobhcavXKbXYKrsUiOZZjNQUk0S2fsTaG+L12WdzESxbm5dRMswnGQP2FZZ96kuRa/PGNWhoT6EfpC/k2MWiCzwXjJw36mGqbZbcnBxNyQZoXaOWkRpVWJIVcQsdDMEixFVr+trJovw1tx/OrJpyopYL2tFv9w4CvRMc3FoX9DNdbb/ANLt9JJkqqkARzcWrNujjs+WlB5hnGphp3R+uOsoPtwbrIGgrt/NLgSSlAWUqVtlaq53NLsuVOHWf0awqnCbxrG6tEzGxEO/y72RLlDSxahV28Zu9MC63Ln4uPrcmxX2l+dKaa2lLObBcdTWM+ccRnUnj/p8hrZL+Ty+qC5CDvtljXtvkmsRXJdZxsREOSiDUMPSOPfvDVsWmjyLfBCQlxynIvov2Z49yxkLNYZfHY/2MmWkLuJFLPd9KrKQ92mJJX2doJdg2sNqf+IXSdtCbQSqLDzAb37G2Vjc3J7uRWF7wTnb3aaEqKvs4uV3ULdollJ7p7oxT92wd2u0XawNI4rCH/t5S93svVfu0a+sqv2nLdB0gqgvdqsvXpRXoR8AyjZF1II+6XhWU236LqHiGkI27s1mIhrNNe7uYmIawjPurZ61SfNXDZVgyTjmaDNF9V4x/JJSCmoivtYdZ0q320pyzVQZp/7s9mflqVjRftyDR0ZgztS84uXq7R1ZqlG2hFmm8mKqwmYNvDuWzZJm2SQTTqsenYPj+LLSIe0KJOHWdsIpceySrldY1ZgTBpX6fG1t3JOmljp0LaRHD0tr2K/3DxkwYQccbeOo0RAXKUnX0/fqzUq6wB5D7ftZeahY5STQQFABAM67fnjUgxbyLVZuvc6YHauxkM7etcD0U4OvRkAkQMpqsMJxwzWdfT8vc8rLF9MtZZWrV9SbkU+qggm2SSSS/PPusENiRbKLJS0aMgxkIx1Wq4yq0d8PZPNo669knkpnyjhNQkOjAxyTBtY9t6xZF+9OB2hhVOAvYiHaxjZrGxsBFfDWvr1js0eAMcjncShtOJAp5dswxwQg63FwAGLOar0ZPoik+ChimPDEPENYNr3dsyr7OPk38klqGrTGDcvXDaVpsbKPcvxPb+Lcpn3z4W2+EpReoWIbQTAWLek1nDlZKSdj2Yxr8dfj2askJiSbKqJ1mmR1Ty/FpjHZp/S4uQsDWfOdqEZYJONkXerDTYWzZSUdIbaQ/WBaRrFWj6m2cN2VjosNY3KbtRLbKByDjL6vwLOuRgRzSv1CMrbuQdNHFRjXFhbzxLpg4SVSKtVaPqzd0iyn6LC2BwLpYdsWDhRD4hT6+hFMw4/l71AFQCAt59q3tMl3UiyU3OnFKIlSS0mZJGJg134suY9tHzFj3ltc7FlDIaV3zuJ1JGrjULZJ0yeZzkdf7/M7gyTV9KVq0zdRksSMMvvk9ekS7+43yWuirLvmL5K4pw1HVKpUxd5hKPjanXWVTgI6FZ/bctW71A0F5PaFBRQ1Y0tpLKJenymtOvKa068prTrymtOvKa068prTrymtOvKa06Q2injLivWduIuAVy5VwOOzsx786fRjd+n2EtU1v/4/DElrwxJa8MSWvDElrwxJ68MSWvC8lrwxJa8MSWvDElrNYk8amNiI2ddG7Ot7EVyEdpO12zZFsnwT+w+YNpJuaDiQ20yRmTEtup38vLmf15dTuh25nO35sNtkkzA3rZqizSBJH7EnDM5LHI1ae9HP3XgyY14MmNeDJjXgyY0hT3ZZ+/jYhnGpYwn9hdBJccgpK7dNnKqi7E9upzBejy7n9eXc/ry7n9eXc/ry7n9eXc/ry7n9eXc/pLbqaLP3sLQWUeqmu6TAEx7B9/ZjUrAt5LAlpWoPB/y/CUprwlKa8JSmvCUprwlKa8JSmvCUprwlKa8JSmvCUprwlKa8JSmvCMppKoPiz95F15tHlz12fLsx9h4yZyLZVq7t/szxUs7dPoJT2W76B+j9lvcLX7Le4Wv2W9wtfst7ha/Zb3C1+y3uFr9lvcLX7Le4Wv2W9wtfst7har3srrcgOegK3EVhggwjP4Py1267dduu3Xbrt1267dduu3Xy+129n49uuzXZjXZrs12a7NdmuzXZjXZjWBxj3Z+Ws57PtdmuzXZrszrszrs/ssdnu7NdmuzXZrs12a7NdmuzXZ7s4+12dmNdmuzXZrs12a7NdmuzXZrs12a7Pf8AhrP4f8dj/wAOx/d//8QAWBAAAQIDBAQJCAYGBwcDAwUBAgADAQQSBRMiMhFCUmIGEBQhI3KSk9IgMTNBUYKiskNTYZHC4jBAVGNxcxUkUFWDpPIHNGCBlLPwoaOxJURwNWR0hMHD/9oACAEBAAk/AP8A8IcF5meOQmnWSi00bvozorViz1kzL0aRcfaoBFpEv0sleDPiyZOU/WGQ8UtF+L02LICuANom0YVCQyxkMVwdmrOiyWgIPtG1V2lYr8/Muyt7SyFRrgRaktKQzPcmIae8U7eQH0rZ4SbLeH9IUMPlmoqP/CX7TOf91A1C1WCAZI6qXCxjWpqLVFmtOPG7niVHzLgSwdmQqoN8DxjuFUFSsMbLtQqrssYCZ7FJKSlv6KtOAVvuVViVdJqAxGXaq599NSzM2zMkBA1rApJh4rQJrlBGJEcBdOjCpSM5ac6VLEqMcXXXAaT/AKKHG5Bqu9EO2ojS6PSNaaibPYJWcw/PS5st2VKtCel8zz1rg+FnQZBo5YgZIK682bi+rlP+6XF/ebPykrVlhMbPlqoE6GxBPA62WsBVQX92eJSbcyw5mbchUMURMWXbByxPS2p0p0KdvjDMQCVK4QAyZD9MJNCPvErZk5qH7l4T8qHOpqEHIOXbkueEmz8KjpgralmBcxUkxX+NcJZL/pPzq3pEv4y351asgRavQH41PyJR2oNfnU1IFHV6I/GoyNXUPxo5HD+6PxpyRKNX1R+NPSI9Zo/Gpqz+rdH4lNWb3B+NTVmj/hH41NWdvdAfjU1ZvdH404w5E/qgIaeKbFqLpiLPPicL/gqfYlnhnpysniMMF7uLhTysZZwCGTCBugVGrjPAuZk54aqdxZAkWoD2Vo5SM3LN07XSJsovyD9R7oOBi+VGMX7ZelrwA2aURlKzciABqhVdi9X8Kf6Cw6Jdts8VRU0KxxnX5RgLmX/lmv8AZyVD7RtxxH9L7ikSlRfnCeaZiJBThTAm9KmFyRjlvALj+rlP+6XFrWqHykrRtMXpmTafIYOhTC8DqJ105dsiOp0qjX92eLizDySrdvXVwlKVbdx3JMV0l1q1My0+AllZzqUnJGYDFDCYJp2elb7mm663Q8SnWZlnaaKrR5LZFBvFohuJl956ORkRUy4wYhoKsQwq32sOtSHjXCGWKn20q2pZW1Jlp3hVvyXPlxiuEEjRrq2JIhFWxJdWpWtI9tW7IdpW3JkIq2JPPtK2pGrZqVsydQ7ynQm9JYoM6qnBiD2inEOunRcavbzENWPrf8FWXMsMPTUyTbzgEIneOcTgtzbLt9LRLWMRyrgNbRzcg2MvB6WZvBcu1Yz1nWFIOCTDUzGhyN3kwdbEoc01LG12xVjzTVm2O7NTIlMNlQV5SFFRKWfdnZUgZolgM3KcWPApY2Z61LRemnBMKHIauJSvKHZIQ5Sw3hMgaKtcAuEfK6MQQlMNSsJ2y3DMoNsOHUZB6i3VZsyww6TV24YGIFg2uPg/PT8rIyssZXDRlkcLAv8AZlb3cKxZo33ZxmYOWECNwBNsswr/AGc2+4cpJsslGEsWK7BcG7Rsy4opjNhRXXsrg5Pz8pL2dSXJmidx4l/s2tWE64NLTkyF0I72JUu2467EmQrruRy8cm0824NLguDVUCYaYwVOSNVIkW4imJaLbg8qlIxpg4IKZgRUBfsRzNlveRsH8qERxnrZrxdIJJk4m42BUg5gheJvFL0VkRamRDS99IW0pQRGjFSWZCQjE8IjrKUFsaNrKmRyYRIqELhEOYdlF5/hWUgqEhWKoMI5KUWIjp99S51xxQIaOce2rNduHMN8dFAoqgcQ1CK2/wDg1ocOWry2hg5taP1GXBi1Wauly19ZXjLEHbq0JaMMwKaB+WmIVCUC+Hjq52yy5kJdHtJsjAnwwiOMg11Oj0Q0xhoLmTzZlBquAxgiJyrWHISIadWpC5RXUW6CEiGvo0RVj8ScISLNtkCERCCdK5EKREURCRZS2k0RNuTQEQ7nuK0moQhhhpJTjbpQPoxHWOhDTTlqRFnpERXqP/h0j0EdI6Eb/ZFNTZbsG1LzhVD6m1Z0+W9BnCpCfhCr6pMTfZFSs32VJThe6mZtqdMxhNAeWIqWJyQMycaiGcXFZE8UeqrDny91ST8tcN06HsCxFrYsyIr9ts3GypyohbccxU66dzMHVkoLAmqSgZ1bAoiIvRlhyoXGybOmoshJzC4eEtpPC4NeFwtZYqa8W0iIic+kpyrFgMnHMlK1Q7KISeZlTFktxxTLdeanaRDVcGQkWqh91DrqwCnxILx1yBGFK4HfEa4FFohmKo/CuDgC8OqRmuDbMNnGSsJir7TJWFKxH+aSsCW3cZLg9LDtYzwrg8wUS2TJcHg7ZKwpPtmrFlYjVipI0xQRtA5zb/8AwhlFwy5k2Ew860L7zhgB0XmoC4FPtgXo6G2zqFcF5pv+INwVkTAFEC6OgSx7CsaYYZoGh6ICQuFsKzAl3RcJlzAF42eqaK85M+bNW0DaKlSTjEpOh0LkaMYUKEI3Lgut6fWrLk2zFy5IQbyEG2rPY7sVLAGGktA+dDd4NrKicbB9ulpwSy7Cmywv3LmvUFdCMjfcbOqnVBVMsV01EOusJFXdkJIic1atlCVDWERIsqHC5lI9tUt46SpRYhDDTgQkTbgYt01LNkVCeIXm2KiqHXbTnoTC7bHWu1NutMEwcyX+Hgo6iIaoGdI00Kmq8qq2lTULh1YUIw/5IrsBfpHYcDfWAohqp5zDtKZck5EwqZFkukdvNfcBWUy/dhneEDcJSZSzrgU1MUBdpwJqSvab5qJ1iG+Cy14VVnTQkRZSLVRa4VdteuTlvk/4QHFf9GXZRlTHk2WPnFOlyJ6RAXmSLA2dA4w2E8NToVCI/Onmm5bkoPCRlr4q1MiTDx1YNZZYuXnyoXXCYtO7FsHCCnAJ1YOsr+Ea6qYzJJoRAZ8BHdBsCQEbssNUOproTjCeo0EGcbvZUy44cHOhJ4dRVcplGyvtkT3U5mTzYiQAI1Y6fzrg9Zko+250cwwHSe/WpkqnAMav5mohIRHMKqEyOqotYFrUIiocCoqtU1SRbyIaiPoxpxocqdu3Byt1aixUp0qnGDqGpFSRGebWxpshtBmevOVahMfVLWPC2OQVSQ0VCSs1x0nOk5QNN23ebamyfJs6RV4TA+jGnKaxVAAjvGmydg/XymjHcnqe4q42a0IDJ3w0H7m5xsibTgUuCQ+cUI3EHKpYtxzGiTtIuBS5hzLbBfszHy/8IZCcqL4Viu+TIRKmRay5ywDkUy4642dJEeqGwnXyZhZgEQgdGOslN3hSk0Ai4I4CCgk5hvbqn3RJSzjskxOf1hvVfuwGsKVYtqyF0xd3bIOHV2FIi0dnl0plHG85RRXRqLJMysy2Qj+8bJRNqYlHxjzwpRNPvTQNEJU5rxM3Y3Z01Y6gQ4SACGkvrFduBWBE3SuG8g4weIWyEKx6+NcJGLStMnA/q7A4Ww30WBsKhLaNOYRxbdJoiIIBhIURXJIhcEvhVIiOrspul4stOwiqIjzbKIs+KpERSztbbz2S7BwKK1whk5ySidTcxgydtWlLTNoOO4m2SDoQb1z21UQuYsWCpYqcPVBOFTdheNgWOj8aHCJ+k1yNODysjqcbq9GCMaG35Zwuo2Yptt1hxoMJDUBIRBtsaREdVWkw0/HI2R4y48xsHV8PEIrbBD/9sxi9uH/hBumpz8YrRQ++wJR9mBVOPucmbHDWDF39Ke5hTLhctC+bmqOjcuw1FLCX9Ruai1jcUsLEzLOA4LI5BDJgR8xTn4BR9LIWhMlyYS6UxVgzoFNvg2LmgcN4pcAmXzNt6kc4U5jQiOB0urdgSlzYC0hMaCGnGwsR2Y40LZkWEWnP9KcFxkpMyEtrbQ+ja1k6NbeWrW6iF0R3cFKERETw7yIiEjylgpTY0awjrIsJJwaMebVvES1QzVZkOIsV5VlRENPxLFg1dVZfgTrjYlsknhax4iJVE3lGosqxVUJ59mda6NuksNIJwhIjqqHWNSwtufSOR1rtCOFTI6Q/3aZMswHqGjGem/aJdGKn25uZtQwcJukgur/Xq3E9evSzANuObR8Q1T8lW43h9MGuCZJp5s6XGzGgxVS2wWXkrPyf8H7KHG5NHz7ONOtOuwuHhEjoquxyLg69TELt5s3gunA3lYNLDYdGN+Fw2GwClYsEWYgnLoI92pCzSmYBRyozAnSDfOhTTJPzLpPE2z6NvCnSpcnHqiEs2NF00q5eCO0pmMaz6NmqoGQ2ARC2N0YkX8xEJWhIO7VfRUY8SeBlidlwITLbbLIp0X2pWVO9u9XYVJCTeGrASKqkMNRYEBFUAEOpSsuqiyoaijlIdVMjTAMO376EaSxYllgabw6yzDq7iLbpHaWGEQxbyG7p1UI1auJC244IaxJrCWUVlLKn3gmxqIhFozz7yfmS/wAAk7MiTtYiJNYC3NxVUEGbZReYO0hpq3VMi1aEk1dkyZZhb1wWsthChYbtKguTTdNJibe8qa5U6XKSrBbYLNyVirsf2tBaIJ0fvTwfenQ+9Oh96eD704Mf+cP0cwAx9mlTX/oSdE4fZFQ8mkRvDqFBymzzK8Jss4FuKxZv4PErNeaGOVwqKFKNVatalJOqvoaq8m+mGJWDoaDdarE6NxFVTmrLMpAe2aZESry1KluoMolmBPCN4Bio0jCOgkI0lX72VNk4YgeYa6kOFvZRVOFmwoCEVq+1DSO6qaHAqwqkaQTVQaokhqEdUsiEqiCnKhKkdYtVVA2OEt1FjLNsEiu4js4FmIKhItZXtXWQtjjDJrKoiuwq3VlHNiQiSqqTRE5lbERrMlwZnsWLEIfjVhTjV1mcAgAxD3MZgrWdoELvLjG7/GrafxHVVsq3ZshoPLgVqTonRTUTpoumczU4KjQjnDKgpKMqxV2OK3WWnY5WQ6VzsirLtJwRLCUBFWRanZBWRanZBWRanZBWRanZBWRanZBWRanZBWTanZBW3CWmnPoZkSa+NOwMChpgQx8/9lELs3owteuKmhaGOoA8ycc7Zp0+8Tp94nT7xOn3imHAOG9UtD7RFichCghFPCYl64R/QRhfHHR/BGRRLMXEXNlpJc0Yj5I1DeHUSCnB2lKuPvR1YDl8CtYmHyzMgIK2SJ6AeZ8PApCZB8fSDEDxdTbWXWEs6AjiDhk3AipbbBvXVo2ZW8A000YrxSQUWkZxMTIqQPcUs0OzTWqSXmFzmQ1Eep2UyLbgsYR2btOjSQZakWHW+xFVgwlUiqx1CKpqLeRUkLZ006x7CqxUJm9Is26sVWIeoh1NrKip2SQlvFSqadqpFeEXw8RXmzShHCAFUKLUa+RbeJZtVEVRGpYX7pzE2WsC4NToE6eEiA6YD2EEHG22+cYCRaTP8CERcmnzcuxyDeY04/IM14GxovDD8CsknKsxE6fOr2TfIMOOoIqUIIjl2KNsEWYw+dassz8qADtWbYIid+oFToUTZFETdIcSkwnmwzXJiRpsgcAtBDGGKBJuJPzTotjCCMTamq7sx2gTwtOTJEIkXVXO60AFV7RMU1pOmpwtkNpQ6WXPN7RWGYmDjRH2UQqT4PsA4IMTZFzsk4FdB/2TCooQ0QH2ko6TdLTHi4MtEI+aN4CsBk32c4V5VZDUuUGuhx+c1LizOM4hgPrFNwNwzpbCPrJNC2bo1CA+oOIdLMwYQj9m+vX5fqcp7tWeTs9MN6RdONINDtK0DmHAF286QzGPRV8XmiFXkbKCo7/CWzjTVTz50ihG/EAKYepzmhEiEsMY5UNOnDphlRENWJtwc7ZohImX6SJFEOkOgibM2zBzaUhZ8ZgnBuaGddWYbEvLGZBMGQdNg1FTUhEsg74pgmicbqxetVRmX5q7HRq76qrZC5IqsxoaiLCNKlnZkCM22WRyV/vdxcBGKa7sSGitMExIfUvFWde4YIREqApEdZEJPOYqURYjpKosprC4J7Spz04RzddNYqMpFlVI7I1KknCDWJWPPzrzlAuOFd0Ee4rLn5Gda9H6O4I9+hOlUQYsNFKqGn0e8miImcTlSEh0AFVWsixCaKmoKSTuXVTN+xKvg443tXasx+4lzu7wxEKuopC/gLRxuBp6QdhM3ElITxlyUh19j3EVJRTkR0FVzLWLQmxJ4WzJlwhymgp0OYepWqqJWRFxzqthUiKIvzBXWn6oMIJ0hjys93WJG6ckbB8rGJYaFouuUQqp26IVIcFkMPXHXbax/MhqtGwpwC2jMKKPxKEY8kmQdjCHroJDAWrTswBp+NBUNnSYCPxGaYpbtFrGXXATBNVSVlyDpVb6ItD82bjWn1DqIii6yyDEzV9cEMX6+EyRy7xgegNZtBOdgUE32BQTcPcQTndimpzuw8aCb7CCb7AoJzuxTb8Bac0uVwEfI9r/AP3OIShowvRD2tqobLlRqiMfVBCIiIUiPGE1ehClzQ3rAgnC9wUE4XuCgm+wKCcxeu7HChm4+4oTXdqq5mSvmqthxBi2lv8A/Z4oHFlwboaB0lVmTU32EE4O9QKCb7Apuc7AoaQcMHBFUxJhg3BGlEZSwuBVQONMzY+5lQTRQ6gqogcCodOwhHS6004XXVnwdn33jIiNm9AwcVmHW22bpQhU6Q6/RCrF5NyV0nG3a6iIclNOrxSDU3MtP3bLcRAzG7CvBXrqySkyqnGxrgNZAFNNSmWpR6aMzZmXsgnRlVDhFivqwxKTgQiNGIwz7aZF+bm3AJ4g9E3d7akBq1mxdDPt9RTMpJvyoBhIs151E0zNgIU4HwwH76ssOcNZ8FZId+CsQS//ALIKwho2b9vxqyxqLWvw8askahyjegSKWbuM1TuU/cUi5yYjMbxn92edSDgsxcDpjLKrNqecb9INB1Kxb3RWKsoZSWlzMimCILyIV7CqpeOlsSHKDeREJIcwYRTko4ZMejF0Ddb36EVMo4+0Lzg5KHFLNNSzYUiIDTSKsAJizQCoZmDuMeuFNSpJ6ZtM3D0fvKVYD1o3rdOCvB8K4ATXx+BcCplgHXBAnirpb38i2MSwjX+NWO5NBO2KYuuBV0HRcXB5q1mDeMRZdECpOsseNNStgW80AOPN8mBozDYrD51eHPxmTF6uNRRdqxKw4P2laHSTrrToAI9avNhwqxbizJ+T0FG+bPpW8mED3kFIsTJ3X2taiavp+xDeG8LVADrL4U9RMW9aLpUwzRZooJET9o2KQEQa8KDoD4U5dTdtP6G+3R8o8XBt6cAp4zvREt1cBpotOTmPD8C4BTf3O+FcBJki97wLgJM/F4FwBmufLm8C4CTZdvwLgHNh2/AuAMzV/i+FcBpsR1sJ+Bf7Ppr/AN3wrgLMU+94FwFm9Pv+BcAJou98K4AzcO98K4AzWLr+BcBJv4vAuAM1i6/gXAaZFkQy4/AuAkz8fgXAKbj3ngXASYEM2t4FwBmqPe8C4DTPVxeBf7Ppr/3fCuAU1uZvAuBEy02b4NuHjwg7r5PJsYScedJ1yNZ85qxQ+8lYYdslYg94SsMO8JWGGjrkrDDvCVhh3hKxW+0SkAY0uaDp8j9//wBzi53pr0oji0jkCCKmTmeaDpQp6keMaiI8KsdtxynnKJFzkrFb+8lYgaesSsMO0SsMNEd4lYgd4asVvDDbNNwBpoiFsYeoV5lv/wDa4pQX5dsahGNWZWIPbJWGFMd4lYYd4SsQKqdokNIMHSQ7mFFoZcA23XNkP9SaF+XcoIW6vOrEAY+saz5lYYE56hrJNCLbIUiOyiEhbcuxKGw3+ZNGD4zOg5u6MgopwDXlVlsTNnm/hcDDQx+NMyjczNO3jlwNHRUa+wspK6cYdovJd7EDngNWOxKCw/UJ13jmRRIXROoSGOKCtY+VgbrZOcpOsTr1wVuzLYidVPKq8fvq3RECzYwxK2G2pRtwLtxh3pCPYU/NsCQdI8bp3jitaZaJ+gnM7tXedZW/M3PLKRGkMit91t5twByhiDXXCF/moproBcI322YAFzSIYrxW6/e8lqbwgeOivOremXaW8TYgB/ICm5tsZoD5SJEYVG2p59hmjo3mDMKfcDOuF0oUHAvHBemQq7Jkv9ocmzh9TrfMuHYvi5XU4JNgHR7G2raGbm3H2jeETA6WvcRXje6hGkkRCLn0g51bjLrfpBxDeHeapgr1wnDAW2wzkabZfMRCgaqHKd861waYlWBlnYNPG6Dt8exQhBrlc0e6Db6Kh5vCQl9ICBwCLVpJNxBmHaJPiLpNncjVmNFmcAR6laC8aekwbcGPrAwTMW2YP3jH8pzEKdhEuVnUNW8SdgEo+BS8zVsGjHkE+6Fpniw7Z/ErZOWkZJoGR5MeA9epcJJp2DbnOJlUMRUYFG0QAZghKrMGD5VN0MWk3gAipzhQa5pSQkzchoKrE4aNoZafkTLHtBhT4OSFnSoOFT9biTZG46YiIjCoiJMC24LAFM/a7TjLjHnQQqUOMeMIUqHlBDQSAR8gYfqOmg4c+hecCwlTmDjlHWmjg/oMhwxxpknXG2zIWx9ZpggmDO7ACGjQg0zcsWkNGtuKVNmYZ6OMDGiq71+ISFpkxJuHtL9BAo1lAT+yC4QxkWwb0RCDMD0ltVLhcfLfreTD1NtWoU6ROaROLdFK0wcdhAih5Jenf/GvUqBgAA23MVfOnWnQ1SElEGoaxRKlRKqulyczjH+VtotdNdDNuTjb323hqZnHadt4fwqBCxMiZE3VXRdosThgKlGiqCoaTr/AmmiYbdpcIDrpRCMbvnqUyTANudJOAVbbG+ann3QYA3OUVGFYdRTbpaMpEZpw3MdRYsCIahTbozbebCB1dRC6UkNom8QiPSXThqVnAmGjDO2IDEE+IFgearoACu1VyYproyIcwNqaaJ56VuhawX97kooTbrrDeZtkazUhMswlhOtx8KNN5SsQ14cKaLnzYsyaKp0wEcWVW9JMSzh0tlWZqZ5c/q3GOpE7KE8FQjRqK1plqSbcuyZZALztqeadkhcDk0vV05BXrntqksFQim6qj/GKmZNqRxcrvhIj9xXRTYt4ROBc217yqvhfMnByVO1/ApCnIAvANHbBW/KU0bYJ3lz/AKhAhpr3ld4QpGjLANxU5wX7O18iejL2vKy5C0eoe6alX2Cb5xbcqEesPFMu1w5qqyq+9RjGP28T5xAcoxKOiCOIFDWhFOEZe0iqTpAXtEqULj7znMMMxRQOhMg7XKyeSmjKZ/2U0MDiPMejFBTLbwatUKSVmx7QKzi7QKzT7QKzT7QKzT7QKTut4iCKeB3RH0Q5FCEIQ80IfoBhGEfPpTsG47Ecqmpf/wBVEXXfUUYeZQ8mmkXEKdIS1VNvt1bBmHyKbdc65m786dIi3tVZhPMoPNzZ3/I5oPUbnyKeme9NWo6V1hbIyN0mw2FP4q6icoym3jVVTknixb6YobbsoJttuB4L1x+ivrqSKdl5Vh54pQfpqByR3VKBKMTtDgy45Gc2BOC6LTlI1YDHMspAtY1lFOknSqJOEW6iIqkVJCtVbGElrbSppRef4k0LQyrYOOCmhrGaapLX6PArFkZG3GGJFyUnhEBIzfAa6z2MUVaMoUlwdlQbt5zkwGc0+3UZg0B5A1dVDyNk7amXuTjkoc1ERdGdVKxC3Xh3G8a4OBJzDDgEy41Rkbz1mrBploBj6XpENMo4fRkVFQBv76qK+cNwqtY3EF4OrVqp0hTzhe8ujWHGHzr9la+Til5FyWDLylqDlK4OWhM6SzMEYB8ZAuBls94uBls94uBls94uBls94uBls94uBls94uCFrgO0TilZIJloM0WqH+2eb+y3hBuHniUdCaN6PqOEMKlpb4lKy3xKVlviUrLfEpWW+JSzd166MydunSjTAHMP/qvNH9Boiccg+2KmDgMdUcqIhLrJ43WfXphzwR6RMdMPJKoRcp+NZvsTZOEWEWwGsyVjk0EcpPkDXwHjVkk7/IMD/OmibJs6SqwU+4qt1ST7jLPpHAaMwb65hkRCrxurLpGhPELlfpKqFPyLD7cqYuVPt0CGorTCYlpuUCWmSvRMM9dAKa5PMBVS7H1YVaMgD1p0XJAbeI8mQMielJakOVNkZgBkGLUNBh+ZCI48KEbktUkOGKL4leVIiFVdZVVbIiicpTrlWriRFUW8iJTxMNuOA284RUAIb+4uEdmDOuTXpCPM02ZK3+DRHLNtDyhgTfccBjJWYdVcI7BaC0QpmZOUlqr7fdbMK61wslJkrRc5UQsjlPYoowK3WpmffNkilxMDKHuaiKka8RU1qwpOTmZlymZmGAoMmtvcVnSlMKRvZs69J++m5GBtVjLvSpUA277ip5XLOXblGsakiFkDDpHsDZeNWsV8WYQpIE4E2yIVC2EenJSxNk3mExop9xDUROBSoYrkPlT0I23Mt1S4U1Ub5K035p6OEao80IbIiuC85FmIVC4YXYxH3lwZmwaAaicEKgh2UyTj7rgtttwhiIj80FY8xJwdyE4OEkBG4ZaBGGspByWddaF1sThmCKsR+aYBy7JwBw17K4JT8R3Gq/lRTMlOMnvNOASnyOZNyiSmD1twy/sk4AEPPGKLoBPoW/aPE2RE9Xop/dpp1oNZykj0J2DrUfNGCaJiZa+jPDUiEQEKiIkwUGm3KRc9vE7CuEBuijhq3f0BYGypgmIP2s/RohHHReIG32GhqeDQHMPu4lEYaQpeb2HdhR5hHSPkbK1n/wAaEiIjpEaUJHaTrFRQP6K8VSqHBlJNizaTYdG4I59wwQk2TbtJCQ5TbV0AcufvonHBlQSVUCq5pinSmgExfNkaPqqPyo8deEVwZnyqCoaWHFZsy03lxtkONDEij6lZsyU224BNuA2dLZ6icfdn22+kKDddN31NRFVoDCQ6yzw1UOOCqbEsuHMpBx8xMBlhKsAVjsNU7pmrFliLapNSjDYjsgpYW5csI0NVqzZlpi4C+EmDDHi1FKXdQVN1AYXgblawlRhpWbN1URVlhbGA+kPYVkutygnTfEOCvrpoas3MQJoRKO8CssZkaKjodAqQ39hSTjFn5b6oMJ5MmdFUQ4ak82DJNm2JFgxuGKlhdg2ZEyJEY4lKhZ0mzWUImWCJdYljlDnHXpl4cl1qUdelCLTLYUiO4pYihHawUrCfsJCQzcsxziI5wR0kLlJdtUgAsBGvTq0qI6AfuW6ctDeFN/8A06yqTbqjSJG3jJTgSFng4YssMgOTVqU21aEpECAmnw8KHReWzLR0ddxUN2nZT4TMrvDiBNk281Pg2QxhSQlWv7ilvnJPXUyzPTBAdNVPRCrchMgP0bzQ0fCpAGrflG/6yDJfV56h6qjoNoxIf4gjbvH5VonACOU6cv6/agCYlTGFJK14aR3SVrh2SVrhoHdJWyPZJWxi6hK1xw7hK2R7JK1w5t0laAuk44F5ogY4OP2l+FNt3FxiqHKolGTg90SzskAuw+1vHWoET85ESeHLojsLFFtvSRbR8RUxbMCFWqEI088KSVrhz7pK2A5t0lbA7WQlbA1OZcBK1ww7pK1m+ySOpl1wiEtxw1iKXg9T7mBYhcbMSXmB5r4qlNCyyTd3Ai2lbA9glbA1F5sBK2B7BK2ArLzYSWa8QiQMNG8QkPufiTotsidJEXqVrhpLdJWuFX8CRXguBUJDrLDf0P8AVU1VMTbhi9Lx1BooAw31bUp/R4/SiB3hD1PzK2pqbmGW7spd5ysGQbDP11mF8C7s61MkTBMBdjV6O7VuOSrRzT8WaRrrzdkFNOy8p0tToZxKjCpisAcCLREObVrTwtHeGLlGsCHA1i7xNFQgxUJ0ptgmzuaB9Cfvp4hlhmgEWyH6xOlS2YYRLMm7i7Olukq7w0IlVRm1laxSP9a9ILRu/Ip+btOZbDo3iCirr1pwSEpUyGjVvKUWKukUQ11+j2k6LYy9DjlWwqbls8OHLjUpI/01N8mesWVBrpCBs663SVmyDvCKy2JNmbJpqtts3zIKOvSWNMtjpnrkRpwCDdSnRZJx8CviGun3E6LkWXzbcw5rtSxPykq4DjjYjmu02ZSQh6c4UYtmlELjDoUXJBXUaZbbjPvuuFoHUrwB2VLvu1Ad1ABHM31lZ1odkPEpKeF558BbIhCmB19dDhJsxJU0k5l99SE0L0zY9Ms+Ahdkd11lGMTq51mJ+Zvuwpt9iztHSOMDUSt+1DmWJYn8YjTSo+itpgew4miNq7Jt5oY01AZJwSs+256WdIRGmgnNBVL+4pb5yX7VM/8AaHi/3S6ma+7WS8OlS00+6U4ZDRTQIYVZs92R8akJ/sj41IT/AGQUhP8AZHxqQn+yPjVnT3ZBSE/2QUhP9kfGrOntHVBSE/2R8akZ7sgrPn6v4ArMtCr+AKQn+yPjUhP9kfGrMtH4FIT/AGR8as+fppzUgpCf7I+NSE/2R8as+e7IKzbR+4FZ0/T1QVm2j9wKzbR+4FIT1464DYaRDMaHRUPkWsVT75uUUZazq2laZwLqq1i7Ctg6dYaFbB9hWqdXtpVrmI6w0K1j7v8AOrUPsp4jB46Sw+bjc0FG95/ZlVruT0mFBOs3x84qXgy3E6XW47aAXL8Dbbb2yUrFticZ6FzNogaKoSy8dpGBuwrIaMt57ytJwh6itIyHZpVqHT1VahwKnCVKtZwt+j86thynWG7/ADItIy3RjH23eBYTfvqfmRUg22ZFH2YEHROPNDAupUpkmoB0sI01bv8A/qtZzu/zq13LzUcu/wA6tZzu/wA6tIyjq4cqcqJg6RGrMCKmDrBs95jREIEQFUIq2CpLc/OrYOnqfmWIWWwFH6KhitOtHaQuHQ3mdZZb3U3OSwU+ndaMMXUz0q02phq0zN51kDvaDz1o8rgVCmbpl5gCb/eA4pUwlCmjFlzVLiHkbNpthyMjIemu9lMtkwNbl5WG8nKRcAFY7ozNV2M9FzHe9TYXRkObeU+07OvGYstRKoyBvcUzLXwTjVTYkFYq6cfr6MT2FKNNs8lpEaQrF1ENVxVVUpuWbPlwERHR9IY5K1NshMiOOgb0PgVrS0+y5KmQ3J10Zc+wmyqo7KLKeZTJNMvPgLlRUVKblim33MLIuht7aum2bOYAWnJYW3X6GwwYw1FVLBOgfKOUttiD93kPXxq05Zifth/lAxvQpcHFsFgzK1GW3ouBS4y70mftp7zmZERlmNEXICcAnMObHr7ipG/aqlWxCgYg2pBkJd1ul96LV4iwSz7pWeW2w4dasxicCinpAB276tS4PWfT9jIqw5EXgKq8g0OD3kdINtH21VzOAJb2NWcxNXbACN6FehNUNG5F6XpGkbpzZUwLUvaJ1MmeSN4FBgrGOek7zoXpbHUPUzqyDkpI7McbF12kV/frP/dWwnunlhGYs0z/AHZ1o6jCxWRLtEpYnnznJkRbHMR3Qrgy/wDxciIfMp8D4TTw/wBbBjFSbmesurhTZG8+4DbYw9ZGrCs92aalgF5y4HGesuDVn9wK4NWf3Arg7IdyK4OyHciuD1ndxBcHrO7iC4PSHcAuDkh3MFwds7uILg1Z/cCuDsh3Arg9Z3cQXBqz+4FcHrO7iC4NWf3Arg9Z3cQXB6zu4guDkhi/ciuDsj3Irg3Z3cCuDtn9wK4O2f3Arg7IdyK4NWf3Arg9IdwC4PyAuQOoSgwPMX6YdLwRrbQkJDmHiEixHq9VDUy63SXUQlBonYuNVerB4URf0bIB7M8U1/WZbExT64I6ZyU6OIlmIG+JuJMwMIvR9gr1eV6oKOB0vuJPFC1mqMHqNSbEnLOxu33Qhz0Hm1lAqIY3SLXPbUMTnm6vkiNTj9Qls5URC4J4aU+AWgDYDmpvfzoyCrNoUSd/jqqYYftIipFquujfNTJOE45UW8aHp3iercLKDTGFSbU21XSToCTZe8mGhekK25g2soXeomWy2nC1U7yu9buy5TW+AXexsGnZx2o7zpKqK1LOxhDFlU9MkMsPQjFw6W+psK1JsQdHpB5QdLibpyUlqKQlhm6TqcpP/QCliIiyjVlTxNTbIYXBGum8U2w5OtUETcz9NeHnoRM34h0giOVCJJykaMI4MinuRgX0wmAY+prqbbnmINg4Lw+u86iZbaFwMRAKIiOPpfsRfChKsjw04jI9zfViz75tn0mFzmVgT983mEmjNWPaTgDlGLDhAK4L2m6zDKRMOKyX2JIcN4+B3daxFXiWJhyaASHax5FZn9WblHnG34QwtlhChWSXJG3bkiPK8FAknLsZCcMWepsKZak52A0kyZ0aepXnVI9UlMsMNwxFjxR9xFdS0MrNWbfNaxhTVrY1o03IISC15ZgxlTHX3CUg/KTAYhKMMMd4SXCNw2wGgYPALnxEuEJ3J5xZAWviFPRbmZdwHWnNHmMFN38yWY6RH5VMkxNsYm3B9SnuVTINXInQI4PdVrwlpY3b0gumzxe+K4THoLYabAvhFcpnp6YPedcMlKPBaAOVysqeCjfMf7Kc6UueLfqJSxtHD1GKESIctQ8TY1bVKER05qRo4mxEizUimSFn1uxHDBaScPnM4+eMf0A6RKGhORcCGrrKTdHrQR1w9QQ80FCHku/SeHicu6jwp5twQ+uCv4wT7LQkH0LVHzr6Q6ixVmSzVqYCEZR95x2ES+icVsSTIR1YEAUpys5kzcmqDraUs26yLDt42Y1hkVllI0uTPKcVYOHhyGnW2x2iVNO0I5lLYYhsplsjljaKWGqjG5UnZYRm37tuXAaKQb10Q1EGKocytj+rTeKdGkLwf5Sn3mybxFMMkBuObh6iKb6Nw2xx0VXfuLlJF18y4OWqI9bMHYVgWjSOYq8vwJuZcqyle0KZnGKdYXAIi7atK0Xce0GH4E5OkTz925ymjJ7iLzHShxsGD1WyDaIW3njO83lMlQ8wDhZFNkNWHKCeKkQASwhiU23LMxcDpiGum7OtOi4TL5jUI4ejwL08q+DwkWtd6isx9qJ4XaCroJtSzpTRB0N8IgNaISffcNxykaMaKmpTrgsiFIiJI+mLMUSNYsa+sBea4D5eKz25hqO0pudktwHwo+MVb1o9+34Fb1o9+34Fb1o9+34Fb1o9+34Fb1o9+34Fb1o9+34FbU+e6T7fgVlgDhDicKNRl/ZjAFD7YKypbuhVlS/dCrKlu6FWVLd0KsqX7oVZrAR2hAYIYDBR8ll2etFnUDC2Jbxows1in0VIu/MreDuG1bwdw2reDuG1bgdw2rfDuG1bwdw2rbAwqxDcNqyHQ/fy5CfwKZF2WfaFxoobPEI3zU10fbFYl7u8myciOyJpkm6gw1CaGmk+KbhKMMemmKfgo1lb0m7umJimRB9rzkOQuopsSfelXR5HTmDb6ikRbZlGnaiAQACNzGgqGvDSWVdHsoRyYiTQuDW0ObrKzXGpmz3wvpoizhQiIhI8ScFuWZDCRlqVqmhYg5U7SOzjQ/8A3TXzq05plkJGWpbbfMAFWxPOCWqU0dBIUI4DBTYtFegVSeFxlxw6SHWwJ3Fqpm/enW7lsqqKTUqRE0dLjcCDbUsVDLYMqWcpFNkTbgARFubClm3AJ8Ltwyw0OHQvpHDcLruKZuBidTo05gUs9OMTTd4zoHLuKxXWmc15UGEPcVJU6wppwicOkRpzKQHRHENbikCbGvCWcCQ005kWuC+oBP0MMBUW0W6pmYsyz4DThKl01aky+5HzkbpEpp3tkpp3tkpp3tkpp3tkpp3tkpp3tkp14ChrQcJW1MTkoJ45Z86wIdmFaAmJtnQL8uer1f7XnyYn5nG+YZgbTLs3PTJ6BEcRkS4SyNjRdCoZVx8BfXDazZt4MzL0wFZdRQg1NlPQlXNMcInXTFTQTTDFPKRHO3vqPnjoU3fRtNg3I7tFPiVptSctZ4hW4ZUjjX+0WxTmDwttlNBiNSonKOejmmMbZKbdOzDjTMMaaodYUYuS8yw242ftE1VQU1VT2eKWqlnWwJiXy9vcVnMSwQ1QAAUgw+JapgBgpE6xOp6VEtT91WgIcaERecfmai9rtdAqbs+ZkovhfUCA9GoDA43okXZT5NOFlcAzBwffBWlNvaMtbpknnCpy4jTLTrJyZtszBNV0HqZFNiTLb5k22Y1gQV7B6i5NIg96TkTQME51zBOXrjmJwiIzMuuZprXw07CvKbykZcdVVC4Iay/anfnX7Y1864Lwn5uEo1U97Q7SsJuzwbzCJZ0SLzmCYcdZbCh0RLKiK+ZkT5HWR4n98EItnRta6dEXm8QuCVFJ7YLhNabROZqXzxGrftByo9Z88St2dqH96atp2ZZMPRzJmYD1FOkTLlFMqJmLDfUbyLFjxFsqkRjXVpLfFE4cwYXgiAXmgEL5iQHU2TWYE24Us++ZVENNyDh4+opIWyoC8eLG4576Kod2tMtugQYmzGsCUsTcpBvE2JZD8CLK4AkvqhU+R2bZ3QiAZCc1+KyAnglLmiBaorgW7J3rlHKCwAPYJVlZk6zWwZFVj1hVnf0jM2lEOSM5oCDgVZVwShZs7CXMpV5kKBvacAYFwXctGZN+pkxEeYNlcB7obMADdvoZryrwr/Z/MCdBjAqRzdpBQ3EyiI7IqZIIg8BOjqGGsJJwXGJhkHGyHzRE/wBfcH708P3p4fvTw/enh+9PD96dHtJ4fvTw/enh+9PD96eH708P3p4fvTw/enh+9Oh2k4PaTw/enh+9PD96eH704OEavOnom2U27dfYFaxvyDbzbLZ5MAVIii5MOYQ2Q1AQvNnDWGBQiiibrtqsk4UfWdadD+iras+kavrXB2lUQtmJMmQ01gv2V35AX7IHyEiiJQ9cE7etSQf1YyzCDgktQiFOjF2SM2DqLsKqq88KEiZGtxyn92hHDQ2IpwIl1k8In1kQjtbqHC45fN/4n5lOCMpyoxZAczZ6+NWq05D9414FOsvMkZ0NgFK8+yqWxJEhIasxUph1zHqAZpl1uoMNQGGk0JIsMHMKeInnzDo/q7tSzgjRmpX7U7SXvovRzTRFug2am232ClWhvAKsK26uMhrwEI7SK7Fx8Kk0Qk6+bhVayeFpm8xOFqq1RnGqMRQbujbVmzr46tDRmrBtAastTBqxZ7/pjVg2gX/9Y1JTLGzftG186qz4kRNPPTQCLg5299TLrbxGZTca6nHmm9fdxKVgxaEo1SyQnVpu9Q0xRNjNHKEP8v8AMUVabEq1TVjcACcNcIrP78Vbkib5YRbF4Cr3ENIusGJCspOAXv1q1JQJ6Ws8nAlzdGuujBhXpJl83C9/iGp4wYERUqEjZDb19MzUH2yobDEpsJmUsyXovg1jcVotyFpWYQQlsdJGLYU14lJHMWUJ9HON4wiG0dOXi+oY+Q19af8A88dqSss5KOxlmgMxErpsFwikMO08K4S2f34rhHId9BcIbO7+C4SSHfCuEUh3wLhHId8K4S2f34rhFI4v3wrhLZ/fiuEch3wrhHIaP50Fwjs/v4LhLZ/fiuEtn9+K4Q2d38Fwhs7v4LhDIVU1enBcIrP78Vwls/vxXCGR78Fwls/vxXCSQ76C4S2f34rhLZ/firfkTNwqBGDw85eTbrQtPTBuNjWeEXS0rhA1VHPzmuELPeEuEDVMM+Mlb7PeEuEDVQ/aa4Qs06+MlwhZ7wlb7PeErfZ7wlwha7wlwgaq6xLhCz3hLhCz3hK3me8JcIWe8JW+1pjnxEuEDN2WfpnFwhZ7wlb7NY7xLhCz3hLhA1T/ABNcImqYjtFiWi+lXzaPR5qgWF8CmfkrUmDzkk/VFk8sYguC8kwISxP6Rx5DTUAAOE5CIw/no6HmGmTbKEcpAoQYtWxQMJlnNVd0mePq4l+yvfIC/ZA+QuLCyDDIrXfMviVqBLMvzBuAOksVGBZ4OAPv4UXOcqbY9dTNw844FLmzjXCFqrVxmuELPeEnbw22wEnNq7115wlQbIVbDzVmg/dlJgXpjb20DV9RS3XlFT4zozzh3TgEdA7lB5UI3z4YnCyNtbakpafIMTkxMiFf+hWRIcx0VQlddtBJMSxABNiTGAgVpSQ7IiFCixNMjG7KIDjaPaTQkw4dMtNDrh+A1UNJ0irYlpY5Y7t5t5oz11wslBEg0egPCrY/pWZecMiZpopVsEwU2xfEzDGAq3/hXCFsRcCoacatZqeecfARZEtRxcJW2Jl8KXJc2jOi731wubJmoCwNGBwUzfkwZk65op1ERCzE8TkMzfUBT5nZQujzm1ST5t6lGwpu6ehhuWAyBvq1pkatxW66QtgbhVBRgVsOlT+6U1A5d+km3xHpGjDXRVgQVMzAZHg399SxOMNOYiHO3efgwpxiPQYXta6U6V3aYG9VrVuBQHVRlfBOG8VWy4nnwhiuSZKjG5qKanu2KmpwnmnAJoSMaamyWRpgyJCPpAqHfrU3NNvzUmLZUENMMFCgUeSzJtjGPrHV4jKBQBhWk/M2ZMzPJ5lp5wiGlzBWmAakLTZv2xAaQE9YVW2XZRxn7MKRONL+OijU6iGAsNTzogIjSI4sq+oY+Q19af8A88czOjMTLAPONiQjSRqZnu2KnZ7tCp2fp64qdn6euKnJ7tipqe7Yqdn+2KnJ+nripue7Yqdnu0KtCcq66nJ7tipuf7wVOz/bFTk92xU1P9oVOT3bFT0/V1xU7Pl74qdn+2KnJ6rripyeq2qxU7P09cVNz/eCp2e7QqbnScYdBwajHU/XJUYSM7hmCH6/NUXWROnZjwk3NMDrDtUrhhZtmnMjU7JzPQdKuHdkvGUsbIMyx3pdZPQGRet/lIuHh6M3aqlOtTLPJghW0dYp3TY1oFdzYliEd9WnKzLcuMyBiw5e0ZVbclIPT7INslMGIbS/2l2KLI85XLt4acIhfr5bOUU13gUFnx1qWJ6adPCIoBgUrLBBynKTuuiHE/Vh91PE24yfpBTomd2F8zHOBKIkGqJYaUdLdHoxLMnaWxwttjncPcBEXTOGWLV/8HCrRJiQmhMWW9km8Jvbq4avvG7iZJkbqkPcVolaMgJnyOYq97GG3SpUHJiMm7NPGI4y3FPvvTDr4DLtRfIBAOoCkDb9rl64rGaJlkAujAek6PfVj88QxERnVBX8gEAvJtmB1g/dmmx08nampci1TcQiQkG1lRVacxUoW+fKVOVfKn3KBDCNfmRF2k8VXWVSEaY7qEdPYRDTs0oREXHAqGrfTItPzYcnlqBooOjOrNZnbQ9JMzD3SmRuGuDMgyInmpAAIFwcsqI7+OlWHZjWwQNAGlNwlpKamglnJNkugoo2UA1hPBSVKeFoI9I9p1gbzggk5d9wOhZiPnBWYwDL9ZERDVic2NlXvIHHzEmRLO1X86cbmWdbRnbPe2DU30Y6pCi3icL1ApkTAg6Zwdc9gNtEVUXAIu2vNch8qlb0LgeXtjnrDX4paZM7RAIMkyIFk2qlhx1CpGad4RylN1NEI3cMe1VsrgU4M4yIjfSwh84UGuDj8hPTDd1GcMQAxDr4iJOk6+6RE44WYiUtNOxtJoBaJgQLJVmq6y80S08Ut/8AR5WZEph0sp0agrmGA0w/taUGZlnPOMVLuz9nZrscToKyZyVe9htGBJl0o/aJKVd7BKVd7BKVd7BKVd7BKVd7BKUdIo+aFBLg9Mg1rPPhdjAffUSmrUJulyZP8A8TWAXMXXwrD1VMk2RYSw11Bvgp+UkpxtymGoJht41NSk/OuOUlCqoWx21PE7SeHUBvqAqufMnhGYlnHQMIl52n1bL8qEqYYmiGpwG9Q6lNNO8mvXJkRLIdFAfMs0bFdEVP3DMAwuMlmNTbBSTeFnFjJPNOHrCJ0Kbpq9Ni+BUiVwbZKIjpk5ES6mFDhJZUQkQ5sSLESm+RMRzTBtmQCuHMjTq4M3xrhVJOk3lEQz/Gmbv3aUJb2LKiLexKonNkthDTdvhi2rtPXAuTQY6cuBShPg22eHGBke2au+kOoRMKwFXV8VBC4DWVMlJclxYRrvPAsN9aLRUr1TjPzqZFpgmrsnCwBC8pT1mOTLIdG+ZhzArUlHmdWkwKk9WneRFQL7tJRHHRWrWdYFw6nKaDq9w0UmVQHSVwdYmrYJtkgxNsBdAX41ThyoqukBFp6AE2JtmNJCXrTx2VMlmEMTZKWCeZqwOVi3V2lwdHvm1wdHvm1wdHvm1wdHvm1wdHvm1wdHvm1Y4NBrFeiStZ2a1iYZGgeqRKSCWlg8zbf9sWg2JtjUMuJDeudUVwOjOBtvmDZ/Ia/wBnkv3weBf7PJfvg8C/2eS/fB4F/s8l++DwL/Z5L98HgX+zyX74PAuADG9EXk7GzHhD/wC5IQAt0SRjESykPEVJk/hHs8WLd2U2RbojjUs42RH6xoQ8UtMuzNGIWBrpBSNtDgP6JC4Lwgd4Lmdf3cY94aHzIaqkK2wxIcxn50USolZEauys1YLhDOAZYTECboq2KFbM+/dNXguSjQ0bFBqZmxupW8ZHB8am6Qg3hGkFMlSW4CmfgBTbgiLFROAIV9Gp2fpJwBEhEDNWzOQj6mTuxOKmXX2pYKZkXSDAG2FCpuRnpYadq8NU1DaLQiKzIh3hLiLzghqIZxqrdX7Sz88FUREdIjtGjacYmQpbEa+juwroNTbTktFi8KXEcV1t9dF58SGok0PxrDV86FargL6oU4LbTYVERRwirNZnDbzzbx9HVuiKtcJUC1Gmhp+JcJj7ltcJj7ltcJj7ltcJj7ltcJj7ltcJj7ltcIjOnabFWMxMS+UnZbSBqYFxh0ecdOIC2S/tf/8AVJ8iGW3ADMamnZmZdOojMqiJSQNSjuR586KlJMTTYBUZMO1UpuPKX3gaFuPNiPmUgIyxnTWB1aCXrTQANotmTFJVejpTAOQlaLysqc6sxp7dB1Shy0y35xJWi+9ZLoUNVlXclqIqhIahJEOF8ESKEtJBmmI/g21LCRV1OOENZuGpQXWMw04DE1Mg7IxdwvQzt7his0DpJSwjMnMvC85rFdrgjaeN27FwRDn+NSQQemXLtwgbGs8OuakK6yoGar8wV15FLCQQy1Emm+spZoW3MtRBiTLbbwniV4REFRbpuJukwAAemNu7yIasatT+ui4blyLR1B2M6mZsSMDHALgKZdmznZW7qMTC7RD/AFZsKh2lbTbL1F4TdBnSDit0XC1RoPEmRdZFul4f3WupucEIP1XYAamXRMTwuPNHXD31P18pGmcwGFIe+nhaFtzoSqx1tngOhVXzD4VFtG3rohpbPDhxpzDXmp11PttC5lqU2XSejIcYUJ65ebMHGy328aeISYALxkcjh/WqgoMtG40J7bZin5TkTMScdbdiQ1Op9p8GAdM4QxCLWajeFCJMzM8YyzYjR6Q1LMWjOkeYwwM7gbalmhGijIAqzGCNzK8LdBD76eFxgw0i5Ac3uahr6wF5hZD5FMOty0q0MJ2ksLhuYkRDKvzINOFD1VkqikixSzm0C85FoTpHa8+BnhyKfCzbJYOkpg8xFuiuE5BaOQZihyitWk1PMPywTMs836wcw4lawWZZI4h1icAMy4T8ln4noF4m3DqUyD8Zch0OhlIXBqFTTsLPdfEZtiBYTBc4mNQ/2r6lMi7Lyr5y0rTluwJS4O2TZTRlTm6Vsa1bcxI2SBUSsvLGTA3XurhPOdR070eySpvpq2GXXNEMNZuKAaZ2Rrk9O3RWPvVKWJl9hzEJbK/ZXfkBPOMzASoEDgFSY4CyLhdaZG2VUK5kzDskpdh7hFZdVxNQbuyxhgxD1VmAtCevX5Zspdzdu8IISJm8pLdOtNkYmR1pkWmGAAREUKGHVTIusvBiEhrAk3SDbtTf8pxS5BKRnKmTjrYBrp95WE/MaPWEW/xKx5mRgLpudLRmoU6Mow450kwRUU3akb27PFUNdIbaZaFkTwkA0UmiIcACI1ZTQuDdgDZEaApgWXDbg/F82xg03r4EQuy0q50LmeoE1r6qdIdpEW6qLizGL6YIuwAddDhuGipU2xKPRYwt0mdIb9GRTctONs5hZLpB36FLE+/Fg6RwKWYbeJzKT7YVbmdSDA9R0KFRU8GG5K9p6+wmSceIMopkGpmDYOSF+ZNBHqHt1IRI96hF0LZ0uNiIVifUQl0bdNQjmTN1dhhq1lCQKdujvnMkzC72NdEXJBfO5qz3SadKdE6pagsYnt1oJec0hRMkGa9p2dhUFfSl49LhiImnFLCT4v3csRDk2/mTgQLM5E/UCdAusaeDnPaTIlUwZN1apoaRvAIR2cacGqVkL4vcBGUYTU0bo6dkyUdBAVQob6aYFkJkw1bwMfxCm62RmgeegXmobxknxdlJQGZRqhGUvKOgZPiBU10AObbXnTjjzBTbDNMS8zVeIRThNWdLyF9dN4RibhkKjoinjcOkYVGVRYB0DxPwvZOmVInCzE2CmmY078E8HaU012k+HaT4dpTAdpTLUPeTwdpTbX/MxT4dpPB2k+Gj21J8O0ng7SfDtJ8O0nw7SfCvZqTwdpPh2lMh2k8HagpkNPWT4dpPB2k+GLe8mQf5M3NGLJCxmCtSszi1bhSc13Ks2ZIi/wD2ykZnuFKzOHVuFIPlV+4UjM9wpCY7hScyWr6BSEyP+Apaap2blSUz3CkpruVJzPcKTme4UvM4tS6BWY/pL18mPmUlNdypWZw+q4UlM9wpKZH/AAFJPjUH1CAheFwrwSzQJYnYcovEyTkhB8eUiJU6QVhuwdBkns5rTBiU4QXLenYbdXppQJZ0FC9EGhanQDVBol+yu/IC/ZA+QuLILDNSylMO09pSz5STk2UahCqpENbjgVDT1Vm5KdKEin4OBdjTWrPmS3bhWfM9wsMyTYE5hox66LFyVqpSwlY0HD0zZDRcE5qBtoXZk22soDUbh+4rLckAaM7iXJsw0D+NDVjAfjQkN5RUQ6qlhbvTqdcH6Q20zJtEIYRMqDVI1HioyEpkhknQOlurN19dUuEQYiTQ1Eh6TVxLVyoc0i184pkenYDpKst2pAWymm7sfrKOopQWwcwvTA4zIPwKdaYFyTpbIyoqNSwvhf1OOXoBSDatEpQ8otgQEp4jK1Ze7ZaIa6zb1txODylxsMNWNzqJt1sb8CZbdzDtmmyLSGUcdIKmiil1ynGrSaYGjoxorKhTN+zXS25TQnhpIKsKEs+ZOCAONG2JEVGNwxVrhLMMNn0cQrqNxWjCZBkHSvSwaAPEiEqLYmcvXVqlJxZAiHCRV3i4Ul3Z+NcJicgw4Dl3SeK71M6yi2dXYWW8D51bRNQmbPaEZek/qqNtRxyz5tF/h8RaZeDF/LAOE8y6F6zGpuSabPB0rf5sK548qF0u3UhI2CaegTmpjpo4jgI/0jLCRR1azQdA/ZwUuapEBF5FulLwmwvwboL6QFwpLuz8a4VF2D8a4TlTtUn41wlKnNVSfjXCgsW4fjXCosO4fjXCgi9wvGuE5CPVPxrhSREO4fjXCouwfjXCUoRq81J+NcKSpHcLxrhUXdn41wpLFuH41wqLsF41wqLsH41wqLuz8a4SkTg5cJeNcJyH3T8a4Ul3Z+NcKIkXUPxrhQQl1D8a4SkMPbQfjXCou7PxrhUXYPxrhNExYmAcpoPFR7/64ZHKWubrwlsu1YwQ1WNP1A7rUxNTMpO2bO9Oy1VQTdeommJViMmTIwI8dSKEQPhMRDGH81fsbSEoyFtndARZGzcChFVBlqaH5EIm/NMA20O/QSZlZcNZw3VNjaVu2oBuPPM4QaBwKBxoIk66WGHtR9M2xW9um5jIURYDQ3l0eIaswOI+hmW7wS1xQE7EYekHWTUW4U87hwTotssBiIlVS450e6DeRSociYfOLT8Txk7EajFSrDDzmIWYmR0j1lZLEu20J3LgHe3obW4nWxETC8c1yvEPpD9wgUsTd4dRVFXT1EUs/UdNRNmZ1q7uxDCIjQAoSESzFSqakYlShKocVNJqUIpSVcAXnhytm4mbwLUlQbq+ruzrWK7AM37tWa5fuBSJV4Cu9xWaMsM9QLjglX8CdpEWDxDq4E9MkFe2amZtstWkzTjrpCFJE84ZmIe+hux1S160REUT7SKlwgpwaqlmxNwKXHNpOVEzmGhE7i26MKaERcDDSiwqZuGHnKSJPAUBC7GogU6EbMug5VK0lXRtgaZrYtPDmyXeuiJtxs6m3B/8yKDRFtCSOqnKI5EJE8bFTxCWQPGszz4EvUwCbqkJ+FTlOo4GHirKWGpt4R1gNTV6U7NxmJukCAMZ18TRwlQAAl5sBroEF/tCfKTIiIWRlyvC3KlJOsSUjLAzBxwRE3jAqqypQuyc5KejngGupcPpmbZHEMuyxSRe+pApWz6QBlooCJdGNNUaUMRavRvntgEIg2yAiIwhl/tbQLlVbL2jISs03ZNvnGcaGpohXCCflmoeZtp8hHsrhNaDrZahTB0p423gOoXIFSUC2laD82/o0RcfMnC+8kZA4BVCUI88CVsTU7dVUcodJ2mvz01K2ZuRvfSXDpN1dlcLbUMCzDGacUlMzz+tQJHH3kDBzN10Mtmui4nCpFykquIjekiCl1mv4w2FPHKnH6MwP5hwq0TmC2W2j50JNSVeGXgWbroiKrMn4MzYuzLVWsBuZDTrLM20bEJpw41Bdt5qV+1HVh84UKUpsmB1DixwCvPRsIqicAKXBGulNuVFRiLVUyQtwP0e+nCcLeQ0lQdVWqrOu7PcoMXKscAcyYFSNS4MSzrLB3ZYAOr4MasVuQlCACclxla2yPbyKUYEyBoiIWArHH8CxUhiqROiTYehprBC6JP0dGRYG1IjMizJ4RNusBVmyjYuOHhuAOoFweYdMXMwtABkCFioHDppEAMQo101eOOndtiOsbiZaupl2kSZOqk9g0zeXYUkKlCrILuoi+NOuDVmxInCp3q0VTzjgNtt1fWJhhyWeoDAeU9g1NsCbp4XolgHqb64dTJBVXEbvX286PldzKUjLmVbj/aVUsV+b0tRgubw08VosvHleKinqKQnRPZweNSjkoUcN8RAZj1ATzpVbZ11HvrVdBR+gD5VKNzEs8GgmzGpRZflP2YzocBcFZ6JD9W3ew+BcF7T/wCmNcFrT/6Y1wWtP/pjXBW0+4NcFrT7g1wXtP8A6Y1wWtGovawYphqzJYsRE8dR09UUyBPfTTFOJ0v0OiCOCKCjD+wCgigigigigoj5cuD7DmEm3IVCS4Lsw/kkTXyLg1/mHfGuDf8AmHfGuD1bg6sJl3xLgcQjtcqc8a4PjGP/APJd8S4N/wCYd8a4N5dt90vxqxpaUIgpM226TL3uNoanH6vl4yJOlxz5MFH0jdNYF10UgX+AfjU+b8I1uXWo2e4gxFY/m/mJsm6gDV4hxdVNOF0gVYcqKoRcdu0I0lZktT8KnW5EW2LwZosdR7ClLONtky6c4GVdfvobJEcA0ExXX8aGRalJowFwmWro+j31Mzz5iHSCwwboN9gFN2i2JZSOWPwKZnplxkOkolTOlPCXR0uMzbVFV5thnUtY7bwnhcKWxj8aKzCHZuDD8aZkwi3X6ADGvr40NNM9LZdXGiyzzRD2FLPuNuHhwGas2Z7o1Zb5VZcJqx5lpm8pJwwMfnzqWJt5y3QEXiGgyBurwrzDPAPwIiaeZOoXBKilW8+2I7oHUan3ZmZiHpIlRg9zIqiIsoohTJCO6K7JIddfWAvU0PkGIiPnjFMVQ2o8yBnsl4kDHZLxKWGMPsjSjh9v6KPMoQMvXHThgpuIw+zCphztkpt3tqdiMftKr5loo20UIwjDmjD9cC8f/wDhP4fYIpwu0iLtJ1ztJwu0nC7ScKrrKl5v4kQxEvP+gjjPPHZFPNtAOYjJWpLvHsgYEi0HDzKOh0YaDHyfOLiFN88czhZBVuOk9rQYEA0dtW4+J0/TgBj8KlnBFvK5TU251ESHKCGkRCkUNJE2dVW2sJt2FUPXbBSjD5MgBVZPc+FWPyQ4nU5TjMgVluuGziK+HA4rJbkSiZ31GMFLCwLbGWrMiIIuyEm31Swpu8EfiUpmUphTOU6hxKQlplmborbPB6PZNcHJKmvCBEuC8gwZZiqzIqXJk6ipHCiIlhTeMtapFhKca+dFgjNUmPuKSlhmWwMSw1g3d4KzQk2DQXxclGio+uimyNh2+ZF53KYYsaewtYoiMKdJKWYGWkrVC7cEsbhuYFqzzSnjbs9py7G6hiePOfuI5649bN4NBKemapYb7krtJgQtpoqy+FTxyl6AE2yA1uUb9eRSDrhbROmpt+Wdo6JsyA2/GmCqb/8AOwsXSAvqQ4y0DCCcolmBq5vUKsGZdahmMipQG2bWdo80E4LYQzFHKKZjMXrwtX8C5qjNFSUFzFDzj+hhGtz1+zifoZsYayIM0cYgfxEi0ukFDnWbwoghOFDQBH5h31wudKZzczfMJdtOi+UiJhB3XhFo6FDSBxwx9n62FRZQFN387Mv3bIxyVuba4Qy0s8WIZWs6VJNS0225SNGRwNtTzDGCpqJkYBkr1E9Zs+IBUTdR1/GpIpW0JbE41GNVQcR0sWY2BTBdnxUrM630vXbz/EsTR4S3d/y/YvrCHu1azwyWgICwCn32uTGECbMqtMavOJKGh42RvI7RrKTdXku4gfpp98ViedPChG+FoL56nE4aCJb0Y0ioaNOsOVD0LmUtds0IkLT9JOU/+dZSjky/HVAVIuSzzeZs1LOFJt9GT1OATcWaNgHm6iZdfBwwqEB+r66kJ+UiR030QGgewatpkwbA3Cw44grHnzdGsW/R3ZfGrypwDzDrubG4ijehKyNXwqoRHMnCCWaGpwhHF/rXKQi2IVNv0ZOuCxER0jpTDhMNHS44I4K+KodpZhOpMiV3iL7ExQ5HaFDSUUeJybaESLVxiixDOhV2FITM1WxduMi6AMR3+uuDE7CJBi0GC4KzvMXrJtcHXwZdCk3IuhWKG6ArRapbqrpWpOMqahB9++JuOwam3XpuzJqnGVZleYKKusigBzLbz0Gx+iacyB1qU5VLSE47dtxHOahXFwOYU63DRq0pvRGOWnKSH+tyzZk2VOYFmbfAV9QHy8fmcPnTcDaPzwj61KtAzRTdwEaVhlmxmeaGxXBTbjLIvC4dOuOymqWhhKdcjvY597i8zoaf0OpAR/Eo4GGzcj/hoxhG24OgMdaFZxUOYXzcZjFR8w6VYs2buUbzAPaFWkw9MzYHUy1qXh1HnUfM6MV7P1GyxIGHzbqpL6IlY7dGrgJWRDsGrICvVwxVkB2DVjhd62A1ZUNJZcJqyA7slY4aeoSkhYFgwp0CY1GmyOdknxeg2ProQuSNoNlRVECEU6LjbgVCQlgJfVH/ANvi0sQnYM34hgrx0J0W2Wm6iLZTQlM205Mi24Wx/qFOdNITZ3Ix9YOcVlC5BkzbqpLnu1Y4VfaBqxwq1MBKxwy7Bqx27kM+AlZI06uE1ZAVllwmhuzmekiOzeY+KMXSeMOUwH1lqQUMDLYt92pYXjcO7pjD3lZA9g1Y4XQ5joNWQ3R/LJWK2TevgNSxSxPHeE2ZYxP3EA4JY3BTN6QuB0e0rHAQgHqA1Y7ZBHVoNCQk43VTsrCUZUHC66ZHScrymYe1i18ypdixhvA6J9g3E1WxLyBwhGMKzie2ivWpiQunqC1D0qUmah2nzFWa+513TVjuD1HTBNi1Nv5Jd6cMHC9ytS0yxTm6c8XbRjS0UsLY6cotmiw15akIuMuYXGyyuApDkzMQxVFWbiIuspmb5Jj6OHo4hv6iHV8wrWQ4a81KO7no/wC7llxIZkScHoxfKs6/AsX4UV3dTzROFqCDZpli0ZLO2QlXoPrArNmR3b8/GpCZ/wCpPxqQmR3uVH40U2Q1601+dMCL7DgONxOaM6T6lSmGHydfAiEDqOF3j7CdKflJmgnJU4VY9ejYVpS7HK5o5gWxzDeYqDVosPy7LA8qaYwOvUJshKM28LgkOMTQkMpBuki6PP76r/yyCP8ARw13hFcYT1MmPMhw3B1dhF9IHzqorOuGLmm42cWfGqv8sq/8soR5v9303fvZOI6rVmGtEs0I1FAnNdQGNozkdJx01Uhs8Xsk/wDux4gIrQh6HRR+PArz/LK8wbzAInB95gUR4t5hV/5ZRch3Cr2srCvMX8hNlCfieIo0c4+5hRlB+ecKBwH1hsfErTlmmWm9DYQFvD8CeA76ZAH3wopoyam6iGAuU06fXeKRl3G45hIBJHRJ1uAYAWHRRUQdpBW8QdEPtLVQlu/7srzn/kK8h3CvIdwrzDh+gVcO4BRP/LKva+gV5HuFXV/gKv8Ayyvv/ZVXJOUBfeg9FVj8mypUiM6yK7HnJWVLaP5Yqx5XuoKxpTD+6FWPJ91BWVLaOoKsiU0j+6grGle6grGle6gpYGsVJXcKUSs0RmKDpmAwGPjUyT8vKkN1VGqmORfVH/2+IhfZswWL4gKsIY6zxIultCYpiO0Df5lwSk7hhukKhOv51ZwWeU+6ImMKgaocwEa1lZcsTlIVFFsVZct3Yqyper+WKsdjuxVkS9JbgqyJTR/KFWTKaYQ5uiFQGAwcKIw9idArWmSFuEPqhPWVpy0zajmI3idHSO6CebdHaAqlLA61BvRScKhqVjSndQVkylJeq6FWPJ91BWVLwq/dihp6TKiwY23Oo4mm3QKhxsSxgSsaUE9YYtBzKyJQnKMAi0KpGnNup0aBO5HqN4PmU0DRsSzss8NVFQYsYe6qXJSLl282X0zTev11Mus8HDcpZAHQEIA3tt6+VWo6wxeXgkGAx6m4rUeI2wpFwTpqD3NdW/NkLeXErfmxLrq3YuTes4blLrN3uq3ZkqgpGk6KlaUy+DmYTdM1qqrJVSqaY5d1N00nicEVOk23MnixUALWufUUy3OiJ08oEcDnUU+P9LNYmbNPDWFeoSZcBxo7t6FOQ29REQk3iElMvOuQwiRmZr3kI0q0p0WdVkHzAB38C4TWiRQ2XTXCG0clPpzyK3rQp/nmrYnsP781a0451nzTrrhb5maaA558zGH7kW9TrKxilpmXcMWWj1wb10wEkToXYuXBgXuEeupkb6YfvmSMsZm5n+VDpqzQ9qJcwCWXaTrbcy62YsitZ8F9QHy8cIRdAtIpqt9gcAbzh0IJictKDmlqBCVAQ1VLvCbp8xUkoFEScoGka8abdKXlOT1xoL6NytQcgTXnqgQ+kQ0wIYQb/h+hh0oQ0wVoQgzJ0RCWo+rPiegyYuC4DuirQQq1XCmG4YJpvBGps8C4axuYjmuIVeNTTk3aDgHA3i/ebIqEYaI4P4fretBWwUnPygXYiVYAYddTciwDgUlMARgfbTxPvvnU87EfOp2TaiQ0tXzhgWShcJpZhgsLlwZnUHUTxPvunU9MENOncTzBWUxkZqrPJRk4nAbnZU6ma8AoxvJZoLwhyk7+gHnGHSQ2gTszB52nTQYiODBsqZn+9Hwq/eg65pxxqKpekiNR+TURlNU9XKiLrLFLDhbeqxh+RTbD7ZBhISrUwwwOtpKhVgAuUvTglnD90iLFskjJsoZSEsqdEaQqGrWRalJDtIiFx6gRq/eKfbYeELwRAr0KHN9E2+ETqbpI66NuhWbUTh6teFSDrmOksJ1jdo2KJQKnBrMT/wBaIi2eIcSkX5smQqcFgL0hBSYmZypj01GANcOumSbkHnOjr1T16KNRFho1k6TDzeIXAKgxUu1y945l+amH6KKHMRnWpFyh9+lsRHLvnuLA+y4bbmnWNtaqGqpTIy14YN3moN5tq1pMWWHDbriRjWrSkHCgdLhCZhSewrSs1sR/eLhG10oA4LbA0/Gp8XJKM1csy5f7yIbZqrCdKlHH5B+i+ZiVFO+CmbxpwNIlCk8n4+daXSOWMQaIRxEhG+ljqFs9YNhWbyao8DjBViIb6tyWoiH1gJ0Z5/VoILsT3zTlUXMJU5BBEVN4C+pHj9aGFWYg0ZlLUFvAhHsqkk0PZQRaaqy00lFDohDzfoYIoAftgm7yG7mUq72VKO9lMEMN/CnIFHY0YVDm/VbWZEhzCMa4/CrUj3LvhVrjAt4CD5lNA8BawFVDyAGDmjC5rCog8P8AFSEfvFSEfvFSEfvFSEfvFSEfvFS1PWIE6Mf3cFCAjD1Q/QeZQg2e3Dzq1hLdwJoYR9vr8rWfqLt8Ug7NvDrDgAffPAm5RjT6uUmB/ApmRMxDWfMvwKx32hrpJ6oDb7YKmna2kJYt5O9Uk6QlDKSIukM8Q6t3rqeJ0xfwvFXkX1Rjl6qLEWVWk41MtmDjgjX0xuY6Oyr24Js8pZTVKyjmxJkn3nnLttsdY3Ey7IhNt9G4AXoEbfUzguDzEm+Fd49AQqeRU4E4QsxPoRHWUyXJiOkmyztmjEqs28rL5NOgBk44A1m+e4h5JJEd4LkyR1kDmQADYRFfsumJUlWCdIdlTYtmw3eNiRUVJwip3kI034fIqchpoSG4AhKrKrLdnhIzJsa6AG7Q3R3jot6SymjcizHPWdQl1U76TVqWZFmRdZPIiL3uL6wF57ofIjzI23Ch5xgNSsz/ANoVZf8A7QpoWo9Two4EP2KP8P0URiXsQQD7cymPgFTHwQUYHD+FKGgo7X6oUBARqjGPqTxNScDpvBwmaKoizEXHbAFGGaVvBKr3UUIOjheb2T43RAR1ooScLVLRgTDHxphj40wx8aYY+NMMfGmgo/do7lyOGlz9BFaIuRyQUwVMdUSwohq3STkXW/Xp86LSBhzeTTci58aaMLJY9M9DBUewClm5cadDbLQ1vu+7mNcHyaZjlKbIAq9yupcHgm2dbkzgVj2zUBJ2IdJIzjV2fYNMlyGGOZlRjUQb4biLDtJvDQsSebapdqvCEKxvN/qrhHZovPHeXd+GRT8o4LDFJEMy3iPtomCIv37eftqkZy8OoomBq3WGzodqEzx3uwG2qqtYUyTrz53YiOsakHHWRc6Vxgb0BBzB7hoWxCUrpcpxleIh3aVsYk8LbzJnSRYAIHFMi6ZOVPOCODo1qohqHWpUpEZsACXZbYHo+umh0O4nWdPSNg5rmjIirw0qZFlm8C8cMqAHr7itiWJm86G5PAKm3LROb6b+qmBg3uGrHn+fMVX51abc86LVLbjB1i2GwZrhC0U+/NATgsO9LRr74KbYacrMqnyoAlNSj90fO9eGTAe/toWn2InTfS1ZCHX2FJC7JS1dRVY3LvPQGuhISE8pZxUiTTET9M/0QF+M1axX1GKjJ8iu5uWAK6QLpOwhIS3hQ/SAvqR4/NCGlPi3LNwxHVTp95W6xGO5WfyKfamA14gVVKfbZZbzOGVAQVuM56dent5VONvyp+agqxiihEY+z9DHpIjggiqKOsoc8qGmbKIVaFEYk82MXNG3r/EpUn3Qh0bYDVGJ6qs1tlrNRAWoHT7+NN3VpywVRw0VXZY/fR6Shl0+sf1MqSnK6y3G/IPQ6/mL2AijW4PRQ9m+i/q8y6Dbw9fDxRpAVhZrwipQpufmQ6FmBfOuBolLRzCAmJimya5UwDl2WreKROftBwAwQLLefjXAYuT5ipbMDgCZJuDjZlcnqm2pYGCCZJmkCzXfEY1CHRF5fqgiwtlTBWs3I2ToAYxAKjNW6cw00YQdAxQ0lMsC4Q+y8UeYYaR8kaRftFpm8/mGKYK5ZoZZZDO6afcftKZa9HGPRsAeoAoScLZEUJNx2STxSloyxXktNAOIevtghb/pGUcOWmmtsQw10ph6LD4hMS2gcPSZw7SLUpyrCQq86PCVW2qRjDFrjUmQcqylUeFE5U2FI0kp91tiOYakYkZYi+1TLcoy8/0kwW25rq2BnoShg+5WPboo1E7dWe5QTkvnx7hok245vAKkSbAtY1OtNsvfTCODqKZJ02czZjm6iwlrVavFhJs8JUql2bm5ppsnCLKG4Aam2rWamTg3U83TRSe4iqKjZzIqSjqkPmTrdVFKeHCpkaS6imRyUlTQiHtKVB+YBp98Q2zUjLNzBt1NxH0bwbFJ66qhLDfuDAyrpvMXYTlMhKTzpPCI+mOssFapERCkREfkTOHrYkNJQzCSG6eaDpmx1t9ZhcAV9UPHHQTsaYJw2gehoiQZqVZ0XCiOJw3DqTsTlgg+HdlhTlATUxpmYwzaBUhVG7pvqjrr205XBnpQ+ynMskYVD+h8wCKIRFsKiKKCmNotutMbMIuHWoaXZI3SEtXQJKKPRARqJQK4jGaOEf5hqPmcFez9RGZI2njbOkNYCQucnBu7xjTj48jIVF/hoowah0h/YGyhpEQpX0ZgSbm6hGksApuZAmzA3KxEcHE1F2Sbg1/yuzU2Loj6RshoMTQjVLMG4I77YJsTm35shDSNVHU7XE2LYXbxUiNGNxf3i7xYSbOoU3NVtnSWAPGmpovcDxpuaL3A8abnOwKam+tQKhNl7gqEz3aquZkr5vTsOKWefBxy7EWYaSqTX9HyjzoXr0zmji3UV4DLANwLau1ByLJjcjdjVjzf/wCLlfYFNTY79ArlfYFNTmLDkDxoqgcnAe+VNCYMMPTZaYa+QUbgswMB0iOOF4oTQj7YgKbm+tQKLA4AENQ5lltNqlzsflUAoZAiIowygpOV9BXyiABVdZ0YAbDYPi4A0X7Wwaedbg5iFtqFREp/obuoXDCgq9hE22G0ZKn7OIsKaGWtBlsCfrEAN7bydpTpXAgAuUEfSXe2sIjqqRbdloBSTOcxvNdE22zRUJAOAgVVLgBSmm3SiFLzhY7kHPxpwnBbCkatZOdNmel9rqccyTD7R1NvAVBiatYWpRkzcecIjro1z30D7s4T5kMxgGs99XmmOttJ2nBlT3/qnR50QolWUkJkUs4A103moaseZaZemjeZooC5XB2cZmYy/JxOoSAzyV1aiCmD75uTG3e17WsrBOcK6wuVEFPwrgmfeF4Fweclr36auv0eLYQj0jB1dhaz4EuDZv3LYUvXpYqx6q4JH3peFcE3O9LwKySk7jLpIyqvPc4o1HASg01rOGgofnw6GBZqXMda80Ic3dcX7GXyCpUpkmvoR9d4uCR96XhXBU6QzYz8K4JGJbxn4VwUMtnGfhXBNzvS8C4Jn3p+FcE3O9LwLgmfel4VJFLRiVJNl6lDS9P1NQhua64FuFBpvPfiNZbeVWWUiM46AEzAqoQg4NC88VpIqolOPxwDAQ1UIk5CHSu6NBGSEiuwqphuLgo53peBcEz70vAuCZ96XgXBNzvS8C4LHddcvAuCR96XhXBNzvS8C4Jn3peBcEj70vCuCrneH4FwSPvS8C4KOd6XgXBc2798GydrPDeF1PJscCcedJxyNZc5qRFiXiZg9TtaiImyIMJbKmnjbg5rFULgJ6qEyPSwjmgKHpn8RdTibqFx8L0dzX+FWIPaJSAsQdKl2nW4pZt9lwMTZjXUpl+ReYPpgB0ww7iKudGUdF7QNNV2i6ZieMiH2A4A8X1Br+8XeOxQJ9wanDqLMrBb7ZKwW+2SsINPXJWIHPvkrEDvCVit4d4k3Qy0RNtj7AbVLl2eIc1JqSZF5uXKLb1IicD1MX8U8ZwbmDbaiexSKlBfYEbyktpWEHaJWCGgt41YYdslYLfbJXlw3NUjURns7afFqWmZN5iqO3sqWv2KwIm9oFYrejrmrGZEeufiTV2LYYW9lFUMieLdBsPFhWEHmDGqrcTgMg45yJ6aIfosmBOCJlKizKNVVHHfTLjkGwpwFQYmm7sK8I51Oi6WzsrCW1ThFFVtODlip8ZafHE3MGVAM3epWpt5xmsxznQXUDYQ4yyinhdfmqyJwf3f4E6OQBZcMc24aEikmjNxyTzg2eoYAnW6fpJgcFIbAb6lqQzERFm66ImrHhlcAro3z6+ehDTLUUtuVV0/kTQtzIh0jOQHEJYcJDsmqURNmOISEqKVPjyaWleil6jASPcBSko0DORtgKHGw2MCZcYOioRMTHA4iHDuqlU9lU9lSQTYX9Mu2eQbvXpURdCSM23BCFONvUVjPVzbZstmdBtQPfxpwRmGH7wR2gcUBiLmLREddNtU9VMjRXUUYCnKTujFr7TcWtNYU2BFcjipTAdlMB2U0NYFVCEIedQKLTI6cOsf+pWsyzLMuUsScY4eyrUYMiwthCPMmiu2nqZlwfVDTSrWZg3d6bvT0nZTcYRmCFppz27SbqCmkdI+dMN9lMB2UyHZTIdlMB2UwFXtpUq1p6gqWDsoIQIOaOj1ipSqypWiJlEw28fMhhEYeZS8DnmHxNqmkTzbSZu7cNsWiEYjzBXTmy5VwfYE3S0m9E2zKPxqQaCSr6YoXfN2CXM0HPz+skwHZTIdlMB2UyHZUu1ES8+GClmoe6mA7KYDspkOypZrswTAdlMh2UyHZ8oKwch2d5MuXMHKW3qcDgJv+sCFTJb6s+Ybai5jIgiIwFepNk48WURHMmdE+9i0R1B4vSCVQoaYjmVi/wBI2SYATQi2ZkHYXBGZkwf9M6Yn85oa43fTRj6zczqWKZs+a6R6XEa8WxQGNcBHxf2otOUwTouWg426TgiIBTeai4Ezj4HNG5WTDq4IPyMsYlU+TZgMLvroCoE6nPL9ijpB0vuNcI35J12NZNxHSET6q4VmbAx52W2hCvsJmDTADohBQxO+bq+TTVL2m05TTjorGtRg7OyxhMShQJRGXtCWC70ngqNvUOvKa1thDVo2tVTTD9oRKiI1VAzvnvoD/pK0K6K/UyZfjU6UJJiX5O4Il5zczkG/iQ+jOptTLj5N4RcMqzTVJIKSRZtlXjsKKsI1nWpaz+TTVYznKQrcbPbDYwpx0pQnMJGXpAVIjqoRrcCm+1xBWOw2/RdyEmQVuP8AgCpWkTdouBeOuCNDbJ/VUJ5sSEKWXi+k3DTQlKOOXjzYD6M9sNxTJN2S36RwSxvu7G4CkW35sgplpUfow/ACmRdqDpiLAA7iqJgvRvGWNs9itSxDNjieZDX/ADocWUhLVPiztnUJbKbKdtoj6Nl8sHXUi3M3J8mbGWDPd69ewpYpaZbzNnnQ4R3UPwpovdFETFmvnUy8YGFDuSjqLkzLD9ZO0RAQK810FyQNm4ExGaM6T6plQnMTLh4tRwPAp9qUnaOll3ioP3K86dEtO8p9gbsejbgQ1kXVTd0xAdAtwLJvntmvrwWzx+aMFLcoknogRtVEGjF6qVYcO9c8asqAPN4xjfOGpYH2D87cVZRdW+OlSoy0qHqEaRih0CP6HRoQ6I7HqimCGH2wUOJoj/hCpDFtv4ooIUw5tH6owDrJecShUp92Xq1YwrGC4Qw7j8ytojhuNUfiTOl2n0x4j8gsenE3tJomy2SHyxIW9ZyORRqIs5e39BDAivW4auspN2H8YIhKMIcwQ83lF9JUJVdVTX9WdK8l3zPAB/VdVO8jnRxDMsiBV9fbBT5TksWSgzAR9zUU6TAFq35iCnoTzwhhYu6GAP8AGo1Wg61Sbo5WB8acIic1iLMe+sussvFtqUN997CLYDWZdRSjV802bZMn6QTbVm8kZfAOjpAMbec0NNILEbYVXe0mirHpCq+ju9tPC5azgYXHs903sIRJ4W6Sc3G9c0LouSrZlygiwFdoSqI6WXqsu4pRtwCD+sS+S73wUyJG/wBI9OfWa9HUR3dntOHcy5fTG3rnuJsiem26SKGRgNs1NuOCIUi8ef303TNth0zf1geNCQ05hRU1L4VZ0GJ0IuvTM5oHEGbDvJs+TE7hmJmugQ8aESNkzb612gTtNPo6Rxp4iF76M8amXyAsJN14B/IiLebqwEiw14VSQFqqZdENkTOhO5sxKlVF0gL6oeOOiMFojCPqimG9MYef1qYd7amHO1BDBz7T0EoQ0fozgjg7Hd51Ln2FLn2UN3HehSnBj9sEX662JQ3oKXl9PVgrMbj/AAaFWWHdirKDuhUiyH8WxgpZn7IwGGn9FGAhDzpmP8wk8ER9lKCLUYeaJc0Ir1+Tlg5TV2UQuDu4wU29OSQhikzKoO2eRcFLRg8WYWhGIx94lwQtcYCFXM2BfKacOzZQjysnQZB1wTpF1izL3i2l7qxCWYVlL4VLETzxgI0jmvFZouHQcRgJVgQObBqzW5YybAXCpxuHtrbTLhDuipnkxfXfVqba6Ru5vHBocfdc+lU3yt8W7xygfQhv7Cn+SG44BE9AfSBsKU5NIMN0uTB4KrvX305fTMzivqaMCmScx9DMHjp3DTLk3ICdTlniWD+cCd/rLgYnqejYDbPf3EVVQVPERY3Dc10w3UWEdh786exEdTf7sNgzQi2/R0jf1n502TbjeEhIcvFhTLgiw07TLsDjmjcUiwTLzV7c19IQOY60PmBOEBkFLZexTQUU4hgdd5xWc6dnsH0kwNFMPczrEJKUJ3HS4Wq3vnsKelJurPiuqfGrNcFgdfAY9sENJDtIvpwWxxxWJ3R5vVD+KmTj9gxwoi7SIlMOhD7CXn08xwhzRXmj+hLRAeeC0i3HzBp86fcvXNVuFVPWRVMvN3jZbQKCnL16OGLTUKiFOFAH2wchV6xMVhchnh+ulCDlOGCdjGOsUU85GYrJsSpwkQbyKKfBpkIVE4RUipadm4DmNtqNKdcuBOg2zGMCFFAhjDmj+g9SLQ2Gf7S4peE021SLzsMQwM95D6QKkdRtD5/aPk4XuVYR2sqEiItVSsDeMKm2o7G+KpaZgGEYYaU5WMfeUgIT8DrcZEqAc8BpomybOmkuPtIhIY5h2k8QzbNFzr07nUQM6ZRvpHhGhxw9jqIcKEiccyt7Snr2ZL0zkMjYbAKZbIm/SN64guktFxy7ZEhwN7/XUy4TDn+/zhjmPfM9RNkLLYUuOF9Ie2psRkhCl5shwEH402LYOHdygkNGDICaaZneVByYQIDMmteuhOE2AhSy8Q6m+hqlnzqnGQHMG2H/AKKZqOAdCQlWBbhptwp+BhTL00Gye31E8Ljzwf1t4y/GpmoL/wDqzxZHA/1KnlZH0wjseNU0rKiISHW2UQkZN3NICAAy03sb6Gn3V2lPtMSzh0tjr9GraOqvFRR4EUXm2pGZKJHrRPEmSGTbc/rL2o21X86km5RijEQYDjvmeuqutSabF1hwKSbLGBKUMZYgxYsh7HUQYb8Kl9UPHHF5oQ9pKJFABN1yMB+rUk7I2M1EAIzpEzvOsjI3XZJojjH1lSj02nOuaIQhCqIAuEZlOAJOFL3nN1dhHCM7KuUO6IU4NtR0m0PN9o/oY6Ap0l9vFCLoSbLtxEfa2eCn3RTmmYkjNqIxzUJ2DUw4yYtHD1FThTzr9oPzgC88Z1Qykv2Bj5UeBwhGMF7P1G1pYCEqSGLgq3JTSP70Vbsro+xwVbUrpHfFW3KdtW5Kaf5oq2pTvBVtyveCrbl+2KtyVL/FFWrLxOMNAwrXNGPmgojfH0QQj6ycUCjO8pB5/wC0HMcFCEITDAOUwLLWnYg3MOAbsYfvDoFQYgDQjCEMCABgXs9amW2gq0wiZUq25TT/ADRVtyveCrcle9FW5KDT+9FW3K94KtuU0llxjzq2pb7cYq2ZXzfWinBMHHDiJD6wrWKcmegYh9riOubm5m9fLsr6sPkU02yEQhCo404lbUp21bcrUW+KtmV7wVbUppL96K1jwkiKhsDcIU62223hqPAAq2JQ3CzdICtqUB0cuhwEY4sXMSH0wX1WzeK0mZRt6u5BwCIjDbVvvtOAHTTNQtNw7at0p5hpu+pIQOtrcMFVKWYw3fTk4Q5Gm8dFe2rJckpAejvDOs3z29xDiTtJOZcKmRccbD0g/vEJPPXlLg/V76ZaYYzTM1nqu/zKZdJ6SMHCrEMSpbZI8QgNFR8Q9ZSzjkzIgAyxCXR9HkrUtSTh1E4eAK063MzrZ9I4GSjYQiQCfRuVZVdEFdTkqY4CPbBPXr87iemCLB7iZumGHPfc/IhwofeqXvLVX+pFd7Klgs61pJqqSnhyPH1FhflcOWgHA2wUtymy33KiESpJktsNxW9pibZ39yIOhRqKbErQBh2WeHIZm5gGgfeQ0nOzRl1QbVsSzRN4hZM6SXCKR70VbEs++79E24B1IcLjBrKU0FP2BWrZlWH22AqbcOkoYVwhke+FcJJDvYKfZmYAelyiNWhCttj51+wNfKsUq4egtynCrclaCDTnFVcncAYjpUyDTFJQccMqRguEMj3orhBKFWWq6OFcIJIuq6Kt2UHR7XRXCGR70Vwgkh6zorhHJ96K4QyeH96KmW35cuaDgFUKKl4wu2euatySGZmRi5MQJwdfUNTzcxKWg4cIOCWCMXMfzcX94B8hL1WfL/Ii0U+tcIZHTAPrRXCKT70Vwik+9FcIZLvRXCCTyV1XorhHJ96K4SSHewVvyeb60Vwhku9FcIJPrXq4QyXfCuEUn3oq3ZJw3DpEYOjiLybeMYzL5uU3WW9JW87V1Fbz3d/nXCE6f5X51brnc/nVuu1dT86t86f5X51brnc/nVvn2Fb7o49jU7at1x0mDgYjdU6aMW3xTdwzCN++5Ea4DVlVqwq5OAswg0eZvJqIoVyTxw6wOYhU3GWN2XaEXYauIlbU3Gb2y0U1I4uPWc47AXYx84tnQniaFyNV4I1aKFbr1X8v86t1zufzq3Hu7/OredjDqK3nqep+dW+93f51b51fyvzq33Kf5X505WMt0N57btTBMyVnFQw1RXUTafMzadqLSFCeM4y7QV1DQpspaARvYREalbr3d/nVvHXqlQrec7r86t14qcuD86exs0NiO1d0ofTNmIkpkmhccC8cEcq4Qud1+ZW+53X5k6Tl22AiXtBUkLTbTJdfOgKg3KJOYh6q9Q1PlKjKzN4RU1CQbytIXZB8KSepy3n1SmzlrQdf5VKzH0b939E6peMvMyxUuNR/BuIatlMk5NzWEnNncBSzc3Mzbly64Reg/wDKlNuP3YdI4A0Im2xE7yccIqP9YIegvKnpoR6R78iJxsCOkmzHGS9SHMiLEqhebCkqSwEHjTV7aDwBVsMoicmROp5zUE9hXgiR4XtnronHGXj6ZsdXfBShNmJhS4Wws3Fq8WFaqdKTsOQPlLcfpHzb/AmLqUYbuWTLO4G3uJwgs1pzANPpjb/ApeXuWsOEBw0KXamGZoiZliZAaifUccpMmJVZukxp+ZB6IVt3J0gQKanu2KmJs5lrKLhVjR2URUiwdK/alMzYPPsBULZ0hgChTk92xU5PdsU9MneFocvSr4ttj51+wNfKpcH2o+qI5UzEmWANwgOkwgDalxaYdcBlkR3E662xEdMYhmU7PdoVNT/aFTc92xUzPdsVOz3aFTs/T1xU7P09cVOT3bFOvOS5np6QqihFRpiRQicdXS6dIKzm4xgOLRAU1Brksw1WAwp1kceSiwbhRpyi3mTxm63NiZDEKMFEVMnGcGUaYpoPRWAoiFt4CFyMM0BU5PdsVOT3bFTU/wBoVOT3bFT0/V1xU7Pl74qdn+2KnJ6rripyeq2qxU7P09cVNz/eCp2e7QqbnScYdBwajHU/T+sVzQDFpUtCZlwwtC75ukNWFL9lDFmzbRogIDljeZPiUqbsZTmejDFTdnWCeecmYhzMXRQKr5UwTU3PvFEIRwaRcKuMaUP2Q/QeuChzGVUPfVhyRmeKJEyJaVYTVd7j5Ozz0+6rPZl3DbC8ugEdKhh0aBj5JELzj9RD2U6TbjZ1CQknhKfgwHKWyhTp8SPQMNWOqiqh7IZUVb7mFliGYj8CcqN1wyLrqoVOC7JQzuRHpyDYRdUU64282dQuAVFJ7acbmSbC5bmCEAL3zDOpRxgiDDWFFW+FeonCEyCnCqhJ3FOPFn9xdEIuUz+24fgVLYuH6McilmtBAFRGNbgmnXClGAxDtdRM3T+sI5CBZuLEhabeIKSmBHGSlm+TNh/WXjxnWmhbCAUiNNCHqouIiRLKqc6sV3khZatYNuhWw4/LNn0MvkbEG+pnWGrCSmWWphkv6rGOAXmnE3GVadGOmnVrVtThtyXTGw+elrew7SeLkTphylnbDxqbZmmdwsTfgUDFPCyyIVE4ZKZc5Jd7NFZ+BU+kBfVDxjCIl6lGLTxNkLDpeavVJcKJU5Y46YtlE/AuEMucixDRdDsdhWlCVeagdcDjoEhcXCMeQ19M0yWisPcwKWiLenTCEI85IelMdJx/QjCOlWawT0PM/djX2uKXB5qPnbMahipJkZWI03MAGmk9WlcG7P7gVYUo28POJgyIxh7yGF5HNH9cggxwHR/GGyrOblYFiIRCmrikGHJhn0bxtiRj7yATbIaSEoYYqwpMS/lCm6GIeuHMh0c36GHShlTMQj9qJNxEI+dz2LzDD7/JpqrylxTLjDzeUhJNy04Q6xBj7YYFKS0pvE0Zkp1x0y1iL/yjixYERL/Su1tJpp9ts8TJjgc/OrHakGZZg8cOlPVTLktMjmbMdTbTV4y4FLw7QJsZKUvMVOPTvmaskRHLLXx1m5v9RShXNdRYdRPE2NFNyOqs3H2lhRELA6o63XXuoVmJEiQ5cyxDQpaplgKWWy+mNtEM08Lpstsi3RdMNhtggumb0ybZqrFsHOIiE2zqbIdU1whmahw1EIHV8Ctgn5Z70vRhWWPJg1Fh0ZVPuMEWajIXXDIp9gi2osBUrScJvWbwAHYBVERaxL68F9UHy+QOlTOmHqE1LD2xUsPbFOwa3cyhEj2z54qOiH6GKESh9sF0f8I6FMH2oKcP74J4z/jHwpoRUf1Tp5kypBgS+bZVEo0WWiquHvq357vVaLkzuvkZqVgwR4b+BYK/wo4EJeaMPJaGP8RRRH+EYp9ztRTznaihr62JDo/ReZNXpeuGjmVktQ3of6VhKHNEYw54eUOJhwCUo5MvuHhbEUfK5uI1cmp6AD/GuQy1PqwBoU7IuxjzU6RQBZk3XVeMtjSXXFMFph6J6A9G51OLbXrPKsKIW6cpFrKXhPz7/RizEqBg1t17aJodIALbcK6APYr2ELcJlg+kFssBLFoPKhF0WDwjtHqB1E5d6rbI62p2EI011dVEI4FrayKnQtZDlWUUWFYkObi1eK02mIsAYty5Zont7gKfEjmzNuYz4Q2wPUOlNEQju1qniLNl11JPls0gaEhLWEsBrFBD7ykHyHaEDTRYc32Il9YC9TQ+RHSWymwaD4lOvdpTz3bRi7D2mgu3YasYr1/ofNBQgZDmVpC3enoGBnQiqGKKKthlg46pO0p1uYZ2wKuKKBQL9T0xdcjdsjD1mnScecOoiIuP07paGxU6+UrSeiBOHQR9VOuERlpl4l6tzyowUYKMFH9GcYRjHH4U67B2LenQAVYU9Nd0nCEHWwcbjlOlxH0gQpP+PkZ6U1UZPhh2sY4FFsZ14byZe+qHY6iKYk7GByopgSpKbDcpxACsxnecML0y981Y8s8I5amsvvqZftOyfpbMMqnA3wM8yjAm5hvoyMcbDofihFYn5Y820GeviFWsMtUGFsW71wvc2E4L7UR9JATCpaxqbuCdOonKa6U/000d8zaDztQM3eesPd91UldO01AVYFd64bipxfRkOAvcTwiJHT1dyhMk5MOBhcj9GCpWXWVNRcY8VXWRZkWZCWFWi00LAVNysc7yF+Wi7XcuA5nYc/Ahqx4iqymnHRkBClrk2WJ/vUNNQBedfX+JD5lcnMTcLwnihVdNBkDEpFybZgOkoSwVlRtbylwCbBo3JaYIKHBJvOBqoGYmfKYiNdINqywN4td4bwx7ap0w6ikGHIuBhcoxD76IXZYgMhcEaKvAaxdOC+qHjjoGCcpbGpyMY6oKQefl2tAuzpBSAFsqOk5mXFyPWNS8ZiamDoZYh64qRAZfRecm0hXQpYpeYlSGDoaatHvItLzYwg5+hLQ44Pn9kPavNBOmUrZLRGMPVCDURA1GJPSvQue5kR0zLrd2zozQi5hqQlMzc0F5GojhRVqp04WTaLhA0NVXV7JIsJnhhvfqTkIf80em6bNwtBbfGVIiGKpRqaAqWtWkNpDSDYUiipuXwIupWjHEFXnTo/enh+9PD96dH70Y/ejH70Y/enQ7ScHtJ4fvTw/enh+9PD96eH708P3p4fvTw/enB83tXPCDhQTIOskzoIDhUJZlY0gUf5TaEWwbCkREaaQURhCLemCdH708P3p4fvTg/ehwOWnLVDtdIKdIf6QfqfoKkoNN/h0pvRLsNA2037LvAn4c/qgVOhPjvtnGqpYhJVBZ9oRKZlm9QXXBrTFbogEu62GdwnCoBTTktMnztssxyhv76dGbs+8ESPXCvbTcyLreVxjHg2E2TTOVtsix++hLdwoRoIMytR9qz3M0uGCq8386tQZCsLyWeN3GTtGTfBFmykKKoSDEKHtIqh/GmqR1kI8WEtYlUWyixayy8VPNm3VMuS0s41eM6a2hI69c9hPC0xOn0LzDvyUK0nZl9lu5bcMtRERMxPFTrIZltkjygSlJmneQkNWUSTxVQaKWm28jgVqdfmWmww3xXpUKDbDT7ZizLiNJk65upkeUzc2dBewP9SmBAGx6QqvPuo2u1CpOAYOYYYsUE2JGDBk3um2hGlt+n3E4MOgD17qeDtJ8O0nBjUWmOgkFbTrZtnD2ialgZCLjHzr9ga+VMk6Vmu1mAwrwbfwp8v6Si3d8koPTfbPaUsTDk68ERAsBwFvc95R0QcDQphvtQUw1CrzQqgptkffFTTMad+CeDtKaa7SfDtJ9vtKMIwARhzJwRiDRRCEfWSjU9atcX6yzAVSeplZgziw1DLVnD4Vki6en4Vlg0Hyr9p/GK1CEk8HaT4dpPh2k+HaT4V7NSeDtJ8O0pkO0ng7UFMhp6yfDtJ4O0nwxb3k2202y6+ZNDVlBwlPDMnNV0kOrd/6kIkYhhH2qVaBqDl2cIVYVznNiYiW4gKBv4R6nEQi4+4DY1fvFbzVPWNW+zs5iVut/eat9mst41brX3mrdb+81brX3mrda+81boVFm5zVuMXRZ8Zq3mu0at9quGTEat1rtGrfa7Rq3gpLeNW+zk2iVvtXgZcRq3mqtbEat9mnWxEnbx5ro3C2jbU8+yYN0UtQBcIHr2SbJ6hyGmMbvEmRB5ty7cp1iDXU2LDoneEUY6qt5r7zVvtXw5cRq3mu0at8Km8Q4jXpxtGWFsv5ZjWiHpZGcbHr4VMiw+4YUuFqq3mahy4jVvNdo07eugNJEOsbaHEJgJd2m7yDc4y6Q9QxQ1S0XTGZCAVkRai/305OWKY1cdYpwsiqIiPNUiw7KLCQLVBOOOC2FLdJYG1NC/ajLDXJ7ggM27wKzM9xZyACpp1FUnLukMRbiHo28u8hXwosK9QVIKSJFmXvKQddst5znhDDWLZ7Sn5YrkuS3QlUVDiecJlv0ekqqUVQpki6qlnEy5VvIsStJyQYaEOVTADXXuDXrpt0ya6MXCP6zXL7k8IWkwxeNvXtWNvVpyIaTacdFwf5mP8St05KLY00QDTUO3nXCxzui8a4RHMwbcpFqgg01++iwjKnV2Fl5VSuERyovMNdDACLRdhTtrhYfdF41wsc7ovGrYKcF8gGkgIdHx8W2z86/YGvlRizMTxUvPxhVQPV6qnJjl/n5TtO9XYTl49JhWDvsgp7kxENV5TVoXCxzui8a4WH3ReJcLD7ovEuFh90XiXCtzui8a4WnT/KLxLhS52D8a4VnizdEXiU7Gao54OU0+kJc5vvXkf4lgBW7OjzKfcmACaagQu5lGspYAeGAYtIYa1MADzLYA8JEMNBUqGmVst0zi6GL0f5oIqYu9GJexcLDxfui8a4Vud0XjXCw+6LxLhY53ReNcLDq1cB+JcKzH3C8a4WOd0XjXCw+6LxLhadX8ovEuFp90fiXC0+6LxrhafdF4lwoNwWHwdouixUe95TlD7R3jRfhQ0m2dJDsmuaZZCrrAnCLSQtBp9VRIeZsKR4o6GmDMWR2y/U/YvMTlXeKL8uTR+kiFYxUXZt+cYJmERGgBvFEYvPO30Rh6sGVeaDdPk9GA2iFRfzDRf8A6W+cHB3HE5hcALxvWbNdJTrKFARHE4nRblGAD/QhpkmHDuxiX0tFHyqz333oywvVBEaceorBcAq6hceMKFIFJy1YFMlE6iO71MGpUsqGrZXV6yKndXrDCixKRacu36iKr0m4asF4bYi40JOEIVMnXt64Km8bPFTkWJDTSiqQdZU7xEsgnq6x7aKp7WEdVZRzErNcmZS/AhEsjgNp/kdqsUUyZNY6+vkQ1XmaokI86ZEhE/fFShYtolKOVDmxLrZVlRjy2UMuUYdvKe+rZKcmJkok288NOgdlQkX2GmumEHTI4b+RNlGQm3Q6bYM8NacpIfM5DWBU1RRVOFrbIIhc+uLf2FTUT9RL6kePDphzRgmb2YaErtvTReFsVLgaIC8Y9ILwl6Mq1wVFqXYZFmL18OooQKflSqJovOfvLgXpnKaa7+GirqIw/pCbwxCBVUQ3yUdBuw83s/Qw0OD5kbxzDMeYIxwwihVYNuRCNQ5hoUTelwg5CMXcRRFxTc1L1lpi2GVMaS0dI8Q9IfvKHPGGD9Uabl5+JVXmUT66swnm4Yb1kgOr3M64MOtmOsMrQSsWZ0740fOhC5HEMuMcXvpkWmWx0CMPV+qN6XYeeENYfYrJl33dYnWhqVjyjRieFyDQ1Cm4mcfPGKGF6Q6TL2l5NQkLlQubONNNHOstiMywcMJjtqp6SciVUnpqp3KNcFZj0pPD6WgKQ+PEpR109o8ACq5aQrrqMbpseoGetRAG2G6Whjmffc+askVUy+eX6sNQESLXDCs1eFFiLKO0sQjlFDUSHCSzdbMhHSmhcuHALHkLcNcHmJNgM/RABDtng1FIOsXno6xovAVXEOIkRUlmQ1PEdIoW23qOkIdVWSTkk5QTdJVmQOa9CYEHmujm5qgMbTeoGwaNwWG9ZSwtszPocWIuxkWIU5mDFhTg8+6qeynRGr4VUL+rQOZTZyz0MpBrdfbUhJuxEAqwnnQhLWhNOG3PtwDDdObG+sNOVT5PsYKWZnpQgG5rgrJG+9tWD5lMhKMEFNLQ06ffTtRau6vrF9UHy8cUMBe9Rw88E1ejH1gSk3+wSkn+wpQh+0sKEXXfV7ILmhD9BNNN9YqVactH/FFWjLAfqjB0FasmY6uh0FOS3fNqclu+bVpSgfxdBWtKuHD1QcHQrRlRh/NFTjLkd04F+pvA00OYzjSME/yp4NUMsfeVgF3qkHJUNqq8U806VNVECxQ93yowgnBTgp0UUIqH6LzfaibbOMPPAsX3Kfcj/H/Sotlp88RjUoeSA4XAxe+plxqbhhwDe3gbFCs8ZOdcCo24Ky5Nx76x4QqirFs8qS9QAWhWeM3NNgNzL1UCSvWJlk/9zLC2z1B1+vxEs1a21qgpTLrVZlYM43JUVXxNGAUOb6liERzEhImy+JVVfMqRKOXeTwtkwdQuPZC3D2wQwu5SVO6ZlwppNylSRS0zDVqr+Ne8i/Ki6yIqvlT4tMwruRprqNvb95T5CyL/AExEXSM3eoG4qs+L7UQk5HFd7Ss18XGfSPHXQQe/gBVFs/apR3+NB/MpZ2nVwHiTZCMcKGptFl+FZk4VGqRJ3Nq8VRFsqW+FNXmjVq/Ah/Kvr156PIinYGQ+eEFIl2oKzo9qChFkvZHnTsDhH2R8soQGEOfSig01D6T1xUybsY7ZVKlCKEUIoRQwQihgnjAvsKlOQmGI+3ND3k5A2jCoYw/UCgINDUZIiblhPo2avNxlSDeZSpy5N1kL8D5xWiE3L4HOfz73kFAYDDnitLQR1oRxJ6MY70UcUcIf81MxgMNXThXM5o88MsVGGj9Ceh1zmhH2JyqOsUVa8qB+yLop4S6pYCWGJDzw9nkbKLCR5ffQCc1NthchEfQteNGEJkW/6zORxBK9nXVozdqvCf05dGJ7gaiem7MMsxSp3VSpn7IcoZanmRIXW/5qgBTot3sq+OvudVN3bzJ3bjeybfHtoatKlJYwwOOOPDjrT0s6yWZkywKiSekJM7sWQwPIcNGqiIm1qhh3kOIgU2TL1FN5+A1btMwQVYyrOBua9GwnAdOWKknAyleY0NW0vUrVbCAXocjhDpMuZTZuBe1E2/XdmHU21LCUXnaibZHAO4mXBq3E08NO6pp10dUY407SThnmFTso0DDfJhbpwEDeDtq1JRwW8V2Wsm2mwfMJdxsc4m3V4uIahFTJlaD5V06rm4ianph2kok8IiAbgVJgZY5IAIgaHCYf+EmyeeeopGn6xTPKXqAO5AaGx8asWUEKMtAIeRzNGGAj0ZH1FJXkfrD+jVOJwF6mg8gtDMCphHTmVUzMkOmhohw9dCTcJlgHhh7LxSxv3rlEBBWFNqXcYGD92QHrUYvxKPMYwj5RkNUK3KfXDimYSzOnQbkPXgrOK4RuxdhipjCjT8SLKOIlMFJyLMTqdhXoo31wkdJ9vFAYiQVfEm7qc5I/p0YNF3UjI43x88S4nSODb/NAi83PFEUaD0vuhH/zAnScuWwGovWvRO1G39hfqDhDB0icc0R+r8iJOC2WPRrGmh5S4HTEnCgJPg27i1HPIchFoOaP2knNDTQ88VNulIWjNOwKF4dMLyJBGsUVTbg1CXtFcInpMYt0UDA9HzrhvMgw0GkokB+NTz5yzjhNsgZEWmAayLS4HNH9CXmcp7tGTbsyQxfdgWrnpUhF8/W4ZHVFNkDBOFHREiL5lliFXktiTH9ItCVXXFPRanp9+DTMRKkhEMRmhGEADpC0ekPWPrVIoNDq1DjJBejtjhMU2L8s6HoyGsCUSurw3rOKMcMGnMdClhKReaAZuI4aHclalhIGj6aYMqGw/OmQcljcABmmo1D+RYsaHUUy+0VYFgAzq7Ct10dmpg6xTxzIOMOi8480YfOthDhWJks3EOLeU2+wVFIuMOEBUe4pkWhfcBsnHir0G4eczQC2Tjd428BVtvNbimW5FiIByNl7G48bm7qYVOusTInULwFSfv7ieKbfEAEiEcobgJuZGrWgJgnXxLaIjU3MketiNS03Mi36SgDO7BPFTXhKrGKkJs3m26eUQHNjUhNG7qdHSn3HLKvL4b5qg7/X36EQ0Fq7KLmJEQ3TleKH1ZkhIuSTQOE2OteYPxKZ0PDZ9OKOueKhMiUy6dEvEhxhd56EI16xfVpwrza0r1/Se1NiUzLNGQlT5w2FhIX6SX1QjxlSTpUwTxNE+2bYuQzQvFLA5M1s1TJwqciVa9Ug18qjCAQtINJRVrWeRkABSLoIRRYTGofK1KID2OLGUICRAPOUI0Ul1ky5KTcCpKJDgqUc7BCJQ6iahW5E4uF7cfF+xu/Ivrz4mHKn5khvxyt408Ew9MnpN2HF+0CPeGvZ+msx/krc0QtEMtXpCtMG2+QUtVt0YEVIiFRFsqdgTuUcJ0EihAoNlBrrpuoWssY+sz4hInqwu6dtSD9I5P6sCkJk9X/dgVnvtS9QA6RS1OgNviqJ+emOdsRq0g2mtLtntNHCnaDOnIE6x0J/YTaijib8y9pebDEURb2kIwuGBgXX1/iUK5mNPRwbrKKkJjRDVuAUhM/9MCkHx/wAUg+P/wDWBSD/AHAKQmaBzByYMSs2ZGr/APbKyn6v/wCMhIZtwKnhpopPXTInO+ZmrzQhd51bDD1A1EyABXEG/cQiE0wWh0PaSYNybieiIg3e9F1FZr//AEwKz5koDmhyYMSs2Z/6YFJPiIni6AEVJuWm128KHmZk5lxuMds6U2Tk/WF2MBr19hWc+VOryZWa/wBXkwIaXyALwKcp66wlWFX+ICESZmmyEhisUWxvJhwBqrOnOm6ocnF4IEKLFgqRaiIs4UolVQLGIvfTwy0s3iedj6gTj5XR1FB8aCINvAiwksTaLKGHEhxbXtQ1BtKD04zJHfWdMxEzMdto6MVCdjCyGT0ycnEQAQHfFSjhCWtQaCYa0+qAnzqZmexqKZcqHaFFj1t5RmxlMF4TAV1ddC42TwVFARxi6s9B/OsyqGozpqQ1bSHzaoqdFq5fNxqtsDCjY7Sn6SrAiuWwC+8CnWjsiQHDL5TduPpt4157x2rdOtVck+k9Hn9/Gq/8stP9HV9LpuPdyY0XRjKmsX9aNVf0ZdNXPoNnHnx51X/llX/llpzhyf0fv5OLbZ+dfsDXypojabcvBpKjEr+WmQbImY1lHFvJ83ilDC7IsZQFz/ShIrQo6PRR+PAq/wDLK85suJgFX2mBVeLeYVf+WTcYTrvPVg5+7wcTzZRbOktBV0mmmwnQjCDZwKki8aEifOR6LTrFRgUYNzEtE4wEtZOiIjmIiyp6DrUZR2koFVpwL68+KEYtOvaIxTkRl3YVMOamnibI59vEzoow7/SYFVHuELmHDT0CrH3WBUT/AMsq9rDcK90f4Crq/wABV/5ZX3/sqvkozAX3oPRVY/KbiZShnWA7DmssQkhKDNemO4abhAw5i0axIfMGLePiajcMOA445CGjREMXH6xIUNOgtCmhlv6MAxB3RUOE6NbaXCept0KXYUBlRwvScrD7YiPhRUiA1EoRJiXM4tFq7AfDxanND9B7F9cS6KXmRGN5HL0jVCmmoDcFEIVjiQEDT7wUaYU6burxLzQZ/FDycIwtNqrevDFNEUZV82Xi1KHNpOCbLoA4JCVfFCoy+FO3bbeInCQ1SEgRuNuwy9HgDEjomQ6cqshBsH2VaDTU8TfSSpFoMS1syfbfOZI2Zx6nCAbAb6H0ZgoU6Mu6amxlGawISzVK323KstYL0wt04cYOAmqmXMJDtKUdbJwMUXTqKhCIi5lISA03UOstvLxZsooSIeqh90tZTbwlsiOVPOlTlwp50VMk4O8nMbaecb5V6RvB0iImXIUFTEcat59h+bC8JmABhXCGZItmgMSlClmBOoWaq6TQ6iDFRSpaM7OxcMZnGYXR7FIKzWWm3CqhA3jGpXfI2pCZFqg6xHBFPC0brt5K1ax64fCvSENLglrJqNeysF2fM37EY8omW8Q7IISqv6iX1YcYxIw5xGHrVVDLZuRp/dpt6L7ptaMBfRkgeF9uXBso0FnBWe5GTeq0zMIEWhNPTc24NLYXZDSTnuphxmYnXtMAMfMDev8AEgjAaaQ+3yi0PM1EH27qaIDhmGIq1jl3nTqiERqhU5nVtHM0akBpjEENIiFIip05SZNy8jCOIIEuEBmwJ84QCnSiIGnWTCBFj0XmuuEwthHFSLUVbUZsDbpogFOg1NwdhNnXAaaNHPpTkWnWa6Dh5oJ7lLrY03gj501EZl4MUC1R2f1CFQxhoJFB+SrqphnbQ4XAMSU/ei05VBuinib6zkcICCcvHYlU65ozFx+aKLmNumP2KejMuzUQ56KKaFBWlyc2YsxNqDdUTu96rZU5yeMwJNk5TVgNOQdIY6TdgNMYodJxyrnOPnj+ggvNo6T+CbgUNOkHIZh6pKbm3oCQxg2WVNC2AhSLYjlXpXcRfZ5I4WXw1sptmJgmypjSzNNkORwE2U9YsydDJCX4NQ1OnKO6zRh5veBWkTpkGEQA8Ss+hqB3pQJynSDf1pZPmTo9CJPTb2ims1VBkyu2YVVaGm1URRxChzHtIcxosSlGiZZmrkRrADL3DVlutAIbYGBIhoeY6NsSrou9tCqufNSpu8KZrFyTFuin3/yqealCBrC2XSAbvX1FPyBEWbEanpKmB4QCsyMNfqJ7kAt4SrG9vD3E96E6aoYKv/KlbBSLbeVy6vTcP8CtZ1uWI/TC1X8FalK2YHSLldFYbdCcGUlqPTB0p17FCvWJt9zo7QpA8De51d5T3LAFsHLwQuqrzUoTZMiXoxqyqp0sdVRV1IJN6ZckwcbETx0OfIpVhgn+jFwzCiBomyFhuknALMaJVUqAvsOYZhgyzg38hoHYPMA7fMmOS8pVnOvTLt+LDsIhd0Oa5dREQkJ1YcGNWcUzAAAYPMFS574H4k8+J7F1jVnuDGIUwffL5QBPOOEWYjKsyQjVeYV56OOPngoiQlzkHtTQ9lCP3IRId5SzbZFsio3bNWaOsuaADoh5ekDHKYZoKeYKHqg5AhT8l2i8Kfk+0XhT8n2i8Kfku0XhT8n2i8Kfk+0XhT8n2i8Kfk+0XhU6wENyolU699Yf6lDSrJYibnncgFJR95SB96SsoHI+x3pPmUu20A5RAafJ54I4CXsjDCmoF/zUt/6wUt/6wUQH26EIxP1l6/0UIRhHz6U9BrdjDmVoS3/IlEXXdqMFDyRxzL9IqBOsuYZiWqpF386eaIzzSk0Gv7+A1Z8ZUyhmZIhGHuonpwdQCIhBFKWezEqRBkMcexiTpy9jD9EWA3qNc0OKjCKKoo6qw48KERpDtIVIuzIs0XhMiZ3d5t0IXyscT/q0vTjH8alnGidAHKTrA6HNw1TiXqcClSzTVMnlEsCEhHtoVlr2kIkLIAVKdJwrw8WREVzgqEdZO0gTAUiiKkkRc6mSOmea1jOm8VJFEAIcWVFi1lm2lYr7ss/6N4ArBzsLg5O1Fl6Kj51SJNGYuNiNFJ76y6qxOL3kWutVayq7ScL3S4/r/wAC89PkizXo9fn0IvnRfOrqOzX5/iUIU/oAv3tNJRhlFWi4OnVCNPyq1pvvCVrTnekrWm+9JWtN94Steb70la033pK1pvvSVrTnekrVfLrlX86C6Kn0vnCKKBBGFUI/rhaP02iLkeYIe2KmCpjqwKkUVMU5fteyJc6LSJjp8kSDpMvEy4T7eIXAwG3v16i4aTtZHUQwED9ys61w5ngLQUMTTfP2QUhPTwtGZE4db4UbYLE8R5S1VicifEVOPDvIlVURohGWIwbcbOih53qGoMsTBB0jWkDFs91FUAyoNtluIalUIlhT0y/arbZtzEvSdFFZUY+qmXwIG+hGkzrPYyYFY7o+/l+BSz7WzhM/wICbkp8DIRAr0xBtMkIOP1C2WwqXHnjauREsBddcI2Gnm2wFxuBVmJrhCRdVo1a0yRfyD8CcKZYlXQJ6saC9wOsiIWXJVqqsaKX9fOhRedWuYjAOhldGgBBThRdp5o6STrjpWi47MFSGUP8Awli0Zi4rHdm2K6bwclaljC2IODRIVBTEOttqwX2JYczlVYisRRPDTjqTjkgEcjdIG4YfgXKyL6ytTTkyTeWXL0nuGm3G8esNCy3+HsLYDyIwhTzE5H1KaEYetx00Yk2QVCQ63FNtMbJGYApgZmXjr1VIqhiOmHlOCLr1VZR1QVNT97VpGqq7pWiEw2ZtuwhgxcUQMGG9L8aa9Bqm8dYAi0dRGBNMEVGgcWA6VLi5OTAc0S1YuFTCCAH9pqAhGnsJm7fcbGLjfsJSYzMwOA3Ka8f2IQKEPOFIJgWJwNX1F9lCKMYgFTRR2Nn+yfUiwAVMILhY5Kg7ToauatHvVLhs7EZZgjouc13qZk8Zi49oaga5xGHN5Oo5ShJxxw6aRQ6ZlxsL97aJNVEPuimLurWhiBOEN4BjVsorw23zqcIc15j+VWU+7JM5nBE+Lb4v9KKonnycLTq4EIqmgZOqnaxkipGZcBuqnGJuahq1pAiLeyq2LKrgB1VOniVrWYVP70laVnYv3pqZlnxeOmmWIzpNW9KSd+FTbJ1kdC4VSAl1alwhkHT2CIwUoVTlFLgYwK8U9INgO2dCn7NLqmat9hq0tViA9ErWkCpOkiGJq0G5kXXLsYBgKBosu6hH/dQQip4qXGgIqdUHNTiykBowadljqYOMab4HPx1KWg+TAVXcSp0rg8wwE2xdk5f3tN5uUqowknwGWb9ptoCcNzIMP/Mio6qOk4epUg823S9CA5t9ZhfWnTR6+OHSFGgU0Tz7bZRbDbLZU6LUWIgLUo2OiAgZ04l/d7XyohERzFH1J6Ldn2KN01o+lLWxItOI/nXmEdIeV9EANw/895bbv4UUeTzsdMKtpzHDwqHMw2ZdZVX02/7NXn0//K/ZQ+Re1350zF1pqiJw2Ytn5iR3MxDzsmWL3F6RtgyHrrSUxMTJDGP/AJ1uLzvnpiPwLzE+Ad5g/T2Iblw+YEVWa6JcHjp1casA+2rBd06uNcHz7a4PnT11YDnbXB8+2uD59tcHzHqmuD7nbXB86euuD59tcHz7a4Pn21wfPtrg6VPXVhO1rg+fbXB06euuD59tWAfbXB4i99cHz7asA6dbGuD59tWE7203RynptHsvNTidiJTJBejqlFw8FSGAg02DYw/lqUi/XG5gMI0rg+feKwDp1sa4Pn21YERvnAbrI8t4iGqacq6oIRKhg3B66lieuzDox/eKwDEeurAMhLeTcRFxqoRLVB1DnlQIt7UTV3LHLSzeGGGBuYVKhdUG5Ny0Co36wWLGqs6JDTj9cNxESE6eR4sOAcZJoQEX2qiHWNNVFN4RpLKrFbqgGJw6Cx++uDbR70RbVhsB9l22rFlt6oW1Y8nzdRSEmWP0mBWXJlV1FZEhn1v9Csyzh/8AOopKTb938ilZM8GKkfMpa6ZdfpLF6E9zcxIiqKcxFtIcteLaVX+6gh6qZcbB4OhItbHxb6ImybOoSHVNVzM/EhEZgsHRfjNSBlZrBaHJirze4qSFwnSItrGrEKbJwKryosO4uCxd4fgXB0pYXT9LUR6PgWXkxprCM0eFWCUyLTTRC5UeK8CvYXBYu8PwLgsXbPwKzCk4MHzQqIquL6xj51+wNfKi/wDqFquXIYvMGsoDfA1U8UPW65mW0586limItD6Orz1rgqXeH4FwaIREsWIsXwLg0QRHePwLg0RbGI/AuCpds/ApEpY3S521tO/hQ6JmUdCBubv+pOFXPCEHv410/MhpbZhSI+4v2UPkXtd+dCJCWYYpkJWYYxHAMIRFERvjKujpL13eRekbmCOMPZl4oRKLBaI/OmSdjLGDgt7V2uCpd4fgXBoqKctR+BcFy7Z+BcFS7w/AuC5Zqs5+BcFip/mH4FwaKnYqPwLgqXeH4FwWLvD8C4Mk2Lz4Nk5UeGv3PJsaUI3CqIotBHTFWNJwh/KFWHJd0KsGT0j+5FWHJdzBWLJ6P5MFYcnpH9zBWHJdyKsOS7kVYkmWt6EVYMnD/CFWJKaP5UFYUn3UFYcl3Iqw5LuRVhyXcirFlNA/uoKwZHTD9yKsOS7kVYsno/kwVhyXcwVjScP8GCsaT0/yhViSfcirEk9EcPohVhyej+TBWLJ1D5o3IJsQbBwoCIjToxoqWmGzcjH+WoRciDlDBatdGzxSzb4Qb06DGsaqlY0n3QKxZOkvVdCrDku5grFlA/whWEhP8aIrlszFzDqOIWn5R4AcGoahIM6sSRL/AARViSZOU4YQaBCIQEeenCEPyoqwZ6FunWu/zK0GimRYYbNgHOkgbanXX7NiAQZeIazZ6+4jYYnKmnGoMO4Xbw9j3lSKIaerWmWRJvoxFkaAobBEJbNOqpCTel52RxuPB0gXhkGBEVIuARKpwazLLgI2wRTIvX5kQ3piGfYV4RDtFWs2qmhISzJkebLhTLYj1cxpr4Uy3pLdTQ5MtKbHsqWbbebMCFwBoOhCJE5yanewChp/r2VSzRvyxnS2+NbceumhF59sHHBDKN5noVV3vKLJSMmeCAt46VlI0KmHSefIuZpzBAQU7ONGWUq8qITalrPfqcjrFiNPCL7DlTLZFmacx4E3Wy5iIacpoQ+5NNi0Pmw4iT1L0y2YiO4ixE/UmwIroMVKYDspgOymh0gcNOgdVHTCGZTbUYxNnmE6tdTLNfIWuarErWYZph0NcTIwwUbC4RMvSYw6ZuEdNXwq0QjZUQOAS2tAq+qmxi0AaOcddMN9lMB2UyHZTIdlMB2UzCL7XnhDWBS1cJaJ3uIBp50I6Hm6U3glj0S3OBVR2k3eOxPLppQ0utsAJDsnQpa7YeidBVBixp+D0q5ScWYkHN3ilm5WXjnjghCKhzAOk940cQFznJuBUxq99WcDUdvAnL60HM51V03iZxueihHY2kyHZUs1oLz4YKWah7qYDspgOymQ7KlmuzBMB2UyHZTIdn9f9ijpFwuf7FNiwL1F4cYVYKq05E4BWZOR9Z8UMTnP5IlVXhWtlTo8gEKW3Ndn8itKWfBw6qhMVPS7QwHMbgI6miwuzg+vqKqovhX02beQ01Zt5EWfCJEapwqrIp1oXmXzpbMsoUKblX7sqSuTE6TTo8pCVpIR66EhKjsrkVEgdQ8maNqm8Ag1zRD6Q6adiviIVq1rWrRZvhRYSDsrKsustZfV5d9BVOyjDVy3SZ3h0bGummmBlnL65Bg2ir360eY8qcbiLLA3glGm7u09LvgB6HCZdE9CaHC+YkX8tayy0LHZMy5pMvqT2+pSuEukHGMdwQOhBWwDlsk0bdyUQB08eDD1U5dOsGBCVPmNtPM2dNiQ5y6Nz3la0pRtXoKdZnJ0QwtgWGB75gnhfhEAy+v3E1Vjwivqh4/NGCE4Sky2TdYaomp60qftcBTs/Emo6RgTgaPl4iMWnoaIkGZQcdabjpiR+q8WrDyyuXy8+ySs10oQ1ghV8ismc7olZE33RKyZzuiVkzfdErInO6NWROd0asmc7olZM53RKy34dcaPnTsTPz3WpBDzf2BD9EMNEYaIpwXA1Rjhj96YhCHWFOQPR5ghDmUYQhDyRIicOqqrLjQoertoqae2iqpykSzeQOutZCJEIJuN/aANDeQKm6BtQJ6A1i4zE6ROBqQGWN2VBu7Eq6j21qhiUo2LwzUzfOazgYs+2hpETP3saqKpCRYFrZkN2LebeQ5dbaTY4c1Otx6qIRKOXeW218iERZJpp7eI8SHDqkrMaYibQQfnBPpHMdaApiWPmelonSJqnp3zepEvR3mpxZUKFaqyrKSaGqCqWZDivF6mx8gYRFRJuMfVDzK0fggrQh2FMGZDs4UAjCHshoUPKgnoNhBSLrv8Y06VY8O9/KrHh3v5VY8O9/KrGh3v5VY0O9/KrGh3v5VY8O9/KrHh3v5VZzrfUiJp+B6PPD1w/W4o4EfsHFFS8Sh9saVK/GpX402Q6fsqTsIwj+iKEIIotNw9WjQanHe2oxKGq5AVoISHTDyRwVqmostWBMk7MkdNIY02w1V9c7SfwIZJ+nM2LtVXbVlvyE63mExrAkXEJdZZa0KzCCknzaY53XKcIJk3XS5xABqJWcdMTODbkcNJgCqcqDZRFfy00644JYKQcqQ/Tnrb/FlJNCW0SzCappVOfMtU1TiQjUOZVVUdlFS22bVThZMinQdg1KtNulCqkTbqPOhqvAqERLMrOfFgDjU7RgHFtKRdfuRqcoGqkUyTcGywxIfOsNIIsJN1dZWcXIIgetjENujYTTVLWeYdjS3Dc66lICyR0jMBGpsveQ9ZSFDGDG+V0BfjVrSdWzjUsJsBmcYKsfH8KGktXFWqi6TsqGjS2PN5EanNHMEPPFOXQeyCnXu2SnHu0SmCch9sKkNy5veaKjzeUfPHCAw85Em3Jk3onFsYFkEEMRhHAYxzQNRUscy7TpKIRyqBDB9sHIDH1Vq9fm8GhhoaorgjNiyOYqT5k4YPAHO2cKYxRFAIYYQHORrgxMuysPM559I9VMutXR3ZNuwpjAkDjb0I6L2Be+jhfhCl0fYf6zFRxxhzx9iLeIlKtDJuvuttPe2nJxMwmJqYjoBmEfPDbXBKAyxexo9MBUdEY4XmdOU9la0NOj2foPYo9E1Hm66kgftB4B0lHHRE/VSjamZdoLx4IAGEfdxIKSyuD7DXPdwwfw8nM2+Hu5V6QstKZidpOthFw3NS8RESKlNXcyPopgBxj4wQ4mHTFARER4REazJNERbNNZoS5jxDkpWUTWYjU2w1ab5tUMxwumFYqaYl5Ub+s38sK2yFOyxyjpzIi4wICBm3nyL0Lr4NudRxWWUtevmLhE6Z3l2G+iH07vzosqpxBsrW2UWYFiQlVWveWEoLW1VrNoSdknaBcbqMKsG3nBWSTDz01S45WbuD306XMfZQkxawtydIiGF4MJ1qdBiz3mnRmCMqRyEmhblHMTIiNAUIqsGHd66KooBiHZTwzJtVt0HmNhxS1Qtgbmg8RuHvqQFl5yzimSZpyOt4gJRjyGWIax+uPYqVLTLYUttwFSxCO3V+BBeMxwkJDmUpFtiLZ1COofgTuEjxL6oeP1Q5lGqhsjjAdkFJnZ1lsGAb53m+ScI3nZFonIl6zoTYnMkYNsAXrI1wnmZE3sTcsyNGgFbRzwRiEWomFMQ97WXpm8Jfb5RYGW6ow3jWUjd/Ci0SzjhuMw9zB8KKkGWjIi/lqBE48/dhp9meKpqZs4TH3AWh16/KiEcsD21iEsyGhiaEoG3qoCoamBi5DdKCmGgcbbuyZqpKBdVMtt1HUVI+c17PwJzA9gOC9n6Y3Ymy8YHQPrDCgmcOtSKN/sijdhoV/wDCr/r6BTzvN1UUx9won/uFX4YfXAUbpE5l0CuaJr077gshuwJDpnJN0Hy0j9fjxKmp5sYno29dNRelmbquEPUbR1J4JnlTeCXhEaoEY+sUMQjOPE8AR9QKuDUS0jogozGLWpFFMfcK5RH+EBUXy0bIijfy7Iq/xa1I4UTxe6nneyqrt+N431HExyqWGIQfD1jgoUi89OWkyTNJQyXmFPXrzh3jm6RqJQaOF3h20b/ZFXw6dakUb/ZFX/P9gp4bl47wt5DVButyO8jIWGyCBU/vETo7xCje5+qiKlwAIS2gQ52AeLr5ETZOzTXKHHjythqACl5duJMaSmY5aMyiITjLQPiYF0b4YVhIsSxYFKOXjcpURCWHOOPqJ0gZixMuEUP3bRGqnAHll2JFlvHCWYZppea8P5E0RN35+6jw7ScEqT1UQocuVYUWVCSaLmTLg+6mcoYhLWWUpoG6ez4kRCV/d5q8CxdJShBy6s2WvicjigFYgFO8ggYjZ044O6bbUaSTl4TmtV8CHEJ4t7ieun2suHAQbHUUy1IzNHSNm4FNakhmZR1u7eniLooi5qggpg+464Xb8KZfdduqhuhGkVJT3ZFS02L7+GowGmjMstwZCSywmjEVLzhHLdERAAkNQKWnuwKk57sCpeYCDDgRKLw0IV9Yz86/YGvlQEcu06brjcPXSa4DzTkiGU4mQ4OymCYeZjoNoiq0JtwmIN0kIDUSk57sCpOfLawCpGfL3BUhPj1QFSs92BQuCy75hMcUMC2nfwqEK23AFwEAk7agBGOiPmWVqACZbR0L+7PwIoVQmiw+5xZxgUU2JNuBSQl61OHLOB0gtFihAgUYG/KxCN5H1ivZ+BVXMs4LhU5og2ak57sCpSdppzUCpOe7AqTn+7FSU/m2BUnPdgVIz/ZFSk/3YqTnuwKlJ0TffBoagGmo/JsmBPPOG45Gouc1YwdpWKHaJWNDDvkrE+MlYwdpWNDtErE+MlYw9pWOP/KNKskBdCNQFUXMXEDpyspU6/BrEUScVkWhodYoa0thSJ6muiKJyj9YjHVBxD/WHwqfdKFUIC5qK0KbSZxGcYmED8CiX9JSBEDv20FSmBelo5xirHbVifGSsYO0rGDtKx+dWOHPvKxYdolYw4d4kN2y05dtjsg2ps2LJlP96bEvS3edSsJOelW6mnQIucgxYk4Tr8o4MImXrA/9Klr5mAQcEYlrKx4KxYYt4lYnxkrHBN0sww9VEQsFWJFuOJkXWXqCJvaBWMPaJWSOzCFRJoWxbCmn2biKq6bCX+DGhrBoAZebj6jbNMNuS7jV2Te4hEL1oZSTZhuflTxViFN3Tm99e6psRGFlXjsNsL0MHaTogzLyE5VVrRcaiAj2opr0nKRbISy3bhZ1hGD4KZlHSHpBG9opU0w0zA+mZjEedOSwjs6QTkuP2YFaUuARP2ASxMOhU2QgGRAfYBV4s2AFapSkXD6MSHMrUb0FlxArWHpDw4gVqDGEB9RgKdlmhB3o3HHcXXUw0Y8qpwHWsonq7aLp42dLEzRHAR4T+VARQdkZxkdG040Qpxt0pt8BGXygIKq5b1to0JXhVqfYYYfrFoTzRBWzJEfsiJoWnX5aTM3HIDmdrrrRET0o5S5V+8x/iVmS0yTp9E480BEO4uDsh3AKxJRl5vFeNtCJLCT4UitZ8yp9xWJIuuuABG5FoCqJcGrP7gVwbs7uBVnMS+k4QjctiGni22fnX7A18qpuxf0HHqmKpJsgqHeBDAZGEvzCGTThUsD7EQ0k2Y1DFcG7P7gVwds/uBXBmQ7gVwas/uBXB2z+4BSbTDMejcFoICOlARUxPzD1VCEScbw6dtc7VlHoiB7VcdEB95CRRvPVDdTeEpYRKEeopeLlmOliAfNEHNSKsiZi9qwLRStN7ENLIFGqMIua26paD8oFQzAQ86siY5SY0jCOiiBoKHpogpH2D/4SAqf4bilG3ZMKhpOFQkXVXB6Q7gFwckMX7kVwdke5FcG7O7gVwds/uBXB2z+4FcHZDuRXBqz+4FcHpDuAVgSAGBVCYsjhL9P64JuNEBrDR64qy3QccKMGoTDdPO4dR4DVny/dipB+FmzhBXdAZNwvMGJSbkwEWgg8AjXHS2WyuCVqRnYjzROXOIVJqLU/POEcQj6hcKuMUOJw8PV/QexQ0A4emEftVJk56ViJdvPqLg/LywmNJOwMIaO2aKuafIDfPeQ6IRHQH8PJx1v4ephWEhPEpwGnGgAWXz1twyTrZtl5jAqtPdoIZMxF41bzQvtgVUAqLs76eJwXHzJtw85BXnPfVrPyl5iK4OgHFb06T7gUk4Tp5FPTM3TmJ503T+NNE2I6qnpaWMcwvVhV1FIyZTrQsi68I9LDGpZh9qEoZCDw1DElLNsMMMHS2A0AJubCcJstbeRdXEamXGx3TNTztX801MvjgxVOmeNPOON6wkRmrWNiWlAMRKkCMg8ALhDMiO6IeBW/N1iZ1FUAVArSfmX2wpFwyrp9xTbnaMFNu07NZp4iLLSZGdQKkseyhu/dTY0keqm5Zy0P6OqvCLpBNsKAUs0+0Yu1NujUMcCnRdkpQ6ZZkfRsnsAiq91ENOsOupoWJeDumTdPLC81CVsMXJsGTgwodxqeZO0OSvNvaKRx14MKeIQwXzOo4CtJqugKmXcBj7hrKW8p9gYthhaEq3C9xFSxlbEdUF63My+qD5eOGmEYKIszN2QtORywKnCS4US7kucdN3GJ+BcI5c5BiFMWh2Owo0Oj0jLnsJcI2AkxhRCPrgPWorRE9NzEdLrscUYkh0PODi+zym4GBeeEVLxmZePmpxGKEhLW0oRVPFSmWxLqhxsN1bVIcUrFhjWM4UpvQDY6Ifb+tDp9nthFNFAPVHVioKEeJvn+yCGIiPmhHzqGiEP0MdEYRqhGHnhFSxkA/SQHzoSKPVTZstQ9UYZlDmGGjycIEeIffVVSacceLKIjXUrNnGZYjqGogCrtqzZl9n1wBwPkDGpZ9gtUXmjD50XTawosJHhLZRUlq7y95FlyrN8yum5SadApioCvC97YTgC+LBjpMK0LBHLAd2TLRtVXm2hRZUI5159UR1kVKqxZUVKqxL3Vh0BmXvIRqopWaGVDWcy/S3WVLY46A+JSt061/vDYlhcD8BoSqbOkhU3LNygSlzdg1QRA3t76eFuYajGkiGsUQk86dRUDQHYWHAs2Ole8iId6pOlVRTmwdji4PTboCdQuFW1/rTrrhEHSSt4GH31YUy0Ecznpfj1FlH4VTWLi+rHyIaC9RQ86avQ9v5VJPdglJvdglLRCES59OHQowNz1afND9BBSwHD7YKVCEfZUSlPmUn8yk/mUp86lPmUn8ykw7RKUEFCGjyjhD/mnQ7SKEf0TwtMhmKKk35mMPNHCIkuD49/+RWO8ENw71TMb8QqJk4UmPlEMB+2KlBc+2mEVZ0exBWdHsQUACMfMOjQiho/Q+pRhAYDz6UxVDbLmgmWaUEGjj5ufmio+SWCGbtp4ZZlgOmmIjXTuUa5qgblvppwwxxVgzs/KaswNLQkXVPGuCU8wwIYnwJt2n400xPS5edt1vEJe+nBfsm85vrGbzd2FmoxIagLKWyiwEGEtpCKEUVVTih9Gne1xf6V6wwkuqsKLFx08eqhxZlKOkw04cWXgGsYXmOgxUs62y5hdmHsBkGwALNWvqzX1gIsI5cK2FsdlSt+bYVERFQAqxxc0bLgKUcbtBwwbFkh1+vkVE1accWino2eopWYtKbA6TalhGhv3ywrgodOyT4VqSmbOnHypbbfgJtl744UYSdoCBxA2h6N099SxNTLD5tuDtGvPdB8vkFCEIeeMVK+8cdEEDP3RQMqVEv4RpXNGHnhHmKH6CPMo9Lo5vsThRgI1EUU45F8BIoQOFNQoFGAgI1EUfUnnHXyiUBOjCVKFTBm/H6JmFRKYeYmSPQ2Do0xJDAXIcyj5DtLLIYopvk0sQUi9H0heBTzr5bRmiLtK2HW2Wj9GZmYF7iwzEXLoXAh0ZF+gdgDLY1RjFTJ8mvDJlmrAPHHQEPiUmctdYuUi5SYp/wDr7GE9PnMdvjj5lGp4ocwp4ij9sfMnXIzVZNjgwkY5sXFN3VZUiEBrOKZnGGjyuk3phFTIvyTwaRRaYef9DVoD0n2oHZq0TpolWYVRxrglNScrE/S+ftJwTZdCpuMNhRKLrYwgRR9fk08rm5oG2Rz+kMULbYtNgU04I53NtO3ki5ikLPIcDe+Y6x/KqQEdUViTrdmWy2VV+A0A6GwYhnTI8rbE5a0ZMx1wwH7qIRZr5TL6PqnNRCOIMtSkOWsRDCNVACuDI9a9XBn/AN1WPyU7+q8rrVk8pjE/SVU0qWmWy2QyJmeL3gUtOe8IGm53myipAnC/fFR8a4OC4X89cHKR1sa4ODu41web941wcbq+x1cHurjVg9Yq1LTbZatGRMzxbWIEzaA+8hnR2dSpDOiSeJ0YhiEs4rm0TP4kJIcUUVTxBhFATTcy50z0ALO5rluqSdnxEa7tiI1kO7UpG6cdZqG/bG/br1VMOStnyxAVpzFVBkB6gFmUkxLM61AgGk97fRKXbfYMaSEx+RPOP2FNn0ThkR3BqWG/kX6XoiNJm05+ZfVjxlAQhBPEDDdRaSjhAVIPTDLWgXJ0gobAtlZ5mXBwuuaZi++7GhhiHnMlZQBKaLzk1Td5R86CMtNS0dDrUI80NjGixiOOHl80IQUecy0pymYnGyZaHWjA8MVU0L7YQm4AXnNumv5kVQkNQq1Is2TARvmYGdThevm2U1EWGSKAj/hIqRZbqTATUZhzor3Hz140wEoco4N7dDRpjVCiOFaRrhp0fCo5g8jTcSpFe8+Fw+MqRHMnI3NdLcNUQDWXMTWKqG3tr/e5alt7Trb3lWtKAUCpISdGCn2nWiInHro6up5FTgNFophrGm+mIAvi2jTotwvwFwiyUOZ1bkl3sFbkkX+NBWvK1aOYb0F5o80IewUYweLom4R9ZGm3ITnKbx8vaJYoKml9sXOZFplJZoNAVYYwqVltAAjhi3Ckxu9lOVFKTRC2OyKmmmQHzRM4Crbk9PsvgVuSXfQVuSXfQVuSQ/40Fbkl30FbcnpLzdKKtqT74Va8n5vrgTgmBmRDEfWNShCL7UTuYFtNghrhGWdiGnVOhORK4mdAxj6gpU00w1FuHOZUDUrcku+FW5JVR/ewVuSXfCrckqo5elgqS/rjW9VjUzEWHTdmJpkdcG8iebaZboESIqQgrbkyiX70VbcnV/NFOiQx1h1lKf8A0i0gu3nKsrrn5lZ9880FIFAzDBsYVYQd4ZKQjWxSZy96d2QfgVgef9+asEe/NSEJbPp0HXUpKJP/ANKgzfNw6QQwpqeEfcTFoERbIp2ZYL6wxrBWsQlusfnVtFUOrdKUbnQcyuCZgY+4rAEh/mmuDxUjsumdS4M1F/NVgONacxCeMUzaBD7ngTNoZMORNzw05siYny6oguVtEWsY5VaxdYWPzq2iqgGUWFKTMyVGUgo+RNUjfxKAe8rIab/eVnWKsloXqML1ZmnixekJTUo1FjoyCZIAF1vbGtW9JUQwtt8pEy+ZEIk010fW1EVU3PvnMPEWw5k+FWrKS1ORs3QGrfXCKz9H88VbEq+8eVsHQIopvnbCpuPsT1brVDLxb7dKt+QB1oRFwCfESElwls/vxXCSz+/FWkxMQiWODLgHhQVtOtk25D2i4pYGQvGOYYZsa8/IGvlXOzLFA4D7tayqFMvGXrp+3CpkGJaLeIjjSNS4SWd34rhHIYv3wrhFI+6+JLhFIYdp4Vwls/vxXCOQ76CtmTfeMdAtg8BFHim2gkZOgpgjKkBLOeJW9JRflhvmRB4aiMAyJyEX2G7k4acWhvDDi9pf9lee7D51mrOrtxX1jHzr2H85K35FswEROBPiMRJcIbO7+C4Q2d38Fb8jE6aoQvgWZ183O8RIhJOUuvlpLQWKAKBcofHBp9QcU01LsPsBpcdIAGtv/UrfkTNwqBGDw85eTbzoxmXzcpu/NeF1lNOPg83VeENONFhgFRKsTLCJRyks4hS2O+4tOhrC39pnm4szhgI/4it93EGWhcIHR9xW647cxrpu6aqPf4p5qWbI799x2OAdmKt6S0hLhcgLo85t5VGFUi+YQ+0DxJ4OUy0AiYHrRbxCrGlZQqCqddAoCjiceVOA4cMpEniZ0w9II1aFbr3YXCF3sLhA72Fwgf7C4QO9hcInatXAuETsS/krhE73X5k5XybodO1dq1SlLRGkoVDUMTDAuFLISgMGTwstAdYthtaq8xzVMPcU6UvAOmgYjVurhC72Fwidr2qFwge7v86t90tnAnSJmVnJZvFjqxoehdYmW/fwp8mhdMOkHVuzrXCJ7ulwgep9eBGRQZaBsSL13auoy3KQqGA9L0YV19RTJMG5DC8MPRkny5S81yeWpzm7RhToPTBydJDEs7rmoCsWWwhtGrFlu2akWWIt15CItKs9+ZO1Hzdepw0bFKEmmI4SGqtMz1W6QUKRmXCc1iMMPuKZmxLZuAP8aZmXWSACIhoExVhCw81hIXjMgcDbwa6sKW7RpkZYdkCNWS26Q/SXpirLYGrDiMzVlzNRHTgdDF8CkRpcA71snQdp7tNOSzZYSEirTM4RjsEFCkZl0nMI1GGH4E9Mtuaw3QH+NNPvi7qkINGKZf5FBykXhLpBT19KaWnmijrC4EDVjylJBvqyZQqdYiPEmWmma/RgKsubfZE/SA2ZrgzaOcMQtHtpshfZswI0x1TbBUE+23duU/u1MTLb7bdELohoiHvKfn+0PgU3OHMNZRMgp+VGI6W6RxISIp8geLruKfnRemumMAIKK3MWyrStH7wU/P8AaHwJ6Ydg+Why+iJfKHFttfOv7vZ+RYW5jDDu6OI6moS5QiXZTrjbLg1EQZlaVo/eCn5/tD4FP2h2wU/P9ofArStH7wVoz9PWBWhOk4GSog8KDmlgMi9xNmQFN0NCJUaIKXf7xVXDjhgGnNG7PAp0WXIhVAYxU2EJSs+m1dF1QpiDzR1NxiEcpJyDLQOnBp48Iwi2aMZhp50L10MQ51lbwip6eFx0okVJBmP3VPz/AGh8Cn5/tD4FaM92gVXQPm2NWsDamIgbYVCMPpEMbtxzDGP0ZpylojLFsgCytgAjxPPtMsUUkzg0m4p6eibDoOCJRDU8odLklEyc/lcUBAIH0gjqltKMSNuNMY+twzJCI3YYqdY9viHTLSjgOPR+T5eP2IoxhDFVFMwmJZvSDYPQq0Xh4FYcv2RQxas+eMIQGHscHB8SedZMmbyBwGsaak48/OP4byDfNCCCAzLxk69CHqiS9ZaIfoPWtY6h99WRMuAEBiLzXPGNasx9iXd5n338ODwKAwg02MDKA01HtrzaKfJdIibnmni3QbMU6PK5cwmpclUFoMN0vCXrNtEQxUInsqkno13ben5liB+tuTqzUV51aRywSTYNvNxGoDNzGpo5t4cuksA9RWo5Ni0HQiQ0APubfHqYU84U2wxeWi2RZAyAYKoTLDUOqnCKZGvlOHBuGiTxS0oTgNvTAjVd3mvQnnHZJg7ttx7O5tmsusSdIhozEqVTd105sfYVKpoE6c2NUqm7rpzY+wspYVTQJ05sa6qporpzY1lrTZtgTDItiWahsKPwrDd4cqHFrFtIsNCIQm2qil3KQpeDxqx+Ug+0bgkJ003ak4NBMgVTBRrWn+jrRd5RL0wwCJohcCIVCQp0sQYU8VDYVE4SbO5jReuFlANf4VSBOOtMyzftu1qtjx6IHo0jGPqJM1zDbZXYafO5sLgtS08YlAoOhqFUuDlErLNiyTt4PMDaiIWhIuVtR001QVgFy67u4zd4OnrI23Z6bc0vGOOkNhaNLkMH2D5fnimW3WyHQ60Q1VKUalmqqogAUjxWfL8r06b+gbzT1lZctMHAKYE40J6B95cG5D/pxUmzLgUaig0AhCPZVmS8wY5SNsSIVZkvLmXraCmpQheR54Q9nktQrb/3oYawbXFLwi7ldhDDVsmmoC+4FIDH1cQ1POnSKEYRpqdKGse15YQKBQ5xUsTssR1EyGIw6iliGoKXGzGhOuuRbKoYRjhq4pJ1tgs0w4NAUfjQ88cTh6xF5DcInTGmKs1qUgWIoNhRUoKz5d2YboodNsSOF3vKzZeYMQpgToCRQVjSrJ7QNCJdpNxg16/tQwERh+hCF8GWKldMfYY1poW+qNCbjo9bhZUPMI+TLE6esIjmQTDTAQ/qbzwYIB9VWjJu2Rcq0SlfTdehWK+/TmIgyqwplsiykLStGNVWGzzO60Y857aAjm4s3ctyZqsGh29hWbOPPOHU44QGZkasebGrcNWTM1DuGrFm6f5Rqx5nsGhjByD5jSrFm/QAOFo9hWTO1EdQ9Easeb7CsebLqgrHncn1Rqx5vq0GrHnR2hujVizPYVhTe70RqxZnZyKx5ndwKxZsi3QVjzeHcVizdXUVizNXUVgTZb1CsWZw7isKb7CsWZq6ikH2Bcbwk4NNSkHnwF4qiBWFN9lWFM4Qqyqwp5smzwuCNBif4FKWjNmIUiT2KlSM+5JC500mWMCDXoDUNMiNYZXhofYP8CmZufkCDPnp3FYD9Q61AIJtiznHw5SQFRQ17i0kTmJ1zQbrjhbxqyXmLPlDMZZstjbo21py+vjhpgoQg/o5vZH+KlndENaEK0JISUu6cPsgm9EIZW9OmEFzQh+ghCME3CBe3zJ81MGpg1MGpg08fwpqES9ujTFQ8kBIS88CUeSzUQwwh6OJKVbmd5twB+dWLHvg8adZYYIukESrdh+FS0IuxhifPEZfopUHBLNCKscO2aswGyLaIj+ZQhCH2eU0JQijIP4FFPOfennPvQ6Yj64xUNH6NsYj7FKQq9tRIRhBR8mEIpsY/wDJNjD3U2POmxTIdlMhD3UyP3JkY/8AJMD9yaHR/BA2DbDBuEUYZcKmYiU3Nm4TnUxpoOYRHzJodP8ABMhp/gmA+5Mh9yaHT7dCaHSmB+5Mh9yaCP8AyTQpkefzpoef7EyP3JkUFNPsQDDT5+ZNj2U2PPup2j+iyybV+YgnMwsPNB2q00Pm0eZNjzZebzKlAP3JsfuTY9lBDQoCmx0RzJsYfwggh5EeKEEEE0Ef+SCEP0cYeXGH6GCh/a78Qdn5iLRDtNU4kWGzWAER33/1SAwJ+VO7OOqeqnrsCmgZmC3KsS1v+Jj0s2cxjH964mhF+1TB4IwKqpijB+qeYhpTYttm8UxKU/VVYE5CJvSwQP8AmgOg/wDhOaaZa2nCpVsyZEWrB0UUCFWjLuTLedgXBIx93in2nnmvSNtmJEPFNNMQcKkScKmouJ0W2xzEUaRguEMl3wq05Z8x84NuQKP/AKKdZYqy3xiFStqSjH2QegjGI7UPImWhfBguTNRzOO6i5RMOzcyJTTwwqMA2lCIsSrINNiUfMIfqss85OS3QvgGLodtT4hJTQaZSLpUgD2x76LSJcXMrckhIfON8Kt6Q78Vacs42yNThC6JXfWUw0+0euBVCnBaZbGonDjSMFMNvsl5nGyqGPFOscrHnuLwb3s8U6yxVlvjEKlb0h34qZbebjrNlUKtaVacHzA46IkrSlneo6Jf8BGYi7awAVJU4TFW9awTBsQIIxdAggZD1VMwmYWY2dy7s3BUIjclZqbKE9L7NY4k6BPT0ppk2iLERufNSid/pC1nKogdWBoOIiH/6u0vqA/8AhEQloa+YVa1qNvzVdQMuhR8qtCffeEcMH3RIE6Yg8cyJ0dYVb9sAcR+tHwKfG0eDj5CIPODoIBcTomDg1CUPWPE+IMtBlqxEWwKljalAG7lmMxJohtG0S0kJQpoaDKP6sFQODSUE25yIn65R7dzUoLi02mqG3j9G9RxeYxpJW3bAkZkVMHw8KtO0WgsqdJlgmXRrIK9dTU9Mt2mxcPwmTAsG7SKdI5CbdOEs6e03jD4V/vdqvMcqf2G604Zts6xlURFxGWi52v3HE6Yg8cyJ0dYVbds9+HgUzMPMxdvNL5aTU7MtMGQYmTpLIuFVpS02B1iT5C6PwUK5jOSImLUwOEjuy/4BbrIbWAhFcAClCNilt05msBwZ8AK12J+btgBICYrpETx5jT0GZYpYjJ6I1UXeKtWvF2yJKcPksYiVB468hbcUOgRy8X99NL6gP/hbLHzLgGM9JAJ3UxykArx7K4O/0U9edEIui5UC+vd+YV9S3/8ACwmE+NKlZEmJVgGQrD6oU1ItVjnADE/nT05aD7pYL0jIVMtHMtY2pUBrpPeL9YK7rxNPaMhIITUlA8EwwrROY1bmaIjAVJ2Z3R+NSDUBZEyB9rCHUoX95H8xcUzcWnIT48kpHnMj1FaZTNtjUANHCohDDjr4/qf/APhxN1mLkzSO0VQr/ZiGT9pBSEJSecbqfl4RruyX/nRcWd7MH+B/wD/fTSlG3WX5K7MShtgn41NHeS4EWAbs6DpUxVatpzAjMAGo1mxILq2rAl74jZLGZAdZdhOj/SMsVxNwy9UuL++mla0t6ENeGyn23Q0s4hjVrKbaA6T5iJTIOF7BivrnvnFWtLNCLY87joCi5ZZzL4OTD4fGdexSuDzRussA3ExMmqqNqlcFGdMNsjP5lZctLBDzCy0IfrQQKG8uDEm699YIUEXZXBge9c8as5qVYhqgOZf3kfzEsorS/wAGLCfN0BIaAjFvCHxJjk1hTbwBOCGQbzAeD4k/B5h4KhcGOEuJ0QbgxjIi/cK1ZeMS/eCvrnvnFWgx6IPpBTgmO1CKcEB2iL90rbl2gGGWvFH3VKmNly19yR4oUgX0IfD/AMAvTDQSk0My3dEI1GCygNKdmWJ9kaSbaiItn1lOTkxab1ei+ISBuvYwpsTBwaSGPrFTU2ITueVMxNoS3cNXFMTLLcu/fBFiIidXvCuFdvf9SPgVqWjMSk27eE866BvhlylTurhXb7bQZQbmQEB+BcIrZmnQDRdzMxW3FTc4wUlXdcnIB9J1h3Vwlt59vYOZCkvgVkg07rvlicL3v7BemTK1H752DsRiMD3VMOsQeaJu8aKkx6qbOJPFU9MOxqcc6yArl3XDO2W0KnZmYl2S6OMwQkQ7uDitW05ecmKIFyZwBEaAoXCq381f+8h4FOzjUbOAwZJgwCq8pzYd1cMuEf8A1UPArTnJwCcvK5s7w4K2bUlZ2ZzcldABHD1FP2racBytTczg+BSbctKsjSLYQ/8AxHPNNRjlgRYoq1vuac8KtSPcueFWpHuXPCrUj3LnhVqR7l3wq1I9y74Vake5c8KtSPcueFWpHuXPCrWGBR2hIPmT4Ot7QFV5UdEFMjD4lMfASmPgJTHwEpj4CUx8BKY+AlNfCSmfhJTHwEpj4CUx8BKY/wDSKdhHy5xsI+yMcStH4D8KtEu7Pwq0S7s/CrQh2CU2271S8otAipsfdxKcLuzU4Xdmpwu7NThd2amhr3sKy+VMttw+2Kn/ALhJT5d2XhVol3ZeFWiXdl4VaJd2XhVol3ZeFWjHuz8KtEu7Lwq0I92XhVofeBCpgHQj64RUPJLDD28ymx++pTXwEpr4CU18BKa+AlNfASmvgJTXwEpr4CU58BKc+AlNfASmvgJTXwEpqH/OFKKBQjDzwUPKtZiVhAKtBnjj7q4Sw7h3wLhL/l3fAuEv+Xd8C4S/5d3wLhL/AJd3wLhL/l3fAuEv+Xd8C4S/5d3wLhL/AJd3wLhL/l3fAuEv+Xd8C4RSzrhYYNkdBF7pfonBKcpxuZrtWkLzw/XHlTzbnVKtOiIjmIiRC4JZSEq06LY7RFQiEhjlIUQiI6xEnRJvaEk8DlOyVfFTSOapT4uNwzM1Vgnhvxh0zWsJeQUBgMPOnYQahzc3rU+y285lEzESJRUUSioolBTF67LR6WFJBo7SJFxuxhH2wRjX6o+3yXdD0Cpcc0ZeqrUag/H650Kk4DkNoSTwNVZaipU20Rbrg8U7cvliEYHQRIhGYpwHlr8gqRFTNzKQ3qMKdbdbLWAq1MtMBtG4AK0pZ8tx0D4nRbCGsRUK1JR17ZB0DNOk5L62nEYp2Btx8gwObL4BVsMwKJ5HXaE624G0BV+VOtOk3mEDAqeMqQbDESnSuIGcIQjlj7iMRmQzh5BwERHTGKd0NepuCm2CfhmbgYVdnyTpbbCoi2QU1fC2Wgo6CHQXvccVPMvGGeDRiWjyXYk1Dztkj/j5M6B26RaDw1XAoZ+0Kyz0GYe6rOmGuu2Q/o5g2XhymBUlBT4lL3dLE2WevfJFBxsxqGI+vy4dK2EBb65xpgiqedOpwt9POiIGZYI066nXamCGqBxqwuYUOg3WDKkdtv8A0oudhwoQWd92ruw/MhpjKl994g55otHVu06RE3Kni/mY0cYy060Y8/8A5tcUYVzhaCL2AiiQtwDzrI+dy51HPzLLx68OeK8whUjjFmQeARGHqa0kqanGQiejbpxKZbYZqpvDKkVaktLkYVDWdOlTbUwG0BVCn22WxzEZUjBW9JxMipGEHR51sr1P/jJPttNjmMypVvSkTjlhB0edRqElPMS8CyxM6Vb8lp9l6KeB1qOVwI4YrNTx+mdKgfs0o9D+AYFs3hqbfcfmayjSXmxKcddZfppbP1XaKIwOBDHQSn5oZmA9HAjwRPsIq3JA6IH7eeMEReZjW30VJtnUKzxDHDe4/RM/Ov2F35ERF/Wj+QVbsy4wR9DLsYaAVoOUcoFu6exY/AhuwuLwqtVTxSNkSBYG2hxRvN5WnPMTI5TIgPH1FNjMzLIGJPCNFQanwrLHpB4vYvM02RKI8oI9PP6icNTjzjsyZxpCNOhTjpsO0UtnCrR7yMRGGYiJWxKFH2VisQxU21Ux6bF6Prqdaf0ZqCq0K0uUulCgxrArtTbTAe0ypVpyzrmzA19WvrHfmJeYCxfaC80R4vUsjPP76CoGhT9Tc9OOi7CMMlcYgiqbcACFTrTT7voWzjSTitaVKZrpuhMaq1MAw1DzuHGkYK1pZ9zkr2ETEtRftSnmDmgHpGoHignhaaAaicMqRgCmQfYPBBwI1DFWqc2+cKXRrEqMe6p5gZqMNIsacUR6qtiUB6rQQRdGqtFhJTTTDUPpDKkVbMo46WEW4ODUSxA+dPv+Ro/qssbgjpzUIqn5p83nC9pHzqUlnZloz0QfCrO+QLg1Z7spajgSdbAEJBeYNZTN9LutX7O6BllVhzk0MNZlojVkzMlEvNfNkCsuYmgloVPE03VR1l51Z77DT4C4zEwiIuAeypF2Ze+raGok2V5VTToxLgraJMEFQuQYOmlNk262WghKFJQUi/yNx25F6jBF3YVhTkpKuHSLrzRAMSRhymzy5LvEAZPLynMwEuIiESIxhSNalnTN84VOHCmGBFUTYHV13FiF/nEvjWJqUYKLnWyLzPwOI/P8q8zAhGPzr6g16SVO8h1F9G3S5/hrDLy3RtiS2vEsw4hXnjKsl8PF616oj8qqgZsE0GiPPU5gWIrSbvHtOreBkRYpMjJsftbPGvPCYaT8Z2bmQHRGOOABq01J6Lks8wdEOqWBTzwMMhzswjTCPWUGGJmWljcCIRGoybxKGmMvG5hH20Cvr/xkpo2pBjOIl9WFUU1cPi3gdARqrTsXYyTg0RjGrmyUKF8Eo49TLniGOOhMDCXmzavZYYUjDHSm4A0A80ILzDTo+7j8xXsUVMHRzU5TTQTtm11RjCPNDwIDZeZ5zbNeaAkRJiYdmKcEIjoCpDQ7aJ1wD2Bp0rZZ+fi1H4wHj+vNfsL3yL9qP5B4sTLE0Dkw77DDOhy2cbfwULMc2US49ZwB4/XEB+JR0NOjz6EIzllxjTo08w+A0JMPhnain7liA1uFV57xOMsuiGF4YdIRAjrjKvkAx9oKai1KxfHlUYR84Aq4XoCMai2F6j/GpkzHQOhqMejgottOC/REWvWszsoBEvrHfmLi88WA480SNCRPTsxUWj2Noajs9hpwC/kBjRFey3QH/h/lTlDxBSMfYdacednGcRO1cxnSpkws+Uh0kBLz3YVn7+qnTk5mXYIgpyFd7S/a15oA980F57g157w19YOjtRU1GXN9oG4uewaMXwpxw5xpgj5THzxPN2E4RRln6BjH1BSph0bOkCPQ3AvPBs6U3GXmpVg3gMYcx3Yo4m9JzMAriWKIL2cZU3k+DZdWguIQKZdMzhWVHonyVrScpKWU5ysmwOpwrjGgKXkqItCWcotN65Cmhs2WswwbN9mNJnQGRNA9MBLlBmaLEZXtXxAi0NTw3EP5rZ0B8yhCBjaboN1esGyr+VHCrg9NNNuj/LwUfEmwO4aNpgSzVNhWpSMwUg10TdNVRvpudBiD9QyOkrinYoUlCWnbSk6ZxmA0429dSHK+TWobksFI+nbDAotcncmuUCI6m4G6j6DkNfxj5YVHLELow4pYHRhXhMa1LNNdQADiwjUEDj/LWnSblIR3VgG/pec/83UNYxfu2XN0Pyr6g/kQVQiKqg26Z3Q+y8/KhGDxVuOLa8SGq9fASHcUcDLQgPFFDgIfPvJ0qdIXuiPmi4XhXDG0REfXyg1OG7L2gZBF4yrI7zb95R0wjNNU9pfViv2QlPuy1mv0VwAqK0xAHoSztwZvERE7TgX7WfyCvW+PzkjumJmJQrjljeh4lMgDAtlGJxigKDbjgwCPaJW/GyJ/lJ3UYRuxjCvHUuEzVqWrA+ihF8SGGxSPEOiLkKo8YVXTuL7BNTAtA45diUdpPNOMEGIqgMFohJixiowjo5tKhAhKrSMVZcs2Q60GgDi/cfNxDoJ6JOdrjHOdQby/YXvkX7UfyCpuH9KuuXcy5lFkdbFtKZlnbTcCqbmouAZxNzf2EQuDNSptiVWu4CmW5R4H62xdjRjyHjVpMNMiGYjBP30s4ZiLlNGm7UMLIV+/xjUV2RDDeFPwaCJXYxjtJ5pxkgxFUBgoQ5NDPFrLkxpqqSfbCBRjlzKzAICDCV4abagF50lBV4ltjxbf41NujIhHCwJ0DHAmBbnTf5xrMyo95fsLS+sd+YkNROHSI7S8wNiPF7FCmGaHVU+cuxIAYMvtRpyngXC6fMDhoKEXzxAiKIuFpa7K9bg/PxHdMzRYHI5ekBTQBE2CuhqxuYNUV+1o4NRmKxGr95jUzCE1MsaGmh88VtmvU6PzEvq/wEvqC+RftKcg0T5ui3X6zrTwBEpV0GgjrG4GBNFomZ2uH2g35DVb0sJzDI7RNiuaMFOuyz4nhdZMgMenLWFW1OTEP3rpGngaYMTbIzKkYYVKnyGddvWZjUKtATEgxL4HSyFdiVaKAvNz1+3H30IlKzFjnMg9qC7QNHwohILZanplkS1n3FLi3O2mbrk1TuHmU2LFoE008ztFmVtvNTDLhCTZNBUKmplyXxFKxcCkY9Vf3sfycTdBvmUs0e0GHywgTRhSUPaKZc5A5iZcpwDuJ10nnq6hLL0nHUNOUoZ4KsoEdREcUZiAnUJBHSVaMyCuoijrIiodCkqUZEDfMNSi5ewICpHIV3xG6UXy56k2QFR/V2i9V5reR59HNH7UbxT0Y6RqjCmGCjCKinXWilnK23G46Cgpl+DTNFLkI4iu1VS2NI6U69ym7oo0jTSoOMzLWR9oqYwVqT88I5BeeqEU46bROE5jjpjiT77hzccdcQKlNGEwEMD4RpcguENqTDEOe6N3mipUGWWmzOEIaxAGujA5o3KglhK6+XMpk5W0wMIsNA/EyPEmyB/R00SGlc0IDohxtwNs+aIxUu4UrFypl2EaFbVoBL/U1wQFEnM7hZop10Yy/PCggxcbrovNCFIjEKejTJwlW8RlHW3ENIAOiEOMOnaDDTrIXGxfbNlzRnG8Tjps111OxqKtWhaTUzMuG5G5dAKSc9xW/bXfh4FMvug3lcfKs1LHLTNeJ6XjSRK2LTm2RPCybuBStDTeFtuGNemczccEy45JunXCI6hq2Z4GCzNi5BNxqdzOHGoopnTd+jISxwXCK0rocrYu+ZVlCuoiONRRNOOk7Ml0gxjhhxOvEb8dJ1xDCnnpWcjz3rJ0qenJp6MNAuunUQijcuRbBurX6NEZMwOuo83SITgDMdLIl5ESg9dxhCn1o3yOYIYuxdjihR/q4nZhucaoyxARO72k89B2UhpAQyx63EJtTIZH2o0uQU/O2hEMgPuaQgnXSB1y8K9iHMouS84BaYTLMaYp+anphwKL586otjupx2LQV6COOLpE88ZzcdJi7EObqp57lQQ0QhCIXeSjZXmcAxL/ABE48cHXK43sQihdl5yB1RmWY6IxVq2hOgB4WnHOaKlhZ5qQbEaaB8gdIxGklLOlY8y+RNlCFQM14qFKyv8ARrZ6RPQV7nr4i0EJc0VZNmWw0wNLZTrFZIJSy7LIKSlZFq6Ah4glQlQlglxfECv6AUAKal66IO4hjeDSm2GzYZuQBiBCPxKcjLzNNNWirSK4FcHpubLNMHK4i3iUvKy0vKBRLy8q3dtgmZbkMJi+rpK8qUsZQzOuQhhAesoQg1Kt6Kto9Yv0DIm2Y0kMYedWiTOnFQY1p6TIeuack+2ack+2ack+2ack+2ack+2ack+2ack+2ack+2am5ZuHtgRknIzcxToqOHND3fKDQXqj64J2Ef4wUQVCoVCoVCiCoVCoVKqlDM6iiwVKeenDAqhF6kkAjCHqhDyWhMI+eEVORES1DHT8SNj74pyX7ZpyW7Zp6Xh7xqdJynFQEKIJsRGHmhDycDn1gKZBz+OFXXaV12lddpXXaUyAju4lCpzWcjm8kIFCPtUxFmJFVRowJ1iMPbGJI2O8LwomO8LwomO8Lwo2O8Lwo2O8Lwo2O8Lwo2O8Lwo2O8LwpxoIbsak7F92ENaGHsoYQh5OAx8xQgpgT60Kf/hEyiZRMomUTKJlEyiZRMomUTKJlRZ++KdbCHsHnUbx3ajBQ8mXbfYcGkm3BqGKtPkJuYhlyCpqvd2RU9ZpBtVmpuze8PwKbs3vD8Cm7N7w/Apuze8PwKbs3vD8Cm7N7w/Apuze8PwKbs3vD8Cm7N7w/Apuze8PwK3xERLnalwqUkDDbbQjGIiMDj1v12Ch5cFBQ0foY8cVH9TjxQh96hD71CH3qEPvUIfeoQ+9Qh96hD71CH3qEPv4o6PLioqKjxxUeOKj5Ef/AML/AP/EADcRAAIBAwIEBAQGAgIBBQAAAAIDBAAFEgETEBQiMhUgIzMGETBDFiEkQEJQMTQ1UiVBUVNgcP/aAAgBAgEBCAD/AOs58M+Gfkx/tw84ddKov68VIBOhFtLrAKjR4ryxo7cga020li4iQXYFMWQeXvoA6qVW+ke6MKHljTo0RC8j3oVBGiNXkHIoqelKBXt/1Ae3GrUPXrQfVr7zdtKXasQRXL3qQeTKGj8od/BNNARZlUHup8w3Dtswq2n62HC59qv6nToXDKtsdzKtte5nSUjJc2ghareohuC2b1CnDr+iqmpeZ9NvWzL1DgoJmdSTd2kkzWzcGJLFwVc+1X7yXdY0YtQr8SV+JKD4iH+US4Il+3xUo3MEACyqx9SZbmROrjEUtkXE2qhJ7lBCZ2nsQl5UmbuM0Ei0rQvTaH0U1H09FXCS5y+2O7mfcOVEWdR5CG9lz7Ffu57eWiNPTLIsqiHHeiWxkYUSykJqYlMSOpJRHMQ3QgUe4vQuNlH12a1MBgPjnVy0yhN4oPbhZ0ZZnkQ6/KnHvQtCKKX6lVSXbC8qzJxt4YeYwpdJH01UZ1c8ctKXkqM1nBZ7ZZVPPNav3c5HMxWqpobLNVsgmPKTqgbax1lMmkuWhUqokdkmRotax2x0042hwrfiU3R7WK1XcZGML5HwihuRNunJYk8SBLHMxGQApjaLpPLG9WMg0Ybbh2VSeg0rYygt9Sk4DiBJ9qsP1FLT0tqOnJPUcEO4lbIMrnkBQGmT23E/UxqInmUtCmocrpKNENp9Vy6Vq/eXBNtLrkYWesLPQBZ9yoKoQD+m4qAzZoC1Rp4rxK4IkqZk7hbvZpxxvuJOMXtuBZh6g41c++saDopft0fXTW7dcxSTExrSpHstrCsGVAH8mU7bDpdDNP54tlx1dyZCG9l27Vfu5buWjtbTnsezcYKIYohkzSGjm3RSdFGJHydAlsiP0IR1yHTXjZQ9dh0IHJ3W6PPmLXqZcIp7cLcozY1mRCe31jIbvQtCpOg76MZzMKNuR0D+ug9upbtkOk3GzqrNlKdgWVR3bi6d0LyrmCrmiqG4nd1xAgZkKWEtTSr/ADQN2maENy9RaP3dxUboTQHWgmFFiW3SuVHn2tKeek6PpKGODHt0Bag216DxsxiDtulmxG6mpI8tbNsuEYN6Jt0aWJZqJAG50DIHYhaLqHjv6YzkE7tKMygiFWoHtqwmq3ekSVh0Vs0CsumowYLpwZrraXXLrKoScNyrp3qqOneW0aMGB3R42rWaVculav3kyyokFmH4fdXgD6/D7qg2tEPq8gkQFkIXiQAfInynyS+bOFu9mnKjn7iVRh9uYCyR6kRKNzJRn+v4SfZZUP8A1KY95MrNlZsrNgVGazcp3sMpQes2n4+ljA+5UgY7WYsjJQHtuOMHeBqP27r9r+piHtxNwnSGNZkSnMVr0yz3oujKh65SVUYLo9Fl00C1HWC1qoyyZwDhG/zjRbft0Yx6AYx0kFj7c7RO+vIHJUlpKMiZ3R2sSyrl7av6lAbkLGtQ2+kh6qMSVCxqD0PqQ1jt0q1cmlaCZejEaT0aiR2sqODjXKUELKkwhWedTO9WOpiHTQGsqiOYlihq47e5S070ZuNJUxzMauXQtX9TbvZqREU7ujQUKqWndXjUeGIsypxkvdXwh+8qoHZIrxJFOm/9eYOkyw/mE5JswqX76qMyoDoPch1Ijrc2oiVhu4miMXUaVKH27t2q/qYR7cTKpEtjmUiS9HbMdvRcqie+rGeCwZwjEInkSgWK+jw1dSw2T4KBZ9yY8YWVI2xXkXCDiY1LEuZUS1N2Aeyjaw+oo0limVc/bV/UoDOD0lwMNqFpUH36uf2uED3+BmupfucEqzpMMhZlTE5llRd3CJ7Cqn66qesw0UTozSrKkgRsxG5e2r+lXAlNDITBgdJ8Ld7FOgpb1Um3IAsqlp3l4LRBct2ZS2sdwi9Ll1GexwvItY0vcpymB340qOwu1MWSDFlUlzFuWFF3cI8lgcuupKns7I0bZ7zgoLqpMdaey7fa4COp/kIWuaWlFaZtGDFlifkkykxhyafxFHHtD4jQVRZyZg+n+2tKAdIyJ8mSosqualyIu+PCAeMSpE9hH0JnOE+oGLJe5W6usCNLccHjUYHbq6t/a2iNeeNSAWfSXLppfyHhK/2VUaHblCp1AODo2TWyjY3bjy2Atu4ch590ScYswO6f4VwtET0dXURyY71aFMfJSWmNzjA6PueW6PZJmsVpKTHZEYldu5vtS9/KXQCTp+2sXvtqU7fbpGCbthBZjwQGUFvFoM5RFHGapiqOE4CZhy76VHlGVRI+wONGC+6pBLIcaCQGdBqtnRSg2hxqXE3vUA4sqgiupUEtzcY52D9dlinctrlSgzZVy9tPC1yQ5KlOU6RusuThx0GpkhfJMLyyUjDuer3Ju/zfruqWjLKjELlNjinTTHT6QjqX+Nln04zmRm6MEHW5vqHNm6NHaVwg+xpUqKjVlR4sXcrHThcHEvtCWzboJDqD26lywTWZn1VnQGwOsY0neCpBlsUprDZhUk2LqGZmLciirk9dKjLUvUKO2JPtjwVpq7fa4R3sjnktc5xDRzn/AC+dSpLHn6nkmjEJP6mQuzbnSkLTn1W8IIK/SfRUGZ40C1r7TPbXlTU7q9z6UCNzL/kRu5bpG5QlkjmF8BkkuNosSL/3Ah/lBkl7LMhqXE3q5LAMaCEdPl7K8KP1Oo66eAGxZdAO5lO3QQcDzpsTeqPH2QrmpG4wlpuGe6RunSS7YlwZng67fa4WuHkHMFzD0vUtpyGsY0VTELkxuYHyXqUyTL26lxo+sPFMSUCi0GmOXbp+myPbp9GJ71Nbs1r67saL01fSseO82py3GDMZB52vIeGnFn2sgW1TVV6mVYU6RtUfVR8QPgB7Z5VHdvUPBz1pe3aYpgpz4L9yrn2x+FqcvSFSmrlP3WJMEslCRFtwGl5XRhTdtTdHuCGOdocCMoeYaXKPdPVpQ6Yjp9IJQGvBiWoTUiXudA/RhytYzsqHkHBnVynrNeyngKj2FtDUEv7dpIdRRI28e8zhLkYUZ7nEuIHwA9vtjSN3g2DvM3BVGwXqBnav+se3Anrq7fa4R5BIP8lTYH8nXGCXVUuWyTr+fklw0S14uba4AMxoLZAI8agQI0QPR+tIkLjL3DO9TX7vLaX24dtRrtNX/uAYMDQh4w42sl+gaFGt8RegsuNuBQbyeED2KlsQbPTiNSLPUDhJMlrrNjO7ynQUPBZsWzoD1FdQyo0bppM4CCQRHcnZ9MS459DLt9rhbYYv9Zsd0YmbIOkhnqsZ0RRJ5mP5L1cGlI5Zcu3guJowLZHjyXYugTmQ5ux9f4kazTVS6ggxMeLoESPtXRok+ODFNemxOYyF6nGx47ralNS0mEcw1nAZhwSf6JvHQ38krbjlLd1VNa3ex85hQ+SAb9zGpbY4yMtGf6rGDSvc0q59sfhaMeSXQf8AJNo1NSxpCP8Axbc/IcXK7tFiHxHukLq1xn6T101DvEsaHt0+td4POKzGZPdq3QQK6esl1aGtg8vDgRuUiqV5LbKGNI6mIjPXVylLWjl18IHsU+AWeQpgETOoAwXt0ALX2y07g0YYd30Q9ykhgupFu3Gbi0xmbeq3HbX/AMYlu2S3GXb7XCDL5UsSR4ewtwZBwu4p08XjolPknW5cwfnXgctbOgLRc6gWvli3XfREc9flSYiw7jBei+pqNCXur4NiRpPueF2+lxkI9vyRUMkuwEY0BPQy4QNnTdXwTJ2I1Mcw9fUUZZdESXu9B1mvPCpcTL1B+gAblLVyg5V/6U244sxFEwGLawzuv/WPOF3Sd2+1wt8HmiyNGkDc2Vu5IfT1nQRFe+jyXe6GlmwmZDaqJzBIRpsaOdEmnGcpLPoxPfo2gHc3XeZt12r+lYvfbWoMQxrKlmDre0h4F/hXEWmhimUqTJzURbQZZ8JcTLrDzAG5UaPs8ZYLBuo6F0RtcaX7mlXLtVwtOgclQBjcqPe338v0eGN08pI37w0THWJIKYumq3LcrQHiQjak0Pbp9ECwPLQHIevE1AtNSZY44L+jaZAof1NTLZ06XBq40Tlx4YkK1Oo0Z9agSX3I6OZZkQQUD5JcTLrD2/IAblR44J8kiC7ezUCWNQ0HHBeNRIGJ5suf2uFvncrrgSwSTN4TWgT3BmzA1DYTxETPsuNmmPLejaWm8oZkKofxCo8gt1km6O5mWQGHf9FMIf5nERpTU/IcxozEB+esj4gStmCdPiT51FvKZJYn5EJNzBWARNheJ3CIxBbnFbVqidXz/lXzyqDIWS9vi64ktmFRHbwZ8JcTPqA/T4AGdR4+AcJcjZqNL3Dx4HOSFKkrcvKjuSw7Y8tb6uvcrhEhnLPGlQIGhbdPiWwdcSmQ9j5GHCDDKdKUnQ1RLOlW1GebB1J3iLm9SAliUhSac9aWqEiGJcyakrjDOBJ1Tr54vvVmupGufpBh6WNa18RSWKWpK7cC0x1ZkT7fLbjIlMG3ATrRJ5mErPjZR9ZpUDRN7SOWSTtzdvh/FVa8AZsMU2vEGG/g6OBvqIC0JoDAwyGjStlKiM36AF5ZUFNLaHKpKhf3R461s4awnC/cpnQhtFSiMGaFVy/wrhaVhpDpQCufiLQcDmMFxhJt7S4/C5AFw/OdFXLXiQNkjzUVlravkl4mQ+LKOrwJOZDFdqcBR9sfikg5xX0FHgeVHquQvojpLuOTJxXt6VfIRSAU0X3LbMFx5jkPfHdU5+sx4Ci1xuWhKAuNoaK34lqiQom7Uzbh2/Y46aYiplGhncsUEXdHVvuoLcsGZ8HG/cbUA9xdNauMFc8k6CamjcvDcoZKa55I0BreuriTA2sIRsNys6dHknIoITMGiRxHjUSCzPJl07lcLXOFQ6pYERu/vUxLz7ZshaI3KJ4IkMjOU1a7zbpyl8yidZ0du/Yc8qdKsjtrIJ1mHaqRebZFJrUSZLJbmuZ9ASxreZx/zUiyQnnnX4dhVFtUWIWQeRQmbNBXHTLFeJXBElZ5O4QwWyJ6khQRvbT+pPrSla14hwnXuFGl7J26QqSjeXcOytltADAKj/1l1gygBmdRPZq5ylxgUR264BJfiujkIX3A1bO056ApMhb+26dyuEaKySeIJt2A6BTbd8wqXEZGL1OEWIyW9SVwIlrjP5Wpnh0MdCbr4eOzRyYAm0Af4ehWhk5Vsn+iybEOC80n+0soCT2fOalSQyqWrG3YlwjHhE1KtTz6irmzWhBVHkLcOQ18Uf8ANXGvhrosUapF0YpmFeKOoLq+vF5NHdXUVykj1VEnscKiH4w19CHXweP61vCTByfkMrbQjFNJMlM0Ibl+ZK4WlOmkXKo69qe0Kmnvbo05INtnVw+F9B8Q/OSstJcx4ynDcNxws7rTUlL4LGSY++MifBOr1jspr4m005lH7WzMEJGNNUx0tWtXRwBFYPGGG5Ewp0diWYkpLHdIjEHbUNcn6mjF18QW+aV4uGHw6o12WMs8Mbi0S8n8atqiLTp+LY7WIh4fCiWrkt3KaMvmNugiMNMgSJTA7ocQ2HkVz7lcLRMxHZIAl8zu0+3iwW4ynaRIWkbjFlsiPU1cCfbZAtIlLtqYzUAfIFy1MRDbq35uC3NUpVOfboJbzJktkx+rmfVbcoSekvG7dSJsaT7XkVnmG2kbjtaZThk7n6jhb/8AWpzUD7iZEcukOMgs3tKohgSOhv8AzEny6d1WjHdq5n8xq3EGj+G8r3KA1n6gnJjDSXLP27p3q4KBjDxWiNdNF6U2Nc8Ket6merwWs3HosIFjgCW1JdaLLGHJrLVZFL3jXAsLjxF1vsSDxOdZLeaVmlqWIaxTPqXycURG2EGMlidWSIMRZTdUuf0xt4bfI5qMpnksqxY9h05vW3R0sCZb9NXcIZ7cTU6MyM9SL54UMvbiqIguKzPQOEj3m1EDCJWp/wDlW+XTWreWRdNyH2qt4etlwlxmAepDobERteEZrFMq59yuFojYR92o4sCe1ZMcJyWg2YlLoW4vh8NKBlx6n6MXNlSBnmM3cINfUl25JXcNARHJclMlEjm1zXrkptzl/E6xGYs9PqfEMY2bTadKiRNI6i0COVx3habmRpGkyzRtiFp5LKY6PaNa6D6u+7cVa/W4Qw3Im3TksUeJADD7TibiFLpVuMWacJOuT21CzZE26OyLNm5XgtHYumvw/X4dXXgA0q1bG1jc/tVb8t7gxs3f26GOxsdo0YMDuiRjaedXPuVws8kNjaoGHze7WosS9p6SD5WG0GcIE3kJKnVD5SWMloItYIiNQL7eDgVoIW9xuUciTEksL05MWJEjKFlzm6z5RN+iCmM7eVfRDqPdTVA4MTm2iItlcgirfaopHodaafLyKIxYBLU64bfVPbLNmL+EI1ri5sdOz7VTiXSXLeGQ8HKXzqxpSlp6R823LKXTkgauu3AGOpcDagC6ny1pHpOW0qTP/wDkuRZErgkmCz0VNuuP5m25aD8xlnINnrcWzRgBu6l8WXpm6aB+ML6VN+LPiBHSxXxTfsdxipvPr3uIQTPuOD8qMCDyJDcZjQL26c3EKNJMR1Vd5+sKP0wogy1myRDhrN7RcJrWnmIkKRzMVTvJaFCbyMhY9otIZmEuBvcT19NQ0RZUB40l/LMyoLikzwrGjIef441jWFY8S7agf5aPBwM3Na06RyrKlH6mNNy7SqzxcVau1Qb+Z1BnXIY2pCuZhasLj8RtPVqk1EEoyoi6LcgyW1PHfl27LmneK4VZvTlzUjUJeR5cG+szaqWkNjyRD23042D1CB77sqYeK8uHxEgy2io2x4XLqKQL1Td6NIMlQm5WNRrg6Z8bKXrsGm8t6u3IVsWvAuGn2sjFijxIANnbskxuysLcz0qwoAB81vAqwzrDhjxxqD0SGiWFNku3tmtBzFq6x+VJV8yzp3UOXC0SA5bCgdlNyoD2HNGnfpoDc+N6g7wqcL7lI1bptvkx5TwccyXHby5L5+KTuYqzQ2KFrnVEdtspwM95ccMRzOW7Fe35VTfl0sGYlfY6SbuEhC5K8Dk2CTnkrwa6VFsbCPOWIiA6APFTTSzQxXeVYepMuDJnTx0k/NO0QSg0Xizmh1D048vY7fFjrxU6TL2WMOvEyrxU68UKvFTrxU68UKvFjrxQq8TKhlkD96vFDrxMqdJ3WZ1zIl3G/MdBpjMtNOCXsjnksL4X8ivpfxkSmyTyZ5G26E4sj8KgV4VApVvhpLIOIS3LrnmUZal3f/v6YmfUfIprkUVyKK5FFciunRjTw+emlS7/ALbNuN+I5tfiObX4jm0F+nkOdfiObX4jm1b76uWeLeECwm9e9J/C9vxzofhi3n23OwMiDvJ+hMuoxy2k63+aNePyq8fl1rfZq+4L9NLWod0XJLZZQBn0CizaY+t4JFrwSLXg8TLGvBIteCxq8Ei14GipdvZE/P6yQzYsafh6WQgOXT3JwrQ/S26YPqaYtPJeIpDJGJa1fHGiEWFt15WOyQToY+I7FawohLkaLjR4jNoCSjYj3RZcjEUMfmNLZg+ULZiERkx2Jtz9ZMJLCtKFybjHWVwAglqY+cSPC/08bZ5yPyUDTeZcRK4KGPNkKHzST20NKoThamQtXKSJMzUJL4SdjeS+JGQAVLQvWXi9sRauTeuUZKuDSFZ5gBVZVCxzGayiNr2Ysl4xN0NZL1r0y0J3Oq3lyDNTmVvZHDItZckjfoBzi0UogY1jfnHfr9UCwPQqP19ohrZPeyrZZv1h1ZUtOJa5Eeynqq5xNZcXb0kTCjrRHTrOU90JxR5KgObmmZG0XF+RzkF4jTXxJWkdhxpa3lMkay4jJXLuTETpGQpVQZHKS0urSW+QOjE6213IsVSo4LHpDXw/n3OlO5l7XedwbijGjhxka/J3iCtJiiqQ0RXUx63tWxYzo2stpayJiWJhjWyVwuLSSscB00q2y+WdrprHhCwdxvKN2dqpaWEKtV6JeclTj1jyQFqgGMz9HSUsHmMtIjxTFqY1ii3i+sDjX286+udfXOvrnX1zr6MzPu4SbbEl9TPAINeAQa8AgV4BArwCBSbTFQWSwQsNfnpwiT5cL2fxLc6/EdzqXOlTPe+hIiIlDi7wKFXgUKvAoVeBQq8ChUiOiKOKeCJ8lA4j4vMrxeZXi8yvF5leLzK8XmVrd5tNaxxZM/pNf6j/xABBEQACAAQDBgIFCAcJAAAAAAAAAwETIDMCBEMQESMwMUAyUxIhQVBRBUJhY3GRo7IiUmByc5KTcICBgoOiseHx/9oACAECAQk/AP7Ucv8AiChWxQvlKFbFbFe6vN2tG+/Gjexh3/rYZYywqppbrXzlChXf5NXCFQVMtF+put738o0ukDdM6NhTqCrcTxM5NsaNqaNpUQ757h7hrqepnCMzteIz3CiMZpj9nCL7Km8h8z3fuI8O6XIepsKldm0aN2XO/wCGZgzBmC5VGttLKG++I+/WFtdDabgsWW2e8mnm81o0X70ZQ2hVs8fvpvu5RDsdShleAwEKYixXcaYrhcm5OFCqF0LF7GbG0XBsyYWy4uqHEy8P/RUD6N/cR/i8i2NGjeQ0aNr0xn8Ku3cFpgppndx0we3mL5mXjvIeguhssbzW8rIxMjE+6m2McNd3HQyfDouVt5DRo0trqh9hqGmQ4i+tNtZdVdMulh8/uG8Pk2+aoVTpn+ls1KbdwVLmj0zF2hs2ZzGcxx026Y2WN39hEbMG05f0DLxxkPRX8KvlE+UexRw4bFcOpZ4aFCu2twEmWmHT2021l3VGlvsFXY8X9005hmJks0+bj5tsUK1avJLbKrdwm8YX+isVcjz7iyEV7hXs3OER4vWqPeWzNRh9uIf92MtUxlsGGY/EGzGdgmBlcAqFWYIxiuiI0uc9WxVFqAoy8wt09TMRmGYisfMW213CJnIbc5zCEavJr80zMyZ7DTiwucxvL1Bvqq4Zb7W3EzpnZZ4aIbxUVsMm7+mZJ3E+rFRmEOeqYZMhLqzrRkzDGjh9xGYwjFcTFMXGjLw3mXgsyUxYu4mYQuGX9PAvV52oeLM7LrKlTDwV2+f5tXkiqPKInE4OzyT6z/gwS5Z8Obpm6Wr6DUulrDTqHRhH9KO22cRey2vntjL2KpaZgj9u3xYTetkDNjzMeAzVs4jcR87lNo4YxpCrOGKZ9NDxtDU8PlSdja840zjqPaK9J3xxGXwGWhxPoMlBkv4LMtD+UyspkekfB7h848k4glxk3GTcZNxk3DOVqEdEtrPK2+UaTls/2ltSvz7IzF6qi3JLs7hnk9tbWRq0yOzLOlzvLFcSSeVWoVsbV/gK2XKG+ixt3eZlfEMzg4RnoS2fWGZXCWZqez2c944bT1Iq38zyeYynNGapb6bvhAXH74iuH9uIVH78YqP34hsVxZ4OdcYdWcNWxEhi3U/NGy2aRDeytVHlcroalNxg3SG2z2bfYo03L/k9EtrV+ctyS4tyxUw87Afqc5UyKzUTMh++fHhGpSqYz2FytlDeING/iDfxMQ139TEP/MNpuTadMy7hUyaXGUNmTRtwbxFjpkszUvAZiXgW6aeHkwpzss+VFGYm09TKwPVQrhiuwbsWK23BRl1Fyh0sbGXg/eG/mGx+/GTpf+YdFlDeRc2XGEblo0jeti6dMaQqtsIdjb23Bo22XF04Lt3Z7VLPBNllvl6dEY71kN82G8VBeNhqU3K9PnoLlOmYBXU8TaNMZLXs3zFGX45cby1UNmGMb6VSD1L2rFTBUsWLFbFChQoUKFChWxYoWKpQZerLwMuZcR/cHjsiRpVMFJFJFJMuKSJScPa2UszDTMNGTFcmExgpRJJIoUk4bdrTG0xtHxMbR0TG0aW+wt0am3UMHjOjBvEUMj6exvraN4azU2fEVMyxHh/9m/6080/X5DYLzZ9sdjePH0DMR6QOjInnbNM09iuJHZ7BVwVbFcRgq5DuNMuLumoNly+v0moNlyi2NmbPmxFwYsuMdMIEeGakeQ2KmbzHwpMveZ2LPX0PhgPJ6jZktx037NQuHnHVezUNI1C4vuVGEwmEwmEm0NMeAxjo8lRgMBhMJgFbWmIxGIxGIxGMx/sb/8QANREAAgEDAgUCBQMEAgMBAQAAAgMEAAUSARMGEBQiMiMzERUWIDA0QkMhJEBQMVIlQWA1gP/aAAgBAwEBCAD/AOYHl8Cr4FXwKu6vgVfAq+Bf7ceWJ/djRf7AzPexH4srvpznLoJbq7j7hAGclPy+0Pco2hy2qkAxKc6Bz2H27Umja9fl1LqiNNm5l/qGe4ygr91D495sXttEYXs0XbyL7ypIdlTf01AjAsx+NTg9PLlB/k/1LO5jK3a3qa3aFdG/NOJQvZ/EdBJ26nOWacRCWzHCkaD5CYbi8aejZqD5s/zLfYJ1wHPT6OKvo7Wj4OL4ds+1S7br8Hc501NvitkOdxvN3MkWLiNF40wLlLNi3ZCopLu6m9UHdQbkkqdHwDIRKsfWUX4m6+s3kkFn5NDZ9tKHn5OjsHuq3+43/LtUQZk+OklK0UOIzwlolw1rnHJhBHcMCS6a9rhmxly40hLGBqtuq+fHZnpEjLqyPSyFcY48NGa71Dx5OHOViWnZyEcJOIu9ikq3mY1iKh5Zfgd3sbQBUKjwNyh5xQwe0f8ALtsvo5sdxJaty9GLuIMZKt1XTcdtQxty2wnNh1cZi4MaQ1hnqxmp8+NIbpcBbV2XWBFVKJ/DdtNl7WxPKQe29R0BgwMhIsByJJbzmlTdXCnujg7zHXM09wGYLo5dRjzLuWfY2s/7emO7kU92Lu0JdNJxrxoIjDrA41RA/dTj2WKoDWY5C1y1eUP3G/5lokXoOyHvcSlW9xLRu4lwyq5yLk5399zmSERo7WvnXGwvfkHDlxtclOzD5TvfpIP/AGtB/wDIBsDw7qt9HR+3X8nJIZ1s04MOSfcojoTXUvXuVQZl7MgGfuVHeVNQxXlb/Nn+XBilLkoTUSOqEpSVnImtkzRWU+X0EeUKJzJcnFN2typ8TVZGO2Wo8+OmmEKKAubEtZQYlRE/LOKlITyeGcvGgDbCvhnSwwlY07LbbURWVbeAUa/Tr+So6d+gDb7aAKNO8OJSE7bMRT3MxrYGunCpKhDxiH6eNGAmxQ140QblRRwY0f8ALtEkY1xisLQstMqZA0lzbiRaSy+Wrjja1FbX6wmSnLQiQ5jT3G6nz43jMfAQ4JKY101hSxgN+bcUdSnlIPCWoq0PcCvGlFnJyqR490Roh5aNXRygoCAd3OI3aoDz5NPCpB5nlST9St3U63WBUxuW1ULwpzdliirTXcpprSvuhnmxpf5lu4lkwl7Tfq9FfV0aj4vRrVzvsu59n2OQt4arZI4Ktz2Zjb7TCti8Y/Kd71Ka8e0WteXaUcmCztkG7b7gD+y5RgycupXv0CV1hywE6cpe3SvfXULKpeg5VO/jpROFeQNaw/JXV/xu3cvUg/y/6mSGb8aBKwX2mtbPJAbL8ak+zQGygGjJi60PNvcsPscHp5V6nuUByazkUZs/kjke32mBGxQl4UaVsDuhhgxv+peeMlRV+zkB7smpHeulBj20CSo9CHykKBLO1M8A8urAyrqK6vEqbNzDCo3ttyDQi7qMG1IAGLqJ7dGeD1ZUZ4LyKGebGl/qZvvUmQ0e2jlPKktxZTZHbjQeSirOpPjUn3NK6J1Jif8Afpwo4jP2nEMKj+LaD2+R/wAtJaYDUg2H5Kc/xFzWF527+T/Uyg3H4ilK1B2tStvkgNt+NO8O6IZHycBkui3Nzu6/ClN3hy5GbA8WucQUnc3O3lLzE6jmGxiZhvGoawWvtFqVtXUP3G/6l54S1c885VS/bqDyleHLbZUbw5NbhTpOa6W7txof/XJvvNqIOacSz23KHlr6a6iHmxv+lfxBZ4zNpqZMeUvNHKb7+lKlmHbRzTLxjtwZ3NkAwMBjqw5SfGmq22KxCSigcs/CjkLDya9BrpKgxYdL8eTUgW6VJNS/KRIyoJjxpstje0oH8nJjVpDNjuLbQlmGocY2UzxqPKRKDcR9kubHhLzcfFkUfEOK0FUG4xp45K/xuL7g6FbsUwrdapoqUfDM6Rb7x0TOUvTN9JiLEO5sRZ0YHuY1oDMqzwarLNZeMlqzGpflWB7edJPGt1lH/XlG9ltJaOFG0BoyzW2gBG2rJ0dbGKxBKwp0RbV9sLT3eXF13PWcqFoEez3KBNNNig2yaDtHcLXVkK5LjfbfZDJtzYqpiI7ITY6bZrPPtiyZQwLwskjrkOmv+Nx3+kh1a4hW5WtzfY9WuvsYmcm/q1cwNfUtoWrKupD93UJprkhUhu6eVAZ7eNR9MaNR17fdTT3DyqPI2u0gkIo5CaOSGGIpVmvuUY79a1r2LqGeTG8uK7a9l60wmwZVttzIcThWI/WTIdrZbdK+fR1H9kuMMC8ayXxr5k/XcSlGWpCwF3S4wlpHTHTTT8RFoNbq/wAdzgJuUZkdkmFxHEapCbHYChubNl8pvv1HkM26dIZh28oiVs8lW1LV06OnLGjqPH3aww7awowWfbTo+3SQ9SokRLKdESvxlAP7eoJHZROMqC4f9pE0ndoQf5eVzt0a4I25EuyRFMwpFmh6swqz2qJbkfFP2XAYRJ/u5YWPc9JQWPPutYW4E/2X4WngGVGxh+QBuHjQt2Wbf4uJbqdrg5LTD1uJK3OGb1LRP+WSuRJzdkQBWFSE/uXUeRs0q7kAU6dkzKlR9xmdadnby7uRhn2kadhlBcmJ8Dubj8mv3q2E7dHE9oRVESNOgr8wgfy8uK7wQyUwB0ttpmxJrIabdbo8WO6fZpjLTdNLcf2cQTWSp/T1OiRCgYphTAQWg0yQNrvEfVOmvx0+P4Zfs0lO5Q+gnUq07irT8PHn6SHVhkwlSFC2DHZF4oWsuReXMP5cSJZLbXp41nSVbtB9hhyMNzykJJJ8wURrVkBjv48tfGof/LeXFsKQV6025cSTaLc2ImfHkTYllajYY3iG1x1/ZIiDGvjWSY10iMkvWVuiIDWQ6tIL33JQkOmI6D+I4xgzcW4XuqPFw7i/DfbWN0hGqiLiCAYIrhrh+WqT8wn8iMd7EsyHy3SPxkOw7Q5R050AYfgMAZ2lITt8lS9sMaN3qbghPD90idmOIQP5OV0tarkr4FMsnEA/FYweHr8r012axptYkev2ToMWavF77LalMxpVmtRHjVstkSEvTZ/NKlJhp3WlxFc5JtKLpxNdCL4VFvs9f64DBgaGHO9XQLVCa6lXTiK9SddVcNcSOlv1hTeUz39KjpYIepISwl+nySAmygDD7g+wwA193tsrZc7vo4+O0IhBX+6RBwDIIH8nLii+sgbUSJcbfcY0ZUuRDtryQlzLHd5KJutquH2cQ3VjpPRrnWlKIIMXaIcSU7B9ruZ2+frG/Pxa5mUZNW5ciNEh7cCJoi8SBKTCFyWvRw04327v58dfpIdWuDNgFbkrtSmI4jji7k7ulK5mCOp7nBFAajAvH7xr9v2TQXjUcGEmg19bHlr41D/5by4vFg3phEeZcPKoJcKaiCuRJ7uLYQL+w4OpX1ouiyIEiRMXVmhu+YAdMiP+abZDpiOn5r9bSnJBgTrhLJ3Z83HfjSaBy3r6WDbIXQQlJ+zii1suVv8ASjXC5wJKiZwva5s24/MZHKb2vpMwTDudKEPEzzLcojM/KO3A6A8/xHTjzZSZe2vuNwbm4ITkF5SJ3bguD/Lyv9jG6Cpip31EhesU7cF+WIR49gsDILGzZv2XS1BcA/ofDlxWzsCxXXLstdm6Qt5/4TPCmyDKg3CZ2g7A8C5PgRJHvfJbXUeMiMOKfsutxTbIjZDWzeIJ7NJKeHeIRmn0kjk1O86gWAeJh/2kR8O4K2TAc6jSMO0vwH2UZ9SWPIInZkRRzFlBA/7OgmHeMD+TlxFf/la9lFzK+AlUqXblXglBJXYr5JOS23XH7L/fGRj6aNOt70xFSiiRdNjqnQricR6Eu/DK9mgSw/FPoL1aXxybWn/r8PHn6OHpWjYtxjW5CrRGfE4hjJdyLy5kOe4NElPqjRtIhw5R5GPaX3Ge3UiQbOcfvXQ+9y18ah/8t5cWmwb0ynta6wqNkXWJ8ut43UtJQ8VKP7WxupvzVsWUJ7pqqkKYy1xhXLBixtKaDw0/CYZhjW09LO1xsdUeOXkX4eLba2fb/iqM+yxSQxnD8SXdrx8xdyM/UxoG/tM2j+1ztkKOQw/sjSMe0vsM9upEg3fYmQvbwLMFMyEJCDGpE3HsCB/Ly4ksGly25KpD54x9YJJdNatCGWWyyil/M7hz0DUqu9hlyT1kxPlN5is3Bjxb+kmEq08Ozt7rJ5AQfidL/wCoPdSm9+JUZisdTOVxTGUeCR4u+P8AxA4gjzCwP7J81ECI2Q596Ca/cXw5fIk5fTjyYsik18Mq+GFS1ME+YRBNedSE7LOUeRj2lyI8O4nOzPlHVu02JgGXIIrDo0sA8aCCZ+TojFVA/k5Xq9JtCcin8QcQaIVLq33PihwA9Vovek42x3cokfqX6LrUI8FfappH/VnUkZZK3x3FDTGitihrGPKJqymR+mfqH4JXs1gyo+mA6uZnk3OtK4qmmtao42wVRoitwibbJbhXKmOG1ATrBL6uArLnx0f9pFCmwWoiW1MW0hLicRLGVy/k5mG4DBrpB2+UGMBxVHVxD+5wEwMD7qAzopA7dGZ448lBmeNWoANjcrr6K14UMgdvGl4k5XIu6of/AC3lxdJZ86ZUuQ6VYFMdEkWyXAhRJEOO+0cRxU87P+qp6luHEwY7F6SiGsoqhE/1qqmCTCQIQzDVONXvX1lfgaGYY0GrIzKkMDwCOnI+XEtvKUlTxl3UFsjrj3BsaXJjv0uL+ulaCizQ9YVvUBc+MoLZUBbV9ZbJy4LJdn37zxF13M+5mNB3dtEWNSD2xopZGGPKO5uwoRnmW/lQAySddIwa6RmFbTNzGijOrpHFRgxLKtp4buM4yYjkDk7NayF5qKgcsqkSwDwg/wAvLi2yk4wmpbcYWsDoxiyrYvYJ1jt8u5XT5vM5JaaWaMFc+HJX8HKdbleOVsom24/IH28KdPhJ01NbnG9mZfgIdCraXz100LT4ayeG7dKPU6+koFQrLAhFkH2TJCI0drJFwnWl0vJXDc+2SU7MTlKNi30k2N8j9IO0zYzy5RIzCTlUscH41C863V1nQfqW1nWVS/epLkL942RnD/b0CWHRgwKCG86dHYnyg+DOV1uka1o3HTuJBezcGLxF8G1Z7zEui8Vco6SezQBjphJds6SCjIDIso/oUbY4s26aUdK8iMYkntKTHKM3Av8AE46ca4UUKss2fKlLj62ybo3iVbE8pA5y1Dz6cDc2jSxNaVEH0FVO7ptJtokGdBARlXQLr5amghrCujSfjJgCntLiHtSuuHD/AFPJMn08SRk53dRhmvEofi3lxfNYV30WU+UUyxIYViHoRhySjyTjcVmQ8rP+rpweu1wPMZe4wT8rdTQdGY1ytW78qGRT8dsKvXuq/wAXjiMx8BDQiTI8S0zMeFozH3aMQ8pZ4PUdAe6vIfjoAZEUj1GlXUeniVRHASFVOP8Au63coSsawrDkr3dKvrRBisr0l8lKgTYo0iN1O9QFG2cq1kLAlV8dDqRIWoKg/wAvLjGysKQictx2XS19IELiNy2Qxda4p3i+NuXOO4kM0YMaTEdukQLiAnVI6jG9CjQhlNCMa9BoyiRu4pLzkszL8si72+MeJ/UNrqLcoUv2fsl7HTt6mafDXUelw6Vn6b/x3Kd79KU8u4Gqf5FzSOC8ak57ncH/AOfF5d/LCtK4lL2qggWVTNC2+WyyiBg+QJkFRpYHuQfBnKZIjRkalJnXPhgnZDGuXDAM7rdLgykZQ+QAbDwGLbo2e250OAheRlDtwLzIIttJmFHFgAzbKTb4pLyW0DSeJfk4luJQo2yq2w0sRqyXbYa2XLVD3baYvULtUvrYSnfZxvJYqChK40cdi29HaWjE4l0XD5PDKWoa8K8qOP6+NHDw5J9tVSDzl1r+iVyzZQFWVaVdwWwlVCL3anF6PKPIWQ93psdyMANeJQ/FvLjG5MbcNI1XFiJdjjtXEgvVaYZQ7ROnQr+CX8rQGUqm6YyWuGVr1O4Q+boQsniIrAqaDkO0cuQ4XLhkN6D4PV+XiuGx3TvB82FC6ZBaDEO59TpJY5kCRpO4djHFtytD58cJYyFDYImRBBZAggiVxStsPlLPB6joD3Ar/ga6j12lRyxNfJPtqqX2PyoLoGO3XzJNfMgr5qFfNa+b0dy3PKD/AC1L9nkARtvKt1YGqte+pDVqXUPxby4wtjNLgEinxoeln6Sl9JcLfCWUFPze/KNPKJI1jP0ZSdh+6QqhgpLU06NmtVBGYbNxzUuM/TcpCEqymyOpdn+E2gHl1SaE9C8aaoHr1WdwsUBDK+WRatdihEzRxaaaafZMUh0doyJ0Kwrf6XDcK0oi5weUsNx2IpjsCmoYdGBrLu5KaXSZUbTZ5fcoo2x3JaQs7Jxl/QeQJYdKjsKlKwDtdFM+6ofizlPVEOM0Zc2NwxuenHj8M7nfaVW1Ub+w5yrgFuTvEXGF5dvMjDxrei7abxdfYxaC2NxNfdR3nInDPVvDyOaGniE3KhMT+xx4Lyoz3KSrMqBwg/tq/wByKAjBUGCM1b3y4MMWyJC3ASFo1lwrZL62Gp32caTGRoC1LZHt0EoMV1n1faOI+iXyIO/m5O7RxCDu5AP9p+Eal/xckmvbr9+PLHKh0/dy4xuplNVB0uAwGWmO+Lr01ohwc4EwbZe0pTz4tkM3UpqEJREw16ETbfMaI3LTfl20WdZI+d7VcP8Aoz7lGCph9mPJPor3dY7j1f8AZKDcTSQWfpkYbCcKUGTMeXFiGF0rBc2JB6KOyRvx5/URJJmm3P3OG0mi3Kz58dgesKMdQfnBDCZIgv8AmPFK5C+RH6nM2gvuI5a/V5HmuIvnlj98ruUohoEDhnQeWVHXxxXlQdvby4wgtC571Oibdj2KckbvFtTBjKG48QQgjc+ILcckVSVyLxL1fpsyZ0SZK0c2dPjSemYnS4xCkdTpw/AdGFsl9SwzXSTX7bJLMy2wiBkzL7Tif1yDpXs9xMcE8pEdUlW02ZwvM1ZmnTh28aVE4bebNGTwAFhoA850NE+M2O6RwRL3MY1k4cRZ+7mSu/KsNf26Az9zo+9XQhXQjTUbq9AroRroRroQroQroRroRroQroQroQo0Zp266AK6IaUrDTGsWVjQBjynW+NcE7Uh3AqyP4qXwGsT7rZaYtpThH+xtqt7jyP5La6+S2ulWq3pPJfM4qzro10AYf8A8ANk49odYyurdXWNrq3V1p0qQJ8tS0AcincT7bNuJ9Vz6+rJ9fVdxoOJ7oxerB+q7hX1XPq2cSKllsyOUS1bg5u+TxK+TxP2y7YaO4PwWywMmjvO04TtxV9J26vpK3UHCduZ4nwlbhq5WJsEd5VOctC9WMncZs3NRgfXFzr64udacZXli9XafXFzrTjW8EOpV9cXOg45udWXiKNdtMPzOPEKj5etiWW3pl8MXZ1h625Si7O4AxZkbDxfoXLiSQxFuLbtDAhobLN1u/8AK6R6O2wSXI2YkSEzaElRzjRbught8JAx9JA2jRT5gunw40ZMd6bTIOTb47St6hdLUJSwxkZOk7HSabatnqUdPG7imVLDakND74StGy46quCNmRHJnWRokDejpuL+oWtyJ0qSTKiyGFAWUcJ7HlNjuiLW20x1saGDmjXG0xiIio67TswYUXcjWYX3aRBYm02+TMatOqoC7BcShy7WpE23x60gsipv6R+TWtS4RSVWERlzFuRGSgY9ztoFkI6/lMMwxr2N0eW8vYxrP0Kz9PGmuyDTHT1naY1eYXXwmrGVcSiLVFSVzQ9tukMjyVg2bkmfEFMLE7ig/m3wORAmDCY6NMW5lxk6zoRzdI7UwY3SREpqM7ZeplatezuTrEZ02NCrb0oNek6hjHO3nNP70N2XpcKpzpatGR/lL+iYuoiS0dlUOOaEarLW3ywhrWMe3vF0xtPlLtVrWLiLcPU64otZXCHoa7jfmJcCoel2g9eqYVnnR47pIvbJtca1TIcfrLO50Ga9l1jMG/VPmx3laCXpdoDZt2FlmiRmq0gxB0xHTT8xqA/LpE10ia6VVdImukTQAAePKXaIUzXJv0xa6+mLXX0xa6+mLXX0va6jWCHGLJSo60/15x5b43t/N5dfN5dPlvk+5+CJPlwjyR9UXWvqi6V9UXWvqi619UXWpcyVMPN3KZw7a57N1v0ZZ6+jLPX0XZ6+jLPX0XZ6+jLPQcGWcaiQYsFW1G/+M//EAEcRAAEBBAUGCgQMBgMAAAAAAAMAAQQTMwIgIzBDBRAREkBTISIxMkJQY3OSohRBUrIkNFFgcXKCkaPC0eJUYoGDsfBEcID/2gAIAQMBCT8A/wC0SIucqJdlzF6933V4kLrCzGn38NPv4afPIqFSWNO4oCsy7MVF298Na/QixGDnL4vhVd6nZnA5kb1s1b5YnuKVMFVw0+s0nAQWjjKnEAP13QkPqrSQadwp3CncK01Jayd59RChNHhdaYiYiw4SF3qkDXPqdMycgk0hGQzS9ouATS+/XF1e1vQ91Mt5SlktRVcMyfQj1AjGZhezUihsQkLqIcWinJZPTkrMXyVGWaLDQq4rkfz2mVB3GH1kK/F1yKoX50viLEHtbUdH8qLEHVKhNTrT2jEWUvhBezUum2HsREW4kjnJzhEdmRZmup8EilEbVw2w0y1dP9pITFwadEX82z71O7exF+db6vMzDQ7gSFcf8mH+iFzpxv8Aeih2cElBCltiVZc1CDDLN4ifYfCrSFytvC3j6yGzgmIsV4JUEhXokKoKp96y8JZeEqcVpMWrLRTIplo2eYRZW+Fk9XG966EhbCeGPGTwaK6b1FNrn5IXsI8R0LJqyxqa7zU5hJpbiKXTms2ffJybH337UWJbXEzY8eGgtpFLON+VAiMgwvoprAGKN9irLmoEONNaihiDk8fzIsUhLwV3Nwk5sicjGwvzKbs1nVsyjlF9lZViD7xZRhi7xEinJylrZWWV1x+12B3shpidtA6szCROZu+IpmFUKibNPInmJEbyRFlH0eLJYm6SYTasugm2o5qKm2GnYBTjW31FhsIn2JDmrDqb5A00TMimL7tBCh2219mv4wnusUeKCzZCxF0GDqy5qKb4QhcAzIUw1/MEtIB0MJCtIMM386djW/LVmDVIjYeEpdDa9HpA1k4EPsxrJzO9IP8AM1Wj2SqWGRECnn8RFim2B3YROaCwdbJ9l6rNUIR9r+MkTwW0T7D08kUi+NDq89PDSFxWJ5aJHihLKLs+9WVGgOMMPQpgzbX2a/jCe6xWbdNjC9j+dTCFHo7urvdKfIkf1an3JksxFN/deCu+cNOR/SBM3nE0rkG2JWmbCSoy2F51kWHQ7un+qyT6RBk85TMIW7qsaMyczRO7TuaITs0xsTYBRU5edUGiJV5tBZGFTYgwCjwtrmKhDARDYQX2UOG8jwqgk7w07xBoaZMQL7ETOF7LD+wpg1oilb5Fh1N8sohdIgYnOmU6amxtrw4aLEb6YT3WJ4MAo1T19Jffr7pdouUd9hKFDF2aJMnKXKEplTCRTAO7ihd4hWA9lFWBE3qcWsxZn7Vk9pD94gwx4LKpUVFRVMuxVKENFKhWlWWslth/ShQWjwqgkK9LDTxEucjB/uDWRnT+g1ZEHg1JiAhTE7p3QIezb5UxwqHC2zoy2f0VnRIa7l5ioqLmHdSxpjGW5GeVM0lOaEL6nSprpGh1MNYYc+52fDKvjhWwvoGsPYdyhRECHcS8ZPpuAzSy0IMIXZ8OohaAD5lRsxFTxLT6nhHiX508f5R2VZSEaGv7vt7DuR3RWUBrJ0TyLJPn11SZDqU7RDQ8w7+YRc4tmHM7ejEGariFWTgnARnwkvyU+l9CLZEN5Nh3N1KGnMIrbR5UEccvDGLq+DjKziWZamG1Ya3KmaVaLfX4okLtE1loGKLvFMwliWlTDMn0AgDEzSyJqcfpa/tKXFvh3ssiyoCKMzS9L5E/CEQG8TLB2YO2+XUqFm5uUaLER0WXf5SYPvFlUSfY9WUspGYP6muixe1qERdiLUlp8N4FlE3gUuoVCshoiZD+9AbBRYlQVxLzTCKnaEsxfXUsSjDIJtXFTlFjhHFN3nsKRL2uQOcgQ7eFp6fNTmEpj2jYq4HV7YNujvKktAs3mcplBYgRqVFhKXd4lRpdcehvB7aFEjsiJ2hUyrEqb5CD6MPGLqcSguZG2UtaWRPAIzDNLMo+ynkEQAoRmNJ5laAdGDte7qC4wvcRIYmISYWIBO7Y/k11MNdlqHiKn+InjWqyyJ9sO0RIhKhEXOTMREREREREVFRc5cxKg09J88io1XVic2JzYnWh/wCDxRUEKCFBCncPmQQoIVZkz04aeE8LhuSwhJ4MngyeDJ4MngyJFBm5GIGkdDeIAUAKdxQu7pIAU7h8yAFACrMuwTM+IsPPiIfK2F+qllTxaiRDRCLDh/5RbQ6LZBReEmcVgpebe3GIZiFEdNHgUvCUK0ZhoFknb1oVoMK3K+VYiocL+aEXu+aiwqA4nkT5YCDFMVHiMjDRZ7BfiIrYYvPxk+N13sKeLB0mp44BnYwzNnmJktnnU0c1YoUUo2gm9osXkRYZBWal6BsRIkSzWHmtBqZdYbUNhBkYpkaLo6CcwjXrKRYZkKHECuWgHNMGpYGM5RrlpurWG7zVUg4WiRWkIRo2opogAjZB7tcjzK8SwAsG1aYD2zlWkjCGimL6uJsrM4kwqjeJRvEo3iUZEN4qlPPTuTaqp0E0Sp0FToKnQRdbOC0TDeNMN41G8ajeNRvGo3jTDeNCh0Pmb//Z;" vertex="1" parent="1">
                    <mxGeometry x="260" width="1000" height="834" as="geometry"/>
                </mxCell>
                <mxCell id="3" value="" style="whiteSpace=wrap;html=1;fillColor=light-dark(#FFFFFF,#F5F5F5);strokeColor=none;" vertex="1" parent="1">
                    <mxGeometry x="1260" y="-1" width="240" height="833" as="geometry"/>
                </mxCell>
                <mxCell id="5" value="" style="whiteSpace=wrap;html=1;fillColor=light-dark(#FFFFFF,#F5F5F5);strokeColor=none;" vertex="1" parent="1">
                    <mxGeometry x="20" y="-1" width="240" height="833" as="geometry"/>
                </mxCell>
                <mxCell id="7" value="Row 0" style="text;html=1;align=center;verticalAlign=middle;whiteSpace=wrap;rounded=0;fontColor=light-dark(#000000,#3333FF);fontSize=49;fontFamily=monospace;" vertex="1" parent="1">
                    <mxGeometry x="20" y="104" width="240" height="50" as="geometry"/>
                </mxCell>
                <mxCell id="8" value="Row 1" style="text;html=1;align=center;verticalAlign=middle;whiteSpace=wrap;rounded=0;fontColor=light-dark(#000000,#3333FF);fontSize=49;fontFamily=monospace;" vertex="1" parent="1">
                    <mxGeometry x="19" y="145" width="240" height="50" as="geometry"/>
                </mxCell>
                <mxCell id="9" value="Row 2" style="text;html=1;align=center;verticalAlign=middle;whiteSpace=wrap;rounded=0;fontColor=light-dark(#000000,#3333FF);fontSize=49;fontFamily=monospace;" vertex="1" parent="1">
                    <mxGeometry x="21" y="397" width="240" height="50" as="geometry"/>
                </mxCell>
                <mxCell id="10" value="Row 3" style="text;html=1;align=center;verticalAlign=middle;whiteSpace=wrap;rounded=0;fontColor=light-dark(#000000,#3333FF);fontSize=49;fontFamily=monospace;" vertex="1" parent="1">
                    <mxGeometry x="22" y="443" width="240" height="50" as="geometry"/>
                </mxCell>
                <mxCell id="11" value="Col 0" style="text;html=1;align=center;verticalAlign=middle;whiteSpace=wrap;rounded=0;fontColor=light-dark(#000000,#FF3333);fontSize=49;fontFamily=monospace;" vertex="1" parent="1">
                    <mxGeometry x="22" y="496" width="240" height="50" as="geometry"/>
                </mxCell>
                <mxCell id="12" value="Col 1" style="text;html=1;align=center;verticalAlign=middle;whiteSpace=wrap;rounded=0;fontColor=light-dark(#000000,#FF3333);fontSize=49;fontFamily=monospace;" vertex="1" parent="1">
                    <mxGeometry x="22" y="546" width="240" height="50" as="geometry"/>
                </mxCell>
                <mxCell id="13" value="Col 2" style="text;html=1;align=center;verticalAlign=middle;whiteSpace=wrap;rounded=0;fontColor=light-dark(#000000,#FF3333);fontSize=49;fontFamily=monospace;" vertex="1" parent="1">
                    <mxGeometry x="23" y="598" width="240" height="50" as="geometry"/>
                </mxCell>
                <mxCell id="14" value="Col 3" style="text;html=1;align=center;verticalAlign=middle;whiteSpace=wrap;rounded=0;fontColor=light-dark(#000000,#FF3333);fontSize=49;fontFamily=monospace;" vertex="1" parent="1">
                    <mxGeometry x="23" y="647" width="240" height="50" as="geometry"/>
                </mxCell>
                <mxCell id="15" value="Col 4" style="text;html=1;align=center;verticalAlign=middle;whiteSpace=wrap;rounded=0;fontColor=light-dark(#000000,#FF3333);fontSize=49;fontFamily=monospace;" vertex="1" parent="1">
                    <mxGeometry x="1259" y="296" width="240" height="50" as="geometry"/>
                </mxCell>
                <mxCell id="16" value="Col 5" style="text;html=1;align=center;verticalAlign=middle;whiteSpace=wrap;rounded=0;fontColor=light-dark(#000000,#FF3333);fontSize=49;fontFamily=monospace;" vertex="1" parent="1">
                    <mxGeometry x="1260" y="348" width="240" height="50" as="geometry"/>
                </mxCell>
                <mxCell id="17" value="Col 6" style="text;html=1;align=center;verticalAlign=middle;whiteSpace=wrap;rounded=0;fontColor=light-dark(#000000,#FF3333);fontSize=49;fontFamily=monospace;" vertex="1" parent="1">
                    <mxGeometry x="1260" y="397" width="240" height="50" as="geometry"/>
                </mxCell>
            </root>
        </mxGraphModel>
    </diagram>
</mxfile>